<?xml version="1.0" standalone="no"?>
<!DOCTYPE svg PUBLIC "-//W3C//DTD SVG 1.1//EN" "http://www.w3.org/Graphics/SVG/1.1/DTD/svg11.dtd" >
<svg>
<metadata>
Created by FontForge 20120731 at Sat Jun 29 15:05:40 2019
 By www
Copyright (c) 2013 by Jos Buivenga. All rights reserved.
</metadata>
<defs>
<font id="TensoW00-Regular" horiz-adv-x="550" >
  <font-face 
    font-family="TensoW00-Regular"
    font-weight="400"
    font-stretch="normal"
    units-per-em="1000"
    panose-1="2 0 0 0 0 0 0 0 0 0"
    ascent="800"
    descent="-200"
    x-height="494"
    cap-height="675"
    bbox="-73 -213 977 904"
    underline-thickness="50"
    underline-position="-75"
    unicode-range="U+0020-FB03"
  />
<missing-glyph horiz-adv-x="482" 
d="M0 0v675h482v-675h-482zM241 381l164 246h-328zM270 337l164 -245v491zM48 92l164 245l-164 246v-491zM77 48h328l-164 246z" />
    <glyph glyph-name="uniFB00" unicode="ff" horiz-adv-x="689" 
d="M196 428v-428h-85v428h-86v66h86v75q0 158 159 158q82 0 119 -36t17 -96l-76 -10q17 37 -1 58.5t-61 21.5q-20 0 -38 -8.5t-26 -32t-8 -59.5v-71h229v85q0 158 159 158q82 0 119 -39t17 -103l-76 -10q17 42 -1 66t-61 24q-20 0 -38 -8.5t-26 -32t-8 -59.5v-81h157v-66
h-157v-428h-85v428h-229z" />
    <glyph glyph-name="uniFB01" unicode="fi" horiz-adv-x="569" 
d="M407 0v428h-211v-428h-85v428h-86v66h86v75q0 47 20 87t62 60.5t95 20.5q78 0 121 -40t27 -102l-86 -10q11 42 -7.5 66t-56.5 24q-43 0 -66.5 -30t-23.5 -80v-71h296v-494h-85z" />
    <glyph glyph-name="uniFB03" unicode="ffi" horiz-adv-x="890" 
d="M425 0v428h-229v-428h-85v428h-86v66h86v75q0 158 159 158q82 0 119 -36t17 -96l-76 -10q17 37 -1 58.5t-61 21.5q-20 0 -38 -8.5t-26 -32t-8 -59.5v-71h229v75q0 47 20 87t62 60.5t95 20.5q78 0 121 -40t27 -102l-86 -10q11 42 -7.5 66t-56.5 24q-43 0 -66.5 -30
t-23.5 -80v-71h303v-494h-85v428h-218v-428h-85z" />
    <glyph glyph-name="f_j.liga" unicode="fj" horiz-adv-x="568" 
d="M406 2v426h-210v-428h-85v428h-86v66h86v75q0 47 20 87t62 60.5t95 20.5q78 0 121 -40t27 -102l-86 -10q11 42 -7.5 66t-56.5 24q-43 0 -66.5 -30t-23.5 -80v-71h295v-484q0 -65 -15.5 -117.5t-54 -79t-93.5 -26.5q-36 0 -72 14l12 74q25 -15 54 -15q42 0 63 33t21 109z
" />
    <glyph glyph-name=".notdef" horiz-adv-x="482" 
d="M0 0v675h482v-675h-482zM241 381l164 246h-328zM270 337l164 -245v491zM48 92l164 245l-164 246v-491zM77 48h328l-164 246z" />
    <glyph glyph-name=".null" horiz-adv-x="0" 
 />
    <glyph glyph-name="nonmarkingreturn" horiz-adv-x="333" 
 />
    <glyph glyph-name="space" unicode=" " horiz-adv-x="231" 
 />
    <glyph glyph-name="exclam" unicode="!" horiz-adv-x="255" 
d="M100 190q0 5 -0.5 23t-10 204t-9.5 258h95q0 -89 -10 -274.5t-10 -210.5h-55zM74 0v106h106v-106h-106z" />
    <glyph glyph-name="quotedbl" unicode="&#x22;" horiz-adv-x="368" 
d="M85 454l-30 261h101l-30 -261h-41zM242 454l-30 261h101l-30 -261h-41z" />
    <glyph glyph-name="numbersign" unicode="#" horiz-adv-x="646" 
d="M342 0l33 180h-162l-33 -180h-68l33 180h-107v67h120l33 180h-104v67h117l34 181h68l-34 -181h162l34 181h68l-34 -181h106v-67h-119l-33 -180h103v-67h-116l-33 -180h-68zM259 427l-33 -180h162l33 180h-162z" />
    <glyph glyph-name="dollar" unicode="$" 
d="M246 -107v108q-47 3 -86.5 17t-66 39t-37.5 60.5t-3 78.5l84 10q-8 -33 -0.5 -60t34 -47t75.5 -26v234q-75 26 -112.5 51t-55 60.5t-17.5 79.5q0 74 49 121t136 54v109h51v-108q64 -3 107.5 -26.5t66.5 -68t14 -108.5l-91 -9q6 50 -7 82.5t-38.5 45.5t-51.5 16v-228l5 -1
q116 -39 157 -85.5t41 -107.5q0 -36 -11 -64t-30.5 -51.5t-59.5 -44t-102 -24.5v-107h-51zM413 178q0 37 -30 64t-86 47v-216q61 4 88.5 33.5t27.5 71.5zM148 501q0 -28 19.5 -55.5t78.5 -50.5v210q-24 -3 -48 -15t-37 -36t-13 -53z" />
    <glyph glyph-name="percent" unicode="%" horiz-adv-x="702" 
d="M230 527q0 59 -18 84t-46 25q-64 0 -64 -109q0 -61 18 -86.5t46 -25.5q27 0 45.5 26t18.5 86zM297 528q0 -53 -15 -89t-44 -55.5t-72 -19.5q-60 0 -95.5 40t-35.5 123t35 121.5t96 38.5q37 0 65 -14t47 -48.5t19 -96.5zM201 0l228 675h68l-228 -675h-68zM600 151
q0 59 -18 84t-46 25q-64 0 -64 -109q0 -61 18 -86.5t46 -25.5q27 0 45.5 26t18.5 86zM667 152q0 -53 -15 -89t-44 -55.5t-72 -19.5q-60 0 -95.5 40t-35.5 123t35 121.5t96 38.5q37 0 65 -14t47 -48.5t19 -96.5z" />
    <glyph glyph-name="ampersand" unicode="&#x26;" horiz-adv-x="665" 
d="M38 171q0 32 14 65.5t47 65t81 60.5q-19 37 -31 76.5t-12 74.5q0 51 23.5 91t62 61.5t89.5 21.5q73 0 116 -39t43 -103q0 -27 -13 -59t-51 -65t-121 -78q36 -57 83 -114q32 -43 74 -82q25 33 39 73.5t14 80.5q0 32 -6 49l72 -10q6 -21 6 -46q0 -48 -19 -98.5t-52 -91.5
q23 -16 49 -25.5t48 -9.5q25 0 46 11l-10 -79q-24 -7 -49 -7q-72 0 -144 52q-79 -58 -177 -58q-24 0 -53.5 5t-58 18t-54 35.5t-41 56t-15.5 68.5zM265 59q31 0 62 9t55 24q-36 34 -78 85q-53 64 -90 124q-47 -30 -67 -58.5t-20 -62.5q0 -38 23 -68t55.5 -41.5t59.5 -11.5z
M223 515q0 -48 30 -111q57 32 83 50.5t36.5 38t12 31.5t1.5 17q0 34 -21.5 56t-57.5 22q-42 0 -63 -30.5t-21 -73.5z" />
    <glyph glyph-name="quotesingle" unicode="'" horiz-adv-x="211" 
d="M85 454l-30 261h101l-30 -261h-41z" />
    <glyph glyph-name="parenleft" unicode="(" horiz-adv-x="284" 
d="M207 -150q-39 24 -78 91t-58.5 158t-19.5 199t19.5 198.5t58.5 157t78 90.5l44 -51q-24 -18 -54.5 -69.5t-49.5 -136.5t-19 -189q0 -57 6.5 -115t23 -116t43 -103t50.5 -63z" />
    <glyph glyph-name="parenright" unicode=")" horiz-adv-x="284" 
d="M77 -150l-44 51q18 13 41.5 48.5t42 87t29 117t10.5 144.5q0 104 -19 189t-49.5 136.5t-54.5 69.5l44 51q39 -24 78 -90.5t58.5 -157t19.5 -198.5t-19.5 -199t-58.5 -158t-78 -91z" />
    <glyph glyph-name="asterisk" unicode="*" 
d="M313 735v-182l171 57l23 -72l-172 -55l106 -146l-61 -44l-106 146l-106 -145l-60 44l106 146l-171 56l23 71l172 -56v180h75z" />
    <glyph glyph-name="plus" unicode="+" 
d="M49 234v74h186v186h74v-186h190v-74h-190v-190h-74v190h-186z" />
    <glyph glyph-name="comma" unicode="," horiz-adv-x="254" 
d="M73 0v114h111v-145q0 -51 -27.5 -90.5t-79.5 -55.5l-22 49q18 4 36 17t27.5 37.5t9.5 51.5v22h-55z" />
    <glyph glyph-name="hyphen" unicode="-" horiz-adv-x="383" 
d="M68 219v85h247v-85h-247z" />
    <glyph glyph-name="period" unicode="." horiz-adv-x="242" 
d="M68 0v114h106v-114h-106z" />
    <glyph glyph-name="slash" unicode="/" horiz-adv-x="344" 
d="M29 -42l200 756h86l-202 -756h-84z" />
    <glyph glyph-name="zero" unicode="0" horiz-adv-x="577" 
d="M59 341q0 91 17 158t47.5 108t72.5 60.5t93 19.5q50 0 92 -19t72.5 -60.5t47.5 -108t17 -157.5q0 -92 -17.5 -160.5t-48.5 -111t-73 -62.5t-91 -20q-50 0 -92 20.5t-72.5 63.5t-47.5 111t-17 158zM150 340q0 -133 34.5 -203.5t103.5 -70.5t104 70.5t35 203.5
q0 269 -139 269q-138 0 -138 -269z" />
    <glyph glyph-name="one" unicode="1" horiz-adv-x="458" 
d="M67 0v74h146v462q-49 -52 -165 -52v79q41 -4 84.5 9t71 41.5t40.5 61.5h60v-601h126v-74h-363z" />
    <glyph glyph-name="two" unicode="2" horiz-adv-x="536" 
d="M52 0v66q116 82 177.5 141t95 111t45 93.5t11.5 73.5q0 66 -34 100t-85 34q-24 0 -51.5 -11.5t-45 -43t-17.5 -74.5q0 -28 7 -55t16 -44l-93 10q-8 15 -14.5 40t-6.5 51q0 58 27 102t72.5 68.5t108.5 24.5q95 0 153 -54.5t58 -142.5q0 -46 -20 -101.5t-63 -113
t-102.5 -110.5t-122.5 -89v-2h313v-74h-429z" />
    <glyph glyph-name="three" unicode="3" horiz-adv-x="535" 
d="M49 192l80 10q-6 -21 -3.5 -45.5t16.5 -46.5t41 -38t64 -16q34 0 67 17t52 58t19 97q0 73 -34 113.5t-98 40.5q-54 0 -96 -38l-43 47l238 210h-280v74h374v-86l-174 -154q43 4 81.5 -8.5t67 -40t44 -68.5t15.5 -90q0 -53 -18 -98t-50 -76.5t-75 -48.5t-91 -17
q-43 0 -83.5 14.5t-70 42t-41.5 65.5t-2 82z" />
    <glyph glyph-name="four" unicode="4" horiz-adv-x="551" 
d="M30 165v66l315 444h81v-436h85v-74h-85v-165h-89v165h-307zM120 239h217v301z" />
    <glyph glyph-name="five" unicode="5" horiz-adv-x="523" 
d="M74 339l35 336h325v-74h-258l-19 -181q39 46 114 46q35 0 71 -11.5t66 -39.5t49.5 -73t19.5 -107q0 -54 -17 -100t-47.5 -79t-72 -50.5t-89.5 -17.5q-56 0 -109 26t-77.5 75t-14.5 103l80 10q-10 -61 25 -103.5t95 -42.5q39 0 71.5 21.5t46.5 62.5t14 87q0 79 -35 124
t-96 45q-27 0 -51.5 -8t-38.5 -24t-19 -34z" />
    <glyph glyph-name="six" unicode="6" horiz-adv-x="560" 
d="M58 334q0 171 65 262t182 91q57 0 104 -23.5t66.5 -67.5t11.5 -93l-91 -9q6 41 -4 68t-33.5 42t-55.5 15q-33 0 -61 -16t-49 -51t-32.5 -91t-11.5 -131q25 51 62.5 76.5t96.5 25.5q87 0 142.5 -59.5t55.5 -157.5q0 -46 -13.5 -87t-41 -72.5t-69.5 -49.5t-95 -18
q-55 0 -98.5 24t-72.5 69.5t-43.5 110t-14.5 142.5zM155 245q0 -23 8.5 -56t18.5 -54q37 -79 111 -79q31 0 59 17t43.5 57t15.5 83q0 27 -9 61.5t-38 59t-77 24.5q-31 0 -61 -12.5t-50.5 -40.5t-20.5 -60z" />
    <glyph glyph-name="seven" unicode="7" horiz-adv-x="502" 
d="M41 498v177h436v-89q-108 -169 -170 -312t-77 -274h-99q10 91 63 225.5t125 247.5q42 66 88 124v4h-284v-103h-82z" />
    <glyph glyph-name="eight" unicode="8" horiz-adv-x="560" 
d="M53 178q0 68 34 111t95 69q-96 59 -96 155q0 51 25 89t71.5 61.5t106.5 23.5q41 0 71.5 -10t55 -27t43.5 -49t19 -77q0 -44 -17.5 -78t-43.5 -53t-48 -28q45 -21 75 -45.5t46.5 -56t16.5 -74.5q0 -39 -15.5 -75.5t-44.5 -65t-71 -44.5t-93 -16q-44 0 -85.5 12.5t-74 36.5
t-51.5 60t-19 81zM415 171q0 17 -4.5 33.5t-16.5 33.5t-32.5 31.5t-41.5 24.5t-48 21.5t-35 15.5q-28 -14 -52 -36t-35.5 -51t-11.5 -59q0 -41 18.5 -69.5t52.5 -44t74 -15.5q65 0 98.5 34.5t33.5 80.5zM178 523q0 -39 26.5 -69t105.5 -63q22 11 42.5 30.5t30.5 46t10 50.5
q0 44 -27.5 72.5t-78.5 28.5q-38 0 -64.5 -16t-35.5 -38.5t-9 -41.5z" />
    <glyph glyph-name="nine" unicode="9" horiz-adv-x="558" 
d="M55 460q0 46 13 87t40 72.5t68.5 49.5t94.5 18q55 0 98.5 -24t72.5 -69.5t43.5 -110t14.5 -142.5q0 -171 -65 -262t-182 -91q-92 0 -143 52.5t-37 131.5l80 8q-7 -41 4 -68.5t37 -41.5t61 -14q33 0 61 16t49 51t32.5 91t11.5 131q-25 -51 -61.5 -76.5t-94.5 -25.5
q-87 0 -142.5 59.5t-55.5 157.5zM150 462q0 -27 9 -61.5t38 -59t77 -24.5q31 0 60.5 12.5t49 40.5t19.5 60q0 23 -8.5 56t-18.5 54q-37 79 -111 79q-23 0 -42 -8t-34 -24t-27 -48.5t-12 -76.5z" />
    <glyph glyph-name="colon" unicode=":" horiz-adv-x="242" 
d="M68 0v114h106v-114h-106zM68 380v114h106v-114h-106z" />
    <glyph glyph-name="semicolon" unicode=";" horiz-adv-x="271" 
d="M88 380v114h106v-114h-106zM83 0v114h111v-145q0 -51 -27.5 -90.5t-79.5 -55.5l-22 49q18 4 36 17t27.5 37.5t9.5 51.5v22h-55z" />
    <glyph glyph-name="less" unicode="&#x3c;" 
d="M58 235v72l410 194v-82l-317 -148l317 -148v-82z" />
    <glyph glyph-name="equal" unicode="=" 
d="M70 129v74h410v-74h-410zM70 339v74h410v-74h-410z" />
    <glyph glyph-name="greater" unicode="&#x3e;" 
d="M491 307v-72l-410 -194v82l316 148l-316 148v82z" />
    <glyph glyph-name="question" unicode="?" horiz-adv-x="473" 
d="M181 190l-4 61q0 35 17 66t71 71q29 21 45.5 39t24 42t7.5 47q0 36 -14 60t-39 33.5t-55 9.5q-47 0 -72.5 -20.5t-30 -58.5t14.5 -94l-96 15q-17 50 -11.5 92.5t31.5 72t70 45.5t100 16q68 0 112.5 -21t66.5 -56.5t22 -85.5q0 -35 -12 -66.5t-36 -56t-55.5 -45.5
t-32.5 -22q-37 -26 -50.5 -51t-15.5 -52l-3 -41h-55zM154 0v106h106v-106h-106z" />
    <glyph glyph-name="at" unicode="@" horiz-adv-x="908" 
d="M250 165q0 39 11 87t29 86.5t35 61.5q63 85 154 85q39 0 69.5 -17.5t43.5 -49.5l44 56h36l-85 -317q-20 -77 36 -77q30 0 59 21.5t51 59.5t34.5 88t12.5 102q0 65 -19.5 116.5t-55.5 86.5t-87 53t-112 18q-88 0 -161 -36t-122.5 -96t-75.5 -133.5t-26 -146.5
q0 -65 21 -126t57.5 -102.5t80 -66t90.5 -34t86 -9.5q57 0 112.5 14.5t91 38t54.5 44.5l15 -77q-54 -40 -125 -63.5t-153 -23.5q-95 0 -171.5 32.5t-127.5 88.5t-77 129.5t-26 153.5q0 64 17 129.5t50.5 123.5t87 109t130.5 82t169 31q75 0 139 -21.5t111 -64t73 -106
t26 -142.5q0 -68 -19 -130t-52 -108.5t-77.5 -72t-92.5 -25.5q-47 0 -77.5 24t-34.5 60q-17 -38 -50.5 -61t-75.5 -23q-36 0 -64.5 17.5t-43.5 50.5t-15 80zM397 84q54 0 106 73l60 224q-10 14 -29 25.5t-44 11.5q-18 0 -43.5 -11t-49.5 -46.5t-40.5 -90.5t-16.5 -105
q0 -81 57 -81z" />
    <glyph glyph-name="A" unicode="A" horiz-adv-x="610" 
d="M21 0l238 680h91l239 -680h-96l-58 168h-275l-57 -168h-82zM258 451l-72 -209h223l-72 209q-19 53 -38 119h-4q-18 -66 -37 -119z" />
    <glyph glyph-name="B" unicode="B" horiz-adv-x="607" 
d="M88 0v675h231q67 0 114.5 -18.5t73.5 -54.5t26 -90q0 -63 -35.5 -100.5t-93.5 -48.5v-2q71 -11 111.5 -52.5t40.5 -113.5q0 -59 -28 -101.5t-80 -68t-121 -25.5h-239zM178 391h122q136 0 136 110q0 52 -31 77.5t-95 25.5h-132v-213zM178 71h131q27 0 62.5 9t61.5 38.5
t26 79.5q0 32 -15.5 61.5t-53.5 45t-81 15.5h-131v-249z" />
    <glyph glyph-name="C" unicode="C" horiz-adv-x="627" 
d="M336 -12q-64 0 -116.5 21t-89 64.5t-56.5 111t-20 156.5t20 155.5t56.5 108.5t88.5 62t116 20q62 0 110 -16.5t78 -46t42 -70t6 -86.5l-91 -9q4 31 0 60.5t-21 51.5t-47.5 35t-78.5 13q-182 0 -182 -279q0 -136 44.5 -208t143.5 -72q73 0 118.5 37t40.5 104l80 -10
q3 -42 -13 -79.5t-48 -65t-78.5 -43t-102.5 -15.5z" />
    <glyph glyph-name="D" unicode="D" horiz-adv-x="642" 
d="M88 0v675h216q137 0 210 -86.5t73 -244.5q0 -166 -73 -255t-210 -89h-216zM179 74h126q95 0 141.5 70.5t46.5 196.5q0 124 -46.5 192t-141.5 68h-126v-527z" />
    <glyph glyph-name="E" unicode="E" horiz-adv-x="534" 
d="M88 0v675h391v-74h-300v-210h255v-74h-255v-243h310v-74h-401z" />
    <glyph glyph-name="F" unicode="F" horiz-adv-x="506" 
d="M88 0v675h381v-74h-290v-230h240v-74h-240v-297h-91z" />
    <glyph glyph-name="G" unicode="G" horiz-adv-x="640" 
d="M348 251v70h230v-321h-73v93q-23 -48 -66.5 -76.5t-102.5 -28.5q-64 0 -116.5 21t-89 64.5t-56.5 111t-20 156.5t20 155.5t57.5 108.5t90.5 62t118 20q46 0 90.5 -11t77 -37.5t49 -69t8.5 -101.5l-91 -9q22 160 -136 160q-187 0 -187 -279q0 -98 21.5 -159t62.5 -91
t104 -30q72 0 112.5 36t42.5 103v52h-146z" />
    <glyph glyph-name="H" unicode="H" horiz-adv-x="659" 
d="M88 0v675h91v-285h301v285h91v-675h-91v316h-301v-316h-91z" />
    <glyph glyph-name="I" unicode="I" horiz-adv-x="371" 
d="M45 604v71h282v-71h-101v-533h101v-71h-282v71h90v533h-90z" />
    <glyph glyph-name="J" unicode="J" horiz-adv-x="481" 
d="M136 604v71h262v-495q0 -89 -49.5 -140.5t-137.5 -51.5q-49 0 -86 16t-58.5 44.5t-27.5 65.5t3 77l80 10q-13 -66 8 -103.5t78 -37.5q48 0 73.5 30.5t25.5 87.5v426h-171z" />
    <glyph glyph-name="K" unicode="K" horiz-adv-x="595" 
d="M88 0v675h91v-253l-3 -74h4q19 25 53 63l233 264h105l-252 -278l258 -397h-107l-215 330l-76 -87v-243h-91z" />
    <glyph glyph-name="L" unicode="L" horiz-adv-x="505" 
d="M88 0v675h91v-601h301v-74h-392z" />
    <glyph glyph-name="M" unicode="M" horiz-adv-x="803" 
d="M88 0v675h102l184 -434l27 -68h4q14 40 27 69l182 433h101v-675h-91v399q0 55 8 132h-4q-19 -77 -40 -124l-175 -407h-34l-177 407q-20 46 -41 118h-4q8 -72 8 -126v-399h-77z" />
    <glyph glyph-name="N" unicode="N" horiz-adv-x="661" 
d="M88 0v675h77l285 -440q22 -34 50 -90h4q-8 57 -8 101v429h77v-675h-78l-282 436q-25 39 -50 91h-4q6 -55 6 -104v-423h-77z" />
    <glyph glyph-name="O" unicode="O" horiz-adv-x="670" 
d="M336 -12q-62 0 -113.5 20t-89.5 63t-58.5 112.5t-20.5 163.5q0 88 21 153.5t58.5 106.5t89 60.5t113.5 19.5t113 -19.5t88 -60.5t57.5 -106.5t20.5 -153.5q0 -97 -21 -167t-58 -112t-88 -61t-112 -19zM334 56q186 0 186 291q0 93 -21.5 152t-62.5 89.5t-102 30.5
q-40 0 -73 -14t-58.5 -45.5t-39.5 -85t-14 -127.5q0 -291 185 -291z" />
    <glyph glyph-name="P" unicode="P" horiz-adv-x="581" 
d="M88 0v675h245q46 0 85.5 -13t68 -38t44.5 -63.5t16 -87.5q0 -60 -26.5 -109.5t-77.5 -73.5t-110 -24h-154v-266h-91zM332 604h-153v-267h153q32 0 60 15t44 45t16 74t-16 74t-44 44.5t-60 14.5z" />
    <glyph glyph-name="Q" unicode="Q" horiz-adv-x="684" 
d="M54 341q0 113 31.5 188.5t93 116.5t155.5 41q62 0 113.5 -19.5t89 -60.5t58 -106.5t20.5 -153.5q0 -177 -75 -269q37 -32 94 -32q26 0 41 6l-10 -78q-18 -6 -42 -6q-35 0 -65 13t-61 56q-67 -49 -160 -49q-62 0 -107 17.5t-76.5 45t-53.5 68.5t-34 97.5t-12 124.5z
M149 341q0 -59 9.5 -113t32.5 -92.5t58 -59t85 -20.5q61 0 102 32t62.5 94t21.5 159q0 278 -186 278q-185 0 -185 -278z" />
    <glyph glyph-name="R" unicode="R" horiz-adv-x="599" 
d="M88 0v675h240q68 0 114 -24t69 -64t23 -94q0 -41 -13.5 -74t-36.5 -56.5t-52.5 -36t-57.5 -15.5q32 -25 53 -68q3 -6 26.5 -66.5t45.5 -81.5t46 -21q12 0 24 4l-10 -79l-33 -2q-38 0 -63.5 15.5t-44 43.5t-40.5 80q-2 6 -13.5 34t-25 54.5t-28 41.5t-27 20.5t-26.5 5.5
h-79v-292h-91zM327 604h-148v-241h128q35 0 65 12.5t48.5 40t18.5 72.5q0 31 -11.5 58.5t-39.5 42.5t-61 15z" />
    <glyph glyph-name="S" unicode="S" horiz-adv-x="580" 
d="M50 199l84 10q-11 -40 2.5 -76t55 -54.5t97.5 -18.5q40 0 76 11t53 37.5t17 57.5q0 35 -21.5 60.5t-55.5 41.5t-68 27q-81 27 -95 33t-28 13t-30 18t-33 29t-29 46t-12 66q0 85 62.5 136t171.5 51q60 0 105 -16t73 -45.5t38.5 -70t4.5 -87.5l-91 -9q21 160 -135 160
q-45 0 -75 -13t-45.5 -37t-15.5 -56q0 -21 9.5 -44t41 -44.5t110.5 -45.5q88 -28 129.5 -53.5t61.5 -62t20 -81.5q0 -40 -15 -75.5t-45.5 -62t-76.5 -41.5t-104 -15q-56 0 -103.5 14t-80 41t-47 67t-6.5 89z" />
    <glyph glyph-name="T" unicode="T" horiz-adv-x="534" 
d="M26 601v74h483v-74h-198v-601h-91v601h-194z" />
    <glyph glyph-name="U" unicode="U" horiz-adv-x="648" 
d="M83 213v462h91v-458q0 -77 41 -117t112 -40q69 0 110.5 40t41.5 117v458h86v-467q0 -104 -63 -162t-175 -58q-115 0 -179.5 60t-64.5 165z" />
    <glyph glyph-name="V" unicode="V" horiz-adv-x="613" 
d="M261 0l-242 675h95l171 -481q14 -38 26 -94h4q12 54 27 95l168 480h83l-241 -675h-91z" />
    <glyph glyph-name="W" unicode="W" horiz-adv-x="889" 
d="M213 0l-185 675h93l135 -495q8 -29 11 -71h4q5 44 12 70l131 496h74l129 -497q7 -27 11 -75h4q7 49 14 75l135 497h80l-185 -675h-103l-110 410q-11 41 -17 96h-4q-5 -54 -16 -94l-109 -412h-104z" />
    <glyph glyph-name="X" unicode="X" horiz-adv-x="566" 
d="M15 0l215 354l-196 321h105l112 -187l35 -63h4q19 38 36 64l111 186h92l-194 -317l218 -358h-105l-134 222q-17 27 -35 63h-4l-35 -63l-133 -222h-92z" />
    <glyph glyph-name="Y" unicode="Y" horiz-adv-x="565" 
d="M237 0v284l-223 391h103l137 -244l34 -65h4l33 64l137 245h88l-222 -391v-284h-91z" />
    <glyph glyph-name="Z" unicode="Z" horiz-adv-x="531" 
d="M38 0v62l316 499l25 36v4h-326v74h433v-62l-311 -491l-30 -44v-4h341v-74h-448z" />
    <glyph glyph-name="bracketleft" unicode="[" horiz-adv-x="312" 
d="M82 -140v874h191v-58h-116v-758h116v-58h-191z" />
    <glyph glyph-name="backslash" unicode="\" horiz-adv-x="344" 
d="M229 -42l-200 756h84l202 -756h-86z" />
    <glyph glyph-name="bracketright" unicode="]" horiz-adv-x="312" 
d="M230 734v-874h-191v58h116v758h-116v58h191z" />
    <glyph glyph-name="asciicircum" unicode="^" 
d="M44 228l200 459h63l199 -459h-87l-144 352l-143 -352h-88z" />
    <glyph glyph-name="underscore" unicode="_" horiz-adv-x="620" 
d="M67 -79v79h486v-79h-486z" />
    <glyph glyph-name="grave" unicode="`" horiz-adv-x="502" 
d="M251 564l-171 158h117l133 -158h-79z" />
    <glyph glyph-name="a" unicode="a" horiz-adv-x="506" 
d="M42 125q0 46 25 80.5t72 56t113 21.5q59 0 83 -16v77q0 100 -94 100q-51 0 -74.5 -27t-11.5 -78l-84 10q-11 49 5.5 83.5t58 54t109.5 19.5q93 0 134.5 -40t41.5 -122v-246q0 -7 2.5 -20.5t18.5 -13.5q7 0 16 3.5t16 10.5l5 -68q-24 -17 -59 -17q-37 0 -57.5 21t-21.5 58
q-14 -26 -37 -46.5t-51.5 -29t-54.5 -8.5q-49 0 -84 19.5t-53 49.5t-18 68zM213 56q27 0 56 13.5t66 52.5v98q-16 2 -53 2q-151 0 -151 -92q0 -36 23 -55t59 -19z" />
    <glyph glyph-name="b" unicode="b" horiz-adv-x="540" 
d="M77 -5v720h85v-279q53 70 136 70q54 0 97 -27.5t69 -83.5t26 -143q0 -73 -18.5 -125.5t-49 -82.5t-66 -43t-71.5 -13q-43 0 -80 17t-57 51l-40 -61h-31zM279 437q-28 0 -60 -15t-57 -45v-272q44 -50 108 -50q65 0 98.5 48.5t33.5 143.5q0 94 -32.5 142t-90.5 48z" />
    <glyph glyph-name="c" unicode="c" horiz-adv-x="481" 
d="M50 235q0 271 212 271q79 0 125.5 -31t46.5 -89q0 -24 -4 -37l-82 -10q4 22 4 32q0 35 -24.5 54t-67.5 19q-120 0 -120 -214q0 -176 124 -176q45 0 71.5 22.5t26.5 59.5l-1 13l74 -10v-12q0 -44 -23 -75.5t-61 -47.5t-89 -16q-46 0 -85 14t-67.5 43.5t-44 77t-15.5 112.5
z" />
    <glyph glyph-name="d" unicode="d" horiz-adv-x="537" 
d="M50 237q0 73 18.5 126t49 84t66.5 45t71 14q81 0 119 -54v263h85v-643l10 -72h-68l-17 61q-53 -73 -143 -73q-24 0 -54 7.5t-55.5 27.5t-43.5 48.5t-28 70.5t-10 95zM260 55q35 0 64.5 15.5t49.5 36.5v280q-44 50 -106 50t-96 -50t-34 -145q0 -94 32.5 -140.5t89.5 -46.5
z" />
    <glyph glyph-name="e" unicode="e" horiz-adv-x="502" 
d="M49 234q0 51 10.5 99t35 87t66.5 62.5t102 23.5q90 0 139.5 -55.5t49.5 -165.5l-2 -48h-311v-5q0 -178 129 -178q30 0 56 10t38 29.5t12 42.5l-1 13l74 -10l1 -16q0 -62 -50 -98.5t-131 -36.5q-101 0 -159.5 62t-58.5 184zM261 444q-32 0 -56.5 -16t-40 -48t-21.5 -80
h219v16q0 60 -26.5 94t-74.5 34z" />
    <glyph glyph-name="f" unicode="f" horiz-adv-x="375" 
d="M25 428v66h86v85q0 158 159 158q82 0 119 -39t17 -103l-76 -10q17 42 -1 66t-61 24q-20 0 -38 -8.5t-26 -32t-8 -59.5v-81h157v-66h-157v-428h-85v428h-86z" />
    <glyph glyph-name="g" unicode="g" horiz-adv-x="536" 
d="M51 258q0 52 12 99.5t39 80.5t65.5 50.5t86.5 17.5q95 0 134 -69l40 62h31v-516q0 -34 -10.5 -69t-35.5 -63t-65.5 -46t-95.5 -18q-35 0 -74 9t-67.5 28t-39 48.5t3.5 66.5l77 8q-6 -16 -4.5 -32.5t16.5 -31.5t40.5 -22.5t47.5 -7.5q55 0 88.5 32t33.5 101v107
q-21 -31 -54.5 -49.5t-77.5 -18.5q-37 0 -70.5 12t-61 39t-43.5 73t-16 109zM257 94q67 0 117 52v242q-17 24 -45.5 36.5t-63.5 12.5q-67 0 -96.5 -42.5t-29.5 -128.5t29 -129t89 -43z" />
    <glyph glyph-name="h" unicode="h" horiz-adv-x="539" 
d="M381 0v340q0 47 -21 69.5t-69 22.5q-30 0 -61.5 -11.5t-67.5 -46.5v-374h-85v715h85v-289q29 40 64.5 60t85.5 20q43 0 79.5 -15.5t55.5 -51.5t19 -84v-355h-85z" />
    <glyph glyph-name="i" unicode="i" horiz-adv-x="239" 
d="M69 609v101h100v-101h-100zM77 0v494h85v-494h-85z" />
    <glyph glyph-name="j" unicode="j" horiz-adv-x="239" 
d="M69 609v101h100v-101h-100zM77 2v492h85v-484q0 -65 -15.5 -117.5t-54 -79t-93.5 -26.5q-36 0 -72 14l12 74q25 -15 54 -15q42 0 63 33t21 109z" />
    <glyph glyph-name="k" unicode="k" horiz-adv-x="490" 
d="M77 0v715h85v-436l204 215h96l-179 -185l190 -309h-97l-154 250l-60 -61v-189h-85z" />
    <glyph glyph-name="l" unicode="l" horiz-adv-x="267" 
d="M76 84v631h85v-612q0 -37 35 -37q8 0 21.5 5t24.5 15l10 -76q-13 -7 -33.5 -12t-41.5 -5q-28 0 -51 10t-36.5 30t-13.5 51z" />
    <glyph glyph-name="m" unicode="m" horiz-adv-x="788" 
d="M630 0v345q0 41 -20 64t-56 23q-64 0 -118 -56v-376h-85v345q0 41 -20 64t-56 23q-57 0 -113 -58v-374h-85v494h66l10 -73q30 41 64.5 63t78.5 22t78.5 -21.5t50.5 -63.5q31 41 66 63t81 22q26 0 53 -8.5t47 -27.5t31.5 -48t11.5 -67v-355h-85z" />
    <glyph glyph-name="n" unicode="n" horiz-adv-x="529" 
d="M77 0v494h66l11 -73q32 43 68 64t87 21q67 0 107 -37.5t40 -113.5v-355h-85v340q0 47 -20 69.5t-63 22.5q-30 0 -60.5 -11.5t-65.5 -46.5v-374h-85z" />
    <glyph glyph-name="o" unicode="o" horiz-adv-x="522" 
d="M50 249q0 67 15.5 117t43.5 80.5t66.5 45t84.5 14.5q47 0 86 -15t67 -46t43.5 -81.5t15.5 -118.5q0 -84 -24 -140t-70 -86.5t-115 -30.5q-47 0 -86 14.5t-67.5 46t-44 82t-15.5 118.5zM262 50q61 0 91.5 51.5t30.5 144.5t-31 145.5t-93 52.5q-61 0 -91.5 -50.5
t-30.5 -143.5q0 -67 15 -111t42.5 -66.5t66.5 -22.5z" />
    <glyph glyph-name="p" unicode="p" horiz-adv-x="536" 
d="M77 -206v700h66l10 -68q59 80 152 80q50 0 91 -27.5t65.5 -82.5t24.5 -139q0 -73 -18.5 -126t-49 -84t-66.5 -45t-71 -14q-80 0 -119 53v-247h-85zM276 437q-18 0 -39.5 -6.5t-40.5 -20t-34 -29.5v-275q44 -51 106 -51t96 51t34 146q0 94 -32 139.5t-90 45.5z" />
    <glyph glyph-name="q" unicode="q" horiz-adv-x="540" 
d="M50 242q0 73 18.5 125.5t49 82.5t66 43t71.5 13q43 0 80.5 -18t57.5 -53l39 59h31v-700h-85v264q-51 -70 -136 -70q-54 0 -97 27.5t-69 83.5t-26 143zM261 55q19 0 41 7.5t42 22.5t34 31v272q-44 49 -108 49q-132 0 -132 -190q0 -27 4.5 -63t21.5 -68.5t43 -46.5t54 -14z
" />
    <glyph glyph-name="r" unicode="r" horiz-adv-x="409" 
d="M77 0v494h66l12 -81q18 41 50.5 67t81.5 26q25 0 47.5 -11t37.5 -38t13.5 -60t-10.5 -54l-75 -9q7 23 7 46t-11 37.5t-36 14.5q-19 0 -40 -11t-36.5 -34.5t-21.5 -46.5v-340h-85z" />
    <glyph glyph-name="s" unicode="s" horiz-adv-x="472" 
d="M51 141l73 8q-3 -12 -3 -22q0 -18 11 -37t38.5 -29.5t63.5 -10.5q52 0 77 20.5t25 51.5q0 9 -3 19.5t-12 20t-24.5 18.5t-82.5 32q-94 31 -125 67t-31 86q0 67 50.5 104t134.5 37q34 0 75.5 -10t70.5 -41t29 -77l-2 -29l-84 -10q3 15 3 28q0 18 -10 36.5t-35 29.5t-58 11
q-42 0 -65.5 -19t-23.5 -50q0 -15 5.5 -28t21.5 -26t81 -35q5 -2 31 -10.5t53.5 -20t46.5 -28.5t30 -39t11 -55q0 -67 -53 -106t-141 -39q-48 0 -91 13.5t-68 39.5t-25 63q0 18 6 37z" />
    <glyph glyph-name="t" unicode="t" horiz-adv-x="410" 
d="M24 427v67h87l15 141l69 10v-151h162v-67h-162v-278q0 -52 12 -74.5t45 -22.5q35 0 50 25t6 73l74 -10q11 -71 -25 -111.5t-108 -40.5t-105.5 38.5t-33.5 107.5v293h-86z" />
    <glyph glyph-name="u" unicode="u" horiz-adv-x="520" 
d="M73 139v355h85v-340q0 -47 19 -69.5t60 -22.5q63 0 120 57v375h85v-422l10 -72h-68l-20 71q-63 -83 -144 -83q-69 0 -108 37t-39 114z" />
    <glyph glyph-name="v" unicode="v" horiz-adv-x="484" 
d="M202 0l-178 494h88l114 -323q10 -26 18 -71h4q10 45 19 71l115 323h78l-178 -494h-80z" />
    <glyph glyph-name="w" unicode="w" horiz-adv-x="741" 
d="M181 0l-153 494h88l98 -332q10 -32 14 -72h4q6 42 15 72l98 332h62l97 -332q10 -32 14 -72h4q5 42 14 72l98 332h79l-153 -494h-90l-86 282q-8 24 -12 58h-4q-3 -33 -11 -57l-86 -283h-90z" />
    <glyph glyph-name="x" unicode="x" horiz-adv-x="467" 
d="M18 0l167 250l-154 244h101l75 -122q16 -24 30 -53h4l33 53l80 122h87l-159 -237l163 -257h-100l-83 132l-32 56h-4q-16 -30 -34 -56l-87 -132h-87z" />
    <glyph glyph-name="y" unicode="y" horiz-adv-x="489" 
d="M49 -112q8 -11 24 -17.5t34 -6.5q63 0 85 61l20 56l-185 513h89l111 -317q10 -28 25 -88h4l26 88l105 317h78l-201 -586q-21 -62 -61 -91.5t-92 -29.5q-16 0 -37 5.5t-35 18.5z" />
    <glyph glyph-name="z" unicode="z" horiz-adv-x="447" 
d="M37 0v55l235 333q17 23 27 35v4h-241v67h347v-55l-230 -325q-19 -26 -34 -43v-4h257v-67h-361z" />
    <glyph glyph-name="braceleft" unicode="{" horiz-adv-x="344" 
d="M111 17v136q0 33 -9.5 57.5t-30 37.5t-43.5 18v60q47 11 65 38t18 70v145q0 74 48.5 119t133.5 45h13v-63q-54 0 -87 -30.5t-33 -88.5v-120q0 -50 -21 -88.5t-60 -55.5q38 -18 59.5 -53.5t21.5 -81.5v-127q0 -60 32.5 -90.5t87.5 -30.5v-63h-13q-85 0 -133.5 45.5
t-48.5 120.5z" />
    <glyph glyph-name="bar" unicode="|" horiz-adv-x="244" 
d="M82 -120v875h80v-875h-80z" />
    <glyph glyph-name="braceright" unicode="}" horiz-adv-x="345" 
d="M233 153l5 -136q-4 -76 -52.5 -121t-134.5 -45h-13v63q55 0 87.5 30.5t32.5 90.5v127q0 46 21.5 81.5t59.5 53.5q-39 17 -60 55.5t-21 88.5v120q0 58 -33 88.5t-87 30.5v63h13q85 0 133.5 -45t48.5 -119v-145q0 -43 18 -70t65 -38v-60q-23 -5 -43.5 -18t-30 -37.5
t-9.5 -57.5z" />
    <glyph glyph-name="asciitilde" unicode="~" 
d="M39 264q0 84 38 126.5t102 42.5q19 0 40 -5t36.5 -15t45.5 -38.5t45 -34t28 -5.5q20 0 36 11t24 34t8 49h74q0 -84 -37.5 -126.5t-102.5 -42.5q-29 0 -55 9.5t-52.5 35t-37 34.5t-23.5 13.5t-26 4.5q-28 0 -44 -17.5t-20.5 -38.5t-4.5 -37h-74z" />
    <glyph glyph-name="uni00A0" unicode="&#xa0;" horiz-adv-x="231" 
 />
    <glyph glyph-name="exclamdown" unicode="&#xa1;" horiz-adv-x="240" 
d="M147 304q0 -5 0.5 -23t10 -204t9.5 -258h-95q0 89 10 274.5t10 210.5h55zM173 494v-106h-106v106h106z" />
    <glyph glyph-name="cent" unicode="&#xa2;" 
d="M259 -12v96q-197 18 -197 262q0 123 50 184t147 69v88h51v-86q44 -2 81.5 -12.5t62.5 -30t34 -48.5t-1 -66l-87 -10q14 42 -12 68.5t-78 29.5v-377q36 3 62 17.5t34.5 34.5t6.5 37l79 -10q2 -29 -7.5 -52t-27.5 -42.5t-54.5 -36.5t-92.5 -20v-95h-51zM157 344
q0 -91 27 -134t75 -52v371q-55 -11 -78.5 -58.5t-23.5 -126.5z" />
    <glyph glyph-name="sterling" unicode="&#xa3;" 
d="M40 256v64h79v174q0 92 48.5 142.5t137.5 50.5q35 0 71 -10t67 -37t42 -68.5t4 -83.5l-91 -9q5 35 -1 68.5t-31 52.5t-62 19q-99 0 -99 -143v-156h206v-64h-206v-73q0 -39 -10.5 -68.5t-29.5 -40.5h346v-74h-463v74h24q13 1 24.5 10.5t17 31t5.5 47.5v93h-79z" />
    <glyph glyph-name="yen" unicode="&#xa5;" 
d="M52 354v64h109l-134 257h103l153 -304l152 304h88l-134 -257h109v-64h-142l-35 -69v-43h177v-64h-177v-178h-91v178h-178v64h178v43l-36 69h-142z" />
    <glyph glyph-name="section" unicode="&#xa7;" horiz-adv-x="468" 
d="M142 -38l-65 474q-6 50 -6 81q0 53 23.5 91t63 58.5t95.5 20.5q38 0 77 -12.5t67.5 -42t37.5 -57.5l-54 -57q-13 35 -46.5 65t-81.5 30q-22 0 -46.5 -9.5t-41 -33.5t-16.5 -54q0 -24 6 -68l68 -486h-81zM86 -44q10 -35 40 -65t75 -30q21 0 45 9.5t40.5 33.5t16.5 54
q0 24 -6 68l-67 486h81l64 -474q6 -49 6 -81q0 -33 -11 -64t-33.5 -55t-56.5 -37.5t-77 -13.5q-48 0 -82.5 16t-57.5 42t-31 54z" />
    <glyph glyph-name="dieresis" unicode="&#xa8;" horiz-adv-x="502" 
d="M131 610v89h84v-89h-84zM288 610v89h84v-89h-84z" />
    <glyph glyph-name="copyright" unicode="&#xa9;" horiz-adv-x="790" 
d="M55 339q0 92 29 161t77.5 111.5t109 62.5t124.5 20q65 0 125.5 -20t109 -62.5t77 -112t28.5 -162.5t-28.5 -162.5t-77 -112t-109 -62t-125.5 -19.5q-64 0 -124.5 20t-109 62.5t-77.5 112.5t-29 163zM122 338q0 -79 21.5 -137t59.5 -93t87 -51t105 -16q88 0 148 34
t92.5 98.5t32.5 162.5q0 80 -21.5 138t-59 93t-86.5 51t-106 16q-87 0 -147.5 -34t-93 -99t-32.5 -163zM211 334q0 111 50.5 163.5t142.5 52.5q39 0 70 -10t51 -30t27 -50t0 -67l-74 -10q10 52 -11 81t-65 29q-29 0 -55 -14.5t-40.5 -52.5t-14.5 -93q0 -46 10 -79.5
t33.5 -52t70.5 -18.5q43 0 66 28t19 72l66 -10q5 -65 -35.5 -108t-117.5 -43q-193 0 -193 212z" />
    <glyph glyph-name="ordfeminine" unicode="&#xaa;" horiz-adv-x="368" 
d="M144 364q-38 0 -64 23.5t-26 61.5q0 45 37.5 71.5t95.5 26.5l30 -2v38q0 51 -42 51q-24 0 -35.5 -13.5t-5.5 -40.5l-62 6q-4 18 -2 33t11 28t32.5 24t63.5 11q53 0 77.5 -24.5t24.5 -74.5v-142q0 -21 13 -21q11 0 20 9l3 -52q-3 -2 -13 -6t-23 -4q-48 0 -54 42
q-34 -45 -81 -45zM157 415q6 0 22.5 4.5t37.5 23.5v54l-16 1q-82 0 -82 -47q0 -18 10.5 -27t27.5 -9z" />
    <glyph glyph-name="guillemotleft" unicode="&#xab;" horiz-adv-x="509" 
d="M235 247l132 200h90l-134 -199l134 -199h-91zM46 247l132 200h90l-134 -199l134 -199h-91z" />
    <glyph glyph-name="registered" unicode="&#xae;" horiz-adv-x="564" 
d="M282 281q-67 0 -120.5 29.5t-83.5 80t-30 121.5q0 72 30 123.5t83.5 81.5t120.5 30t120.5 -29.5t83.5 -81.5t30 -124q0 -43 -13.5 -85t-44 -74.5t-76 -52t-100.5 -19.5zM282 331q36 0 68 11t56.5 33.5t38.5 57.5t14 80q0 57 -21.5 97.5t-61 63.5t-94.5 23t-95 -23
t-62 -63.5t-22 -97.5q0 -34 9.5 -67t32.5 -58.5t57.5 -41t79.5 -15.5zM203 403v226h87q42 0 63 -18t21 -53q0 -25 -15 -41t-40 -21l55 -93h-54l-50 88h-19v-88h-48zM251 526h39q13 0 24.5 8.5t11.5 23.5q0 16 -11.5 23t-24.5 7h-39v-62z" />
    <glyph glyph-name="macron" unicode="&#xaf;" horiz-adv-x="503" 
d="M143 614v73h223v-73h-223z" />
    <glyph glyph-name="degree" unicode="&#xb0;" horiz-adv-x="388" 
d="M48 589q0 58 43 99.5t103 41.5t103 -41.5t43 -99.5t-43 -99.5t-103 -41.5t-103 41.5t-43 99.5zM109 589q0 -16 8.5 -36t30 -34.5t46.5 -14.5q16 0 36 8.5t34.5 30t14.5 46.5q0 16 -8.5 36t-30 34.5t-46.5 14.5q-16 0 -36 -8.5t-34.5 -30t-14.5 -46.5z" />
    <glyph glyph-name="plusminus" unicode="&#xb1;" 
d="M50 334v74h186v186h74v-186h190v-74h-190v-190h-74v190h-186zM50 0v74h450v-74h-450z" />
    <glyph glyph-name="uni00B2" unicode="&#xb2;" horiz-adv-x="402" 
d="M339 425v-60h-277v40q79 56 117.5 95t58.5 77.5t20 78.5q0 32 -16.5 49t-43.5 17t-43 -17t-16 -46q0 -33 14 -59l-76 6q-12 23 -12 55q0 33 18 60.5t47 42t70 14.5q28 0 60.5 -11t54 -40t21.5 -68q0 -34 -19.5 -75.5t-64.5 -84t-94 -74.5h181z" />
    <glyph glyph-name="uni00B3" unicode="&#xb3;" horiz-adv-x="379" 
d="M126 556l-36 41l126 110h-151v58h244v-42l-113 -102q26 2 54.5 -7t47 -29t25.5 -43t7 -45q0 -32 -14.5 -65.5t-51.5 -56.5t-85 -23q-27 0 -59.5 11t-53 40.5t-15.5 71.5l66 7q-7 -31 12.5 -52.5t50.5 -21.5q21 0 39.5 12t26 33.5t7.5 43.5q0 39 -18 60.5t-50 21.5
q-33 0 -59 -23z" />
    <glyph glyph-name="acute" unicode="&#xb4;" horiz-adv-x="502" 
d="M419 722l-171 -158h-79l133 158h117z" />
    <glyph glyph-name="paragraph" unicode="&#xb6;" horiz-adv-x="605" 
d="M268 164q-44 0 -86 12.5t-76.5 42t-55.5 80t-21 121.5t21 121.5t55.5 79.5t76.5 41.5t86 12.5h292v-65h-212v-816h-80v370zM424 -206v746h80v-746h-80z" />
    <glyph glyph-name="periodcentered" unicode="&#xb7;" horiz-adv-x="242" 
d="M68 273v114h106v-114h-106z" />
    <glyph glyph-name="cedilla" unicode="&#xb8;" horiz-adv-x="502" 
d="M221 -89l18 105h48l-14 -72q18 -3 34.5 -12t24.5 -25t8 -33q0 -39 -29 -63t-67 -24q-19 0 -42 8t-37 24l18 44q9 -11 24.5 -18.5t31.5 -7.5q18 0 29.5 9t11.5 29q0 36 -50 36h-9z" />
    <glyph glyph-name="uni00B9" unicode="&#xb9;" horiz-adv-x="352" 
d="M70 365v54h87v257q-30 -31 -99 -31v58q25 -2 51 5.5t43 25t24 36.5h54v-351h76v-54h-236z" />
    <glyph glyph-name="ordmasculine" unicode="&#xba;" horiz-adv-x="359" 
d="M181 364q-59 0 -93 39t-34 122q0 82 33.5 120t91.5 38q36 0 65.5 -16t45 -54.5t15.5 -90.5q0 -31 -6 -60.5t-23.5 -54t-44 -34t-50.5 -9.5zM180 412q17 0 31.5 13.5t21 40t6.5 57.5q0 59 -17.5 85.5t-42.5 26.5t-42 -25.5t-17 -83.5q0 -59 17.5 -86.5t42.5 -27.5z" />
    <glyph glyph-name="guillemotright" unicode="&#xbb;" horiz-adv-x="509" 
d="M241 49l134 199l-134 199h90l132 -200l-131 -198h-91zM52 49l134 199l-134 199h90l132 -200l-131 -198h-91z" />
    <glyph glyph-name="onequarter" unicode="&#xbc;" horiz-adv-x="791" 
d="M706 0h-72v99h-184v40l189 266h67v-247h51v-59h-51v-99zM257 0l228 675h68l-228 -675h-68zM58 270v54h87v257q-30 -31 -99 -31v58q25 -2 51 5.5t43 25t24 36.5h56v-351h76v-54h-238zM525 158h109v151z" />
    <glyph glyph-name="onehalf" unicode="&#xbd;" horiz-adv-x="805" 
d="M760 60v-60h-277v50q96 65 133 105.5t50.5 73.5t13.5 62q0 32 -17 49t-44 17t-43 -17t-16 -46q0 -33 14 -59l-76 6q-12 23 -12 55q0 33 18 60.5t47 42t70 14.5q28 0 60.5 -11t54 -40t21.5 -68q0 -34 -19.5 -75.5t-64.5 -84t-94 -74.5h181zM257 0l228 675h68l-228 -675
h-68zM58 270v54h87v257q-30 -31 -99 -31v58q25 -2 51 5.5t43 25t24 36.5h56v-351h76v-54h-238z" />
    <glyph glyph-name="threequarters" unicode="&#xbe;" horiz-adv-x="788" 
d="M703 0h-72v99h-184v40l189 266h67v-247h51v-59h-51v-99zM117 466l-36 41l126 110h-151v58h244v-42l-113 -102q26 2 54.5 -7t47 -29t25.5 -43t7 -45q0 -32 -14.5 -65.5t-51.5 -56.5t-85 -23q-27 0 -60 11t-54 40.5t-14 71.5l66 7q-7 -31 12.5 -52.5t50.5 -21.5
q21 0 39.5 12t26 33.5t7.5 43.5q0 39 -18 60.5t-50 21.5q-33 0 -59 -23zM254 0l228 675h68l-228 -675h-68zM522 158h109v151z" />
    <glyph glyph-name="questiondown" unicode="&#xbf;" horiz-adv-x="467" 
d="M289 304l4 -61q0 -35 -17 -66t-71 -71q-29 -21 -45.5 -39t-24 -42t-7.5 -47q0 -36 14 -60t39 -33.5t55 -9.5q47 0 72.5 20.5t30 58.5t-14.5 94l96 -15q17 -50 11.5 -92.5t-31.5 -72t-70 -45.5t-100 -16q-68 0 -112.5 21t-66.5 56.5t-22 85.5q0 35 12 66.5t36 56
t55.5 45.5t32.5 22q37 26 50.5 51t15.5 52l3 41h55zM316 494v-106h-106v106h106z" />
    <glyph glyph-name="Agrave" unicode="&#xc0;" horiz-adv-x="610" 
d="M21 0l238 680h91l239 -680h-96l-58 168h-275l-57 -168h-82zM258 451l-72 -209h223l-72 209q-19 53 -38 119h-4q-18 -66 -37 -119zM295 728l-171 158h117l133 -158h-79z" />
    <glyph glyph-name="Aacute" unicode="&#xc1;" horiz-adv-x="610" 
d="M21 0l238 680h91l239 -680h-96l-58 168h-275l-57 -168h-82zM258 451l-72 -209h223l-72 209q-19 53 -38 119h-4q-18 -66 -37 -119zM486 886l-171 -158h-79l133 158h117z" />
    <glyph glyph-name="Acircumflex" unicode="&#xc2;" horiz-adv-x="610" 
d="M21 0l238 680h91l239 -680h-96l-58 168h-275l-57 -168h-82zM258 451l-72 -209h223l-72 209q-19 53 -38 119h-4q-18 -66 -37 -119zM224 728h-74l115 158h78l115 -158h-74l-80 92z" />
    <glyph glyph-name="Atilde" unicode="&#xc3;" horiz-adv-x="610" 
d="M21 0l238 680h91l239 -680h-96l-58 168h-275l-57 -168h-82zM258 451l-72 -209h223l-72 209q-19 53 -38 119h-4q-18 -66 -37 -119zM201 754l-52 11q3 26 15.5 52t35.5 41t47 15q18 0 34 -6.5t43 -24.5t43 -18q32 0 42 51l52 -12q-3 -26 -15.5 -52t-35.5 -41t-47 -15
q-18 0 -34 6.5t-43 24.5t-43 18q-32 0 -42 -50z" />
    <glyph glyph-name="Adieresis" unicode="&#xc4;" horiz-adv-x="610" 
d="M21 0l238 680h91l239 -680h-96l-58 168h-275l-57 -168h-82zM258 451l-72 -209h223l-72 209q-19 53 -38 119h-4q-18 -66 -37 -119zM185 774v89h84v-89h-84zM342 774v89h84v-89h-84z" />
    <glyph glyph-name="Aring" unicode="&#xc5;" horiz-adv-x="610" 
d="M21 0l238 680h91l239 -680h-96l-58 168h-275l-57 -168h-82zM258 451l-72 -209h223l-72 209q-19 53 -38 119h-4q-18 -66 -37 -119zM305 720q-28 0 -52.5 12.5t-34.5 33.5t-10 41q0 21 10 42t34 33t53 12t53 -12t34 -33t10 -42q0 -20 -10 -41t-34.5 -33.5t-52.5 -12.5z
M305 765q21 0 34 11t13 32t-13 32t-34 11t-34 -11t-13 -32t13 -32t34 -11z" />
    <glyph glyph-name="AE" unicode="&#xc6;" horiz-adv-x="825" 
d="M379 0v198h-199l-87 -198h-91l300 675h468v-74h-300v-210h255v-74h-255v-243h310v-74h-401zM361 611l-149 -339h167v339h-18z" />
    <glyph glyph-name="Ccedilla" unicode="&#xc7;" horiz-adv-x="628" 
d="M279 -89l13 80q-54 7 -98 31.5t-75 67.5t-47.5 106.5t-16.5 144.5q0 89 20 155.5t56.5 108.5t88.5 62t116 20q62 0 110 -16.5t78 -46t42 -70t6 -86.5l-91 -9q4 31 0 60.5t-21 51.5t-47.5 35t-78.5 13q-182 0 -182 -279q0 -136 44.5 -208t143.5 -72q73 0 118.5 37
t40.5 104l80 -10q5 -87 -61 -144.5t-179 -58.5l-8 -44q18 -3 34.5 -12t24.5 -25t8 -33q0 -39 -29 -63t-67 -24q-19 0 -42 8t-37 24l18 44q9 -11 24.5 -18.5t31.5 -7.5q18 0 29.5 9t11.5 29q0 35 -43 36h-16z" />
    <glyph glyph-name="Egrave" unicode="&#xc8;" horiz-adv-x="534" 
d="M88 0v675h391v-74h-300v-210h255v-74h-255v-243h310v-74h-401zM292 729l-171 158h117l133 -158h-79z" />
    <glyph glyph-name="Eacute" unicode="&#xc9;" horiz-adv-x="534" 
d="M88 0v675h391v-74h-300v-210h255v-74h-255v-243h310v-74h-401zM483 887l-171 -158h-79l133 158h117z" />
    <glyph glyph-name="Ecircumflex" unicode="&#xca;" horiz-adv-x="534" 
d="M88 0v675h391v-74h-300v-210h255v-74h-255v-243h310v-74h-401zM221 729h-74l115 158h78l115 -158h-74l-80 92z" />
    <glyph glyph-name="Edieresis" unicode="&#xcb;" horiz-adv-x="534" 
d="M88 0v675h391v-74h-300v-210h255v-74h-255v-243h310v-74h-401zM182 775v89h84v-89h-84zM339 775v89h84v-89h-84z" />
    <glyph glyph-name="Igrave" unicode="&#xcc;" horiz-adv-x="371" 
d="M45 604v71h282v-71h-101v-533h101v-71h-282v71h90v533h-90zM169 729l-171 158h117l133 -158h-79z" />
    <glyph glyph-name="Iacute" unicode="&#xcd;" horiz-adv-x="371" 
d="M45 604v71h282v-71h-101v-533h101v-71h-282v71h90v533h-90zM360 887l-171 -158h-79l133 158h117z" />
    <glyph glyph-name="Icircumflex" unicode="&#xce;" horiz-adv-x="371" 
d="M45 604v71h282v-71h-101v-533h101v-71h-282v71h90v533h-90zM98 729h-74l115 158h78l115 -158h-74l-80 92z" />
    <glyph glyph-name="Idieresis" unicode="&#xcf;" horiz-adv-x="371" 
d="M45 604v71h282v-71h-101v-533h101v-71h-282v71h90v533h-90zM216 775v89h84v-89h-84zM59 775v89h84v-89h-84z" />
    <glyph glyph-name="Eth" unicode="&#xd0;" horiz-adv-x="651" 
d="M16 315v64h81v296h216q137 0 210 -86.5t73 -244.5q0 -166 -73 -255t-210 -89h-216v315h-81zM188 74h126q95 0 141.5 70.5t46.5 196.5q0 124 -46.5 192t-141.5 68h-126v-222h174v-64h-174v-241z" />
    <glyph glyph-name="Ntilde" unicode="&#xd1;" horiz-adv-x="661" 
d="M88 0v675h77l285 -440q22 -34 50 -90h4q-8 57 -8 101v429h77v-675h-78l-282 436q-25 39 -50 91h-4q6 -55 6 -104v-423h-77zM230 755l-52 11q3 26 15.5 52t35.5 41t47 15q18 0 34 -6.5t43 -24.5t43 -18q32 0 42 51l52 -12q-3 -26 -15.5 -52t-35.5 -41t-47 -15
q-18 0 -34 6.5t-43 24.5t-43 18q-32 0 -42 -50z" />
    <glyph glyph-name="Ograve" unicode="&#xd2;" horiz-adv-x="670" 
d="M336 -12q-62 0 -113.5 20t-89.5 63t-58.5 112.5t-20.5 163.5q0 88 21 153.5t58.5 106.5t89 60.5t113.5 19.5t113 -19.5t88 -60.5t57.5 -106.5t20.5 -153.5q0 -97 -21 -167t-58 -112t-88 -61t-112 -19zM334 56q186 0 186 291q0 93 -21.5 152t-62.5 89.5t-102 30.5
q-40 0 -73 -14t-58.5 -45.5t-39.5 -85t-14 -127.5q0 -291 185 -291zM326 729l-171 158h117l133 -158h-79z" />
    <glyph glyph-name="Oacute" unicode="&#xd3;" horiz-adv-x="670" 
d="M336 -12q-62 0 -113.5 20t-89.5 63t-58.5 112.5t-20.5 163.5q0 88 21 153.5t58.5 106.5t89 60.5t113.5 19.5t113 -19.5t88 -60.5t57.5 -106.5t20.5 -153.5q0 -97 -21 -167t-58 -112t-88 -61t-112 -19zM334 56q186 0 186 291q0 93 -21.5 152t-62.5 89.5t-102 30.5
q-40 0 -73 -14t-58.5 -45.5t-39.5 -85t-14 -127.5q0 -291 185 -291zM517 887l-171 -158h-79l133 158h117z" />
    <glyph glyph-name="Ocircumflex" unicode="&#xd4;" horiz-adv-x="670" 
d="M336 -12q-62 0 -113.5 20t-89.5 63t-58.5 112.5t-20.5 163.5q0 88 21 153.5t58.5 106.5t89 60.5t113.5 19.5t113 -19.5t88 -60.5t57.5 -106.5t20.5 -153.5q0 -97 -21 -167t-58 -112t-88 -61t-112 -19zM334 56q186 0 186 291q0 93 -21.5 152t-62.5 89.5t-102 30.5
q-40 0 -73 -14t-58.5 -45.5t-39.5 -85t-14 -127.5q0 -291 185 -291zM255 729h-74l115 158h78l115 -158h-74l-80 92z" />
    <glyph glyph-name="Otilde" unicode="&#xd5;" horiz-adv-x="670" 
d="M336 -12q-62 0 -113.5 20t-89.5 63t-58.5 112.5t-20.5 163.5q0 88 21 153.5t58.5 106.5t89 60.5t113.5 19.5t113 -19.5t88 -60.5t57.5 -106.5t20.5 -153.5q0 -97 -21 -167t-58 -112t-88 -61t-112 -19zM334 56q186 0 186 291q0 93 -21.5 152t-62.5 89.5t-102 30.5
q-40 0 -73 -14t-58.5 -45.5t-39.5 -85t-14 -127.5q0 -291 185 -291zM232 755l-52 11q3 26 15.5 52t35.5 41t47 15q18 0 34 -6.5t43 -24.5t43 -18q32 0 42 51l52 -12q-3 -26 -15.5 -52t-35.5 -41t-47 -15q-18 0 -34 6.5t-43 24.5t-43 18q-32 0 -42 -50z" />
    <glyph glyph-name="Odieresis" unicode="&#xd6;" horiz-adv-x="670" 
d="M336 -12q-62 0 -113.5 20t-89.5 63t-58.5 112.5t-20.5 163.5q0 88 21 153.5t58.5 106.5t89 60.5t113.5 19.5t113 -19.5t88 -60.5t57.5 -106.5t20.5 -153.5q0 -97 -21 -167t-58 -112t-88 -61t-112 -19zM334 56q186 0 186 291q0 93 -21.5 152t-62.5 89.5t-102 30.5
q-40 0 -73 -14t-58.5 -45.5t-39.5 -85t-14 -127.5q0 -291 185 -291zM216 775v89h84v-89h-84zM373 775v89h84v-89h-84z" />
    <glyph glyph-name="multiply" unicode="&#xd7;" 
d="M71 423l52 52l152 -152l152 152l52 -52l-152 -152l155 -154l-53 -53l-154 154l-154 -154l-53 53l154 154z" />
    <glyph glyph-name="Oslash" unicode="&#xd8;" horiz-adv-x="670" 
d="M47 -60l84 133q-77 90 -77 274q0 88 21 153.5t58.5 106.5t89 60.5t113.5 19.5q92 0 156 -41l56 89h73l-82 -130q76 -87 76 -258q0 -97 -21 -167t-58 -112t-88 -61t-112 -19q-94 0 -159 43l-57 -91h-73zM334 56q186 0 186 291q0 110 -32 177l-269 -426q43 -42 115 -42z
M149 347q0 -124 32 -194l268 425q-45 41 -115 41q-40 0 -73 -14t-58.5 -45.5t-39.5 -85t-14 -127.5z" />
    <glyph glyph-name="Ugrave" unicode="&#xd9;" horiz-adv-x="648" 
d="M83 213v462h91v-458q0 -77 41 -117t112 -40q69 0 110.5 40t41.5 117v458h86v-467q0 -104 -63 -162t-175 -58q-115 0 -179.5 60t-64.5 165zM313 729l-171 158h117l133 -158h-79z" />
    <glyph glyph-name="Uacute" unicode="&#xda;" horiz-adv-x="648" 
d="M83 213v462h91v-458q0 -77 41 -117t112 -40q69 0 110.5 40t41.5 117v458h86v-467q0 -104 -63 -162t-175 -58q-115 0 -179.5 60t-64.5 165zM504 887l-171 -158h-79l133 158h117z" />
    <glyph glyph-name="Ucircumflex" unicode="&#xdb;" horiz-adv-x="648" 
d="M83 213v462h91v-458q0 -77 41 -117t112 -40q69 0 110.5 40t41.5 117v458h86v-467q0 -104 -63 -162t-175 -58q-115 0 -179.5 60t-64.5 165zM242 729h-74l115 158h78l115 -158h-74l-80 92z" />
    <glyph glyph-name="Udieresis" unicode="&#xdc;" horiz-adv-x="648" 
d="M83 213v462h91v-458q0 -77 41 -117t112 -40q69 0 110.5 40t41.5 117v458h86v-467q0 -104 -63 -162t-175 -58q-115 0 -179.5 60t-64.5 165zM203 775v89h84v-89h-84zM360 775v89h84v-89h-84z" />
    <glyph glyph-name="Yacute" unicode="&#xdd;" horiz-adv-x="565" 
d="M237 0v284l-223 391h103l137 -244l34 -65h4l33 64l137 245h88l-222 -391v-284h-91zM469 887l-171 -158h-79l133 158h117z" />
    <glyph glyph-name="Thorn" unicode="&#xde;" horiz-adv-x="589" 
d="M88 0v675h91v-128h154q46 0 85.5 -13t68 -38t44.5 -63.5t16 -87.5q0 -60 -26.5 -109.5t-77.5 -73.5t-110 -24h-154v-138h-91zM332 476h-153v-267h153q32 0 60 15t44 45t16 74t-16 74t-44 44.5t-60 14.5z" />
    <glyph glyph-name="germandbls" unicode="&#xdf;" horiz-adv-x="583" 
d="M77 0v552q0 58 24.5 98.5t70 63.5t107.5 23q82 0 133.5 -42t51.5 -114q0 -30 -9.5 -51t-20.5 -35t-48 -49q-31 -29 -38.5 -42.5t-7.5 -30.5q0 -23 14 -42.5t60 -39.5q55 -23 74.5 -35t34 -29t21.5 -39t7 -50q0 -37 -14.5 -66t-39 -48t-56.5 -27.5t-62 -8.5
q-48 0 -88 18.5t-55 45.5t-15 53q0 19 5 36l73 8l-2 -23q0 -19 8.5 -37.5t28.5 -28.5t44 -10q26 0 49 12t32.5 31t9.5 37q0 23 -11.5 37t-27 23t-38.5 19t-27 12q-63 28 -84 62t-21 77q0 23 6.5 42t17 33.5t52.5 53.5q24 22 36 41.5t12 46.5q0 45 -29.5 71.5t-81.5 26.5
q-51 0 -81 -28t-30 -91v-556h-85z" />
    <glyph glyph-name="agrave" unicode="&#xe0;" horiz-adv-x="506" 
d="M42 125q0 46 25 80.5t72 56t113 21.5q59 0 83 -16v77q0 100 -94 100q-51 0 -74.5 -27t-11.5 -78l-84 10q-11 49 5.5 83.5t58 54t109.5 19.5q93 0 134.5 -40t41.5 -122v-246q0 -7 2.5 -20.5t18.5 -13.5q7 0 16 3.5t16 10.5l5 -68q-24 -17 -59 -17q-37 0 -57.5 21t-21.5 58
q-14 -26 -37 -46.5t-51.5 -29t-54.5 -8.5q-49 0 -84 19.5t-53 49.5t-18 68zM213 56q27 0 56 13.5t66 52.5v98q-16 2 -53 2q-151 0 -151 -92q0 -36 23 -55t59 -19zM234 564l-171 158h117l133 -158h-79z" />
    <glyph glyph-name="aacute" unicode="&#xe1;" horiz-adv-x="506" 
d="M42 125q0 46 25 80.5t72 56t113 21.5q59 0 83 -16v77q0 100 -94 100q-51 0 -74.5 -27t-11.5 -78l-84 10q-11 49 5.5 83.5t58 54t109.5 19.5q93 0 134.5 -40t41.5 -122v-246q0 -7 2.5 -20.5t18.5 -13.5q7 0 16 3.5t16 10.5l5 -68q-24 -17 -59 -17q-37 0 -57.5 21t-21.5 58
q-14 -26 -37 -46.5t-51.5 -29t-54.5 -8.5q-49 0 -84 19.5t-53 49.5t-18 68zM213 56q27 0 56 13.5t66 52.5v98q-16 2 -53 2q-151 0 -151 -92q0 -36 23 -55t59 -19zM425 722l-171 -158h-79l133 158h117z" />
    <glyph glyph-name="acircumflex" unicode="&#xe2;" horiz-adv-x="506" 
d="M42 125q0 46 25 80.5t72 56t113 21.5q59 0 83 -16v77q0 100 -94 100q-51 0 -74.5 -27t-11.5 -78l-84 10q-11 49 5.5 83.5t58 54t109.5 19.5q93 0 134.5 -40t41.5 -122v-246q0 -7 2.5 -20.5t18.5 -13.5q7 0 16 3.5t16 10.5l5 -68q-24 -17 -59 -17q-37 0 -57.5 21t-21.5 58
q-14 -26 -37 -46.5t-51.5 -29t-54.5 -8.5q-49 0 -84 19.5t-53 49.5t-18 68zM213 56q27 0 56 13.5t66 52.5v98q-16 2 -53 2q-151 0 -151 -92q0 -36 23 -55t59 -19zM163 564h-74l115 158h78l115 -158h-74l-80 92z" />
    <glyph glyph-name="atilde" unicode="&#xe3;" horiz-adv-x="506" 
d="M42 125q0 46 25 80.5t72 56t113 21.5q59 0 83 -16v77q0 100 -94 100q-51 0 -74.5 -27t-11.5 -78l-84 10q-11 49 5.5 83.5t58 54t109.5 19.5q93 0 134.5 -40t41.5 -122v-246q0 -7 2.5 -20.5t18.5 -13.5q7 0 16 3.5t16 10.5l5 -68q-24 -17 -59 -17q-37 0 -57.5 21t-21.5 58
q-14 -26 -37 -46.5t-51.5 -29t-54.5 -8.5q-49 0 -84 19.5t-53 49.5t-18 68zM213 56q27 0 56 13.5t66 52.5v98q-16 2 -53 2q-151 0 -151 -92q0 -36 23 -55t59 -19zM140 590l-52 11q3 26 15.5 52t35.5 41t47 15q18 0 34 -6.5t43 -24.5t43 -18q32 0 42 51l52 -12
q-3 -26 -15.5 -52t-35.5 -41t-47 -15q-18 0 -34 6.5t-43 24.5t-43 18q-32 0 -42 -50z" />
    <glyph glyph-name="adieresis" unicode="&#xe4;" horiz-adv-x="506" 
d="M42 125q0 46 25 80.5t72 56t113 21.5q59 0 83 -16v77q0 100 -94 100q-51 0 -74.5 -27t-11.5 -78l-84 10q-11 49 5.5 83.5t58 54t109.5 19.5q93 0 134.5 -40t41.5 -122v-246q0 -7 2.5 -20.5t18.5 -13.5q7 0 16 3.5t16 10.5l5 -68q-24 -17 -59 -17q-37 0 -57.5 21t-21.5 58
q-14 -26 -37 -46.5t-51.5 -29t-54.5 -8.5q-49 0 -84 19.5t-53 49.5t-18 68zM213 56q27 0 56 13.5t66 52.5v98q-16 2 -53 2q-151 0 -151 -92q0 -36 23 -55t59 -19zM124 610v89h84v-89h-84zM281 610v89h84v-89h-84z" />
    <glyph glyph-name="aring" unicode="&#xe5;" horiz-adv-x="506" 
d="M42 125q0 46 25 80.5t72 56t113 21.5q59 0 83 -16v77q0 100 -94 100q-51 0 -74.5 -27t-11.5 -78l-84 10q-11 49 5.5 83.5t58 54t109.5 19.5q93 0 134.5 -40t41.5 -122v-246q0 -7 2.5 -20.5t18.5 -13.5q7 0 16 3.5t16 10.5l5 -68q-24 -17 -59 -17q-37 0 -57.5 21t-21.5 58
q-14 -26 -37 -46.5t-51.5 -29t-54.5 -8.5q-49 0 -84 19.5t-53 49.5t-18 68zM213 56q27 0 56 13.5t66 52.5v98q-16 2 -53 2q-151 0 -151 -92q0 -36 23 -55t59 -19zM244 556q-28 0 -52.5 12.5t-34.5 33.5t-10 41q0 21 10 42t34 33t53 12t53 -12t34 -33t10 -42q0 -20 -10 -41
t-34.5 -33.5t-52.5 -12.5zM244 601q21 0 34 11t13 32t-13 32t-34 11t-34 -11t-13 -32t13 -32t34 -11z" />
    <glyph glyph-name="ae" unicode="&#xe6;" horiz-adv-x="783" 
d="M42 127q0 46 25 82t73 58.5t114 22.5q57 0 81 -16v70q0 100 -95 100q-50 0 -73.5 -26t-11.5 -74l-84 10q-6 28 -2 56t24.5 49t57.5 34t91 13q119 0 152 -75q52 75 152 75q43 0 77.5 -13.5t59 -41t37.5 -70t13 -97.5l-2 -57h-311q2 -85 32 -129t96 -44q35 0 60.5 12
t37.5 32.5t8 50.5l74 -10q3 -25 -4 -51.5t-29 -48.5t-58.5 -36.5t-87.5 -14.5q-64 0 -111 25t-73 76q-15 -30 -42 -55t-61 -35.5t-64 -10.5q-41 0 -79 16.5t-57.5 50t-19.5 72.5zM131 132q0 -38 22.5 -57t58.5 -19q68 0 139 67q-16 46 -16 106h-50q-154 0 -154 -97zM422 290
h221v26q0 60 -26.5 94t-73.5 34q-48 0 -80.5 -37.5t-40.5 -116.5z" />
    <glyph glyph-name="ccedilla" unicode="&#xe7;" horiz-adv-x="481" 
d="M219 -89l13 79q-40 4 -73.5 20t-57.5 45.5t-37.5 75t-13.5 104.5q0 271 212 271q79 0 125.5 -31t46.5 -89q0 -24 -4 -37l-82 -10q4 22 4 32q0 35 -24.5 54t-67.5 19q-120 0 -120 -214q0 -176 124 -176q45 0 71.5 22.5t26.5 59.5l-1 13l74 -10v-12q0 -57 -41 -95.5
t-114 -42.5l-9 -45q18 -3 34.5 -12t24.5 -25t8 -33q0 -39 -29 -63t-67 -24q-19 0 -42 8t-37 24l18 44q9 -11 24.5 -18.5t31.5 -7.5q18 0 29.5 9t11.5 29q0 36 -50 36h-9z" />
    <glyph glyph-name="egrave" unicode="&#xe8;" horiz-adv-x="502" 
d="M49 234q0 51 10.5 99t35 87t66.5 62.5t102 23.5q90 0 139.5 -55.5t49.5 -165.5l-2 -48h-311v-5q0 -178 129 -178q30 0 56 10t38 29.5t12 42.5l-1 13l74 -10l1 -16q0 -62 -50 -98.5t-131 -36.5q-101 0 -159.5 62t-58.5 184zM261 444q-32 0 -56.5 -16t-40 -48t-21.5 -80
h219v16q0 60 -26.5 94t-74.5 34zM251 564l-171 158h117l133 -158h-79z" />
    <glyph glyph-name="eacute" unicode="&#xe9;" horiz-adv-x="502" 
d="M49 234q0 51 10.5 99t35 87t66.5 62.5t102 23.5q90 0 139.5 -55.5t49.5 -165.5l-2 -48h-311v-5q0 -178 129 -178q30 0 56 10t38 29.5t12 42.5l-1 13l74 -10l1 -16q0 -62 -50 -98.5t-131 -36.5q-101 0 -159.5 62t-58.5 184zM261 444q-32 0 -56.5 -16t-40 -48t-21.5 -80
h219v16q0 60 -26.5 94t-74.5 34zM442 722l-171 -158h-79l133 158h117z" />
    <glyph glyph-name="ecircumflex" unicode="&#xea;" horiz-adv-x="502" 
d="M49 234q0 51 10.5 99t35 87t66.5 62.5t102 23.5q90 0 139.5 -55.5t49.5 -165.5l-2 -48h-311v-5q0 -178 129 -178q30 0 56 10t38 29.5t12 42.5l-1 13l74 -10l1 -16q0 -62 -50 -98.5t-131 -36.5q-101 0 -159.5 62t-58.5 184zM261 444q-32 0 -56.5 -16t-40 -48t-21.5 -80
h219v16q0 60 -26.5 94t-74.5 34zM180 564h-74l115 158h78l115 -158h-74l-80 92z" />
    <glyph glyph-name="edieresis" unicode="&#xeb;" horiz-adv-x="502" 
d="M49 234q0 51 10.5 99t35 87t66.5 62.5t102 23.5q90 0 139.5 -55.5t49.5 -165.5l-2 -48h-311v-5q0 -178 129 -178q30 0 56 10t38 29.5t12 42.5l-1 13l74 -10l1 -16q0 -62 -50 -98.5t-131 -36.5q-101 0 -159.5 62t-58.5 184zM261 444q-32 0 -56.5 -16t-40 -48t-21.5 -80
h219v16q0 60 -26.5 94t-74.5 34zM141 610v89h84v-89h-84zM298 610v89h84v-89h-84z" />
    <glyph glyph-name="igrave" unicode="&#xec;" horiz-adv-x="239" 
d="M77 0v494h85v-494h-85zM111 564l-171 158h117l133 -158h-79z" />
    <glyph glyph-name="iacute" unicode="&#xed;" horiz-adv-x="239" 
d="M77 0v494h85v-494h-85zM302 722l-171 -158h-79l133 158h117z" />
    <glyph glyph-name="icircumflex" unicode="&#xee;" horiz-adv-x="239" 
d="M77 0v494h85v-494h-85zM40 564h-74l115 158h78l115 -158h-74l-80 92z" />
    <glyph glyph-name="idieresis" unicode="&#xef;" horiz-adv-x="239" 
d="M77 0v494h85v-494h-85zM1 610v89h84v-89h-84zM158 610v89h84v-89h-84z" />
    <glyph glyph-name="eth" unicode="&#xf0;" horiz-adv-x="533" 
d="M135 475l-38 47l123 96q-37 21 -80 33.5t-72 15.5l11 57q38 -3 93.5 -19t103.5 -43l97 76l37 -47l-81 -64q76 -60 112 -144t36 -187q0 -62 -13 -118t-41 -98.5t-72 -67t-103 -24.5q-36 0 -73 12t-66.5 40.5t-48 73t-18.5 102.5q0 47 15 86.5t42 67t65 42.5t83 15
q50 0 84.5 -17.5t57.5 -52.5q-18 143 -117 225zM250 50q39 0 67.5 23.5t47 67.5t24.5 109v-3q2 23 -9 50t-45 47.5t-80 20.5q-42 0 -70 -18t-41.5 -52t-13.5 -80q0 -28 6.5 -58t20.5 -54t37.5 -38.5t55.5 -14.5z" />
    <glyph glyph-name="ntilde" unicode="&#xf1;" horiz-adv-x="529" 
d="M77 0v494h66l11 -73q32 43 68 64t87 21q67 0 107 -37.5t40 -113.5v-355h-85v340q0 47 -20 69.5t-63 22.5q-30 0 -60.5 -11.5t-65.5 -46.5v-374h-85zM167 590l-52 11q3 26 15.5 52t35.5 41t47 15q18 0 34 -6.5t43 -24.5t43 -18q32 0 42 51l52 -12q-3 -26 -15.5 -52
t-35.5 -41t-47 -15q-18 0 -34 6.5t-43 24.5t-43 18q-32 0 -42 -50z" />
    <glyph glyph-name="ograve" unicode="&#xf2;" horiz-adv-x="522" 
d="M50 249q0 67 15.5 117t43.5 80.5t66.5 45t84.5 14.5q47 0 86 -15t67 -46t43.5 -81.5t15.5 -118.5q0 -84 -24 -140t-70 -86.5t-115 -30.5q-47 0 -86 14.5t-67.5 46t-44 82t-15.5 118.5zM262 50q61 0 91.5 51.5t30.5 144.5t-31 145.5t-93 52.5q-61 0 -91.5 -50.5
t-30.5 -143.5q0 -67 15 -111t42.5 -66.5t66.5 -22.5zM253 564l-171 158h117l133 -158h-79z" />
    <glyph glyph-name="oacute" unicode="&#xf3;" horiz-adv-x="522" 
d="M50 249q0 67 15.5 117t43.5 80.5t66.5 45t84.5 14.5q47 0 86 -15t67 -46t43.5 -81.5t15.5 -118.5q0 -84 -24 -140t-70 -86.5t-115 -30.5q-47 0 -86 14.5t-67.5 46t-44 82t-15.5 118.5zM262 50q61 0 91.5 51.5t30.5 144.5t-31 145.5t-93 52.5q-61 0 -91.5 -50.5
t-30.5 -143.5q0 -67 15 -111t42.5 -66.5t66.5 -22.5zM444 722l-171 -158h-79l133 158h117z" />
    <glyph glyph-name="ocircumflex" unicode="&#xf4;" horiz-adv-x="522" 
d="M50 249q0 67 15.5 117t43.5 80.5t66.5 45t84.5 14.5q47 0 86 -15t67 -46t43.5 -81.5t15.5 -118.5q0 -84 -24 -140t-70 -86.5t-115 -30.5q-47 0 -86 14.5t-67.5 46t-44 82t-15.5 118.5zM262 50q61 0 91.5 51.5t30.5 144.5t-31 145.5t-93 52.5q-61 0 -91.5 -50.5
t-30.5 -143.5q0 -67 15 -111t42.5 -66.5t66.5 -22.5zM182 564h-74l115 158h78l115 -158h-74l-80 92z" />
    <glyph glyph-name="otilde" unicode="&#xf5;" horiz-adv-x="522" 
d="M50 249q0 67 15.5 117t43.5 80.5t66.5 45t84.5 14.5q47 0 86 -15t67 -46t43.5 -81.5t15.5 -118.5q0 -84 -24 -140t-70 -86.5t-115 -30.5q-47 0 -86 14.5t-67.5 46t-44 82t-15.5 118.5zM262 50q61 0 91.5 51.5t30.5 144.5t-31 145.5t-93 52.5q-61 0 -91.5 -50.5
t-30.5 -143.5q0 -67 15 -111t42.5 -66.5t66.5 -22.5zM159 590l-52 11q3 26 15.5 52t35.5 41t47 15q18 0 34 -6.5t43 -24.5t43 -18q32 0 42 51l52 -12q-3 -26 -15.5 -52t-35.5 -41t-47 -15q-18 0 -34 6.5t-43 24.5t-43 18q-32 0 -42 -50z" />
    <glyph glyph-name="odieresis" unicode="&#xf6;" horiz-adv-x="522" 
d="M50 249q0 67 15.5 117t43.5 80.5t66.5 45t84.5 14.5q47 0 86 -15t67 -46t43.5 -81.5t15.5 -118.5q0 -84 -24 -140t-70 -86.5t-115 -30.5q-47 0 -86 14.5t-67.5 46t-44 82t-15.5 118.5zM262 50q61 0 91.5 51.5t30.5 144.5t-31 145.5t-93 52.5q-61 0 -91.5 -50.5
t-30.5 -143.5q0 -67 15 -111t42.5 -66.5t66.5 -22.5zM143 610v89h84v-89h-84zM300 610v89h84v-89h-84z" />
    <glyph glyph-name="divide" unicode="&#xf7;" 
d="M50 234v74h450v-74h-450zM222 404v114h106v-114h-106zM222 24v114h106v-114h-106z" />
    <glyph glyph-name="oslash" unicode="&#xf8;" horiz-adv-x="521" 
d="M36 -60l70 111q-56 67 -56 198q0 67 15.5 117t43.5 80.5t66.5 45t84.5 14.5q31 0 62 -7.5t53 -21.5l51 80h68l-75 -119q53 -67 53 -193q0 -84 -24 -140t-70 -86.5t-115 -30.5q-30 0 -60 7t-52 19l-47 -74h-68zM136 250q0 -74 19 -122l182 287q-15 15 -36 23t-41 8
q-39 0 -66 -21.5t-42.5 -64.5t-15.5 -110zM262 48q61 0 92.5 52.5t31.5 145.5q0 69 -16 115l-181 -286q30 -27 73 -27z" />
    <glyph glyph-name="ugrave" unicode="&#xf9;" horiz-adv-x="520" 
d="M73 139v355h85v-340q0 -47 19 -69.5t60 -22.5q63 0 120 57v375h85v-422l10 -72h-68l-20 71q-63 -83 -144 -83q-69 0 -108 37t-39 114zM246 564l-171 158h117l133 -158h-79z" />
    <glyph glyph-name="uacute" unicode="&#xfa;" horiz-adv-x="520" 
d="M73 139v355h85v-340q0 -47 19 -69.5t60 -22.5q63 0 120 57v375h85v-422l10 -72h-68l-20 71q-63 -83 -144 -83q-69 0 -108 37t-39 114zM437 722l-171 -158h-79l133 158h117z" />
    <glyph glyph-name="ucircumflex" unicode="&#xfb;" horiz-adv-x="520" 
d="M73 139v355h85v-340q0 -47 19 -69.5t60 -22.5q63 0 120 57v375h85v-422l10 -72h-68l-20 71q-63 -83 -144 -83q-69 0 -108 37t-39 114zM175 564h-74l115 158h78l115 -158h-74l-80 92z" />
    <glyph glyph-name="udieresis" unicode="&#xfc;" horiz-adv-x="520" 
d="M73 139v355h85v-340q0 -47 19 -69.5t60 -22.5q63 0 120 57v375h85v-422l10 -72h-68l-20 71q-63 -83 -144 -83q-69 0 -108 37t-39 114zM293 610v89h84v-89h-84zM136 610v89h84v-89h-84z" />
    <glyph glyph-name="yacute" unicode="&#xfd;" horiz-adv-x="489" 
d="M49 -112q8 -11 24 -17.5t34 -6.5q63 0 85 61l20 56l-185 513h89l111 -317q10 -28 25 -88h4l26 88l105 317h78l-201 -586q-21 -62 -61 -91.5t-92 -29.5q-16 0 -37 5.5t-35 18.5zM433 722l-171 -158h-79l133 158h117z" />
    <glyph glyph-name="thorn" unicode="&#xfe;" horiz-adv-x="536" 
d="M77 -206v921h85v-277q56 68 143 68q50 0 91 -27.5t65.5 -82.5t24.5 -139q0 -73 -18.5 -126t-49 -84t-66.5 -45t-71 -14q-80 0 -119 53v-247h-85zM276 437q-18 0 -39.5 -6.5t-40.5 -20t-34 -29.5v-275q44 -51 106 -51t96 51t34 146q0 94 -32 139.5t-90 45.5z" />
    <glyph glyph-name="ydieresis" unicode="&#xff;" horiz-adv-x="489" 
d="M49 -112q8 -11 24 -17.5t34 -6.5q63 0 85 61l20 56l-185 513h89l111 -317q10 -28 25 -88h4l26 88l105 317h78l-201 -586q-21 -62 -61 -91.5t-92 -29.5q-16 0 -37 5.5t-35 18.5zM132 610v89h84v-89h-84zM289 610v89h84v-89h-84z" />
    <glyph glyph-name="Amacron" unicode="&#x100;" horiz-adv-x="610" 
d="M21 0l238 680h91l239 -680h-96l-58 168h-275l-57 -168h-82zM258 451l-72 -209h223l-72 209q-19 53 -38 119h-4q-18 -66 -37 -119zM194 778v73h223v-73h-223z" />
    <glyph glyph-name="amacron" unicode="&#x101;" horiz-adv-x="506" 
d="M42 125q0 46 25 80.5t72 56t113 21.5q59 0 83 -16v77q0 100 -94 100q-51 0 -74.5 -27t-11.5 -78l-84 10q-11 49 5.5 83.5t58 54t109.5 19.5q93 0 134.5 -40t41.5 -122v-246q0 -7 2.5 -20.5t18.5 -13.5q7 0 16 3.5t16 10.5l5 -68q-24 -17 -59 -17q-37 0 -57.5 21t-21.5 58
q-14 -26 -37 -46.5t-51.5 -29t-54.5 -8.5q-49 0 -84 19.5t-53 49.5t-18 68zM213 56q27 0 56 13.5t66 52.5v98q-16 2 -53 2q-151 0 -151 -92q0 -36 23 -55t59 -19zM133 614v73h223v-73h-223z" />
    <glyph glyph-name="Abreve" unicode="&#x102;" horiz-adv-x="610" 
d="M21 0l238 680h91l239 -680h-96l-58 168h-275l-57 -168h-82zM258 451l-72 -209h223l-72 209q-19 53 -38 119h-4q-18 -66 -37 -119zM305 738q-51 0 -87.5 29.5t-36.5 76.5v31h59v-19q0 -25 16.5 -41.5t48.5 -16.5q33 0 52 16.5t19 41.5v19h53v-31q0 -47 -36.5 -76.5
t-87.5 -29.5z" />
    <glyph glyph-name="abreve" unicode="&#x103;" horiz-adv-x="506" 
d="M42 125q0 46 25 80.5t72 56t113 21.5q59 0 83 -16v77q0 100 -94 100q-51 0 -74.5 -27t-11.5 -78l-84 10q-11 49 5.5 83.5t58 54t109.5 19.5q93 0 134.5 -40t41.5 -122v-246q0 -7 2.5 -20.5t18.5 -13.5q7 0 16 3.5t16 10.5l5 -68q-24 -17 -59 -17q-37 0 -57.5 21t-21.5 58
q-14 -26 -37 -46.5t-51.5 -29t-54.5 -8.5q-49 0 -84 19.5t-53 49.5t-18 68zM213 56q27 0 56 13.5t66 52.5v98q-16 2 -53 2q-151 0 -151 -92q0 -36 23 -55t59 -19zM244 574q-51 0 -87.5 29.5t-36.5 76.5v31h59v-19q0 -25 16.5 -41.5t48.5 -16.5q33 0 52 16.5t19 41.5v19h53
v-31q0 -47 -36.5 -76.5t-87.5 -29.5z" />
    <glyph glyph-name="Aogonek" unicode="&#x104;" horiz-adv-x="610" 
d="M21 0l238 680h91l239 -680h-21q-49 -43 -65 -65.5t-16 -40.5q0 -21 22.5 -32.5t66.5 -11.5v-63q-49 0 -85.5 11.5t-55.5 33t-19 53.5q0 60 95 115h-18l-58 168h-275l-57 -168h-82zM258 451l-72 -209h223l-72 209q-19 53 -38 119h-4q-18 -66 -37 -119z" />
    <glyph glyph-name="aogonek" unicode="&#x105;" horiz-adv-x="506" 
d="M302 -115q0 58 90 112q-49 13 -52 75q-14 -26 -37 -46.5t-51.5 -29t-54.5 -8.5q-49 0 -84 19.5t-53 49.5t-18 68q0 46 25 80.5t72 56t113 21.5q59 0 83 -16v77q0 100 -94 100q-51 0 -74.5 -27t-11.5 -78l-84 10q-11 49 5.5 83.5t58 54t109.5 19.5q93 0 134.5 -40
t41.5 -122v-246q0 -7 2.5 -20.5t18.5 -13.5q7 0 16 3.5t16 10.5l5 -68q-12 -8 -28 -12q-46 -42 -61.5 -64t-15.5 -40q0 -21 22.5 -32.5t66.5 -11.5v-63q-49 0 -85.5 11.5t-55.5 33t-19 53.5zM213 56q27 0 56 13.5t66 52.5v98q-16 2 -53 2q-151 0 -151 -92q0 -36 23 -55
t59 -19z" />
    <glyph glyph-name="Cacute" unicode="&#x106;" horiz-adv-x="627" 
d="M336 -12q-64 0 -116.5 21t-89 64.5t-56.5 111t-20 156.5t20 155.5t56.5 108.5t88.5 62t116 20q62 0 110 -16.5t78 -46t42 -70t6 -86.5l-91 -9q4 31 0 60.5t-21 51.5t-47.5 35t-78.5 13q-182 0 -182 -279q0 -136 44.5 -208t143.5 -72q73 0 118.5 37t40.5 104l80 -10
q3 -42 -13 -79.5t-48 -65t-78.5 -43t-102.5 -15.5zM516 887l-171 -158h-79l133 158h117z" />
    <glyph glyph-name="cacute" unicode="&#x107;" horiz-adv-x="481" 
d="M50 235q0 271 212 271q79 0 125.5 -31t46.5 -89q0 -24 -4 -37l-82 -10q4 22 4 32q0 35 -24.5 54t-67.5 19q-120 0 -120 -214q0 -176 124 -176q45 0 71.5 22.5t26.5 59.5l-1 13l74 -10v-12q0 -44 -23 -75.5t-61 -47.5t-89 -16q-46 0 -85 14t-67.5 43.5t-44 77t-15.5 112.5
zM441 722l-171 -158h-79l133 158h117z" />
    <glyph glyph-name="Ccircumflex" unicode="&#x108;" horiz-adv-x="627" 
d="M336 -12q-64 0 -116.5 21t-89 64.5t-56.5 111t-20 156.5t20 155.5t56.5 108.5t88.5 62t116 20q62 0 110 -16.5t78 -46t42 -70t6 -86.5l-91 -9q4 31 0 60.5t-21 51.5t-47.5 35t-78.5 13q-182 0 -182 -279q0 -136 44.5 -208t143.5 -72q73 0 118.5 37t40.5 104l80 -10
q3 -42 -13 -79.5t-48 -65t-78.5 -43t-102.5 -15.5zM254 729h-74l115 158h78l115 -158h-74l-80 92z" />
    <glyph glyph-name="ccircumflex" unicode="&#x109;" horiz-adv-x="481" 
d="M50 235q0 271 212 271q79 0 125.5 -31t46.5 -89q0 -24 -4 -37l-82 -10q4 22 4 32q0 35 -24.5 54t-67.5 19q-120 0 -120 -214q0 -176 124 -176q45 0 71.5 22.5t26.5 59.5l-1 13l74 -10v-12q0 -44 -23 -75.5t-61 -47.5t-89 -16q-46 0 -85 14t-67.5 43.5t-44 77t-15.5 112.5
zM179 564h-74l115 158h78l115 -158h-74l-80 92z" />
    <glyph glyph-name="Cdotaccent" unicode="&#x10a;" horiz-adv-x="627" 
d="M336 -12q-64 0 -116.5 21t-89 64.5t-56.5 111t-20 156.5t20 155.5t56.5 108.5t88.5 62t116 20q62 0 110 -16.5t78 -46t42 -70t6 -86.5l-91 -9q4 31 0 60.5t-21 51.5t-47.5 35t-78.5 13q-182 0 -182 -279q0 -136 44.5 -208t143.5 -72q73 0 118.5 37t40.5 104l80 -10
q3 -42 -13 -79.5t-48 -65t-78.5 -43t-102.5 -15.5zM288 770v99h94v-99h-94z" />
    <glyph glyph-name="cdotaccent" unicode="&#x10b;" horiz-adv-x="481" 
d="M50 235q0 271 212 271q79 0 125.5 -31t46.5 -89q0 -24 -4 -37l-82 -10q4 22 4 32q0 35 -24.5 54t-67.5 19q-120 0 -120 -214q0 -176 124 -176q45 0 71.5 22.5t26.5 59.5l-1 13l74 -10v-12q0 -44 -23 -75.5t-61 -47.5t-89 -16q-46 0 -85 14t-67.5 43.5t-44 77t-15.5 112.5
zM213 605v99h94v-99h-94z" />
    <glyph glyph-name="Ccaron" unicode="&#x10c;" horiz-adv-x="627" 
d="M336 -12q-64 0 -116.5 21t-89 64.5t-56.5 111t-20 156.5t20 155.5t56.5 108.5t88.5 62t116 20q62 0 110 -16.5t78 -46t42 -70t6 -86.5l-91 -9q4 31 0 60.5t-21 51.5t-47.5 35t-78.5 13q-182 0 -182 -279q0 -136 44.5 -208t143.5 -72q73 0 118.5 37t40.5 104l80 -10
q3 -42 -13 -79.5t-48 -65t-78.5 -43t-102.5 -15.5zM181 887h74l80 -92l80 92h74l-115 -158h-78z" />
    <glyph glyph-name="ccaron" unicode="&#x10d;" horiz-adv-x="481" 
d="M50 235q0 271 212 271q79 0 125.5 -31t46.5 -89q0 -24 -4 -37l-82 -10q4 22 4 32q0 35 -24.5 54t-67.5 19q-120 0 -120 -214q0 -176 124 -176q45 0 71.5 22.5t26.5 59.5l-1 13l74 -10v-12q0 -44 -23 -75.5t-61 -47.5t-89 -16q-46 0 -85 14t-67.5 43.5t-44 77t-15.5 112.5
zM106 722h74l80 -92l80 92h74l-115 -158h-78z" />
    <glyph glyph-name="Dcaron" unicode="&#x10e;" horiz-adv-x="642" 
d="M88 0v675h216q137 0 210 -86.5t73 -244.5q0 -166 -73 -255t-210 -89h-216zM179 74h126q95 0 141.5 70.5t46.5 196.5q0 124 -46.5 192t-141.5 68h-126v-527zM153 887h74l80 -92l80 92h74l-115 -158h-78z" />
    <glyph glyph-name="dcaron" unicode="&#x10f;" horiz-adv-x="537" 
d="M50 237q0 73 18.5 126t49 84t66.5 45t71 14q81 0 119 -54v263h85v-643l10 -72h-68l-17 61q-53 -73 -143 -73q-24 0 -54 7.5t-55.5 27.5t-43.5 48.5t-28 70.5t-10 95zM260 55q35 0 64.5 15.5t49.5 36.5v280q-44 50 -106 50t-96 -50t-34 -145q0 -94 32.5 -140.5t89.5 -46.5
zM539 715h90q0 -49 -15.5 -94.5t-37 -75.5t-38.5 -46l-51 15q28 32 40 75t12 126z" />
    <glyph glyph-name="Dcroat" unicode="&#x110;" horiz-adv-x="651" 
d="M16 315v64h81v296h216q137 0 210 -86.5t73 -244.5q0 -166 -73 -255t-210 -89h-216v315h-81zM188 74h126q95 0 141.5 70.5t46.5 196.5q0 124 -46.5 192t-141.5 68h-126v-222h174v-64h-174v-241z" />
    <glyph glyph-name="dcroat" unicode="&#x111;" horiz-adv-x="537" 
d="M251 574v59h123v82h85v-82h83v-59h-83v-502l10 -72h-68l-17 61q-53 -73 -143 -73q-24 0 -54 7.5t-55.5 27.5t-43.5 48.5t-28 70.5t-10 95q0 73 18.5 126t49 84t66.5 45t71 14q81 0 119 -54v122h-123zM260 55q35 0 64.5 15.5t49.5 36.5v280q-44 50 -106 50t-96 -50
t-34 -145q0 -94 32.5 -140.5t89.5 -46.5z" />
    <glyph glyph-name="Emacron" unicode="&#x112;" horiz-adv-x="534" 
d="M88 0v675h391v-74h-300v-210h255v-74h-255v-243h310v-74h-401zM191 779v73h223v-73h-223z" />
    <glyph glyph-name="emacron" unicode="&#x113;" horiz-adv-x="502" 
d="M49 234q0 51 10.5 99t35 87t66.5 62.5t102 23.5q90 0 139.5 -55.5t49.5 -165.5l-2 -48h-311v-5q0 -178 129 -178q30 0 56 10t38 29.5t12 42.5l-1 13l74 -10l1 -16q0 -62 -50 -98.5t-131 -36.5q-101 0 -159.5 62t-58.5 184zM261 444q-32 0 -56.5 -16t-40 -48t-21.5 -80
h219v16q0 60 -26.5 94t-74.5 34zM150 614v73h223v-73h-223z" />
    <glyph glyph-name="Ebreve" unicode="&#x114;" horiz-adv-x="534" 
d="M88 0v675h391v-74h-300v-210h255v-74h-255v-243h310v-74h-401zM302 739q-51 0 -87.5 29.5t-36.5 76.5v31h59v-19q0 -25 16.5 -41.5t48.5 -16.5q33 0 52 16.5t19 41.5v19h53v-31q0 -47 -36.5 -76.5t-87.5 -29.5z" />
    <glyph glyph-name="ebreve" unicode="&#x115;" horiz-adv-x="502" 
d="M49 234q0 51 10.5 99t35 87t66.5 62.5t102 23.5q90 0 139.5 -55.5t49.5 -165.5l-2 -48h-311v-5q0 -178 129 -178q30 0 56 10t38 29.5t12 42.5l-1 13l74 -10l1 -16q0 -62 -50 -98.5t-131 -36.5q-101 0 -159.5 62t-58.5 184zM261 444q-32 0 -56.5 -16t-40 -48t-21.5 -80
h219v16q0 60 -26.5 94t-74.5 34zM261 574q-51 0 -87.5 29.5t-36.5 76.5v31h59v-19q0 -25 16.5 -41.5t48.5 -16.5q33 0 52 16.5t19 41.5v19h53v-31q0 -47 -36.5 -76.5t-87.5 -29.5z" />
    <glyph glyph-name="Edotaccent" unicode="&#x116;" horiz-adv-x="534" 
d="M88 0v675h391v-74h-300v-210h255v-74h-255v-243h310v-74h-401zM255 770v99h94v-99h-94z" />
    <glyph glyph-name="edotaccent" unicode="&#x117;" horiz-adv-x="502" 
d="M49 234q0 51 10.5 99t35 87t66.5 62.5t102 23.5q90 0 139.5 -55.5t49.5 -165.5l-2 -48h-311v-5q0 -178 129 -178q30 0 56 10t38 29.5t12 42.5l-1 13l74 -10l1 -16q0 -62 -50 -98.5t-131 -36.5q-101 0 -159.5 62t-58.5 184zM261 444q-32 0 -56.5 -16t-40 -48t-21.5 -80
h219v16q0 60 -26.5 94t-74.5 34zM214 605v99h94v-99h-94z" />
    <glyph glyph-name="Eogonek" unicode="&#x118;" horiz-adv-x="534" 
d="M88 0v675h391v-74h-300v-210h255v-74h-255v-243h310v-74q-49 -43 -65 -65.5t-16 -40.5q0 -21 22.5 -32.5t66.5 -11.5v-63q-49 0 -85.5 11.5t-55.5 33t-19 53.5q0 60 95 115h-344z" />
    <glyph glyph-name="eogonek" unicode="&#x119;" horiz-adv-x="502" 
d="M216 -115q0 54 78 104l-27 -1q-101 0 -159.5 62t-58.5 184q0 51 10.5 99t35 87t66.5 62.5t102 23.5q90 0 139.5 -55.5t49.5 -165.5l-2 -48h-311v-5q0 -178 129 -178q30 0 56 10t38 29.5t12 42.5l-1 13l74 -10l1 -16q0 -33 -16 -61t-45 -45l-4 -4t-33 -28.5t-46.5 -49
t-16.5 -41.5q0 -21 22.5 -32.5t66.5 -11.5v-63q-49 0 -85.5 11.5t-55.5 33t-19 53.5zM261 444q-32 0 -56.5 -16t-40 -48t-21.5 -80h219v16q0 60 -26.5 94t-74.5 34z" />
    <glyph glyph-name="Ecaron" unicode="&#x11a;" horiz-adv-x="534" 
d="M88 0v675h391v-74h-300v-210h255v-74h-255v-243h310v-74h-401zM148 887h74l80 -92l80 92h74l-115 -158h-78z" />
    <glyph glyph-name="ecaron" unicode="&#x11b;" horiz-adv-x="502" 
d="M49 234q0 51 10.5 99t35 87t66.5 62.5t102 23.5q90 0 139.5 -55.5t49.5 -165.5l-2 -48h-311v-5q0 -178 129 -178q30 0 56 10t38 29.5t12 42.5l-1 13l74 -10l1 -16q0 -62 -50 -98.5t-131 -36.5q-101 0 -159.5 62t-58.5 184zM261 444q-32 0 -56.5 -16t-40 -48t-21.5 -80
h219v16q0 60 -26.5 94t-74.5 34zM107 722h74l80 -92l80 92h74l-115 -158h-78z" />
    <glyph glyph-name="Gcircumflex" unicode="&#x11c;" horiz-adv-x="640" 
d="M348 251v70h230v-321h-73v93q-23 -48 -66.5 -76.5t-102.5 -28.5q-64 0 -116.5 21t-89 64.5t-56.5 111t-20 156.5t20 155.5t57.5 108.5t90.5 62t118 20q46 0 90.5 -11t77 -37.5t49 -69t8.5 -101.5l-91 -9q22 160 -136 160q-187 0 -187 -279q0 -98 21.5 -159t62.5 -91
t104 -30q74 0 114.5 38t40.5 108v45h-146zM257 729h-74l115 158h78l115 -158h-74l-80 92z" />
    <glyph glyph-name="gcircumflex" unicode="&#x11d;" horiz-adv-x="536" 
d="M51 258q0 52 12 99.5t39 80.5t65.5 50.5t86.5 17.5q95 0 134 -69l40 62h31v-516q0 -34 -10.5 -69t-35.5 -63t-65.5 -46t-95.5 -18q-35 0 -74 9t-67.5 28t-39 48.5t3.5 66.5l77 8q-6 -16 -4.5 -32.5t16.5 -31.5t40.5 -22.5t47.5 -7.5q55 0 88.5 32t33.5 101v107
q-21 -31 -54.5 -49.5t-77.5 -18.5q-37 0 -70.5 12t-61 39t-43.5 73t-16 109zM257 94q67 0 117 52v242q-17 24 -45.5 36.5t-63.5 12.5q-67 0 -96.5 -42.5t-29.5 -128.5t29 -129t89 -43zM174 564h-74l115 158h78l115 -158h-74l-80 92z" />
    <glyph glyph-name="Gbreve" unicode="&#x11e;" horiz-adv-x="640" 
d="M348 251v70h230v-321h-73v93q-23 -48 -66.5 -76.5t-102.5 -28.5q-64 0 -116.5 21t-89 64.5t-56.5 111t-20 156.5t20 155.5t57.5 108.5t90.5 62t118 20q46 0 90.5 -11t77 -37.5t49 -69t8.5 -101.5l-91 -9q22 160 -136 160q-187 0 -187 -279q0 -98 21.5 -159t62.5 -91
t104 -30q72 0 112.5 36t42.5 103v52h-146zM338 739q-51 0 -87.5 29.5t-36.5 76.5v31h59v-19q0 -25 16.5 -41.5t48.5 -16.5q33 0 52 16.5t19 41.5v19h53v-31q0 -47 -36.5 -76.5t-87.5 -29.5z" />
    <glyph glyph-name="gbreve" unicode="&#x11f;" horiz-adv-x="536" 
d="M51 258q0 52 12 99.5t39 80.5t65.5 50.5t86.5 17.5q95 0 134 -69l40 62h31v-516q0 -34 -10.5 -69t-35.5 -63t-65.5 -46t-95.5 -18q-35 0 -74 9t-67.5 28t-39 48.5t3.5 66.5l77 8q-6 -16 -4.5 -32.5t16.5 -31.5t40.5 -22.5t47.5 -7.5q55 0 88.5 32t33.5 101v107
q-21 -31 -54.5 -49.5t-77.5 -18.5q-37 0 -70.5 12t-61 39t-43.5 73t-16 109zM257 94q67 0 117 52v242q-17 24 -45.5 36.5t-63.5 12.5q-67 0 -96.5 -42.5t-29.5 -128.5t29 -129t89 -43zM255 574q-51 0 -87.5 29.5t-36.5 76.5v31h59v-19q0 -25 16.5 -41.5t48.5 -16.5
q33 0 52 16.5t19 41.5v19h53v-31q0 -47 -36.5 -76.5t-87.5 -29.5z" />
    <glyph glyph-name="Gdotaccent" unicode="&#x120;" horiz-adv-x="640" 
d="M348 251v70h230v-321h-73v93q-23 -48 -66.5 -76.5t-102.5 -28.5q-64 0 -116.5 21t-89 64.5t-56.5 111t-20 156.5t20 155.5t57.5 108.5t90.5 62t118 20q46 0 90.5 -11t77 -37.5t49 -69t8.5 -101.5l-91 -9q22 160 -136 160q-187 0 -187 -279q0 -98 21.5 -159t62.5 -91
t104 -30q74 0 114.5 38t40.5 108v45h-146zM291 770v99h94v-99h-94z" />
    <glyph glyph-name="gdotaccent" unicode="&#x121;" horiz-adv-x="536" 
d="M51 258q0 52 12 99.5t39 80.5t65.5 50.5t86.5 17.5q95 0 134 -69l40 62h31v-516q0 -34 -10.5 -69t-35.5 -63t-65.5 -46t-95.5 -18q-35 0 -74 9t-67.5 28t-39 48.5t3.5 66.5l77 8q-6 -16 -4.5 -32.5t16.5 -31.5t40.5 -22.5t47.5 -7.5q55 0 88.5 32t33.5 101v107
q-21 -31 -54.5 -49.5t-77.5 -18.5q-37 0 -70.5 12t-61 39t-43.5 73t-16 109zM257 94q67 0 117 52v242q-17 24 -45.5 36.5t-63.5 12.5q-67 0 -96.5 -42.5t-29.5 -128.5t29 -129t89 -43zM208 605v99h94v-99h-94z" />
    <glyph glyph-name="Gcommaaccent" unicode="&#x122;" horiz-adv-x="640" 
d="M348 251v70h230v-321h-73v93q-23 -48 -66.5 -76.5t-102.5 -28.5q-64 0 -116.5 21t-89 64.5t-56.5 111t-20 156.5t20 155.5t57.5 108.5t90.5 62t118 20q46 0 90.5 -11t77 -37.5t49 -69t8.5 -101.5l-91 -9q22 160 -136 160q-187 0 -187 -279q0 -98 21.5 -159t62.5 -91
t104 -30q74 0 114.5 38t40.5 108v45h-146zM291 -47h90q0 -52 -22 -95.5t-59 -70.5h-65q56 48 56 166z" />
    <glyph glyph-name="gcommaaccent" unicode="&#x123;" horiz-adv-x="536" 
d="M51 258q0 52 12 99.5t39 80.5t65.5 50.5t86.5 17.5q95 0 134 -69l40 62h31v-516q0 -34 -10.5 -69t-35.5 -63t-65.5 -46t-95.5 -18q-35 0 -74 9t-67.5 28t-39 48.5t3.5 66.5l77 8q-6 -16 -4.5 -32.5t16.5 -31.5t40.5 -22.5t47.5 -7.5q55 0 88.5 32t33.5 101v107
q-21 -31 -54.5 -49.5t-77.5 -18.5q-37 0 -70.5 12t-61 39t-43.5 73t-16 109zM257 94q67 0 117 52v242q-17 24 -45.5 36.5t-63.5 12.5q-67 0 -96.5 -42.5t-29.5 -128.5t29 -129t89 -43zM291 561h-90q0 52 22 95.5t59 70.5h65q-56 -48 -56 -166z" />
    <glyph glyph-name="Hcircumflex" unicode="&#x124;" horiz-adv-x="659" 
d="M88 0v675h91v-285h301v285h91v-675h-91v316h-301v-316h-91zM249 729h-74l115 158h78l115 -158h-74l-80 92z" />
    <glyph glyph-name="hcircumflex" unicode="&#x125;" horiz-adv-x="539" 
d="M381 0v340q0 47 -21 69.5t-69 22.5q-30 0 -61.5 -11.5t-67.5 -46.5v-374h-85v715h85v-289q29 40 64.5 60t85.5 20q43 0 79.5 -15.5t55.5 -51.5t19 -84v-355h-85zM39 746h-74l115 158h78l115 -158h-74l-80 92z" />
    <glyph glyph-name="Hbar" unicode="&#x126;" horiz-adv-x="674" 
d="M14 506v64h81v105h91v-105h301v105h91v-105h84v-64h-84v-506h-91v316h-301v-316h-91v506h-81zM186 506v-116h301v116h-301z" />
    <glyph glyph-name="hbar" unicode="&#x127;" horiz-adv-x="539" 
d="M-10 574v59h87v82h85v-82h119v-59h-119v-148q29 40 64.5 60t85.5 20q43 0 79.5 -15.5t55.5 -51.5t19 -84v-355h-85v340q0 47 -21 69.5t-69 22.5q-30 0 -61.5 -11.5t-67.5 -46.5v-374h-85v574h-87z" />
    <glyph glyph-name="Itilde" unicode="&#x128;" horiz-adv-x="371" 
d="M45 604v71h282v-71h-101v-533h101v-71h-282v71h90v533h-90zM75 755l-52 11q3 26 15.5 52t35.5 41t47 15q18 0 34 -6.5t43 -24.5t43 -18q32 0 42 51l52 -12q-3 -26 -15.5 -52t-35.5 -41t-47 -15q-18 0 -34 6.5t-43 24.5t-43 18q-32 0 -42 -50z" />
    <glyph glyph-name="itilde" unicode="&#x129;" horiz-adv-x="239" 
d="M77 0v494h85v-494h-85zM17 590l-52 11q3 26 15.5 52t35.5 41t47 15q18 0 34 -6.5t43 -24.5t43 -18q32 0 42 51l52 -12q-3 -26 -15.5 -52t-35.5 -41t-47 -15q-18 0 -34 6.5t-43 24.5t-43 18q-32 0 -42 -50z" />
    <glyph glyph-name="Imacron" unicode="&#x12a;" horiz-adv-x="371" 
d="M45 604v71h282v-71h-101v-533h101v-71h-282v71h90v533h-90zM68 779v73h223v-73h-223z" />
    <glyph glyph-name="imacron" unicode="&#x12b;" horiz-adv-x="239" 
d="M77 0v494h85v-494h-85zM10 614v73h223v-73h-223z" />
    <glyph glyph-name="Ibreve" unicode="&#x12c;" horiz-adv-x="371" 
d="M45 604v71h282v-71h-101v-533h101v-71h-282v71h90v533h-90zM179 739q-51 0 -87.5 29.5t-36.5 76.5v31h59v-19q0 -25 16.5 -41.5t48.5 -16.5q33 0 52 16.5t19 41.5v19h53v-31q0 -47 -36.5 -76.5t-87.5 -29.5z" />
    <glyph glyph-name="ibreve" unicode="&#x12d;" horiz-adv-x="239" 
d="M77 0v494h85v-494h-85zM121 574q-51 0 -87.5 29.5t-36.5 76.5v31h59v-19q0 -25 16.5 -41.5t48.5 -16.5q33 0 52 16.5t19 41.5v19h53v-31q0 -47 -36.5 -76.5t-87.5 -29.5z" />
    <glyph glyph-name="Iogonek" unicode="&#x12e;" horiz-adv-x="371" 
d="M45 604v71h282v-71h-101v-533h101v-71h-101q-49 -43 -65 -65.5t-16 -40.5q0 -21 22.5 -32.5t66.5 -11.5v-63q-49 0 -85.5 11.5t-55.5 33t-19 53.5q0 60 95 115h-124v71h90v533h-90z" />
    <glyph glyph-name="iogonek" unicode="&#x12f;" horiz-adv-x="239" 
d="M77 0v494h85v-494q-49 -43 -65 -65.5t-16 -40.5q0 -21 22.5 -32.5t66.5 -11.5v-63q-49 0 -85.5 11.5t-55.5 33t-19 53.5q0 60 95 115h-28zM69 609v101h100v-101h-100z" />
    <glyph glyph-name="Idotaccent" unicode="&#x130;" horiz-adv-x="371" 
d="M45 604v71h282v-71h-101v-533h101v-71h-282v71h90v533h-90zM132 770v99h94v-99h-94z" />
    <glyph glyph-name="dotlessi" unicode="&#x131;" horiz-adv-x="239" 
d="M77 0v494h85v-494h-85z" />
    <glyph glyph-name="Jcircumflex" unicode="&#x134;" horiz-adv-x="481" 
d="M136 604v71h262v-495q0 -89 -49.5 -140.5t-137.5 -51.5q-49 0 -86 16t-58.5 44.5t-27.5 65.5t3 77l80 10q-13 -66 8 -103.5t78 -37.5q48 0 73.5 30.5t25.5 87.5v426h-171zM194 729h-74l115 158h78l115 -158h-74l-80 92z" />
    <glyph glyph-name="jcircumflex" unicode="&#x135;" horiz-adv-x="239" 
d="M77 2v492h85v-484q0 -65 -15.5 -117.5t-54 -79t-93.5 -26.5q-36 0 -72 14l12 74q25 -15 54 -15q42 0 63 33t21 109zM38 564h-74l115 158h78l115 -158h-74l-80 92z" />
    <glyph glyph-name="Kcommaaccent" unicode="&#x136;" horiz-adv-x="595" 
d="M88 0v675h91v-253l-3 -74h4q19 25 53 63l233 264h105l-252 -278l258 -397h-107l-215 330l-76 -87v-243h-91zM272 -47h90q0 -52 -22 -95.5t-59 -70.5h-65q56 48 56 166z" />
    <glyph glyph-name="kcommaaccent" unicode="&#x137;" horiz-adv-x="490" 
d="M77 0v715h85v-436l204 215h96l-179 -185l190 -309h-97l-154 250l-60 -61v-189h-85zM214 -47h90q0 -52 -22 -95.5t-59 -70.5h-65q56 48 56 166z" />
    <glyph glyph-name="Lacute" unicode="&#x139;" horiz-adv-x="505" 
d="M88 0v675h91v-601h301v-74h-392zM336 903l-171 -158h-79l133 158h117z" />
    <glyph glyph-name="lacute" unicode="&#x13a;" horiz-adv-x="267" 
d="M76 84v631h85v-612q0 -37 35 -37q8 0 21.5 5t24.5 15l10 -76q-13 -7 -33.5 -12t-41.5 -5q-28 0 -51 10t-36.5 30t-13.5 51zM298 904l-171 -158h-79l133 158h117z" />
    <glyph glyph-name="Lcommaaccent" unicode="&#x13b;" horiz-adv-x="505" 
d="M88 0v675h91v-601h301v-74h-392zM225 -47h90q0 -52 -22 -95.5t-59 -70.5h-65q56 48 56 166z" />
    <glyph glyph-name="lcommaaccent" unicode="&#x13c;" horiz-adv-x="267" 
d="M76 84v631h85v-612q0 -37 35 -37q8 0 21.5 5t24.5 15l10 -76q-13 -7 -33.5 -12t-41.5 -5q-28 0 -51 10t-36.5 30t-13.5 51zM121 -47h90q0 -52 -22 -95.5t-59 -70.5h-65q56 48 56 166z" />
    <glyph glyph-name="Lcaron" unicode="&#x13d;" horiz-adv-x="508" 
d="M88 0v675h91v-601h301v-74h-392zM361 675h90q0 -49 -15.5 -94.5t-37 -75.5t-38.5 -46l-51 15q28 32 40 75t12 126z" />
    <glyph glyph-name="lcaron" unicode="&#x13e;" horiz-adv-x="276" 
d="M76 84v631h85v-612q0 -37 35 -37q8 0 21.5 5t24.5 15l10 -76q-13 -7 -33.5 -12t-41.5 -5q-28 0 -51 10t-36.5 30t-13.5 51zM241 715h90q0 -49 -15.5 -94.5t-37 -75.5t-38.5 -46l-51 15q28 32 40 75t12 126z" />
    <glyph glyph-name="Ldot" unicode="&#x13f;" horiz-adv-x="506" 
d="M88 0v675h91v-601h301v-74h-392zM327 332v99h94v-99h-94z" />
    <glyph glyph-name="ldot" unicode="&#x140;" horiz-adv-x="343" 
d="M76 84v631h85v-612q0 -37 35 -37q8 0 21.5 5t24.5 15l10 -76q-13 -7 -33.5 -12t-41.5 -5q-28 0 -51 10t-36.5 30t-13.5 51zM248 331v99h94v-99h-94z" />
    <glyph glyph-name="Lslash" unicode="&#x141;" horiz-adv-x="524" 
d="M26 152v78l81 63v382h91v-311l186 146v-78l-186 -146v-212h301v-74h-392v215z" />
    <glyph glyph-name="lslash" unicode="&#x142;" horiz-adv-x="321" 
d="M32 216v76l69 54v369h85v-302l116 91v-76l-116 -91v-234q0 -37 35 -37q8 0 21.5 5t24.5 15l10 -76q-13 -7 -33.5 -12t-41.5 -5q-28 0 -51 10t-36.5 30t-13.5 51v186z" />
    <glyph glyph-name="Nacute" unicode="&#x143;" horiz-adv-x="661" 
d="M88 0v675h77l285 -440q22 -34 50 -90h4q-8 57 -8 101v429h77v-675h-78l-282 436q-25 39 -50 91h-4q6 -55 6 -104v-423h-77zM515 887l-171 -158h-79l133 158h117z" />
    <glyph glyph-name="nacute" unicode="&#x144;" horiz-adv-x="529" 
d="M77 0v494h66l11 -73q32 43 68 64t87 21q67 0 107 -37.5t40 -113.5v-355h-85v340q0 47 -20 69.5t-63 22.5q-30 0 -60.5 -11.5t-65.5 -46.5v-374h-85zM452 722l-171 -158h-79l133 158h117z" />
    <glyph glyph-name="Ncommaaccent" unicode="&#x145;" horiz-adv-x="661" 
d="M88 0v675h77l285 -440q22 -34 50 -90h4q-8 57 -8 101v429h77v-675h-78l-282 436q-25 39 -50 91h-4q6 -55 6 -104v-423h-77zM312 -47h90q0 -52 -22 -95.5t-59 -70.5h-65q56 48 56 166z" />
    <glyph glyph-name="ncommaaccent" unicode="&#x146;" horiz-adv-x="529" 
d="M77 0v494h66l11 -73q32 43 68 64t87 21q67 0 107 -37.5t40 -113.5v-355h-85v340q0 47 -20 69.5t-63 22.5q-30 0 -60.5 -11.5t-65.5 -46.5v-374h-85zM218 -47h90q0 -52 -22 -95.5t-59 -70.5h-65q56 48 56 166z" />
    <glyph glyph-name="Ncaron" unicode="&#x147;" horiz-adv-x="661" 
d="M88 0v675h77l285 -440q22 -34 50 -90h4q-8 57 -8 101v429h77v-675h-78l-282 436q-25 39 -50 91h-4q6 -55 6 -104v-423h-77zM180 887h74l80 -92l80 92h74l-115 -158h-78z" />
    <glyph glyph-name="ncaron" unicode="&#x148;" horiz-adv-x="529" 
d="M77 0v494h66l11 -73q32 43 68 64t87 21q67 0 107 -37.5t40 -113.5v-355h-85v340q0 47 -20 69.5t-63 22.5q-30 0 -60.5 -11.5t-65.5 -46.5v-374h-85zM117 722h74l80 -92l80 92h74l-115 -158h-78z" />
    <glyph glyph-name="napostrophe" unicode="&#x149;" horiz-adv-x="529" 
d="M77 0v494h66l11 -73q32 43 68 64t87 21q67 0 107 -37.5t40 -113.5v-355h-85v340q0 47 -20 69.5t-63 22.5q-30 0 -60.5 -11.5t-65.5 -46.5v-374h-85zM58 715h90q0 -52 -22 -95.5t-59 -70.5h-65q56 48 56 166z" />
    <glyph glyph-name="Eng" unicode="&#x14a;" horiz-adv-x="661" 
d="M88 0v675h77l285 -440q22 -34 50 -90h4q-8 57 -8 101v429h77v-680q0 -69 -18.5 -114.5t-54.5 -69.5t-90 -24q-36 0 -72 14l12 74q25 -15 54 -15q43 0 67.5 33.5t24.5 93.5v13h-1l-282 436q-25 39 -50 91h-4q6 -55 6 -104v-423h-77z" />
    <glyph glyph-name="eng" unicode="&#x14b;" horiz-adv-x="529" 
d="M77 0v494h66l11 -73q32 43 68 64t87 21q67 0 107 -37.5t40 -113.5v-345q0 -65 -15.5 -117.5t-54 -79t-93.5 -26.5q-36 0 -72 14l12 74q25 -15 54 -15q42 0 63 33t21 109v338q0 47 -20 69.5t-63 22.5q-30 0 -60.5 -11.5t-65.5 -46.5v-374h-85z" />
    <glyph glyph-name="Omacron" unicode="&#x14c;" horiz-adv-x="670" 
d="M336 -12q-62 0 -113.5 20t-89.5 63t-58.5 112.5t-20.5 163.5q0 88 21 153.5t58.5 106.5t89 60.5t113.5 19.5t113 -19.5t88 -60.5t57.5 -106.5t20.5 -153.5q0 -97 -21 -167t-58 -112t-88 -61t-112 -19zM334 56q186 0 186 291q0 93 -21.5 152t-62.5 89.5t-102 30.5
q-40 0 -73 -14t-58.5 -45.5t-39.5 -85t-14 -127.5q0 -291 185 -291zM225 779v73h223v-73h-223z" />
    <glyph glyph-name="omacron" unicode="&#x14d;" horiz-adv-x="522" 
d="M50 249q0 67 15.5 117t43.5 80.5t66.5 45t84.5 14.5q47 0 86 -15t67 -46t43.5 -81.5t15.5 -118.5q0 -84 -24 -140t-70 -86.5t-115 -30.5q-47 0 -86 14.5t-67.5 46t-44 82t-15.5 118.5zM262 50q61 0 91.5 51.5t30.5 144.5t-31 145.5t-93 52.5q-61 0 -91.5 -50.5
t-30.5 -143.5q0 -67 15 -111t42.5 -66.5t66.5 -22.5zM152 614v73h223v-73h-223z" />
    <glyph glyph-name="Obreve" unicode="&#x14e;" horiz-adv-x="670" 
d="M336 -12q-62 0 -113.5 20t-89.5 63t-58.5 112.5t-20.5 163.5q0 88 21 153.5t58.5 106.5t89 60.5t113.5 19.5t113 -19.5t88 -60.5t57.5 -106.5t20.5 -153.5q0 -97 -21 -167t-58 -112t-88 -61t-112 -19zM334 56q186 0 186 291q0 93 -21.5 152t-62.5 89.5t-102 30.5
q-40 0 -73 -14t-58.5 -45.5t-39.5 -85t-14 -127.5q0 -291 185 -291zM336 739q-51 0 -87.5 29.5t-36.5 76.5v31h59v-19q0 -25 16.5 -41.5t48.5 -16.5q33 0 52 16.5t19 41.5v19h53v-31q0 -47 -36.5 -76.5t-87.5 -29.5z" />
    <glyph glyph-name="obreve" unicode="&#x14f;" horiz-adv-x="522" 
d="M50 249q0 67 15.5 117t43.5 80.5t66.5 45t84.5 14.5q47 0 86 -15t67 -46t43.5 -81.5t15.5 -118.5q0 -84 -24 -140t-70 -86.5t-115 -30.5q-47 0 -86 14.5t-67.5 46t-44 82t-15.5 118.5zM262 50q61 0 91.5 51.5t30.5 144.5t-31 145.5t-93 52.5q-61 0 -91.5 -50.5
t-30.5 -143.5q0 -67 15 -111t42.5 -66.5t66.5 -22.5zM263 574q-51 0 -87.5 29.5t-36.5 76.5v31h59v-19q0 -25 16.5 -41.5t48.5 -16.5q33 0 52 16.5t19 41.5v19h53v-31q0 -47 -36.5 -76.5t-87.5 -29.5z" />
    <glyph glyph-name="Ohungarumlaut" unicode="&#x150;" horiz-adv-x="670" 
d="M336 -12q-62 0 -113.5 20t-89.5 63t-58.5 112.5t-20.5 163.5q0 88 21 153.5t58.5 106.5t89 60.5t113.5 19.5t113 -19.5t88 -60.5t57.5 -106.5t20.5 -153.5q0 -97 -21 -167t-58 -112t-88 -61t-112 -19zM334 56q186 0 186 291q0 93 -21.5 152t-62.5 89.5t-102 30.5
q-40 0 -73 -14t-58.5 -45.5t-39.5 -85t-14 -127.5q0 -291 185 -291zM282 729h-81l107 158h94zM453 729h-81l107 158h94z" />
    <glyph glyph-name="ohungarumlaut" unicode="&#x151;" horiz-adv-x="522" 
d="M50 249q0 67 15.5 117t43.5 80.5t66.5 45t84.5 14.5q47 0 86 -15t67 -46t43.5 -81.5t15.5 -118.5q0 -84 -24 -140t-70 -86.5t-115 -30.5q-47 0 -86 14.5t-67.5 46t-44 82t-15.5 118.5zM262 50q61 0 91.5 51.5t30.5 144.5t-31 145.5t-93 52.5q-61 0 -91.5 -50.5
t-30.5 -143.5q0 -67 15 -111t42.5 -66.5t66.5 -22.5zM209 564h-81l107 158h94zM380 564h-81l107 158h94z" />
    <glyph glyph-name="OE" unicode="&#x152;" horiz-adv-x="871" 
d="M53 344q0 77 22 139t64.5 105t105 65t141.5 22h430v-74h-300v-210h255v-74h-255v-243h310v-74h-440q-160 0 -246.5 89t-86.5 255zM147 341q0 -267 238 -267h40v527h-40q-44 0 -81 -10.5t-64.5 -30t-47 -47.5t-32.5 -70t-13 -102z" />
    <glyph glyph-name="oe" unicode="&#x153;" horiz-adv-x="831" 
d="M50 249q0 67 15.5 117t43.5 80.5t66.5 45t84.5 14.5q53 0 96 -21t70 -64q28 40 70 62.5t96 22.5q90 0 139.5 -55.5t49.5 -165.5l-2 -48h-311q0 -71 17 -111q30 -72 112 -72q30 0 56 10t38 29.5t12 42.5l-1 13l74 -10l1 -16q0 -62 -50 -98.5t-131 -36.5q-51 0 -96.5 22
t-74.5 62q-13 -20 -35.5 -40.5t-56 -32t-70.5 -11.5q-47 0 -86 14.5t-67.5 46t-44 82t-15.5 118.5zM138 250q0 -67 15 -111t42.5 -66.5t66.5 -22.5q61 0 91.5 51.5t30.5 144.5t-31 145.5t-93 52.5q-61 0 -91.5 -50.5t-30.5 -143.5zM472 300h219v16q0 60 -26.5 94t-74.5 34
q-28 0 -53.5 -15t-42.5 -51t-22 -78z" />
    <glyph glyph-name="Racute" unicode="&#x154;" horiz-adv-x="599" 
d="M88 0v675h240q68 0 114 -24t69 -64t23 -94q0 -41 -13.5 -74t-36.5 -56.5t-52.5 -36t-57.5 -15.5q32 -25 53 -68q3 -6 26.5 -66.5t45.5 -81.5t46 -21q12 0 24 4l-10 -79l-33 -2q-38 0 -63.5 15.5t-44 43.5t-40.5 80q-2 6 -13.5 34t-25 54.5t-28 41.5t-27 20.5t-26.5 5.5
h-79v-292h-91zM327 604h-148v-241h128q35 0 65 12.5t48.5 40t18.5 72.5q0 31 -11.5 58.5t-39.5 42.5t-61 15zM476 887l-171 -158h-79l133 158h117z" />
    <glyph glyph-name="racute" unicode="&#x155;" horiz-adv-x="409" 
d="M77 0v494h66l12 -81q18 41 50.5 67t81.5 26q25 0 47.5 -11t37.5 -38t13.5 -60t-10.5 -54l-75 -9q7 23 7 46t-11 37.5t-36 14.5q-19 0 -40 -11t-36.5 -34.5t-21.5 -46.5v-340h-85zM393 722l-171 -158h-79l133 158h117z" />
    <glyph glyph-name="Rcommaaccent" unicode="&#x156;" horiz-adv-x="599" 
d="M88 0v675h240q68 0 114 -24t69 -64t23 -94q0 -41 -13.5 -74t-36.5 -56.5t-52.5 -36t-57.5 -15.5q32 -25 53 -68q3 -6 26.5 -66.5t45.5 -81.5t46 -21q12 0 24 4l-10 -79l-33 -2q-38 0 -63.5 15.5t-44 43.5t-40.5 80q-2 6 -13.5 34t-25 54.5t-28 41.5t-27 20.5t-26.5 5.5
h-79v-292h-91zM327 604h-148v-241h128q35 0 65 12.5t48.5 40t18.5 72.5q0 31 -11.5 58.5t-39.5 42.5t-61 15zM269 -47h90q0 -52 -22 -95.5t-59 -70.5h-65q56 48 56 166z" />
    <glyph glyph-name="rcommaaccent" unicode="&#x157;" horiz-adv-x="409" 
d="M77 0v494h66l12 -81q18 41 50.5 67t81.5 26q25 0 47.5 -11t37.5 -38t13.5 -60t-10.5 -54l-75 -9q7 23 7 46t-11 37.5t-36 14.5q-19 0 -40 -11t-36.5 -34.5t-21.5 -46.5v-340h-85zM74 -47h90q0 -52 -22 -95.5t-59 -70.5h-65q56 48 56 166z" />
    <glyph glyph-name="Rcaron" unicode="&#x158;" horiz-adv-x="599" 
d="M88 0v675h240q68 0 114 -24t69 -64t23 -94q0 -41 -13.5 -74t-36.5 -56.5t-52.5 -36t-57.5 -15.5q32 -25 53 -68q3 -6 26.5 -66.5t45.5 -81.5t46 -21q12 0 24 4l-10 -79l-33 -2q-38 0 -63.5 15.5t-44 43.5t-40.5 80q-2 6 -13.5 34t-25 54.5t-28 41.5t-27 20.5t-26.5 5.5
h-79v-292h-91zM327 604h-148v-241h128q35 0 65 12.5t48.5 40t18.5 72.5q0 31 -11.5 58.5t-39.5 42.5t-61 15zM141 887h74l80 -92l80 92h74l-115 -158h-78z" />
    <glyph glyph-name="rcaron" unicode="&#x159;" horiz-adv-x="409" 
d="M77 0v494h66l12 -81q18 41 50.5 67t81.5 26q25 0 47.5 -11t37.5 -38t13.5 -60t-10.5 -54l-75 -9q7 23 7 46t-11 37.5t-36 14.5q-19 0 -40 -11t-36.5 -34.5t-21.5 -46.5v-340h-85zM58 722h74l80 -92l80 92h74l-115 -158h-78z" />
    <glyph glyph-name="Sacute" unicode="&#x15a;" horiz-adv-x="580" 
d="M50 199l84 10q-11 -40 2.5 -76t55 -54.5t97.5 -18.5q40 0 76 11t53 37.5t17 57.5q0 35 -21.5 60.5t-55.5 41.5t-68 27q-81 27 -95 33t-28 13t-30 18t-33 29t-29 46t-12 66q0 85 62.5 136t171.5 51q60 0 105 -16t73 -45.5t38.5 -70t4.5 -87.5l-91 -9q21 160 -135 160
q-45 0 -75 -13t-45.5 -37t-15.5 -56q0 -21 9.5 -44t41 -44.5t110.5 -45.5q88 -28 129.5 -53.5t61.5 -62t20 -81.5q0 -40 -15 -75.5t-45.5 -62t-76.5 -41.5t-104 -15q-56 0 -103.5 14t-80 41t-47 67t-6.5 89zM476 887l-171 -158h-79l133 158h117z" />
    <glyph glyph-name="sacute" unicode="&#x15b;" horiz-adv-x="472" 
d="M51 141l73 8q-3 -12 -3 -22q0 -18 11 -37t38.5 -29.5t63.5 -10.5q52 0 77 20.5t25 51.5q0 9 -3 19.5t-12 20t-24.5 18.5t-82.5 32q-94 31 -125 67t-31 86q0 67 50.5 104t134.5 37q34 0 75.5 -10t70.5 -41t29 -77l-2 -29l-84 -10q3 15 3 28q0 18 -10 36.5t-35 29.5t-58 11
q-42 0 -65.5 -19t-23.5 -50q0 -15 5.5 -28t21.5 -26t81 -35q5 -2 31 -10.5t53.5 -20t46.5 -28.5t30 -39t11 -55q0 -67 -53 -106t-141 -39q-48 0 -91 13.5t-68 39.5t-25 63q0 18 6 37zM416 722l-171 -158h-79l133 158h117z" />
    <glyph glyph-name="Scircumflex" unicode="&#x15c;" horiz-adv-x="580" 
d="M50 199l84 10q-11 -40 2.5 -76t55 -54.5t97.5 -18.5q40 0 76 11t53 37.5t17 57.5q0 35 -21.5 60.5t-55.5 41.5t-68 27q-81 27 -95 33t-28 13t-30 18t-33 29t-29 46t-12 66q0 85 62.5 136t171.5 51q60 0 105 -16t73 -45.5t38.5 -70t4.5 -87.5l-91 -9q21 160 -135 160
q-45 0 -75 -13t-45.5 -37t-15.5 -56q0 -21 9.5 -44t41 -44.5t110.5 -45.5q88 -28 129.5 -53.5t61.5 -62t20 -81.5q0 -40 -15 -75.5t-45.5 -62t-76.5 -41.5t-104 -15q-56 0 -103.5 14t-80 41t-47 67t-6.5 89zM214 729h-74l115 158h78l115 -158h-74l-80 92z" />
    <glyph glyph-name="scircumflex" unicode="&#x15d;" horiz-adv-x="472" 
d="M51 141l73 8q-3 -12 -3 -22q0 -18 11 -37t38.5 -29.5t63.5 -10.5q52 0 77 20.5t25 51.5q0 9 -3 19.5t-12 20t-24.5 18.5t-82.5 32q-94 31 -125 67t-31 86q0 67 50.5 104t134.5 37q34 0 75.5 -10t70.5 -41t29 -77l-2 -29l-84 -10q3 15 3 28q0 18 -10 36.5t-35 29.5t-58 11
q-42 0 -65.5 -19t-23.5 -50q0 -15 5.5 -28t21.5 -26t81 -35q5 -2 31 -10.5t53.5 -20t46.5 -28.5t30 -39t11 -55q0 -67 -53 -106t-141 -39q-48 0 -91 13.5t-68 39.5t-25 63q0 18 6 37zM154 564h-74l115 158h78l115 -158h-74l-80 92z" />
    <glyph glyph-name="Scedilla" unicode="&#x15e;" horiz-adv-x="580" 
d="M250 -89l13 78q-51 3 -94 18t-72 41.5t-42 65t-5 85.5l84 10q-11 -40 2.5 -76t55 -54.5t97.5 -18.5q40 0 76 11t53 37.5t17 57.5q0 35 -21.5 60.5t-55.5 41.5t-68 27q-81 27 -95 33t-28 13t-30 18t-33 29t-29 46t-12 66q0 85 62.5 136t171.5 51q60 0 105 -16t73 -45.5
t38.5 -70t4.5 -87.5l-91 -9q21 160 -135 160q-45 0 -75 -13t-45.5 -37t-15.5 -56q0 -21 9.5 -44t41 -44.5t110.5 -45.5q88 -28 129.5 -53.5t61.5 -62t20 -81.5q0 -80 -56.5 -133.5t-160.5 -59.5l-9 -45q18 -3 34.5 -12t24.5 -25t8 -33q0 -39 -29 -63t-67 -24q-19 0 -42 8
t-37 24l18 44q9 -11 24.5 -18.5t31.5 -7.5q18 0 29.5 9t11.5 29q0 36 -50 36h-9z" />
    <glyph glyph-name="scedilla" unicode="&#x15f;" horiz-adv-x="472" 
d="M199 -89l13 78q-47 2 -86 17t-60.5 39t-21.5 59q0 18 6 37l73 8q-3 -12 -3 -22q0 -18 11 -37t38.5 -29.5t63.5 -10.5q52 0 77 20.5t25 51.5q0 9 -3 19.5t-12 20t-24.5 18.5t-82.5 32q-94 31 -125 67t-31 86q0 67 50.5 104t134.5 37q34 0 75.5 -10t70.5 -41t29 -77l-2 -29
l-84 -10q3 15 3 28q0 18 -10 36.5t-35 29.5t-58 11q-42 0 -65.5 -19t-23.5 -50q0 -15 5.5 -28t21.5 -26t81 -35q5 -2 31 -10.5t53.5 -20t46.5 -28.5t30 -39t11 -55q0 -61 -43.5 -98.5t-118.5 -44.5l-9 -46q18 -3 34.5 -12t24.5 -25t8 -33q0 -39 -29 -63t-67 -24q-19 0 -42 8
t-37 24l18 44q9 -11 24.5 -18.5t31.5 -7.5q18 0 29.5 9t11.5 29q0 36 -50 36h-9z" />
    <glyph glyph-name="Scaron" unicode="&#x160;" horiz-adv-x="580" 
d="M50 199l84 10q-11 -40 2.5 -76t55 -54.5t97.5 -18.5q40 0 76 11t53 37.5t17 57.5q0 35 -21.5 60.5t-55.5 41.5t-68 27q-81 27 -95 33t-28 13t-30 18t-33 29t-29 46t-12 66q0 85 62.5 136t171.5 51q60 0 105 -16t73 -45.5t38.5 -70t4.5 -87.5l-91 -9q21 160 -135 160
q-45 0 -75 -13t-45.5 -37t-15.5 -56q0 -21 9.5 -44t41 -44.5t110.5 -45.5q88 -28 129.5 -53.5t61.5 -62t20 -81.5q0 -40 -15 -75.5t-45.5 -62t-76.5 -41.5t-104 -15q-56 0 -103.5 14t-80 41t-47 67t-6.5 89zM141 887h74l80 -92l80 92h74l-115 -158h-78z" />
    <glyph glyph-name="scaron" unicode="&#x161;" horiz-adv-x="472" 
d="M51 141l73 8q-3 -12 -3 -22q0 -18 11 -37t38.5 -29.5t63.5 -10.5q52 0 77 20.5t25 51.5q0 9 -3 19.5t-12 20t-24.5 18.5t-82.5 32q-94 31 -125 67t-31 86q0 67 50.5 104t134.5 37q34 0 75.5 -10t70.5 -41t29 -77l-2 -29l-84 -10q3 15 3 28q0 18 -10 36.5t-35 29.5t-58 11
q-42 0 -65.5 -19t-23.5 -50q0 -15 5.5 -28t21.5 -26t81 -35q5 -2 31 -10.5t53.5 -20t46.5 -28.5t30 -39t11 -55q0 -67 -53 -106t-141 -39q-48 0 -91 13.5t-68 39.5t-25 63q0 18 6 37zM81 722h74l80 -92l80 92h74l-115 -158h-78z" />
    <glyph glyph-name="Tcommaaccent" unicode="&#x162;" horiz-adv-x="534" 
d="M26 601v74h483v-74h-198v-601h-14l-11 -56q18 -3 34.5 -12t24.5 -25t8 -33q0 -39 -29 -63t-67 -24q-19 0 -42 8t-37 24l18 44q9 -11 24.5 -18.5t31.5 -7.5q18 0 29.5 9t11.5 29q0 36 -50 36h-9l15 89h-29v601h-194z" />
    <glyph glyph-name="tcommaaccent" unicode="&#x163;" horiz-adv-x="410" 
d="M209 -89l13 79q-60 7 -86 45.5t-26 98.5v293h-86v67h87l15 141l69 10v-151h162v-67h-162v-278q0 -52 12 -74.5t45 -22.5q35 0 50 25t6 73l74 -10q10 -65 -20 -105t-92 -46l-9 -45q18 -3 34.5 -12t24.5 -25t8 -33q0 -39 -29 -63t-67 -24q-19 0 -42 8t-37 24l18 44
q9 -11 24.5 -18.5t31.5 -7.5q18 0 29.5 9t11.5 29q0 35 -43 36h-16z" />
    <glyph glyph-name="Tcaron" unicode="&#x164;" horiz-adv-x="534" 
d="M26 601v74h483v-74h-198v-601h-91v601h-194zM113 887h74l80 -92l80 92h74l-115 -158h-78z" />
    <glyph glyph-name="tcaron" unicode="&#x165;" horiz-adv-x="410" 
d="M24 427v67h87l15 141l69 10v-151h162v-67h-162v-278q0 -52 12 -74.5t45 -22.5q35 0 50 25t6 73l74 -10q11 -71 -25 -111.5t-108 -40.5t-105.5 38.5t-33.5 107.5v293h-86zM307 730h90q0 -52 -22 -95.5t-59 -70.5h-65q56 48 56 166z" />
    <glyph glyph-name="Tbar" unicode="&#x166;" horiz-adv-x="561" 
d="M40 601v74h483v-74h-198v-190h168v-64h-168v-347h-91v347h-167v64h167v190h-194z" />
    <glyph glyph-name="tbar" unicode="&#x167;" horiz-adv-x="416" 
d="M29 427v67h87l15 141l69 10v-151h162v-67h-162v-108h162v-59h-162v-111q0 -52 12 -74.5t45 -22.5q35 0 50 25t6 73l74 -10q11 -71 -25 -111.5t-108 -40.5t-105.5 38.5t-33.5 107.5v126h-86v59h86v108h-86z" />
    <glyph glyph-name="Utilde" unicode="&#x168;" horiz-adv-x="648" 
d="M83 213v462h91v-458q0 -77 41 -117t112 -40q69 0 110.5 40t41.5 117v458h86v-467q0 -104 -63 -162t-175 -58q-115 0 -179.5 60t-64.5 165zM219 755l-52 11q3 26 15.5 52t35.5 41t47 15q18 0 34 -6.5t43 -24.5t43 -18q32 0 42 51l52 -12q-3 -26 -15.5 -52t-35.5 -41
t-47 -15q-18 0 -34 6.5t-43 24.5t-43 18q-32 0 -42 -50z" />
    <glyph glyph-name="utilde" unicode="&#x169;" horiz-adv-x="520" 
d="M73 139v355h85v-340q0 -47 19 -69.5t60 -22.5q63 0 120 57v375h85v-422l10 -72h-68l-20 71q-63 -83 -144 -83q-69 0 -108 37t-39 114zM152 590l-52 11q3 26 15.5 52t35.5 41t47 15q18 0 34 -6.5t43 -24.5t43 -18q32 0 42 51l52 -12q-3 -26 -15.5 -52t-35.5 -41t-47 -15
q-18 0 -34 6.5t-43 24.5t-43 18q-32 0 -42 -50z" />
    <glyph glyph-name="Umacron" unicode="&#x16a;" horiz-adv-x="648" 
d="M83 213v462h91v-458q0 -77 41 -117t112 -40q69 0 110.5 40t41.5 117v458h86v-467q0 -104 -63 -162t-175 -58q-115 0 -179.5 60t-64.5 165zM212 779v73h223v-73h-223z" />
    <glyph glyph-name="umacron" unicode="&#x16b;" horiz-adv-x="520" 
d="M73 139v355h85v-340q0 -47 19 -69.5t60 -22.5q63 0 120 57v375h85v-422l10 -72h-68l-20 71q-63 -83 -144 -83q-69 0 -108 37t-39 114zM145 614v73h223v-73h-223z" />
    <glyph glyph-name="Ubreve" unicode="&#x16c;" horiz-adv-x="648" 
d="M83 213v462h91v-458q0 -77 41 -117t112 -40q69 0 110.5 40t41.5 117v458h86v-467q0 -104 -63 -162t-175 -58q-115 0 -179.5 60t-64.5 165zM323 739q-51 0 -87.5 29.5t-36.5 76.5v31h59v-19q0 -25 16.5 -41.5t48.5 -16.5q33 0 52 16.5t19 41.5v19h53v-31
q0 -47 -36.5 -76.5t-87.5 -29.5z" />
    <glyph glyph-name="ubreve" unicode="&#x16d;" horiz-adv-x="520" 
d="M73 139v355h85v-340q0 -47 19 -69.5t60 -22.5q63 0 120 57v375h85v-422l10 -72h-68l-20 71q-63 -83 -144 -83q-69 0 -108 37t-39 114zM256 574q-51 0 -87.5 29.5t-36.5 76.5v31h59v-19q0 -25 16.5 -41.5t48.5 -16.5q33 0 52 16.5t19 41.5v19h53v-31q0 -47 -36.5 -76.5
t-87.5 -29.5z" />
    <glyph glyph-name="Uring" unicode="&#x16e;" horiz-adv-x="648" 
d="M83 213v462h91v-458q0 -77 41 -117t112 -40q69 0 110.5 40t41.5 117v458h86v-467q0 -104 -63 -162t-175 -58q-115 0 -179.5 60t-64.5 165zM323 721q-28 0 -52.5 12.5t-34.5 33.5t-10 41q0 21 10 42t34 33t53 12t53 -12t34 -33t10 -42q0 -20 -10 -41t-34.5 -33.5
t-52.5 -12.5zM323 766q21 0 34 11t13 32t-13 32t-34 11t-34 -11t-13 -32t13 -32t34 -11z" />
    <glyph glyph-name="uring" unicode="&#x16f;" horiz-adv-x="520" 
d="M73 139v355h85v-340q0 -47 19 -69.5t60 -22.5q63 0 120 57v375h85v-422l10 -72h-68l-20 71q-63 -83 -144 -83q-69 0 -108 37t-39 114zM256 556q-28 0 -52.5 12.5t-34.5 33.5t-10 41q0 21 10 42t34 33t53 12t53 -12t34 -33t10 -42q0 -20 -10 -41t-34.5 -33.5t-52.5 -12.5z
M256 601q21 0 34 11t13 32t-13 32t-34 11t-34 -11t-13 -32t13 -32t34 -11z" />
    <glyph glyph-name="Uhungarumlaut" unicode="&#x170;" horiz-adv-x="648" 
d="M83 213v462h91v-458q0 -77 41 -117t112 -40q69 0 110.5 40t41.5 117v458h86v-467q0 -104 -63 -162t-175 -58q-115 0 -179.5 60t-64.5 165zM269 729h-81l107 158h94zM440 729h-81l107 158h94z" />
    <glyph glyph-name="uhungarumlaut" unicode="&#x171;" horiz-adv-x="520" 
d="M73 139v355h85v-340q0 -47 19 -69.5t60 -22.5q63 0 120 57v375h85v-422l10 -72h-68l-20 71q-63 -83 -144 -83q-69 0 -108 37t-39 114zM373 564h-81l107 158h94zM202 564h-81l107 158h94z" />
    <glyph glyph-name="Uogonek" unicode="&#x172;" horiz-adv-x="648" 
d="M291 -115q0 56 80 106q-21 -3 -44 -3q-115 0 -179.5 60t-64.5 165v462h91v-458q0 -77 41 -117t112 -40q69 0 110.5 40t41.5 117v458h86v-467q0 -67 -26.5 -115.5t-75.5 -74.5q-4 -4 -33 -29.5t-48.5 -49.5t-19.5 -45t22.5 -32.5t66.5 -11.5v-63q-49 0 -85.5 11.5
t-55.5 33t-19 53.5z" />
    <glyph glyph-name="uogonek" unicode="&#x173;" horiz-adv-x="520" 
d="M73 139v355h85v-340q0 -47 19 -69.5t60 -22.5q63 0 120 57v375h85v-422l10 -72h-1q-49 -43 -65 -65.5t-16 -40.5q0 -21 22.5 -32.5t66.5 -11.5v-63q-49 0 -85.5 11.5t-55.5 33t-19 53.5q0 60 95 115h-10l-20 71q-63 -83 -144 -83q-69 0 -108 37t-39 114z" />
    <glyph glyph-name="Wcircumflex" unicode="&#x174;" horiz-adv-x="889" 
d="M213 0l-185 675h93l135 -495q8 -29 11 -71h4q5 44 12 70l131 496h74l129 -497q7 -27 11 -75h4q7 49 14 75l135 497h80l-185 -675h-103l-110 410q-11 41 -17 96h-4q-5 -54 -16 -94l-109 -412h-104zM369 729h-74l115 158h78l115 -158h-74l-80 92z" />
    <glyph glyph-name="wcircumflex" unicode="&#x175;" horiz-adv-x="741" 
d="M181 0l-153 494h88l98 -332q10 -32 14 -72h4q6 42 15 72l98 332h62l97 -332q10 -32 14 -72h4q5 42 14 72l98 332h79l-153 -494h-90l-86 282q-8 24 -12 58h-4q-3 -33 -11 -57l-86 -283h-90zM293 564h-74l115 158h78l115 -158h-74l-80 92z" />
    <glyph glyph-name="Ycircumflex" unicode="&#x176;" horiz-adv-x="565" 
d="M237 0v284l-223 391h103l137 -244l34 -65h4l33 64l137 245h88l-222 -391v-284h-91zM207 729h-74l115 158h78l115 -158h-74l-80 92z" />
    <glyph glyph-name="ycircumflex" unicode="&#x177;" horiz-adv-x="489" 
d="M49 -112q8 -11 24 -17.5t34 -6.5q63 0 85 61l20 56l-185 513h89l111 -317q10 -28 25 -88h4l26 88l105 317h78l-201 -586q-21 -62 -61 -91.5t-92 -29.5q-16 0 -37 5.5t-35 18.5zM171 564h-74l115 158h78l115 -158h-74l-80 92z" />
    <glyph glyph-name="Ydieresis" unicode="&#x178;" horiz-adv-x="565" 
d="M237 0v284l-223 391h103l137 -244l34 -65h4l33 64l137 245h88l-222 -391v-284h-91zM168 775v89h84v-89h-84zM325 775v89h84v-89h-84z" />
    <glyph glyph-name="Zacute" unicode="&#x179;" horiz-adv-x="531" 
d="M38 0v62l316 499l25 36v4h-326v74h433v-62l-311 -491l-30 -44v-4h341v-74h-448zM447 887l-171 -158h-79l133 158h117z" />
    <glyph glyph-name="zacute" unicode="&#x17a;" horiz-adv-x="447" 
d="M37 0v55l235 333q17 23 27 35v4h-241v67h347v-55l-230 -325q-19 -26 -34 -43v-4h257v-67h-361zM406 722l-171 -158h-79l133 158h117z" />
    <glyph glyph-name="Zdotaccent" unicode="&#x17b;" horiz-adv-x="531" 
d="M38 0v62l316 499l25 36v4h-326v74h433v-62l-311 -491l-30 -44v-4h341v-74h-448zM219 770v99h94v-99h-94z" />
    <glyph glyph-name="zdotaccent" unicode="&#x17c;" horiz-adv-x="447" 
d="M37 0v55l235 333q17 23 27 35v4h-241v67h347v-55l-230 -325q-19 -26 -34 -43v-4h257v-67h-361zM178 605v99h94v-99h-94z" />
    <glyph glyph-name="Zcaron" unicode="&#x17d;" horiz-adv-x="531" 
d="M38 0v62l316 499l25 36v4h-326v74h433v-62l-311 -491l-30 -44v-4h341v-74h-448zM112 887h74l80 -92l80 92h74l-115 -158h-78z" />
    <glyph glyph-name="zcaron" unicode="&#x17e;" horiz-adv-x="447" 
d="M37 0v55l235 333q17 23 27 35v4h-241v67h347v-55l-230 -325q-19 -26 -34 -43v-4h257v-67h-361zM71 722h74l80 -92l80 92h74l-115 -158h-78z" />
    <glyph glyph-name="florin" unicode="&#x192;" horiz-adv-x="554" 
d="M65 310l9 64h150l26 198q20 158 158 158q82 0 114.5 -38.5t11.5 -103.5l-77 -10q15 43 3.5 66.5t-48.5 23.5q-34 0 -50.5 -25.5t-22.5 -74.5l-26 -194h167l-9 -64h-166l-45 -344q-4 -32 -18.5 -70t-50.5 -63t-92 -25q-75 0 -105.5 39.5t-11.5 102.5l76 10
q-9 -20 -10.5 -41.5t12.5 -35t38 -13.5q34 0 50.5 25.5t22.5 74.5l44 340h-150z" />
    <glyph glyph-name="AEacute" unicode="&#x1fc;" horiz-adv-x="825" 
d="M379 0v198h-199l-87 -198h-91l300 675h468v-74h-300v-210h255v-74h-255v-243h310v-74h-401zM361 611l-149 -339h167v339h-18zM694 887l-171 -158h-79l133 158h117z" />
    <glyph glyph-name="aeacute" unicode="&#x1fd;" horiz-adv-x="783" 
d="M42 127q0 46 25 82t73 58.5t114 22.5q57 0 81 -16v70q0 100 -95 100q-50 0 -73.5 -26t-11.5 -74l-84 10q-6 28 -2 56t24.5 49t57.5 34t91 13q119 0 152 -75q52 75 152 75q43 0 77.5 -13.5t59 -41t37.5 -70t13 -97.5l-2 -57h-311q2 -85 32 -129t96 -44q35 0 60.5 12
t37.5 32.5t8 50.5l74 -10q3 -25 -4 -51.5t-29 -48.5t-58.5 -36.5t-87.5 -14.5q-64 0 -111 25t-73 76q-15 -30 -42 -55t-61 -35.5t-64 -10.5q-41 0 -79 16.5t-57.5 50t-19.5 72.5zM131 132q0 -38 22.5 -57t58.5 -19q68 0 139 67q-16 46 -16 106h-50q-154 0 -154 -97zM422 290
h221v26q0 60 -26.5 94t-73.5 34q-48 0 -80.5 -37.5t-40.5 -116.5zM573 722l-171 -158h-79l133 158h117z" />
    <glyph glyph-name="Oslashacute" unicode="&#x1fe;" horiz-adv-x="669" 
d="M47 -60l84 133q-77 90 -77 274q0 88 21 153.5t58.5 106.5t89 60.5t113.5 19.5q92 0 156 -41l56 89h73l-82 -130q76 -87 76 -258q0 -97 -21 -167t-58 -112t-88 -61t-112 -19q-94 0 -159 43l-57 -91h-73zM334 56q186 0 186 291q0 110 -32 177l-269 -426q43 -42 115 -42z
M149 347q0 -124 32 -194l268 425q-45 41 -115 41q-40 0 -73 -14t-58.5 -45.5t-39.5 -85t-14 -127.5zM511 887l-171 -158h-79l133 158h117z" />
    <glyph glyph-name="oslashacute" unicode="&#x1ff;" horiz-adv-x="521" 
d="M36 -60l70 111q-56 67 -56 198q0 67 15.5 117t43.5 80.5t66.5 45t84.5 14.5q31 0 62 -7.5t53 -21.5l51 80h68l-75 -119q53 -67 53 -193q0 -84 -24 -140t-70 -86.5t-115 -30.5q-30 0 -60 7t-52 19l-47 -74h-68zM136 250q0 -74 19 -122l182 287q-15 15 -36 23t-41 8
q-39 0 -66 -21.5t-42.5 -64.5t-15.5 -110zM262 48q61 0 92.5 52.5t31.5 145.5q0 69 -16 115l-181 -286q30 -27 73 -27zM443 722l-171 -158h-79l133 158h117z" />
    <glyph glyph-name="Scommaaccent" unicode="&#x218;" horiz-adv-x="580" 
d="M50 199l84 10q-11 -40 2.5 -76t55 -54.5t97.5 -18.5q40 0 76 11t53 37.5t17 57.5q0 35 -21.5 60.5t-55.5 41.5t-68 27q-81 27 -95 33t-28 13t-30 18t-33 29t-29 46t-12 66q0 85 62.5 136t171.5 51q60 0 105 -16t73 -45.5t38.5 -70t4.5 -87.5l-91 -9q21 160 -135 160
q-45 0 -75 -13t-45.5 -37t-15.5 -56q0 -21 9.5 -44t41 -44.5t110.5 -45.5q88 -28 129.5 -53.5t61.5 -62t20 -81.5q0 -40 -15 -75.5t-45.5 -62t-76.5 -41.5t-104 -15q-56 0 -103.5 14t-80 41t-47 67t-6.5 89zM243 -47h90q0 -52 -22 -95.5t-59 -70.5h-65q56 48 56 166z" />
    <glyph glyph-name="scommaaccent" unicode="&#x219;" horiz-adv-x="472" 
d="M51 141l73 8q-3 -12 -3 -22q0 -18 11 -37t38.5 -29.5t63.5 -10.5q52 0 77 20.5t25 51.5q0 9 -3 19.5t-12 20t-24.5 18.5t-82.5 32q-94 31 -125 67t-31 86q0 67 50.5 104t134.5 37q34 0 75.5 -10t70.5 -41t29 -77l-2 -29l-84 -10q3 15 3 28q0 18 -10 36.5t-35 29.5t-58 11
q-42 0 -65.5 -19t-23.5 -50q0 -15 5.5 -28t21.5 -26t81 -35q5 -2 31 -10.5t53.5 -20t46.5 -28.5t30 -39t11 -55q0 -67 -53 -106t-141 -39q-48 0 -91 13.5t-68 39.5t-25 63q0 18 6 37zM197 -47h90q0 -52 -22 -95.5t-59 -70.5h-65q56 48 56 166z" />
    <glyph glyph-name="uni021A" unicode="&#x21a;" horiz-adv-x="534" 
d="M26 601v74h483v-74h-198v-601h-91v601h-194zM219 -47h90q0 -52 -22 -95.5t-59 -70.5h-65q56 48 56 166z" />
    <glyph glyph-name="uni021B" unicode="&#x21b;" horiz-adv-x="410" 
d="M24 427v67h87l15 141l69 10v-151h162v-67h-162v-278q0 -52 12 -74.5t45 -22.5q35 0 50 25t6 73l74 -10q11 -71 -25 -111.5t-108 -40.5t-105.5 38.5t-33.5 107.5v293h-86zM204 -47h90q0 -52 -22 -95.5t-59 -70.5h-65q56 48 56 166z" />
    <glyph glyph-name="uni0237" unicode="&#x237;" horiz-adv-x="239" 
d="M77 2v492h85v-484q0 -65 -15.5 -117.5t-54 -79t-93.5 -26.5q-36 0 -72 14l12 74q25 -15 54 -15q42 0 63 33t21 109z" />
    <glyph glyph-name="circumflex" unicode="&#x2c6;" horiz-adv-x="502" 
d="M171 564h-74l115 158h78l115 -158h-74l-80 92z" />
    <glyph glyph-name="caron" unicode="&#x2c7;" horiz-adv-x="502" 
d="M97 722h74l80 -92l80 92h74l-115 -158h-78z" />
    <glyph glyph-name="breve" unicode="&#x2d8;" horiz-adv-x="502" 
d="M251 574q-51 0 -87.5 29.5t-36.5 76.5v31h59v-19q0 -25 16.5 -41.5t48.5 -16.5q33 0 52 16.5t19 41.5v19h53v-31q0 -47 -36.5 -76.5t-87.5 -29.5z" />
    <glyph glyph-name="dotaccent" unicode="&#x2d9;" horiz-adv-x="503" 
d="M207 605v99h94v-99h-94z" />
    <glyph glyph-name="ring" unicode="&#x2da;" horiz-adv-x="502" 
d="M251 556q-28 0 -52.5 12.5t-34.5 33.5t-10 41q0 21 10 42t34 33t53 12t53 -12t34 -33t10 -42q0 -20 -10 -41t-34.5 -33.5t-52.5 -12.5zM251 601q21 0 34 11t13 32t-13 32t-34 11t-34 -11t-13 -32t13 -32t34 -11z" />
    <glyph glyph-name="ogonek" unicode="&#x2db;" horiz-adv-x="504" 
d="M165 -115q0 34 30.5 66t109.5 73l34 -4q-6 -6 -34.5 -31t-48.5 -49.5t-20 -45.5t22.5 -32.5t66.5 -11.5v-63q-49 0 -85.5 11.5t-55.5 33t-19 53.5z" />
    <glyph glyph-name="tilde" unicode="&#x2dc;" horiz-adv-x="502" 
d="M149 590l-52 11q3 26 15.5 52t35.5 41t47 15q18 0 34 -6.5t43 -24.5t43 -18q32 0 42 51l52 -12q-3 -26 -15.5 -52t-35.5 -41t-47 -15q-18 0 -34 6.5t-43 24.5t-43 18q-32 0 -42 -50z" />
    <glyph glyph-name="hungarumlaut" unicode="&#x2dd;" horiz-adv-x="503" 
d="M194 564h-81l107 158h94zM365 564h-81l107 158h94z" />
    <glyph glyph-name="Wgrave" unicode="&#x1e80;" horiz-adv-x="889" 
d="M213 0l-185 675h93l135 -495q8 -29 11 -71h4q5 44 12 70l131 496h74l129 -497q7 -27 11 -75h4q7 49 14 75l135 497h80l-185 -675h-103l-110 410q-11 41 -17 96h-4q-5 -54 -16 -94l-109 -412h-104zM440 729l-171 158h117l133 -158h-79z" />
    <glyph glyph-name="wgrave" unicode="&#x1e81;" horiz-adv-x="741" 
d="M181 0l-153 494h88l98 -332q10 -32 14 -72h4q6 42 15 72l98 332h62l97 -332q10 -32 14 -72h4q5 42 14 72l98 332h79l-153 -494h-90l-86 282q-8 24 -12 58h-4q-3 -33 -11 -57l-86 -283h-90zM364 564l-171 158h117l133 -158h-79z" />
    <glyph glyph-name="Wacute" unicode="&#x1e82;" horiz-adv-x="889" 
d="M213 0l-185 675h93l135 -495q8 -29 11 -71h4q5 44 12 70l131 496h74l129 -497q7 -27 11 -75h4q7 49 14 75l135 497h80l-185 -675h-103l-110 410q-11 41 -17 96h-4q-5 -54 -16 -94l-109 -412h-104zM631 887l-171 -158h-79l133 158h117z" />
    <glyph glyph-name="wacute" unicode="&#x1e83;" horiz-adv-x="741" 
d="M181 0l-153 494h88l98 -332q10 -32 14 -72h4q6 42 15 72l98 332h62l97 -332q10 -32 14 -72h4q5 42 14 72l98 332h79l-153 -494h-90l-86 282q-8 24 -12 58h-4q-3 -33 -11 -57l-86 -283h-90zM555 722l-171 -158h-79l133 158h117z" />
    <glyph glyph-name="Wdieresis" unicode="&#x1e84;" horiz-adv-x="889" 
d="M213 0l-185 675h93l135 -495q8 -29 11 -71h4q5 44 12 70l131 496h74l129 -497q7 -27 11 -75h4q7 49 14 75l135 497h80l-185 -675h-103l-110 410q-11 41 -17 96h-4q-5 -54 -16 -94l-109 -412h-104zM330 775v89h84v-89h-84zM487 775v89h84v-89h-84z" />
    <glyph glyph-name="wdieresis" unicode="&#x1e85;" horiz-adv-x="741" 
d="M181 0l-153 494h88l98 -332q10 -32 14 -72h4q6 42 15 72l98 332h62l97 -332q10 -32 14 -72h4q5 42 14 72l98 332h79l-153 -494h-90l-86 282q-8 24 -12 58h-4q-3 -33 -11 -57l-86 -283h-90zM254 610v89h84v-89h-84zM411 610v89h84v-89h-84z" />
    <glyph glyph-name="Ygrave" unicode="&#x1ef2;" horiz-adv-x="565" 
d="M237 0v284l-223 391h103l137 -244l34 -65h4l33 64l137 245h88l-222 -391v-284h-91zM278 729l-171 158h117l133 -158h-79z" />
    <glyph glyph-name="ygrave" unicode="&#x1ef3;" horiz-adv-x="489" 
d="M49 -112q8 -11 24 -17.5t34 -6.5q63 0 85 61l20 56l-185 513h89l111 -317q10 -28 25 -88h4l26 88l105 317h78l-201 -586q-21 -62 -61 -91.5t-92 -29.5q-16 0 -37 5.5t-35 18.5zM242 564l-171 158h117l133 -158h-79z" />
    <glyph glyph-name="endash" unicode="&#x2013;" horiz-adv-x="619" 
d="M71 224v70h477v-70h-477z" />
    <glyph glyph-name="emdash" unicode="&#x2014;" horiz-adv-x="839" 
d="M71 224v70h697v-70h-697z" />
    <glyph glyph-name="quoteleft" unicode="&#x2018;" horiz-adv-x="247" 
d="M65 409v145q0 51 27.5 90.5t79.5 55.5l22 -49q-18 -4 -36 -17t-27.5 -37.5t-9.5 -51.5v-22h50v-114h-106z" />
    <glyph glyph-name="quoteright" unicode="&#x2019;" horiz-adv-x="241" 
d="M76 404l-22 49q18 4 36 17t27.5 37.5t9.5 51.5v22h-50v114h106v-145q0 -51 -27.5 -90.5t-79.5 -55.5z" />
    <glyph glyph-name="quotesinglbase" unicode="&#x201a;" horiz-adv-x="249" 
d="M73 0v114h106v-145q0 -51 -27.5 -90.5t-79.5 -55.5l-22 49q18 4 36 17t27.5 37.5t9.5 51.5v22h-50z" />
    <glyph glyph-name="quotedblleft" unicode="&#x201c;" horiz-adv-x="414" 
d="M232 409v145q0 51 27.5 90.5t79.5 55.5l22 -49q-18 -4 -36 -17t-27.5 -37.5t-9.5 -51.5v-22h50v-114h-106zM66 409v145q0 51 23.5 90.5t68.5 55.5l22 -49q-14 -4 -28 -17t-22 -37.5t-8 -51.5v-22h50v-114h-106z" />
    <glyph glyph-name="quotedblright" unicode="&#x201d;" horiz-adv-x="408" 
d="M257 404l-22 49q14 4 28 17t22 37.5t8 51.5v22h-50v114h106v-145q0 -51 -23.5 -90.5t-68.5 -55.5zM76 404l-22 49q18 4 36 17t27.5 37.5t9.5 51.5v22h-50v114h106v-145q0 -51 -27.5 -90.5t-79.5 -55.5z" />
    <glyph glyph-name="quotedblbase" unicode="&#x201e;" horiz-adv-x="415" 
d="M73 0v114h106v-145q0 -51 -27.5 -90.5t-79.5 -55.5l-22 49q18 4 36 17t27.5 37.5t9.5 51.5v22h-50zM239 0v114h106v-145q0 -51 -23.5 -90.5t-68.5 -55.5l-22 49q14 4 28 17t22 37.5t8 51.5v22h-50z" />
    <glyph glyph-name="dagger" unicode="&#x2020;" horiz-adv-x="398" 
d="M159 -119v541h-130v72h130v181h80v-181h130v-72h-130v-541h-80z" />
    <glyph glyph-name="daggerdbl" unicode="&#x2021;" horiz-adv-x="460" 
d="M60 61v72h130v289h-130v72h130v181h80v-181h130v-72h-130v-289h130v-72h-130v-180h-80v180h-130z" />
    <glyph glyph-name="bullet" unicode="&#x2022;" horiz-adv-x="462" 
d="M231 136q-40 0 -78.5 21t-59.5 59.5t-21 78.5t21 78.5t59.5 59.5t78.5 21t78.5 -21t59.5 -59.5t21 -78.5t-21 -78.5t-59.5 -59.5t-78.5 -21z" />
    <glyph glyph-name="ellipsis" unicode="&#x2026;" horiz-adv-x="806" 
d="M68 0v114h106v-114h-106zM350 0v114h106v-114h-106zM632 0v114h106v-114h-106z" />
    <glyph glyph-name="perthousand" unicode="&#x2030;" horiz-adv-x="1011" 
d="M230 527q0 59 -18 84t-46 25q-64 0 -64 -109q0 -61 18 -86.5t46 -25.5q27 0 45.5 26t18.5 86zM297 528q0 -53 -15 -89t-44 -55.5t-72 -19.5q-60 0 -95.5 40t-35.5 123t35 121.5t96 38.5q37 0 65 -14t47 -48.5t19 -96.5zM201 0l228 675h68l-228 -675h-68zM600 151
q0 59 -18 84t-46 25q-64 0 -64 -109q0 -61 18 -86.5t46 -25.5q27 0 45.5 26t18.5 86zM667 152q0 -53 -15 -89t-44 -55.5t-72 -19.5q-60 0 -95.5 40t-35.5 123t35 121.5t96 38.5q37 0 65 -14t47 -48.5t19 -96.5zM910 151q0 59 -18 84t-46 25q-64 0 -64 -109q0 -61 18 -86.5
t46 -25.5q27 0 45.5 26t18.5 86zM977 152q0 -53 -15 -89t-44 -55.5t-72 -19.5q-60 0 -95.5 40t-35.5 123t35 121.5t96 38.5q37 0 65 -14t47 -48.5t19 -96.5z" />
    <glyph glyph-name="guilsinglleft" unicode="&#x2039;" horiz-adv-x="352" 
d="M201 49l-171 198l172 200h97l-174 -199l174 -199h-98z" />
    <glyph glyph-name="guilsinglright" unicode="&#x203a;" horiz-adv-x="352" 
d="M53 49l174 199l-174 199h97l172 -200l-171 -198h-98z" />
    <glyph glyph-name="fraction" unicode="&#x2044;" horiz-adv-x="343" 
d="M14 0l228 675h88l-228 -675h-88z" />
    <glyph glyph-name="Euro" unicode="&#x20ac;" 
d="M26 387v64h76q21 119 88.5 177.5t173.5 58.5q97 0 152 -46l-30 -72q-42 44 -116 44q-142 0 -176 -162h258v-64h-266l-1 -52l2 -48h265v-64h-257q35 -163 172 -163q76 0 127 53l30 -69q-60 -56 -161 -56q-76 0 -129 29t-85.5 80t-46.5 126h-76v64h69l-2 51l2 49h-69z" />
    <glyph glyph-name="trademark" unicode="&#x2122;" horiz-adv-x="820" 
d="M392 352v323h87l90 -176l92 176h82v-323h-62v233l-105 -200h-18l-104 204v-237h-62zM167 352v266h-110v57h284v-57h-112v-266h-62z" />
    <glyph glyph-name="minus" unicode="&#x2212;" 
d="M50 234v74h450v-74h-450z" />
    <glyph glyph-name="approxequal" unicode="&#x2248;" 
d="M94 115l-46 51q64 69 140 69q42 0 83.5 -22.5t57 -26t26.5 -3.5q22 0 44.5 10.5t52.5 45.5l49 -48q-34 -41 -68.5 -60t-77.5 -19q-30 0 -49 6.5t-55 26t-63 19.5q-20 0 -42 -9t-52 -40zM94 306l-46 51q64 69 140 69q42 0 83.5 -22.5t57 -26t26.5 -3.5q22 0 44.5 10.5
t52.5 45.5l49 -48q-34 -41 -68.5 -60t-77.5 -19q-30 0 -49 6.5t-55 26t-63 19.5q-20 0 -42 -9t-52 -40z" />
    <glyph glyph-name="notequal" unicode="&#x2260;" 
d="M50 338v74h282l85 148l44 -25l-70 -123h109v-74h-152l-77 -136h229v-74h-271l-83 -145l-45 26l68 119h-119v74h161l78 136h-239z" />
    <glyph glyph-name="lessequal" unicode="&#x2264;" 
d="M61 335v72l410 194v-82l-317 -148l317 -148v-82zM50 0v74h450v-74h-450z" />
    <glyph glyph-name="greaterequal" unicode="&#x2265;" 
d="M489 407v-72l-410 -194v82l316 148l-316 148v82zM500 74v-74h-450v74h450z" />
    <glyph glyph-name="uniF6C3" unicode="&#xf6c3;" horiz-adv-x="188" 
d="M74 -47h90q0 -52 -22 -95.5t-59 -70.5h-65q56 48 56 166z" />
    <glyph glyph-name="i.locl" horiz-adv-x="239" 
d="M69 609v101h100v-101h-100zM77 0v494h85v-494h-85z" />
    <glyph glyph-name="glyph318" horiz-adv-x="500" 
d="M255 675h90q0 -49 -15.5 -94.5t-37 -75.5t-38.5 -46l-51 15q28 32 40 75t12 126z" />
    <glyph glyph-name="zero.tnum" 
d="M45 341q0 91 17 158t47.5 108t72.5 60.5t93 19.5q50 0 92 -19t72.5 -60.5t47.5 -108t17 -157.5q0 -92 -17.5 -160.5t-48.5 -111t-73 -62.5t-91 -20q-50 0 -92 20.5t-72.5 63.5t-47.5 111t-17 158zM136 340q0 -133 34.5 -203.5t103.5 -70.5t104 70.5t35 203.5
q0 269 -139 269q-138 0 -138 -269z" />
    <glyph glyph-name="one.tnum" 
d="M113 0v74h146v462q-49 -52 -165 -52v79q41 -4 84.5 9t71 41.5t40.5 61.5h60v-601h126v-74h-363z" />
    <glyph glyph-name="two.tnum" 
d="M59 0v66q116 82 177.5 141t95 111t45 93.5t11.5 73.5q0 66 -34 100t-85 34q-24 0 -51.5 -11.5t-45 -43t-17.5 -74.5q0 -28 7 -55t16 -44l-93 10q-8 15 -14.5 40t-6.5 51q0 58 27 102t72.5 68.5t108.5 24.5q95 0 153 -54.5t58 -142.5q0 -46 -20 -101.5t-63 -113
t-102.5 -110.5t-122.5 -89v-2h313v-74h-429z" />
    <glyph glyph-name="three.tnum" 
d="M56 192l80 10q-6 -21 -3.5 -45.5t16.5 -46.5t41 -38t64 -16q34 0 67 17t52 58t19 97q0 73 -34 113.5t-98 40.5q-54 0 -96 -38l-43 47l238 210h-280v74h374v-86l-174 -154q43 4 81.5 -8.5t67 -40t44 -68.5t15.5 -90q0 -53 -18 -98t-50 -76.5t-75 -48.5t-91 -17
q-43 0 -83.5 14.5t-70 42t-41.5 65.5t-2 82z" />
    <glyph glyph-name="four.tnum" 
d="M29 165v66l315 444h81v-436h85v-74h-85v-165h-89v165h-307zM119 239h217v301z" />
    <glyph glyph-name="five.tnum" 
d="M87 339l35 336h325v-74h-258l-19 -181q39 46 114 46q35 0 71 -11.5t66 -39.5t49.5 -73t19.5 -107q0 -54 -17 -100t-47.5 -79t-72 -50.5t-89.5 -17.5q-56 0 -109 26t-77.5 75t-14.5 103l80 10q-10 -61 25 -103.5t95 -42.5q39 0 71.5 21.5t46.5 62.5t14 87q0 79 -35 124
t-96 45q-27 0 -51.5 -8t-38.5 -24t-19 -34z" />
    <glyph glyph-name="six.tnum" 
d="M53 334q0 171 65 262t182 91q57 0 104 -23.5t66.5 -67.5t11.5 -93l-91 -9q6 41 -4 68t-33.5 42t-55.5 15q-33 0 -61 -16t-49 -51t-32.5 -91t-11.5 -131q25 51 62.5 76.5t96.5 25.5q87 0 142.5 -59.5t55.5 -157.5q0 -46 -13.5 -87t-41 -72.5t-69.5 -49.5t-95 -18
q-55 0 -98.5 24t-72.5 69.5t-43.5 110t-14.5 142.5zM150 245q0 -23 8.5 -56t18.5 -54q37 -79 111 -79q31 0 59 17t43.5 57t15.5 83q0 27 -9 61.5t-38 59t-77 24.5q-31 0 -61 -12.5t-50.5 -40.5t-20.5 -60z" />
    <glyph glyph-name="seven.tnum" 
d="M65 498v177h436v-89q-108 -169 -170 -312t-77 -274h-99q10 91 63 225.5t125 247.5q42 66 88 124v4h-284v-103h-82z" />
    <glyph glyph-name="eight.tnum" 
d="M48 178q0 68 34 111t95 69q-96 59 -96 155q0 51 25 89t71.5 61.5t106.5 23.5q41 0 71.5 -10t55 -27t43.5 -49t19 -77q0 -44 -17.5 -78t-43.5 -53t-48 -28q45 -21 75 -45.5t46.5 -56t16.5 -74.5q0 -39 -15.5 -75.5t-44.5 -65t-71 -44.5t-93 -16q-44 0 -85.5 12.5t-74 36.5
t-51.5 60t-19 81zM410 171q0 17 -4.5 33.5t-16.5 33.5t-32.5 31.5t-41.5 24.5t-48 21.5t-35 15.5q-28 -14 -52 -36t-35.5 -51t-11.5 -59q0 -41 18.5 -69.5t52.5 -44t74 -15.5q65 0 98.5 34.5t33.5 80.5zM173 523q0 -39 26.5 -69t105.5 -63q22 11 42.5 30.5t30.5 46t10 50.5
q0 44 -27.5 72.5t-78.5 28.5q-38 0 -64.5 -16t-35.5 -38.5t-9 -41.5z" />
    <glyph glyph-name="nine.tnum" 
d="M52 460q0 46 13 87t40 72.5t68.5 49.5t94.5 18q55 0 98.5 -24t72.5 -69.5t43.5 -110t14.5 -142.5q0 -171 -65 -262t-182 -91q-92 0 -143 52.5t-37 131.5l80 8q-7 -41 4 -68.5t37 -41.5t61 -14q33 0 61 16t49 51t32.5 91t11.5 131q-25 -51 -61.5 -76.5t-94.5 -25.5
q-87 0 -142.5 59.5t-55.5 157.5zM147 462q0 -27 9 -61.5t38 -59t77 -24.5q31 0 60.5 12.5t49 40.5t19.5 60q0 23 -8.5 56t-18.5 54q-37 79 -111 79q-23 0 -42 -8t-34 -24t-27 -48.5t-12 -76.5z" />
    <glyph glyph-name="space.tnum" horiz-adv-x="275" 
 />
    <glyph glyph-name="comma.tnum" horiz-adv-x="275" 
d="M87 0v114h111v-145q0 -51 -27.5 -90.5t-79.5 -55.5l-22 49q18 4 36 17t27.5 37.5t9.5 51.5v22h-55z" />
    <glyph glyph-name="period.tnum" horiz-adv-x="275" 
d="M84 0v114h106v-114h-106z" />
    <glyph glyph-name="hyphen.tnum" horiz-adv-x="275" 
d="M16 219v85h247v-85h-247z" />
    </font>
</defs>
</svg>
