<svg xmlns="http://www.w3.org/2000/svg" xmlns:xlink="http://www.w3.org/1999/xlink" width="202.952" height="75" viewBox="0 0 202.952 75">
  <defs>
    <linearGradient id="linear-gradient" x1="-0.183" y1="0.105" x2="0.432" y2="0.415" gradientUnits="objectBoundingBox">
      <stop offset="0" stop-color="#f8f3a8"/>
      <stop offset="1" stop-color="#f8f3a8" stop-opacity="0"/>
    </linearGradient>
    <linearGradient id="linear-gradient-2" x1="1.231" y1="0.173" x2="0.625" y2="0.409" gradientUnits="objectBoundingBox">
      <stop offset="0" stop-color="#670011"/>
      <stop offset="1" stop-color="#670011" stop-opacity="0"/>
    </linearGradient>
  </defs>
  <g id="Group_16" data-name="Group 16" transform="translate(-283 -135)">
    <g id="Group_8" data-name="Group 8" transform="translate(251.1 110)">
      <path id="Path_1" data-name="Path 1" d="M66.812,25h0L31.9,37.45l5.325,46.162L66.812,100h0L96.4,83.612l5.325-46.162Z" transform="translate(0 0)" fill="#dd0031"/>
      <path id="Path_2" data-name="Path 2" d="M125,25V71.275h0V100h0l29.587-16.388,5.325-46.162Z" transform="translate(-58.188 0)" fill="#c3002f"/>
      <path id="Path_3" data-name="Path 3" d="M138.612,96.037h8.138L125,47.1V63l6.375,15.337H125v6.75h9.225Z" transform="translate(-58.188 -13.812)" fill="#ff3030"/>
      <path id="Path_4" data-name="Path 4" d="M75.138,96.037H67L88.75,47.1V63L82.375,78.337H88.75v6.75H79.525Z" transform="translate(-21.938 -13.812)" fill="#fff"/>
      <g id="Group_7" data-name="Group 7" transform="translate(75.325 49.787)">
        <g id="Group_5" data-name="Group 5" transform="translate(0 0)">
          <path id="Path_5" data-name="Path 5" d="M154,91.835a2.534,2.534,0,0,1,.788,2.1v5.287h-2.1V94.461a2.125,2.125,0,0,0-.15-.937,1.154,1.154,0,0,0-1.162-.6,1.438,1.438,0,0,0-1.425.9,2.782,2.782,0,0,0-.188,1.2V99.26H147.7V91.386h1.988v1.162a3.613,3.613,0,0,1,.75-.862,2.66,2.66,0,0,1,1.613-.488A2.784,2.784,0,0,1,154,91.835Z" transform="translate(-147.7 -91.16)" fill="#fff"/>
          <path id="Path_6" data-name="Path 6" d="M174.812,91.323a2.661,2.661,0,0,1,1.2,1.125V91.323H178v7.463a4.208,4.208,0,0,1-.525,2.287c-.6.9-1.725,1.313-3.375,1.313a4.269,4.269,0,0,1-2.437-.6,2.2,2.2,0,0,1-1.05-1.762h2.25a1.37,1.37,0,0,0,.262.525,1.777,1.777,0,0,0,1.125.262,1.545,1.545,0,0,0,1.5-.75,3.932,3.932,0,0,0,.263-1.613V97.96a2.164,2.164,0,0,1-.638.75,2.61,2.61,0,0,1-1.575.45,2.948,2.948,0,0,1-2.4-1.05,4.294,4.294,0,0,1-.9-2.888,4.911,4.911,0,0,1,.863-2.925,2.862,2.862,0,0,1,2.475-1.2A2.489,2.489,0,0,1,174.812,91.323Zm.712,5.625a2.5,2.5,0,0,0,.488-1.725,2.452,2.452,0,0,0-.488-1.687,1.6,1.6,0,0,0-1.275-.6,1.529,1.529,0,0,0-1.5,1.013,3.5,3.5,0,0,0-.225,1.35,2.979,2.979,0,0,0,.225,1.2,1.5,1.5,0,0,0,1.5,1.012A1.837,1.837,0,0,0,175.525,96.948Z" transform="translate(-161.95 -91.098)" fill="#fff"/>
        </g>
        <g id="Group_6" data-name="Group 6" transform="translate(0 12.787)">
          <path id="Path_7" data-name="Path 7" d="M154.15,126.173a2.273,2.273,0,0,1,.413,1.312,1.927,1.927,0,0,1-.413,1.275,1.961,1.961,0,0,1-.675.488,1.91,1.91,0,0,1,1.012.75,2.309,2.309,0,0,1,.337,1.275,2.487,2.487,0,0,1-.375,1.387,2.587,2.587,0,0,1-.6.675,2.129,2.129,0,0,1-.975.45,6.322,6.322,0,0,1-1.238.113H147.7v-8.7h4.2A2.775,2.775,0,0,1,154.15,126.173Zm-4.725.6v1.912h2.1a1.827,1.827,0,0,0,.938-.225.848.848,0,0,0,.338-.75.742.742,0,0,0-.45-.788,3.614,3.614,0,0,0-1.012-.15Zm0,3.375v2.325h2.1a2.049,2.049,0,0,0,.9-.15,1.11,1.11,0,0,0,.563-1.087.958.958,0,0,0-.562-.938,1.875,1.875,0,0,0-.862-.15Z" transform="translate(-147.7 -125.198)" fill="#fff"/>
          <path id="Path_8" data-name="Path 8" d="M176,125.585a2.9,2.9,0,0,1,1.5,1.087,4.063,4.063,0,0,1,.637,1.425,6.355,6.355,0,0,1,.15,1.425,5.686,5.686,0,0,1-.712,2.962,3.148,3.148,0,0,1-2.925,1.613H170.9v-8.7h3.75A3.441,3.441,0,0,1,176,125.585Zm-3.337,1.313v5.7h1.687a1.8,1.8,0,0,0,1.8-1.275,4.354,4.354,0,0,0,.263-1.65,4.088,4.088,0,0,0-.413-2.025,1.707,1.707,0,0,0-1.65-.713h-1.687Z" transform="translate(-162.2 -125.323)" fill="#fff"/>
        </g>
        <rect id="Rectangle_8" data-name="Rectangle 8" width="7.762" height="1.537" transform="translate(0 9.713)" fill="#fff"/>
      </g>
      <path id="Path_9" data-name="Path 9" d="M71.879,33.831l-31.3,11.163,4.875,42.261,2.262,1.253Z" transform="translate(-5.422 -5.52)" fill="url(#linear-gradient)"/>
      <path id="Path_10" data-name="Path 10" d="M127.125,33.831l31.3,11.163-4.875,42.261-2.262,1.253Z" transform="translate(-59.515 -5.52)" fill="url(#linear-gradient-2)"/>
    </g>
    <g id="Angular-BD_Meetup" data-name="Angular-BD Meetup" transform="translate(2404.832 -594.075)">
      <g id="Group_28" data-name="Group 28">
        <path id="Path_439" data-name="Path 439" d="M-2036.359,749.874h4.056l5.472,16.2h-4.056L-2031.9,763h-5.424l-.984,3.072h-3.5Zm0,10.152h3.48l-1.1-3.408a12.758,12.758,0,0,1-.552-2.784h-.1a17.006,17.006,0,0,1-.6,2.76Z" fill="#dd0031"/>
        <path id="Path_440" data-name="Path 440" d="M-2025.585,754.1h2.856l.457,2.16a5.171,5.171,0,0,1,1.812-1.955,4.1,4.1,0,0,1,1.956-.492,3.6,3.6,0,0,1,2.6.959,3.656,3.656,0,0,1,1,2.76v8.545h-3.865V758.3a1.851,1.851,0,0,0-.288-1.153,1.1,1.1,0,0,0-.912-.359,2.4,2.4,0,0,0-1.752.863v8.425h-3.865Z" fill="#dd0031"/>
        <path id="Path_441" data-name="Path 441" d="M-2012.468,756.438a4.585,4.585,0,0,1,1.7-1.967,4.62,4.62,0,0,1,2.484-.66,4.342,4.342,0,0,1,2.136.492,3.794,3.794,0,0,1,1.392,1.283l1.32-1.607h1.464v12.264a4.455,4.455,0,0,1-1.607,3.6,6.3,6.3,0,0,1-4.177,1.344,9.03,9.03,0,0,1-2.22-.264,5.2,5.2,0,0,1-1.764-.78,2.407,2.407,0,0,1-.949-1.309,2.747,2.747,0,0,1,.157-1.775l3.072-.336a1.332,1.332,0,0,0,.24,1.4,2.021,2.021,0,0,0,1.512.517q1.872,0,1.872-1.969V763.7a3.128,3.128,0,0,1-2.9,1.609,3.886,3.886,0,0,1-3.216-1.441,6.379,6.379,0,0,1-1.152-4.08A7.658,7.658,0,0,1-2012.468,756.438Zm6.636,5.485v-4.968a2.278,2.278,0,0,0-1.464-.408q-1.92,0-1.92,3.048,0,3.023,1.824,3.024A2.269,2.269,0,0,0-2005.832,761.923Z" fill="#dd0031"/>
        <path id="Path_442" data-name="Path 442" d="M-1999.641,754.1h3.865v7.777a1.9,1.9,0,0,0,.276,1.152,1,1,0,0,0,.852.36,2.281,2.281,0,0,0,1.7-.84V754.1h3.865v9.529l.287,2.448h-2.808l-.864-2.04a4.821,4.821,0,0,1-1.74,1.861,4.089,4.089,0,0,1-1.908.467,3.638,3.638,0,0,1-1.92-.48,3.116,3.116,0,0,1-1.2-1.3,4.289,4.289,0,0,1-.409-1.944Z" fill="#dd0031"/>
        <path id="Path_443" data-name="Path 443" d="M-1986.633,748.914h3.864v13.561q0,.816.672.816a1.655,1.655,0,0,0,.54-.132,2.278,2.278,0,0,0,.661-.4l.335,2.9a7.5,7.5,0,0,1-1.307.4,7.127,7.127,0,0,1-1.572.18,3.071,3.071,0,0,1-2.413-.876,3.65,3.65,0,0,1-.78-2.508Z" fill="#dd0031"/>
        <path id="Path_444" data-name="Path 444" d="M-1979.805,761.239a3.658,3.658,0,0,1,1.153-1.224,5.163,5.163,0,0,1,1.631-.72,7,7,0,0,1,1.716-.229,3.5,3.5,0,0,1,1.705.361v-1.609a2.032,2.032,0,0,0-.324-1.271,1.163,1.163,0,0,0-.972-.408,1.426,1.426,0,0,0-.816.227,1,1,0,0,0-.408.733,2.661,2.661,0,0,0,.1,1.1l-3.577-.407a2.81,2.81,0,0,1,.229-2.125,3.389,3.389,0,0,1,1.727-1.367,7.978,7.978,0,0,1,2.989-.492,5.484,5.484,0,0,1,3.648,1.031,3.71,3.71,0,0,1,1.2,2.976v4.7a1.152,1.152,0,0,0,.132.6.4.4,0,0,0,.348.216,1,1,0,0,0,.349-.1,1.171,1.171,0,0,0,.419-.312l.193,2.545a4.142,4.142,0,0,1-1.129.54,4.476,4.476,0,0,1-1.392.227,2.559,2.559,0,0,1-1.632-.492,2.3,2.3,0,0,1-.816-1.355,3.187,3.187,0,0,1-1.38,1.463,4.026,4.026,0,0,1-1.956.5,3.479,3.479,0,0,1-2.532-1,3.3,3.3,0,0,1-1.021-2.46A3.292,3.292,0,0,1-1979.805,761.239Zm6.205,1.716v-1.8l-.624-.023a3.269,3.269,0,0,0-1.68.372,1.216,1.216,0,0,0-.624,1.116,1.083,1.083,0,0,0,.336.852,1.318,1.318,0,0,0,.912.3A2.23,2.23,0,0,0-1973.6,762.955Z" fill="#dd0031"/>
        <path id="Path_445" data-name="Path 445" d="M-1966.978,754.1h2.857l.5,2.449a4.931,4.931,0,0,1,.8-1.488,3.209,3.209,0,0,1,1.176-.949,3.3,3.3,0,0,1,1.38-.3,3,3,0,0,1,1.368.324,2.5,2.5,0,0,1,1.069,1.115,3.555,3.555,0,0,1,.383,1.824,5.265,5.265,0,0,1-.372,1.849l-3.24.456a3.27,3.27,0,0,0,.216-1.273,1.407,1.407,0,0,0-.287-.912.823.823,0,0,0-.624-.288,1.085,1.085,0,0,0-.744.3,2.729,2.729,0,0,0-.624,1.14v7.728h-3.866Z" fill="#dd0031"/>
        <path id="Path_446" data-name="Path 446" d="M-1956.25,758.106h6.889v3.241h-6.889Z" fill="#dd0031"/>
        <path id="Path_447" data-name="Path 447" d="M-1946.817,749.874h6.936q5.017,0,5.017,3.912a3.457,3.457,0,0,1-.72,2.269,4.528,4.528,0,0,1-2.593,1.283v.1a4.657,4.657,0,0,1,2.821,1.2,3.706,3.706,0,0,1,1,2.76,5.691,5.691,0,0,1-.264,1.692,3.7,3.7,0,0,1-.912,1.512,4.76,4.76,0,0,1-1.68,1.068,6.725,6.725,0,0,1-2.472.408h-7.129Zm5.76,6.216q2.114,0,2.113-1.68a1.725,1.725,0,0,0-.4-1.176,1.9,1.9,0,0,0-1.475-.457h-2.017v3.313Zm.384,7.081a2.714,2.714,0,0,0,1.273-.288,1.638,1.638,0,0,0,.78-.828,2.805,2.805,0,0,0,.227-1.092,2.157,2.157,0,0,0-.227-.948,1.634,1.634,0,0,0-.792-.744,2.833,2.833,0,0,0-1.261-.277h-2.16v4.177Z" fill="#dd0031"/>
        <path id="Path_448" data-name="Path 448" d="M-1932.226,749.874h6.193a8.264,8.264,0,0,1,2.833.468,6.024,6.024,0,0,1,2.267,1.452,6.658,6.658,0,0,1,1.513,2.52,10.8,10.8,0,0,1,.54,3.577,11.171,11.171,0,0,1-.528,3.576,7.035,7.035,0,0,1-1.477,2.58,5.936,5.936,0,0,1-2.267,1.524,8.015,8.015,0,0,1-2.881.5h-6.193Zm5.809,13.3a2.885,2.885,0,0,0,2.616-1.368,7.349,7.349,0,0,0,.864-3.912q0-5.113-3.48-5.114h-1.8v10.394Z" fill="#dd0031"/>
      </g>
      <g id="Group_29" data-name="Group 29">
        <path id="Path_449" data-name="Path 449" d="M-2040.368,770.874h4.969l2.64,7.225a21.8,21.8,0,0,1,.7,2.328h.1a18.066,18.066,0,0,1,.7-2.328l2.568-7.225h4.728v16.2h-3.744v-8.184a31.778,31.778,0,0,1,.264-3.217h-.1a24.239,24.239,0,0,1-.792,3.1l-3.12,8.3h-1.8l-3.144-8.3a19.586,19.586,0,0,1-.744-2.953h-.1q.168,2.113.168,3.073v8.184h-3.288Z" fill="#2c3778"/>
        <path id="Path_450" data-name="Path 450" d="M-2021.563,778.818a6.133,6.133,0,0,1,1.055-2.076,4.9,4.9,0,0,1,1.824-1.416,6.034,6.034,0,0,1,2.557-.515,5.979,5.979,0,0,1,2.892.623,4.118,4.118,0,0,1,1.74,1.837,7,7,0,0,1,.6,3.108l-.072,1.248h-7.056a7.086,7.086,0,0,0,.215,1.62,1.921,1.921,0,0,0,.7,1.1,1.965,1.965,0,0,0,1.2.372,2.24,2.24,0,0,0,1.332-.384,1.183,1.183,0,0,0,.54-1.008l-.024-.288,3.048.408.025.432a2.75,2.75,0,0,1-.24,1.152,3.143,3.143,0,0,1-.672.948,3.932,3.932,0,0,1-1.021.708,6.626,6.626,0,0,1-1.416.48,7.573,7.573,0,0,1-1.716.192,7.2,7.2,0,0,1-2.316-.36,5.107,5.107,0,0,1-1.86-1.092,4.906,4.906,0,0,1-1.237-1.9,7.552,7.552,0,0,1-.444-2.7A8.727,8.727,0,0,1-2021.563,778.818Zm4.32-1.175a4.226,4.226,0,0,0-.66,1.9h3.144l.024-.407a3.627,3.627,0,0,0-.168-1.1,1.443,1.443,0,0,0-.5-.768,1.215,1.215,0,0,0-.72-.239A1.365,1.365,0,0,0-2017.243,777.643Z" fill="#2c3778"/>
        <path id="Path_451" data-name="Path 451" d="M-2009.324,778.818a6.133,6.133,0,0,1,1.055-2.076,4.906,4.906,0,0,1,1.825-1.416,6.027,6.027,0,0,1,2.556-.515,5.979,5.979,0,0,1,2.892.623,4.108,4.108,0,0,1,1.74,1.837,6.987,6.987,0,0,1,.6,3.108l-.073,1.248h-7.056a7.152,7.152,0,0,0,.216,1.62,1.92,1.92,0,0,0,.7,1.1,1.965,1.965,0,0,0,1.2.372,2.24,2.24,0,0,0,1.332-.384,1.18,1.18,0,0,0,.54-1.008l-.024-.288,3.049.408.023.432a2.752,2.752,0,0,1-.239,1.152,3.126,3.126,0,0,1-.672.948,3.934,3.934,0,0,1-1.021.708,6.626,6.626,0,0,1-1.416.48,7.565,7.565,0,0,1-1.715.192,7.209,7.209,0,0,1-2.317-.36,5.107,5.107,0,0,1-1.86-1.092,4.906,4.906,0,0,1-1.237-1.9,7.574,7.574,0,0,1-.444-2.7A8.727,8.727,0,0,1-2009.324,778.818Zm4.32-1.175a4.238,4.238,0,0,0-.66,1.9h3.144l.024-.407a3.627,3.627,0,0,0-.168-1.1,1.432,1.432,0,0,0-.5-.768,1.215,1.215,0,0,0-.72-.239A1.368,1.368,0,0,0-2005,777.643Z" fill="#2c3778"/>
        <path id="Path_452" data-name="Path 452" d="M-1997.912,775.1h2.088l.552-3.432,3.024-.456V775.1h3.7v2.449h-3.7v5.736a2.772,2.772,0,0,0,.144.947.632.632,0,0,0,.672.4.738.738,0,0,0,.733-.528,3.282,3.282,0,0,0,.011-1.632l3.025.456a3.664,3.664,0,0,1-.876,3.216,4.5,4.5,0,0,1-3.421,1.224,4.378,4.378,0,0,1-3.06-1,3.845,3.845,0,0,1-1.092-2.988v-5.832h-1.8Z" fill="#2c3778"/>
        <path id="Path_453" data-name="Path 453" d="M-1986.393,775.1h3.865v7.777a1.9,1.9,0,0,0,.276,1.152,1,1,0,0,0,.852.36,2.28,2.28,0,0,0,1.7-.84V775.1h3.865v9.529l.287,2.448h-2.808l-.864-2.04a4.814,4.814,0,0,1-1.74,1.861,4.089,4.089,0,0,1-1.908.467,3.638,3.638,0,0,1-1.92-.48,3.116,3.116,0,0,1-1.2-1.3,4.289,4.289,0,0,1-.409-1.944Z" fill="#2c3778"/>
        <path id="Path_454" data-name="Path 454" d="M-1973.361,775.1h2.76l.456,1.945a3.727,3.727,0,0,1,3.409-2.232,4.079,4.079,0,0,1,2.268.66,4.6,4.6,0,0,1,1.644,2.015,8.335,8.335,0,0,1,.624,3.469,8.473,8.473,0,0,1-.66,3.576,4.918,4.918,0,0,1-1.752,2.124,4.382,4.382,0,0,1-2.436.708,2.862,2.862,0,0,1-2.448-1.128v5.785h-3.865Zm4.608,2.689a2.529,2.529,0,0,0-.743.623v5.761a2.268,2.268,0,0,0,1.368.456,1.646,1.646,0,0,0,1.56-.876,5.769,5.769,0,0,0,.48-2.677,5.811,5.811,0,0,0-.469-2.652,1.453,1.453,0,0,0-1.332-.875A1.766,1.766,0,0,0-1968.753,777.787Z" fill="#2c3778"/>
      </g>
    </g>
  </g>
</svg>
