<svg xmlns="http://www.w3.org/2000/svg" xmlns:xlink="http://www.w3.org/1999/xlink" width="204" height="75" viewBox="0 0 204 75">
  <defs>
    <linearGradient id="linear-gradient" x1="-0.183" y1="0.105" x2="0.432" y2="0.415" gradientUnits="objectBoundingBox">
      <stop offset="0" stop-color="#f8f3a8"/>
      <stop offset="1" stop-color="#f8f3a8" stop-opacity="0"/>
    </linearGradient>
    <linearGradient id="linear-gradient-2" x1="1.231" y1="0.173" x2="0.625" y2="0.409" gradientUnits="objectBoundingBox">
      <stop offset="0" stop-color="#670011"/>
      <stop offset="1" stop-color="#670011" stop-opacity="0"/>
    </linearGradient>
  </defs>
  <g id="Group_15" data-name="Group 15" transform="translate(-283 -135)">
    <g id="Group_8" data-name="Group 8" transform="translate(251.1 110)">
      <path id="Path_1" data-name="Path 1" d="M66.9,25h0l-35,12.45,5.338,46.162L66.9,100h0L96.562,83.612,101.9,37.45Z" transform="translate(0 0)" fill="#dd0031"/>
      <path id="Path_2" data-name="Path 2" d="M125,25V71.275h0V100h0l29.587-16.388,5.325-46.162Z" transform="translate(-58.013 0)" fill="#c3002f"/>
      <path id="Path_3" data-name="Path 3" d="M138.612,96.037h8.138L125,47.1V63l6.375,15.337H125v6.75h9.225Z" transform="translate(-58.06 -13.812)" fill="#ff3030"/>
      <path id="Path_4" data-name="Path 4" d="M75.138,96.037H67L88.75,47.1V63L82.375,78.337H88.75v6.75H79.525Z" transform="translate(-21.89 -13.812)" fill="#fff"/>
      <g id="Group_7" data-name="Group 7" transform="translate(75.5 49.787)">
        <g id="Group_5" data-name="Group 5" transform="translate(0 0)">
          <path id="Path_5" data-name="Path 5" d="M154,91.835a2.534,2.534,0,0,1,.788,2.1v5.287h-2.1V94.461a2.125,2.125,0,0,0-.15-.937,1.154,1.154,0,0,0-1.162-.6,1.438,1.438,0,0,0-1.425.9,2.782,2.782,0,0,0-.188,1.2V99.26H147.7V91.386h1.988v1.162a3.613,3.613,0,0,1,.75-.862,2.66,2.66,0,0,1,1.613-.488A2.784,2.784,0,0,1,154,91.835Z" transform="translate(-147.7 -91.16)" fill="#fff"/>
          <path id="Path_6" data-name="Path 6" d="M174.812,91.323a2.661,2.661,0,0,1,1.2,1.125V91.323H178v7.463a4.208,4.208,0,0,1-.525,2.287c-.6.9-1.725,1.313-3.375,1.313a4.269,4.269,0,0,1-2.437-.6,2.2,2.2,0,0,1-1.05-1.762h2.25a1.37,1.37,0,0,0,.262.525,1.777,1.777,0,0,0,1.125.262,1.545,1.545,0,0,0,1.5-.75,3.932,3.932,0,0,0,.263-1.613V97.96a2.164,2.164,0,0,1-.638.75,2.61,2.61,0,0,1-1.575.45,2.948,2.948,0,0,1-2.4-1.05,4.294,4.294,0,0,1-.9-2.888,4.911,4.911,0,0,1,.863-2.925,2.862,2.862,0,0,1,2.475-1.2A2.489,2.489,0,0,1,174.812,91.323Zm.712,5.625a2.5,2.5,0,0,0,.488-1.725,2.452,2.452,0,0,0-.488-1.687,1.6,1.6,0,0,0-1.275-.6,1.529,1.529,0,0,0-1.5,1.013,3.5,3.5,0,0,0-.225,1.35,2.979,2.979,0,0,0,.225,1.2,1.5,1.5,0,0,0,1.5,1.012A1.837,1.837,0,0,0,175.525,96.948Z" transform="translate(-161.95 -91.098)" fill="#fff"/>
        </g>
        <g id="Group_6" data-name="Group 6" transform="translate(0 12.787)">
          <path id="Path_7" data-name="Path 7" d="M154.15,126.173a2.273,2.273,0,0,1,.413,1.312,1.927,1.927,0,0,1-.413,1.275,1.961,1.961,0,0,1-.675.488,1.91,1.91,0,0,1,1.012.75,2.309,2.309,0,0,1,.337,1.275,2.487,2.487,0,0,1-.375,1.387,2.587,2.587,0,0,1-.6.675,2.129,2.129,0,0,1-.975.45,6.322,6.322,0,0,1-1.238.113H147.7v-8.7h4.2A2.775,2.775,0,0,1,154.15,126.173Zm-4.725.6v1.912h2.1a1.827,1.827,0,0,0,.938-.225.848.848,0,0,0,.338-.75.742.742,0,0,0-.45-.788,3.614,3.614,0,0,0-1.012-.15Zm0,3.375v2.325h2.1a2.049,2.049,0,0,0,.9-.15,1.11,1.11,0,0,0,.563-1.087.958.958,0,0,0-.562-.938,1.875,1.875,0,0,0-.862-.15Z" transform="translate(-147.7 -125.198)" fill="#fff"/>
          <path id="Path_8" data-name="Path 8" d="M176,125.585a2.9,2.9,0,0,1,1.5,1.087,4.063,4.063,0,0,1,.637,1.425,6.355,6.355,0,0,1,.15,1.425,5.686,5.686,0,0,1-.712,2.962,3.148,3.148,0,0,1-2.925,1.613H170.9v-8.7h3.75A3.441,3.441,0,0,1,176,125.585Zm-3.337,1.313v5.7h1.687a1.8,1.8,0,0,0,1.8-1.275,4.354,4.354,0,0,0,.263-1.65,4.088,4.088,0,0,0-.413-2.025,1.707,1.707,0,0,0-1.65-.713h-1.687Z" transform="translate(-162.2 -125.323)" fill="#fff"/>
        </g>
        <rect id="Rectangle_8" data-name="Rectangle 8" width="7.762" height="1.537" transform="translate(0 9.713)" fill="#fff"/>
      </g>
      <path id="Path_9" data-name="Path 9" d="M71.879,33.831l-31.3,11.163,4.875,42.261,2.262,1.253Z" transform="translate(-5.422 -5.52)" fill="url(#linear-gradient)"/>
      <path id="Path_10" data-name="Path 10" d="M127.125,33.831l31.3,11.163-4.875,42.261-2.262,1.253Z" transform="translate(-59.34 -5.52)" fill="url(#linear-gradient-2)"/>
    </g>
    <text id="Angular-BD_Meetup" data-name="Angular-BD
Meetup" transform="translate(363 172)" fill="#dd0031" font-size="24" font-family="TensoW00-Bold" font-weight="700"><tspan x="0" y="0">Angular-BD</tspan><tspan fill="#2c3778"><tspan x="0" y="21">Meetup</tspan></tspan></text>
  </g>
</svg>
