<?xml version="1.0" standalone="no"?>
<!DOCTYPE svg PUBLIC "-//W3C//DTD SVG 1.1//EN" "http://www.w3.org/Graphics/SVG/1.1/DTD/svg11.dtd" >
<svg>
<metadata>
Created by FontForge 20120731 at Mon Jul  1 17:52:03 2019
 By www
Copyright (c) 2013 by Jos Buivenga. All rights reserved.
</metadata>
<defs>
<font id="TensoW00-Bold" horiz-adv-x="550" >
  <font-face 
    font-family="TensoW00-Bold"
    font-weight="700"
    font-stretch="normal"
    units-per-em="1000"
    panose-1="2 0 0 0 0 0 0 0 0 0"
    ascent="800"
    descent="-200"
    x-height="499"
    cap-height="675"
    bbox="-101 -225 1072 908"
    underline-thickness="50"
    underline-position="-75"
    unicode-range="U+0020-FB03"
  />
<missing-glyph horiz-adv-x="482" 
d="M0 0v675h482v-675h-482zM241 381l164 246h-328zM270 337l164 -245v491zM48 92l164 245l-164 246v-491zM77 48h328l-164 246z" />
    <glyph glyph-name="uniFB00" unicode="ff" horiz-adv-x="720" 
d="M416 0v398h-169v-398h-161v398h-75v101h75v50q0 183 198 183q62 0 100.5 -19.5t51.5 -53.5q43 83 173 83q110 0 155 -47t20 -120l-136 -15q6 22 7 42t-8.5 29t-27.5 9q-23 0 -32.5 -18.5t-9.5 -61.5v-61h137v-101h-137v-398h-161zM247 550v-51h169v60v13l-91 -12
q8 39 0 54.5t-32 15.5q-26 0 -36 -18t-10 -62z" />
    <glyph glyph-name="uniFB01" unicode="fi" horiz-adv-x="606" 
d="M394 0v398h-147v-398h-161v398h-75v101h75v60q0 183 209 183q57 0 98 -13t63.5 -36.5t26.5 -53.5t-9 -64l-136 -15q13 43 4 61.5t-41 18.5q-30 0 -42 -17.5t-12 -62.5v-61h308v-499h-161z" />
    <glyph glyph-name="uniFB03" unicode="ffi" horiz-adv-x="936" 
d="M416 0v398h-169v-398h-161v398h-75v101h75v50q0 183 198 183q62 0 101.5 -20.5t51.5 -54.5q47 85 188 85q57 0 98 -13t63.5 -36.5t26.5 -53.5t-9 -64l-136 -15q13 43 4 61.5t-41 18.5q-30 0 -42 -17.5t-12 -62.5v-61h308v-499h-161v398h-147v-398h-161zM247 550v-51h169
v60v13l-91 -12q8 39 0 54.5t-32 15.5q-26 0 -36 -18t-10 -62z" />
    <glyph glyph-name="f_j.liga" unicode="fj" horiz-adv-x="606" 
d="M394 -16v414h-147v-398h-161v398h-75v101h75v60q0 183 209 183q57 0 98 -13t63.5 -36.5t26.5 -53.5t-9 -64l-136 -15q13 43 4 61.5t-41 18.5q-30 0 -42 -17.5t-12 -62.5v-61h308v-469q0 -61 -14 -107.5t-40.5 -76.5t-63 -44.5t-81.5 -14.5q-54 0 -114 21l22 125
q31 -18 63 -18q67 0 67 69z" />
    <glyph glyph-name=".notdef" horiz-adv-x="482" 
d="M0 0v675h482v-675h-482zM241 381l164 246h-328zM270 337l164 -245v491zM48 92l164 245l-164 246v-491zM77 48h328l-164 246z" />
    <glyph glyph-name=".null" horiz-adv-x="0" 
 />
    <glyph glyph-name="nonmarkingreturn" horiz-adv-x="333" 
 />
    <glyph glyph-name="space" unicode=" " horiz-adv-x="187" 
 />
    <glyph glyph-name="exclam" unicode="!" horiz-adv-x="266" 
d="M93 240q0 4 -1 21t-23 164.5t-22 249.5h171q0 -55 -7 -126t-23 -178t-16 -131h-79zM61 0v146h145v-146h-145z" />
    <glyph glyph-name="quotedbl" unicode="&#x22;" horiz-adv-x="396" 
d="M69 426l-44 289h147l-45 -289h-58zM268 426l-44 289h147l-45 -289h-58z" />
    <glyph glyph-name="numbersign" unicode="#" horiz-adv-x="674" 
d="M356 0l32 175h-162l-32 -175h-93l32 175h-106v92h123l26 140h-100v92h118l33 176h93l-33 -176h162l33 176h93l-33 -176h105v-92h-123l-26 -140h100v-92h-117l-32 -175h-93zM269 407l-26 -140h162l26 140h-162z" />
    <glyph glyph-name="dollar" unicode="$" 
d="M252 -107v107q-54 3 -98.5 18.5t-74.5 43t-42.5 68t-4.5 90.5l131 14q-18 -113 89 -125v160l-2 1q-80 27 -122.5 56.5t-63 69.5t-20.5 88q0 83 54.5 133.5t153.5 56.5v108h61v-108q45 -3 87.5 -18.5t70.5 -44.5t40 -70.5t2 -91.5l-138 -14q7 59 -8 89.5t-54 38.5v-157h2
q72 -23 114 -45t68 -60t26 -95q0 -61 -27.5 -104.5t-73.5 -68.5t-109 -31v-109h-61zM377 179q0 25 -16.5 41t-47.5 28v-138q64 13 64 69zM190 499q0 -46 62 -71v137q-62 -10 -62 -66z" />
    <glyph glyph-name="percent" unicode="%" horiz-adv-x="760" 
d="M225 527q0 25 -5.5 48.5t-18.5 34.5t-30 11q-54 0 -54 -94q0 -52 15.5 -74.5t38.5 -22.5t38.5 22.5t15.5 74.5zM317 528q0 -53 -16.5 -89t-48.5 -55.5t-81 -19.5q-67 0 -106.5 40t-39.5 123t39 121.5t107 38.5q41 0 75.5 -15.5t52.5 -53.5t18 -90zM219 0l228 675h98
l-228 -675h-98zM643 151q0 25 -5.5 48.5t-18.5 34.5t-30 11q-54 0 -54 -94q0 -52 15.5 -74.5t38.5 -22.5t38.5 22.5t15.5 74.5zM735 152q0 -53 -16.5 -89t-48.5 -55.5t-81 -19.5q-67 0 -106.5 40t-39.5 123t39 121.5t107 38.5q41 0 75.5 -15.5t52.5 -53.5t18 -90z" />
    <glyph glyph-name="ampersand" unicode="&#x26;" horiz-adv-x="673" 
d="M18 173q0 30 13 62.5t44.5 63.5t76.5 60q-17 37 -28.5 77.5t-11.5 73.5q0 54 26.5 94t72 61.5t108.5 21.5q87 0 136.5 -39.5t49.5 -105.5q0 -52 -36 -100t-147 -110q13 -22 45 -64q34 -44 71 -79q26 31 41 67t15 71q0 28 -9 50l114 -12q8 -21 8 -52q0 -45 -20.5 -96.5
t-55.5 -94.5q38 -19 76 -19q31 0 53 12l-10 -104q-10 -7 -32 -12t-52 -5q-33 0 -70 11t-69 29q-80 -46 -175 -46q-39 0 -79.5 9.5t-74.5 32.5t-57 59.5t-23 83.5zM246 521q0 -38 26 -96q66 35 86.5 60t20.5 49q0 25 -17 40t-46 15q-32 0 -51 -19t-19 -49zM270 97q32 0 62 11
q-40 37 -74 82q-28 34 -53 73q-21 -16 -35.5 -33.5t-14.5 -43.5q0 -20 11.5 -41t40 -34.5t63.5 -13.5z" />
    <glyph glyph-name="quotesingle" unicode="'" horiz-adv-x="197" 
d="M69 426l-44 289h147l-45 -289h-58z" />
    <glyph glyph-name="parenleft" unicode="(" horiz-adv-x="281" 
d="M203 -155q-25 14 -59 52.5t-60.5 97.5t-41.5 133.5t-15 169.5q0 94 15 168.5t41.5 133t60.5 97t59 52.5l69 -61q-23 -18 -52 -68.5t-47.5 -134.5t-18.5 -187t18.5 -187t47.5 -135.5t52 -69.5z" />
    <glyph glyph-name="parenright" unicode=")" horiz-adv-x="281" 
d="M78 -155l-69 61q23 18 52 69.5t47.5 135.5t18.5 187t-18.5 187t-47.5 134.5t-52 68.5l69 61q25 -14 59 -52.5t60.5 -97t41.5 -133t15 -168.5q0 -95 -15 -169.5t-41.5 -133.5t-60.5 -97.5t-59 -52.5z" />
    <glyph glyph-name="asterisk" unicode="*" horiz-adv-x="528" 
d="M317 745v-166l152 55l32 -100l-158 -49l99 -130l-85 -61l-94 134l-94 -133l-85 62l99 129l-156 50l33 100l152 -56v165h105z" />
    <glyph glyph-name="plus" unicode="+" 
d="M30 214v114h186v186h114v-186h190v-114h-190v-190h-114v190h-186z" />
    <glyph glyph-name="comma" unicode="," horiz-adv-x="242" 
d="M47 0v156h149v-180q0 -36 -14.5 -69.5t-46 -62t-82.5 -41.5l-26 61q23 4 46 18.5t36.5 42t13.5 57.5v18h-76z" />
    <glyph glyph-name="hyphen" unicode="-" horiz-adv-x="377" 
d="M45 197v135h287v-135h-287z" />
    <glyph glyph-name="period" unicode="." horiz-adv-x="235" 
d="M45 0v156h145v-156h-145z" />
    <glyph glyph-name="slash" unicode="/" horiz-adv-x="370" 
d="M18 -42l200 756h134l-202 -756h-132z" />
    <glyph glyph-name="zero" unicode="0" horiz-adv-x="586" 
d="M39 341q0 91 17.5 158t50.5 108.5t80 60.5t107 19q59 0 106 -19t80 -60t50.5 -108t17.5 -158q0 -93 -18 -161t-51.5 -110.5t-80.5 -62.5t-105 -20q-59 0 -106 20.5t-80 63t-50.5 110.5t-17.5 159zM203 340q0 -113 20 -168.5t70 -55.5t70.5 55.5t20.5 168.5q0 109 -20 164
t-71 55t-70.5 -55t-19.5 -164z" />
    <glyph glyph-name="one" unicode="1" horiz-adv-x="509" 
d="M55 0v124h146v360q-49 -52 -165 -52v131q41 -4 84.5 9t71 41.5t40.5 61.5h136v-551h126v-124h-439z" />
    <glyph glyph-name="two" unicode="2" 
d="M43 0v111q85 53 154 121.5t101 130t32 114.5q0 46 -18 69t-48 23q-61 0 -61 -93q0 -19 5.5 -47.5t18.5 -52.5l-168 15q-9 17 -16 44.5t-7 54.5q0 38 14.5 73.5t44 63.5t75 44t102.5 16q55 0 98.5 -15t72.5 -42.5t43.5 -65.5t14.5 -83q0 -55 -24 -114t-83.5 -123.5
t-154.5 -117.5v-2h275v-124h-471z" />
    <glyph glyph-name="three" unicode="3" horiz-adv-x="546" 
d="M30 192l141 20q-6 -22 -2.5 -47.5t25 -42t52.5 -16.5q45 0 70 33.5t25 87.5q0 53 -24.5 79t-64.5 26q-20 0 -42.5 -8t-40.5 -24l-72 78l209 173h-248v124h415v-131l-160 -132q38 4 74 -7t64 -35t44.5 -61t16.5 -84q0 -51 -20 -95t-55.5 -76t-83.5 -49t-101 -17
q-50 0 -96 15t-78 43t-45.5 65.5t-2.5 80.5z" />
    <glyph glyph-name="four" unicode="4" horiz-adv-x="558" 
d="M23 135v146l234 394h198v-416h70v-124h-70v-135h-165v135h-267zM144 259h146v243z" />
    <glyph glyph-name="five" unicode="5" horiz-adv-x="532" 
d="M50 324l41 351h366v-124h-241l-18 -138q17 23 45.5 35.5t61.5 12.5q40 0 76.5 -16.5t64 -47t43.5 -73t16 -92.5q0 -52 -17.5 -97t-50 -78t-79.5 -51t-104 -18q-38 0 -80 10t-81.5 38t-54.5 70.5t-6 85.5l141 20q-12 -48 11 -77t63 -29q42 0 64.5 34t22.5 91t-22.5 88.5
t-64.5 31.5q-51 0 -72 -44z" />
    <glyph glyph-name="six" unicode="6" horiz-adv-x="578" 
d="M38 334q0 171 72 262t206 91q106 0 165 -53.5t44 -139.5l-164 -15q2 23 -2 45t-18 33.5t-33 11.5q-43 0 -72 -55.5t-31 -168.5q18 42 57.5 62.5t84.5 20.5q50 0 97 -26t72.5 -77t25.5 -109q0 -46 -15.5 -87.5t-46 -73t-76 -49.5t-102.5 -18q-66 0 -116.5 24.5t-83 69.5
t-48.5 109.5t-16 142.5zM209 248q0 -14 6 -39t13 -42q25 -61 71 -61q36 0 54 32t18 74q0 29 -9 53.5t-27 36t-40 11.5q-31 0 -58.5 -16.5t-27.5 -48.5z" />
    <glyph glyph-name="seven" unicode="7" horiz-adv-x="521" 
d="M28 448v227h482v-139q-100 -149 -158.5 -280.5t-73.5 -255.5h-175q10 78 51.5 188.5t96.5 200.5q65 107 129 158v4h-204v-103h-148z" />
    <glyph glyph-name="eight" unicode="8" horiz-adv-x="567" 
d="M33 188q0 50 28.5 90t88.5 64q-84 63 -84 160q0 57 26.5 97.5t76.5 64t118 23.5q69 0 118 -24t74 -62t25 -87q0 -22 -10.5 -48t-36 -47.5t-57.5 -33.5q43 -23 72.5 -50.5t45 -61t15.5 -74.5q0 -43 -17 -82t-49 -68t-78.5 -45t-102.5 -16q-50 0 -95.5 12.5t-81 37t-56 63
t-20.5 87.5zM224 298l-5 2q-35 -38 -35 -94q0 -28 10.5 -51.5t35.5 -36t54 -12.5q35 0 58 19.5t23 55.5q0 23 -15.5 45t-70 46.5t-55.5 25.5zM234 513q0 -15 10.5 -35.5t72.5 -54.5l10 -4q26 35 26 79q0 35 -15.5 53t-45.5 18q-29 0 -43.5 -16t-14.5 -40z" />
    <glyph glyph-name="nine" unicode="9" horiz-adv-x="568" 
d="M36 459q0 46 14.5 87.5t44 73t73 49.5t98.5 18q66 0 116.5 -24.5t83 -69.5t48.5 -109.5t16 -142.5q0 -171 -72 -262t-206 -91q-49 0 -89.5 13.5t-67.5 39t-38 62t-4 78.5l142 15q-7 -47 12.5 -68.5t52.5 -21.5q43 0 72 55.5t31 168.5q-18 -42 -57.5 -62.5t-84.5 -20.5
q-37 0 -71 15t-59.5 43.5t-40 68t-14.5 85.5zM207 463q0 -29 8 -53.5t23.5 -36t34.5 -11.5q31 0 58.5 16.5t27.5 48.5q0 14 -6 39t-13 42q-25 61 -71 61q-15 0 -30 -11.5t-23.5 -38t-8.5 -56.5z" />
    <glyph glyph-name="colon" unicode=":" horiz-adv-x="235" 
d="M45 0v156h145v-156h-145zM45 343v156h145v-156h-145z" />
    <glyph glyph-name="semicolon" unicode=";" horiz-adv-x="253" 
d="M58 343v156h145v-156h-145zM54 0v156h149v-180q0 -36 -14.5 -69.5t-46 -62t-82.5 -41.5l-26 61q23 4 46 18.5t36.5 42t13.5 57.5v18h-76z" />
    <glyph glyph-name="less" unicode="&#x3c;" 
d="M60 205v132l410 184v-122l-292 -128l292 -128v-122z" />
    <glyph glyph-name="equal" unicode="=" 
d="M70 109v104h410v-104h-410zM70 319v114h410v-114h-410z" />
    <glyph glyph-name="greater" unicode="&#x3e;" 
d="M489 337v-132l-410 -184v122l291 128l-291 128v122z" />
    <glyph glyph-name="question" unicode="?" horiz-adv-x="546" 
d="M198 230q-5 32 -5 52q0 23 11 49t32 45.5t51 41.5q33 24 46.5 43.5t13.5 46.5q0 66 -75 66q-53 0 -73 -31.5t-1 -102.5l-156 21q-20 50 -13.5 92t37.5 72t86.5 46t129.5 16q115 0 178 -39.5t63 -121.5q0 -48 -25.5 -87t-97.5 -78q-47 -25 -66.5 -38t-30.5 -29.5
t-13 -33.5l-3 -30h-89zM172 0v146h145v-146h-145z" />
    <glyph glyph-name="at" unicode="@" horiz-adv-x="887" 
d="M214 172q0 35 9.5 81.5t28.5 85.5t39 64q32 39 75.5 60.5t93.5 21.5q26 0 51 -7.5t40.5 -23t21.5 -31.5l67 51h41l-83 -307q-10 -36 -4 -53.5t29 -17.5q19 0 41.5 14t44 46.5t37 82.5t15.5 111q0 62 -19.5 111t-55 81.5t-85.5 49.5t-109 17q-65 0 -122.5 -20t-101.5 -55
t-80.5 -88.5t-53 -117t-16.5 -115.5q0 -64 20.5 -123.5t62 -106t104 -73.5t142.5 -27q77 0 146.5 25.5t109.5 68.5l15 -92q-53 -39 -125 -62t-154 -23q-98 0 -176 33t-130 90t-78.5 131t-26.5 155q0 65 18 131.5t52.5 124.5t84 104t108.5 73.5t112 36t93 8.5
q77 0 142.5 -21.5t113 -64t73.5 -106.5t26 -144q0 -67 -17.5 -128t-50.5 -107.5t-78.5 -72.5t-97.5 -26q-23 0 -51 7.5t-49 28t-24 47.5q-19 -34 -54 -58.5t-79 -24.5q-23 0 -44.5 7t-40.5 21.5t-35 45.5t-16 81zM394 104q37 0 69 38l63 233q-17 23 -45 23q-30 0 -60 -30
t-51 -94t-21 -110q0 -60 45 -60z" />
    <glyph glyph-name="A" unicode="A" horiz-adv-x="626" 
d="M1 0l227 675h169l228 -675h-169l-42 128h-226l-41 -128h-146zM275 395l-47 -143h145l-46 142q-16 47 -23 116h-4q-10 -69 -25 -115z" />
    <glyph glyph-name="B" unicode="B" horiz-adv-x="608" 
d="M61 0v675h289q209 0 209 -163q0 -58 -30 -94.5t-108 -53.5v-4q76 -9 117.5 -50t41.5 -115q0 -35 -11 -70.5t-38 -63t-70 -44.5t-103 -17h-297zM227 416h74q88 0 88 70q0 30 -16.5 49t-61.5 19h-84v-138zM227 121h90q30 0 53 12t32.5 34.5t9.5 45.5q0 20 -9.5 39.5t-33 31
t-52.5 11.5h-90v-174z" />
    <glyph glyph-name="C" unicode="C" horiz-adv-x="627" 
d="M331 -12q-69 0 -124.5 21t-95 64.5t-60.5 111.5t-21 157q0 88 21.5 154.5t62 108.5t97.5 62t127 20q71 0 124 -19t84.5 -53t42.5 -80.5t3 -101.5l-156 -14q12 77 -15 113.5t-86 36.5q-68 0 -100 -60.5t-32 -167.5q0 -231 137 -231q25 0 54.5 11t47 42t11.5 78l146 -15
q4 -50 -12 -94t-51 -76.5t-87.5 -50t-117.5 -17.5z" />
    <glyph glyph-name="D" unicode="D" horiz-adv-x="648" 
d="M61 0v675h258q64 0 118 -19.5t94.5 -60.5t63 -105t22.5 -149q0 -84 -22 -149t-61.5 -107.5t-94.5 -63.5t-120 -21h-258zM228 121h75q73 0 109 57t36 163q0 213 -145 213h-75v-433z" />
    <glyph glyph-name="E" unicode="E" horiz-adv-x="544" 
d="M61 0v675h447v-124h-280v-145h235v-124h-235v-158h290v-124h-457z" />
    <glyph glyph-name="F" unicode="F" horiz-adv-x="517" 
d="M61 0v675h437v-124h-270v-175h220v-124h-220v-252h-167z" />
    <glyph glyph-name="G" unicode="G" horiz-adv-x="650" 
d="M333 221v120h278v-341h-113v114q-40 -126 -194 -126q-59 0 -109 21t-86.5 64.5t-57 111.5t-20.5 156q0 89 21 155.5t60.5 108.5t95.5 62t125 20q92 0 154.5 -29.5t93 -83.5t17.5 -123l-157 -17q5 42 -4.5 72t-34.5 46.5t-61 16.5q-44 0 -74 -25.5t-46.5 -76t-16.5 -129.5
q0 -111 31 -169.5t105 -58.5q39 0 68 16.5t39.5 38t11.5 37.5v19h-126z" />
    <glyph glyph-name="H" unicode="H" horiz-adv-x="661" 
d="M61 0v675h167v-255h205v255h167v-675h-167v286h-205v-286h-167z" />
    <glyph glyph-name="I" unicode="I" horiz-adv-x="409" 
d="M31 557v118h348v-118h-91v-439h91v-118h-348v118h90v439h-90z" />
    <glyph glyph-name="J" unicode="J" horiz-adv-x="497" 
d="M122 557v118h319v-466q0 -101 -55.5 -161t-162.5 -60q-26 0 -58 5.5t-62.5 20.5t-51 38.5t-30 55.5t-6.5 65.5t11 60.5l148 15q-19 -64 -7 -101.5t53 -37.5q54 0 54 68v379h-152z" />
    <glyph glyph-name="K" unicode="K" horiz-adv-x="618" 
d="M61 0v675h167v-189q0 -17 -5 -75h4q2 3 16 26t26 37l165 201h180l-220 -265l232 -410h-192l-156 283l-50 -61v-222h-167z" />
    <glyph glyph-name="L" unicode="L" horiz-adv-x="517" 
d="M61 0v675h167v-551h281v-124h-448z" />
    <glyph glyph-name="M" unicode="M" horiz-adv-x="805" 
d="M61 0v675h207l110 -301q17 -47 29 -97h4q12 52 29 97l107 301h197v-675h-156v341q0 40 11 134h-4q-20 -95 -33 -129l-130 -346h-75l-131 346q-14 36 -31 123h-4q7 -88 7 -128v-341h-137z" />
    <glyph glyph-name="N" unicode="N" horiz-adv-x="663" 
d="M61 0v675h179l177 -335q13 -26 51 -120h4q-1 11 -3 45.5t-3 53.5t-1 32v324h137v-675h-175l-184 334q-20 35 -49 110h-4q8 -101 8 -120v-324h-137z" />
    <glyph glyph-name="O" unicode="O" horiz-adv-x="677" 
d="M340 -12q-69 0 -125.5 20t-98 63t-64 112.5t-22.5 163.5q0 88 22.5 153.5t64 106.5t98.5 60.5t125 19.5q67 0 123.5 -19.5t97.5 -60.5t63.5 -106.5t22.5 -153.5q0 -72 -15.5 -140t-52.5 -116.5t-95.5 -75.5t-143.5 -27zM338 106q44 0 74.5 26.5t47 79t16.5 135.5
q0 74 -16.5 123t-47 74t-74.5 25t-74 -25t-46.5 -73.5t-16.5 -123.5q0 -114 34 -177.5t103 -63.5z" />
    <glyph glyph-name="P" unicode="P" horiz-adv-x="588" 
d="M61 0v675h283q50 0 92 -13t72.5 -38t47.5 -63.5t17 -87.5q0 -108 -63 -170t-166 -62h-116v-241h-167zM306 554h-78v-192h78q30 0 54 13.5t34.5 37t10.5 50.5q0 47 -28 69t-71 22z" />
    <glyph glyph-name="Q" unicode="Q" horiz-adv-x="697" 
d="M30 347q0 88 22.5 153.5t64 106.5t98.5 60.5t125 19.5q67 0 123.5 -19.5t97.5 -60.5t63.5 -106.5t22.5 -153.5q0 -152 -68 -247q34 -19 92 -19q26 0 41 6l-15 -128q-21 -6 -42 -6q-51 0 -85 21.5t-56 60.5q-68 -47 -174 -47q-69 0 -125.5 20t-98 63t-64 112.5
t-22.5 163.5zM201 347q0 -114 34 -177.5t103 -63.5q44 0 74.5 26.5t47 79t16.5 135.5q0 74 -16.5 123t-47 74t-74.5 25t-74 -25t-46.5 -73.5t-16.5 -123.5z" />
    <glyph glyph-name="R" unicode="R" horiz-adv-x="613" 
d="M61 0v675h278q49 0 90 -12t70 -36t45 -59.5t16 -80.5q0 -36 -14 -73t-48.5 -67.5t-73.5 -42.5q26 -22 47 -64q3 -6 13.5 -28.5t17 -35t16 -25t24 -22t35.5 -9.5q14 0 27 5l-13 -119q-37 -9 -67 -9q-59 0 -98.5 29t-74.5 109q-1 2 -13.5 33.5t-25 55t-24.5 33.5t-22 10
h-38v-267h-167zM308 554h-80v-166h60q31 0 54 9t36.5 28t13.5 50t-14 49.5t-33.5 24t-36.5 5.5z" />
    <glyph glyph-name="S" unicode="S" horiz-adv-x="579" 
d="M27 208l146 14q-4 -20 -1 -41.5t15.5 -38t38 -26.5t62.5 -10q49 0 71.5 17.5t22.5 47.5q0 15 -7 30t-27.5 27.5t-52 24t-35.5 12.5q-69 24 -115.5 50t-76 69t-29.5 104q0 46 18 84t51.5 64t83 39t109.5 12q35 -1 74.5 -8t73 -25t57.5 -46t32 -67.5t0 -79.5l-153 -14
q4 28 -1 57.5t-29 47t-67 17.5q-40 0 -61.5 -15.5t-21.5 -46.5q0 -28 19 -46.5t44 -28.5t57 -21q106 -35 149.5 -68t58.5 -71.5t15 -75.5q0 -45 -17 -83.5t-50.5 -66t-84 -43t-114.5 -15.5q-45 0 -93 9.5t-82 31t-53 47.5t-26 59.5t-1 72.5z" />
    <glyph glyph-name="T" unicode="T" horiz-adv-x="559" 
d="M10 551v124h539v-124h-188v-551h-167v551h-184z" />
    <glyph glyph-name="U" unicode="U" horiz-adv-x="653" 
d="M55 233v442h167v-433q0 -122 105 -122q109 0 109 125v430h162v-427q0 -57 -18.5 -105.5t-54.5 -83t-87.5 -53t-115.5 -18.5q-60 0 -110 17.5t-85 49.5t-53.5 77.5t-18.5 100.5z" />
    <glyph glyph-name="V" unicode="V" horiz-adv-x="624" 
d="M231 0l-232 675h173l127 -381q8 -24 14 -59t8 -63h4q3 28 9 63t14 58l125 382h151l-231 -675h-162z" />
    <glyph glyph-name="W" unicode="W" horiz-adv-x="903" 
d="M183 0l-176 675h164l97 -382q12 -46 15 -128h4q3 83 13 126l86 384h153l87 -381q11 -47 15 -138h4q5 92 16 136l93 383h142l-176 -675h-177l-69 290q-13 52 -20 146h-4q-6 -94 -19 -146l-69 -290h-179z" />
    <glyph glyph-name="X" unicode="X" horiz-adv-x="586" 
d="M-8 0l206 348l-188 327h193l66 -118q19 -34 35 -73h4q16 39 37 74l67 117h160l-184 -312l209 -363h-193l-88 156q-20 34 -35 71h-4q-15 -36 -36 -72l-89 -155h-160z" />
    <glyph glyph-name="Y" unicode="Y" horiz-adv-x="582" 
d="M209 0v285l-217 390h189l89 -165q17 -31 36 -75h4q17 43 35 77l85 163h154l-208 -390v-285h-167z" />
    <glyph glyph-name="Z" unicode="Z" horiz-adv-x="547" 
d="M23 0v102l254 396q18 27 40 49v4h-279v124h479v-102l-245 -382q-24 -37 -50 -63v-4h295v-124h-494z" />
    <glyph glyph-name="bracketleft" unicode="[" horiz-adv-x="314" 
d="M59 -140v874h236v-83h-106v-708h106v-83h-236z" />
    <glyph glyph-name="backslash" unicode="\" horiz-adv-x="370" 
d="M218 -42l-200 756h132l202 -756h-134z" />
    <glyph glyph-name="bracketright" unicode="]" horiz-adv-x="314" 
d="M255 734v-874h-236v83h106v708h-106v83h236z" />
    <glyph glyph-name="asciicircum" unicode="^" 
d="M34 228l200 459h83l199 -459h-127l-114 278l-113 -278h-128z" />
    <glyph glyph-name="underscore" unicode="_" horiz-adv-x="594" 
d="M44 -104v104h506v-104h-506z" />
    <glyph glyph-name="grave" unicode="`" horiz-adv-x="502" 
d="M246 569l-166 158h157l117 -158h-108z" />
    <glyph glyph-name="a" unicode="a" horiz-adv-x="520" 
d="M19 132q0 39 17.5 69.5t48 51t68 30t71.5 9.5q44 0 71 -15v67q0 36 -13.5 53t-40.5 17q-20 0 -34 -9.5t-17 -30.5t4 -46l-149 17q-12 52 9.5 88.5t72 57t124.5 20.5q102 0 152 -43t50 -124v-196q0 -16 5.5 -25t14.5 -9q5 0 14.5 4t17.5 13l8 -106q-18 -13 -47 -22.5
t-58 -9.5q-42 0 -68 20.5t-34 56.5q-19 -40 -57.5 -61t-81.5 -21q-63 0 -105.5 41.5t-42.5 102.5zM225 96q39 0 70 34v75l-26 1q-44 0 -70 -15.5t-26 -46.5q0 -23 14 -35.5t38 -12.5z" />
    <glyph glyph-name="b" unicode="b" horiz-adv-x="545" 
d="M50 -5v720h161v-273q18 29 51 49t74 20q31 0 62.5 -12.5t59 -42t44.5 -80t17 -120.5q0 -56 -13.5 -107.5t-42.5 -87t-69 -54.5t-85 -19q-44 0 -82.5 19t-61.5 54l-54 -66h-61zM278 397q-18 0 -36 -9t-31 -22v-248q20 -16 54 -16q44 0 68 32.5t24 114.5q0 72 -18.5 110
t-60.5 38z" />
    <glyph glyph-name="c" unicode="c" horiz-adv-x="492" 
d="M26 237q0 139 62.5 206.5t179.5 67.5q36 0 73.5 -9t66 -27.5t45 -46.5t16.5 -64q0 -20 -6 -43l-143 -17q7 23 7 44q0 28 -14 47t-44 19q-77 0 -77 -184q0 -67 19.5 -99.5t62.5 -32.5q33 0 50.5 18.5t17.5 51.5l-1 16l127 -18l1 -15q0 -45 -25.5 -84t-74.5 -59t-103 -20
q-39 0 -74 8.5t-63.5 25t-53.5 47t-37 76t-12 92.5z" />
    <glyph glyph-name="d" unicode="d" horiz-adv-x="543" 
d="M26 244q0 90 27.5 149t73 88.5t101.5 29.5q65 0 102 -48v252h161v-613l12 -102h-117l-30 72q-22 -38 -57 -61t-82 -23q-53 0 -96 27.5t-69 84t-26 144.5zM264 102q17 0 35 9t31 22v244q-26 20 -57 20q-45 0 -65 -36.5t-20 -111.5q0 -147 76 -147z" />
    <glyph glyph-name="e" unicode="e" horiz-adv-x="510" 
d="M25 240q0 55 14.5 104t44 86.5t76 59t106.5 21.5q73 0 120.5 -26t72.5 -76.5t25 -129.5l-3 -52h-294q1 -37 9 -67.5t29 -46t50 -15.5q33 0 55.5 16t22.5 42l-1 12l127 -17l1 -18q0 -26 -10 -48t-28 -39.5t-42.5 -29.5t-59 -20t-71.5 -8q-52 0 -96.5 15t-77.5 45.5
t-51.5 79t-18.5 112.5zM266 419q-27 0 -46.5 -26t-27.5 -79h131l1 17q0 24 -7 46t-21 32t-30 10z" />
    <glyph glyph-name="f" unicode="f" horiz-adv-x="390" 
d="M11 398v101h75v60q0 183 193 183q110 0 155 -47t20 -120l-136 -15q6 22 7 42t-8.5 29t-27.5 9q-23 0 -32.5 -18.5t-9.5 -61.5v-61h137v-101h-137v-398h-161v398h-75z" />
    <glyph glyph-name="g" unicode="g" horiz-adv-x="542" 
d="M28 262q0 85 26.5 139.5t71 82t103.5 27.5q52 0 89 -20.5t58 -53.5l55 67h61v-511q0 -94 -67 -150t-174 -56q-49 0 -92.5 11t-73.5 32.5t-39.5 54.5t6.5 74l128 14q-11 -37 10 -58.5t63 -21.5q78 0 78 82v124q-39 -67 -121 -67q-86 0 -134 60t-48 170zM266 144
q34 0 65 29v207q-21 17 -61 17q-80 0 -80 -127q0 -126 76 -126z" />
    <glyph glyph-name="h" unicode="h" horiz-adv-x="553" 
d="M345 0v324q0 33 -13.5 48t-41.5 15q-44 0 -78 -34v-353h-161v715h161v-288q49 84 140 84q41 0 78 -17t56.5 -54t19.5 -84v-356h-161z" />
    <glyph glyph-name="i" unicode="i" horiz-adv-x="263" 
d="M53 589v141h156v-141h-156zM51 0v499h161v-499h-161z" />
    <glyph glyph-name="j" unicode="j" horiz-adv-x="263" 
d="M53 589v141h156v-141h-156zM51 4v495h161v-469q0 -61 -14 -107.5t-40.5 -76.5t-63 -44.5t-81.5 -14.5q-54 0 -114 21l22 125q31 -18 63 -18q33 0 50 23t17 66z" />
    <glyph glyph-name="k" unicode="k" horiz-adv-x="530" 
d="M51 0v715h161v-383l148 167h169l-167 -186l173 -313h-180l-109 201l-34 -39v-162h-161z" />
    <glyph glyph-name="l" unicode="l" horiz-adv-x="298" 
d="M50 134v581h161v-565q0 -34 28 -34q8 0 22.5 5.5t27.5 16.5l14 -121q-21 -9 -54.5 -16.5t-65.5 -7.5q-68 0 -100.5 36.5t-32.5 104.5z" />
    <glyph glyph-name="m" unicode="m" horiz-adv-x="807" 
d="M599 0v324q0 33 -11 48t-34 15q-37 0 -68 -34v-353h-161v324q0 33 -11 48t-34 15q-37 0 -68 -34v-353h-161v499h119l19 -90q19 34 42 58t51 34t54 10q36 0 65.5 -14t45 -37.5t21.5 -45.5q19 33 41 56t49 32t52 9q67 0 108.5 -40t41.5 -115v-356h-161z" />
    <glyph glyph-name="n" unicode="n" horiz-adv-x="543" 
d="M51 0v499h119l19 -90q37 61 75.5 81.5t81.5 20.5q67 0 108.5 -40t41.5 -115v-356h-161v324q0 33 -12 48t-38 15q-39 0 -73 -36v-351h-161z" />
    <glyph glyph-name="o" unicode="o" horiz-adv-x="524" 
d="M25 252q0 67 18 117.5t50 81.5t75 45.5t93 14.5q37 0 71 -8.5t62.5 -25.5t54 -49t38 -80.5t12.5 -99.5q0 -85 -28 -141.5t-80.5 -87.5t-126.5 -31q-50 0 -93.5 14.5t-76 46t-51 83t-18.5 120.5zM263 90q43 0 58.5 44t15.5 115q0 81 -18.5 120.5t-57.5 39.5t-56.5 -37.5
t-17.5 -118.5q0 -84 18 -123.5t58 -39.5z" />
    <glyph glyph-name="p" unicode="p" horiz-adv-x="542" 
d="M51 -206v705h115l19 -81q50 93 142 93q52 0 94.5 -27.5t68.5 -84t26 -144.5q0 -90 -27.5 -149t-73 -88.5t-101.5 -29.5q-67 0 -102 47v-241h-161zM279 397q-18 0 -36 -10t-31 -26v-240q26 -19 57 -19q45 0 65 36.5t20 111.5q0 74 -19.5 110.5t-55.5 36.5z" />
    <glyph glyph-name="q" unicode="q" horiz-adv-x="545" 
d="M26 243q0 56 13.5 107.5t42.5 87t69 54.5t85 19q44 0 82.5 -19t61.5 -55l54 67h61v-720h-161v272q-19 -29 -51.5 -48.5t-73.5 -19.5q-31 0 -62.5 12.5t-59 42t-44.5 80t-17 120.5zM267 102q33 0 67 30v248q-23 17 -54 17q-44 0 -68 -32.5t-24 -114.5q0 -72 18.5 -110
t60.5 -38z" />
    <glyph glyph-name="r" unicode="r" horiz-adv-x="453" 
d="M51 0v499h119l21 -102q12 35 33.5 62t49 39.5t57.5 12.5t57 -13.5t44.5 -46.5t16 -76t-15.5 -77l-135 -19q10 27 9 53t-12 38t-26 12q-17 0 -31 -12.5t-26 -47.5v-322h-161z" />
    <glyph glyph-name="s" unicode="s" horiz-adv-x="477" 
d="M26 156l127 11l-2 -19q0 -28 23.5 -45.5t57.5 -17.5t51.5 12.5t17.5 35.5q0 9 -10.5 21t-79.5 32q-103 30 -139 71t-36 100q0 74 52.5 114t148.5 40q92 0 149.5 -34.5t57.5 -93.5q0 -20 -5 -36l-144 -13q5 15 5 30q0 24 -17 37t-45 13q-26 0 -41 -11t-15 -30
q0 -17 13.5 -31t59.5 -28q3 -1 32.5 -9.5t52 -16.5t38 -17.5t30.5 -21.5t28 -37t13 -63q0 -49 -24.5 -84t-73 -56t-121.5 -21q-37 0 -75 7t-68 23.5t-47 42.5t-17 61q0 18 3 34z" />
    <glyph glyph-name="t" unicode="t" horiz-adv-x="438" 
d="M5 397v102h87l23 143l126 19v-162h154v-102h-154v-239q0 -23 6 -39.5t28 -16.5t30.5 22t0.5 68l126 -19q12 -83 -36.5 -134t-142.5 -51q-82 0 -127.5 41.5t-45.5 124.5v243h-75z" />
    <glyph glyph-name="u" unicode="u" horiz-adv-x="539" 
d="M47 143v356h161v-324q0 -33 11.5 -48t35.5 -15q39 0 71 35v352h161v-397l12 -102h-117l-36 85q-35 -58 -72.5 -77.5t-79.5 -19.5q-47 0 -80 20t-50 54t-17 81z" />
    <glyph glyph-name="v" unicode="v" horiz-adv-x="502" 
d="M173 0l-168 499h160l74 -235q11 -36 18 -97h4q9 63 20 96l76 236h140l-168 -499h-156z" />
    <glyph glyph-name="w" unicode="w" horiz-adv-x="755" 
d="M160 0l-153 499h154l66 -236q9 -34 17 -108h4q8 75 17 108l64 236h120l64 -236q9 -33 16 -105h4q6 71 16 105l68 236h131l-153 -499h-156l-46 165q-9 33 -14 91h-4q-4 -58 -13 -90l-46 -166h-156z" />
    <glyph glyph-name="x" unicode="x" horiz-adv-x="487" 
d="M-2 0l157 248l-149 251h175l49 -87q10 -18 19 -42h4q10 25 21 42l53 87h156l-151 -239l155 -260h-174l-55 94q-8 14 -20 44h-4q-11 -26 -22 -44l-58 -94h-156z" />
    <glyph glyph-name="y" unicode="y" horiz-adv-x="506" 
d="M41 -62q13 -10 33.5 -18t39.5 -8q25 0 48.5 17t35.5 52l2 6l-203 512h172l77 -224q13 -38 20 -97h4q12 60 23 97l66 224h142l-177 -538q-29 -87 -80.5 -130.5t-120.5 -43.5q-9 0 -31.5 2.5t-44 12t-31.5 17.5z" />
    <glyph glyph-name="z" unicode="z" horiz-adv-x="450" 
d="M25 0v95l179 259q10 14 28 32v4h-196v109h383v-95l-173 -251q-16 -22 -34 -40v-4h210v-109h-397z" />
    <glyph glyph-name="braceleft" unicode="{" horiz-adv-x="352" 
d="M91 57v86q0 47 -17.5 70.5t-65.5 32.5v100q49 10 66 31.5t17 66.5v115q0 59 21.5 99.5t62.5 62.5t103 22h53v-108q-61 0 -88 -20t-27 -84v-60q0 -145 -96 -174q96 -31 96 -165v-47q0 -46 7.5 -72t30.5 -40t77 -14v-108h-53q-96 0 -141.5 52t-45.5 154z" />
    <glyph glyph-name="bar" unicode="|" horiz-adv-x="248" 
d="M59 -120v875h130v-875h-130z" />
    <glyph glyph-name="braceright" unicode="}" horiz-adv-x="352" 
d="M261 143v-86q0 -102 -45.5 -154t-141.5 -52h-53v108q36 0 61.5 7.5t39.5 31t14 87.5v47q0 134 96 165q-96 29 -96 174v60q0 64 -27 84t-88 20v108h53q62 0 103 -22t62.5 -62.5t21.5 -99.5v-115q0 -45 17 -66.5t66 -31.5v-100q-48 -9 -65.5 -32.5t-17.5 -70.5z" />
    <glyph glyph-name="asciitilde" unicode="~" 
d="M20 244q0 102 43.5 155.5t116.5 53.5q19 0 36.5 -4t34.5 -12.5t49.5 -37.5t64.5 -29q28 0 43 16.5t15 62.5h114q0 -102 -43.5 -155.5t-116.5 -53.5q-57 0 -100 36.5t-57.5 41t-26.5 4.5q-28 0 -43.5 -16t-15.5 -62h-114z" />
    <glyph glyph-name="uni00A0" unicode="&#xa0;" horiz-adv-x="187" 
 />
    <glyph glyph-name="exclamdown" unicode="&#xa1;" horiz-adv-x="252" 
d="M166 259q0 -4 1 -21t23 -164.5t22 -249.5h-171q0 55 7 126t23 178t16 131h79zM198 499v-146h-145v146h145z" />
    <glyph glyph-name="cent" unicode="&#xa2;" 
d="M255 -12v92q-39 3 -73 14t-61.5 29.5t-47 45.5t-33.5 70t-14 107q0 239 229 258v83h61v-82q50 -2 92.5 -16t71 -39.5t39 -60t-1.5 -75.5l-138 -10q9 36 -9.5 63.5t-53.5 33.5v-315q17 3 36 13t31 31t9 44l130 -10q2 -33 -10.5 -65.5t-39 -58.5t-66.5 -42.5t-90 -19.5v-90
h-61zM182 344q0 -130 73 -154v306q-73 -24 -73 -152z" />
    <glyph glyph-name="sterling" unicode="&#xa3;" 
d="M13 266v84h79v144q0 92 57.5 142.5t164.5 50.5q114 0 168.5 -62.5t35.5 -176.5l-155 -19q18 140 -49 140q-60 0 -60 -93v-126h163v-84h-163v-33q0 -39 -12.5 -68t-35.5 -41h329v-124h-514v124h24q13 1 24.5 10.5t17 31t5.5 47.5v53h-79z" />
    <glyph glyph-name="yen" unicode="&#xa5;" 
d="M16 354v74h104l-129 247h168l123 -259l122 259h155l-128 -247h101v-74h-140l-33 -65v-47h173v-74h-173v-168h-167v168h-176v74h176v47l-34 65h-142z" />
    <glyph glyph-name="section" unicode="&#xa7;" horiz-adv-x="506" 
d="M137 -23l-65 459q-6 50 -6 79q0 34 13.5 65.5t40 55.5t65.5 37.5t88 13.5q29 0 62 -6.5t63.5 -24t52.5 -44.5t29 -52l-69 -57q-8 22 -27.5 45t-46 36.5t-61.5 13.5q-23 0 -49.5 -9.5t-43.5 -34t-17 -54.5q0 -23 6 -67l66 -456h-101zM86 -29q10 -37 42.5 -66t79.5 -29
q22 0 48 9.5t43 34t17 54.5q0 23 -6 67l-65 456h101l64 -459q6 -49 6 -78q0 -34 -13.5 -65.5t-39.5 -55.5t-65 -38t-86 -14q-42 0 -84.5 14t-72.5 47.5t-38 65.5z" />
    <glyph glyph-name="dieresis" unicode="&#xa8;" horiz-adv-x="502" 
d="M90 583v127h120v-127h-120zM293 583v127h120v-127h-120z" />
    <glyph glyph-name="copyright" unicode="&#xa9;" horiz-adv-x="770" 
d="M35 339q0 92 30 161t80 111.5t112.5 62.5t127.5 20q66 0 128.5 -20t112.5 -62.5t79.5 -112t29.5 -162.5t-29.5 -162.5t-79.5 -112t-112.5 -62t-128.5 -19.5q-65 0 -127.5 20t-112.5 62.5t-80 112.5t-30 163zM107 338q0 -78 22 -135t60.5 -91.5t88.5 -50t107 -15.5
q90 0 151 33.5t94 97t33 159.5q0 58 -12.5 106t-35.5 82t-54 56t-74.5 35.5t-101.5 13.5q-57 0 -107 -15.5t-88.5 -50t-60.5 -91.5t-22 -134zM191 334q0 221 205 221q53 0 95.5 -19t59 -59t6.5 -89l-104 -10q7 41 -8.5 63t-47.5 22q-26 0 -45 -14.5t-29.5 -42.5t-10.5 -73
q0 -55 18 -87.5t71 -32.5q33 0 51 21t14 54l96 -10q2 -33 -6.5 -59t-24.5 -47t-50 -38t-85 -17q-72 0 -116 24.5t-66.5 72t-22.5 120.5z" />
    <glyph glyph-name="ordfeminine" unicode="&#xaa;" horiz-adv-x="349" 
d="M125 364q-40 0 -67.5 23.5t-27.5 61.5q0 45 40.5 73.5t102.5 28.5l30 -2v34q0 51 -37 51q-21 0 -31 -13.5t-5 -40.5l-82 6q-8 30 3.5 51.5t42 33t74.5 11.5q61 0 89 -24.5t28 -74.5v-127q0 -21 13 -21q11 0 20 9l3 -57q-9 -8 -24.5 -14t-31.5 -6q-49 0 -54 42
q-36 -45 -86 -45zM148 420q28 0 55 27v50l-11 1q-77 0 -77 -47q0 -16 10 -23.5t23 -7.5z" />
    <glyph glyph-name="guillemotleft" unicode="&#xab;" horiz-adv-x="570" 
d="M269 247l132 200h135l-134 -199l134 -199h-136zM34 247l132 200h135l-134 -199l134 -199h-136z" />
    <glyph glyph-name="registered" unicode="&#xae;" horiz-adv-x="534" 
d="M267 276q-44 0 -86.5 14t-77 43.5t-55 75t-20.5 104.5q0 44 14 87.5t45.5 77t77.5 54t102 20.5q44 0 86.5 -14.5t77 -44.5t55 -75.5t20.5 -104.5q0 -44 -14 -87t-45 -76.5t-77.5 -53.5t-102.5 -20zM267 331q36 0 68 11t56.5 33.5t38.5 57.5t14 80q0 57 -21.5 97.5
t-61 63.5t-94.5 23t-95 -23t-62 -63.5t-22 -97.5q0 -34 9.5 -67t32.5 -58.5t57.5 -41t79.5 -15.5zM178 403v226h107q24 0 45 -9t30 -26t9 -35q0 -27 -14.5 -45t-38.5 -23l53 -88h-69l-45 78h-14v-78h-63zM241 526h29q12 0 24 7.5t12 22.5q0 14 -11.5 20.5t-24.5 6.5h-29v-57
z" />
    <glyph glyph-name="macron" unicode="&#xaf;" horiz-adv-x="503" 
d="M120 600v95h269v-95h-269z" />
    <glyph glyph-name="degree" unicode="&#xb0;" horiz-adv-x="340" 
d="M24 589q0 58 43 99.5t103 41.5t103 -41.5t43 -99.5t-43 -99.5t-103 -41.5t-103 41.5t-43 99.5zM97 589q0 -30 21.5 -51.5t51.5 -21.5t51.5 21.5t21.5 51.5t-21.5 51.5t-51.5 21.5t-51.5 -21.5t-21.5 -51.5z" />
    <glyph glyph-name="plusminus" unicode="&#xb1;" 
d="M30 334v114h186v166h114v-166h190v-114h-190v-170h-114v170h-186zM30 0v104h490v-104h-490z" />
    <glyph glyph-name="uni00B2" unicode="&#xb2;" horiz-adv-x="385" 
d="M345 440v-75h-302v65q84 52 133 110t49 106q0 51 -45 51q-22 0 -33.5 -13t-11.5 -37q0 -30 14 -61l-101 10q-12 30 -12 62q0 23 12 51.5t47 48.5t91 20q43 0 80.5 -14.5t56.5 -45t19 -68.5q0 -115 -165 -210h168z" />
    <glyph glyph-name="uni00B3" unicode="&#xb3;" horiz-adv-x="365" 
d="M102 541l-41 55l124 94h-144v75h274v-62l-96 -75q32 -2 58.5 -16.5t45 -43t18.5 -70.5q0 -24 -9 -49.5t-30.5 -47t-55.5 -35.5t-78 -14q-69 0 -108.5 37t-32.5 96l96 7q-4 -26 9 -42.5t34 -16.5q17 0 31.5 9t20.5 25.5t6 34.5q0 64 -63 64q-18 0 -31.5 -6t-27.5 -19z" />
    <glyph glyph-name="acute" unicode="&#xb4;" horiz-adv-x="502" 
d="M419 727l-166 -158h-108l117 158h157z" />
    <glyph glyph-name="paragraph" unicode="&#xb6;" horiz-adv-x="646" 
d="M282 164q-47 0 -92.5 12.5t-83 42t-60.5 80t-23 121.5q0 53 15.5 102.5t50 83t83.5 51.5t110 18h332v-80h-232v-801h-100v370zM458 -206v731h100v-731h-100z" />
    <glyph glyph-name="periodcentered" unicode="&#xb7;" horiz-adv-x="235" 
d="M45 240v156h145v-156h-145z" />
    <glyph glyph-name="cedilla" unicode="&#xb8;" horiz-adv-x="502" 
d="M209 -104l20 120h58l-14 -72q36 -7 57 -27t21 -53q0 -28 -17 -49.5t-41 -29.5t-44 -8q-27 0 -53 10t-41 28l23 54q26 -35 62 -35q17 0 27.5 8t10.5 23q0 31 -50 31h-19z" />
    <glyph glyph-name="uni00B9" unicode="&#xb9;" horiz-adv-x="343" 
d="M47 365v75h87v222q-28 -32 -99 -32v73q25 -2 51 5.5t43 25t24 36.5h90v-330h76v-75h-272z" />
    <glyph glyph-name="ordmasculine" unicode="&#xba;" horiz-adv-x="339" 
d="M171 364q-66 0 -104 39t-38 122q0 82 37.5 120t102.5 38q48 0 79 -19.5t46.5 -54.5t15.5 -87q0 -41 -13 -79t-46.5 -58.5t-79.5 -20.5zM170 422q16 0 29.5 12.5t19 37.5t5.5 51t-5.5 51t-19.5 38t-30 13q-23 0 -38.5 -23.5t-15.5 -75.5q0 -54 16 -79t39 -25z" />
    <glyph glyph-name="guillemotright" unicode="&#xbb;" horiz-adv-x="570" 
d="M269 49l134 199l-134 199h135l132 -200l-131 -198h-136zM34 49l134 199l-134 199h135l132 -200l-131 -198h-136z" />
    <glyph glyph-name="onequarter" unicode="&#xbc;" horiz-adv-x="830" 
d="M753 0h-109v90h-184v63l186 252h107v-240h51v-75h-51v-90zM263 0l228 675h98l-228 -675h-98zM46 270v75h87v221q-30 -31 -99 -31v73q25 -2 51 5.5t43 25t24 36.5h90v-330h76v-75h-272zM546 165h98v132z" />
    <glyph glyph-name="onehalf" unicode="&#xbd;" horiz-adv-x="854" 
d="M826 75v-75h-302v65q84 52 133 110t49 106q0 51 -45 51q-22 0 -33.5 -13t-11.5 -37q0 -30 14 -61l-101 10q-12 30 -12 62q0 23 12 51.5t47 48.5t91 20q43 0 80.5 -14.5t56.5 -45t19 -68.5q0 -115 -165 -210h168zM260 0l228 675h98l-228 -675h-98zM43 270v75h87v221
q-30 -31 -99 -31v73q25 -2 51 5.5t43 25t24 36.5h90v-330h76v-75h-272z" />
    <glyph glyph-name="threequarters" unicode="&#xbe;" horiz-adv-x="821" 
d="M744 0h-109v90h-184v63l186 252h107v-240h51v-75h-51v-90zM103 463l-41 55l124 94h-144v75h274v-62l-96 -75q32 -2 58.5 -16.5t45 -43t18.5 -70.5q0 -41 -19.5 -73t-58 -52.5t-91.5 -20.5q-51 0 -85 19t-49 48.5t-11 65.5l96 7q-4 -26 9 -42.5t34 -16.5q17 0 31.5 9
t20.5 25.5t6 34.5q0 64 -63 64q-18 0 -31.5 -6t-27.5 -19zM254 0l228 675h98l-228 -675h-98zM537 165h98v132z" />
    <glyph glyph-name="questiondown" unicode="&#xbf;" horiz-adv-x="541" 
d="M347 269q5 -32 5 -52q0 -23 -11 -49t-32 -45.5t-51 -41.5q-33 -24 -46.5 -43.5t-13.5 -46.5q0 -66 75 -66q53 0 73 31.5t1 102.5l156 -21q20 -50 13.5 -92t-37.5 -72t-86.5 -46t-129.5 -16q-115 0 -178 39.5t-63 121.5q0 48 25.5 87t97.5 78q47 25 66.5 38t30.5 29.5
t13 33.5l3 30h89zM373 499v-146h-145v146h145z" />
    <glyph glyph-name="Agrave" unicode="&#xc0;" horiz-adv-x="626" 
d="M1 0l227 675h169l228 -675h-169l-42 128h-226l-41 -128h-146zM297 733l-166 158h157l117 -158h-108zM275 395l-47 -143h145l-46 142q-16 47 -23 116h-4q-10 -69 -25 -115z" />
    <glyph glyph-name="Aacute" unicode="&#xc1;" horiz-adv-x="626" 
d="M1 0l227 675h169l228 -675h-169l-42 128h-226l-41 -128h-146zM493 891l-166 -158h-108l117 158h157zM275 395l-47 -143h145l-46 142q-16 47 -23 116h-4q-10 -69 -25 -115z" />
    <glyph glyph-name="Acircumflex" unicode="&#xc2;" horiz-adv-x="626" 
d="M1 0l227 675h169l228 -675h-169l-42 128h-226l-41 -128h-146zM236 733h-99l110 158h128l110 -158h-99l-75 92zM275 395l-47 -143h145l-46 142q-16 47 -23 116h-4q-10 -69 -25 -115z" />
    <glyph glyph-name="Atilde" unicode="&#xc3;" horiz-adv-x="626" 
d="M1 0l227 675h169l228 -675h-169l-42 128h-226l-41 -128h-146zM201 747l-69 11q6 63 38 94t75 31q35 0 69 -23t45.5 -26.5t19.5 -3.5q34 0 44 45l69 -11q-7 -63 -38.5 -94.5t-74.5 -31.5q-20 0 -37.5 7t-47.5 27t-49 20q-36 0 -44 -45zM275 395l-47 -143h145l-46 142
q-16 47 -23 116h-4q-10 -69 -25 -115z" />
    <glyph glyph-name="Adieresis" unicode="&#xc4;" horiz-adv-x="626" 
d="M1 0l227 675h169l228 -675h-169l-42 128h-226l-41 -128h-146zM275 395l-47 -143h145l-46 142q-16 47 -23 116h-4q-10 -69 -25 -115zM151 747v127h120v-127h-120zM354 747v127h120v-127h-120z" />
    <glyph glyph-name="Aring" unicode="&#xc5;" horiz-adv-x="626" 
d="M1 0l227 675h169l228 -675h-169l-42 128h-226l-41 -128h-146zM312 720q-30 0 -55.5 13t-36 35.5t-10.5 43.5q0 25 11 46t36 33.5t55 12.5t55 -12.5t36 -33.5t11 -46q0 -21 -10.5 -43.5t-36 -35.5t-55.5 -13zM275 395l-47 -143h145l-46 142q-16 47 -23 116h-4
q-10 -69 -25 -115zM312 771q20 0 32.5 11t12.5 31q0 19 -12.5 30t-32.5 11t-32.5 -11t-12.5 -30q0 -20 12.5 -31t32.5 -11z" />
    <glyph glyph-name="AE" unicode="&#xc6;" horiz-adv-x="873" 
d="M390 0v148h-186l-60 -148h-164l284 675h573v-124h-280v-145h235v-124h-235v-158h290v-124h-457zM373 564l-119 -292h136v292h-17z" />
    <glyph glyph-name="Ccedilla" unicode="&#xc7;" horiz-adv-x="627" 
d="M274 -104l15 94q-91 9 -147.5 55t-84 120t-27.5 177q0 88 21.5 154.5t62 108.5t97.5 62t127 20q71 0 124 -19t84.5 -53t42.5 -80.5t3 -101.5l-156 -14q12 77 -15 113.5t-86 36.5q-68 0 -100 -60.5t-32 -167.5q0 -231 137 -231q25 0 54.5 11t47 42t11.5 78l146 -15
q3 -36 -6.5 -75.5t-37.5 -74.5t-79.5 -60t-128.5 -28l-9 -44q36 -7 57 -27t21 -53q0 -28 -17 -49.5t-41 -29.5t-44 -8q-27 0 -53 10t-41 28l23 54q26 -35 62 -35q17 0 27.5 8t10.5 23q0 31 -50 31h-19z" />
    <glyph glyph-name="Egrave" unicode="&#xc8;" horiz-adv-x="544" 
d="M61 0v675h447v-124h-280v-145h235v-124h-235v-158h290v-124h-457zM274 733l-166 158h157l117 -158h-108z" />
    <glyph glyph-name="Eacute" unicode="&#xc9;" horiz-adv-x="544" 
d="M61 0v675h447v-124h-280v-145h235v-124h-235v-158h290v-124h-457zM470 891l-166 -158h-108l117 158h157z" />
    <glyph glyph-name="Ecircumflex" unicode="&#xca;" horiz-adv-x="544" 
d="M61 0v675h447v-124h-280v-145h235v-124h-235v-158h290v-124h-457zM213 733h-99l110 158h128l110 -158h-99l-75 92z" />
    <glyph glyph-name="Edieresis" unicode="&#xcb;" horiz-adv-x="544" 
d="M61 0v675h447v-124h-280v-145h235v-124h-235v-158h290v-124h-457zM128 747v127h120v-127h-120zM331 747v127h120v-127h-120z" />
    <glyph glyph-name="Igrave" unicode="&#xcc;" horiz-adv-x="409" 
d="M31 557v118h348v-118h-91v-439h91v-118h-348v118h90v439h-90zM188 733l-166 158h157l117 -158h-108z" />
    <glyph glyph-name="Iacute" unicode="&#xcd;" horiz-adv-x="409" 
d="M31 557v118h348v-118h-91v-439h91v-118h-348v118h90v439h-90zM384 891l-166 -158h-108l117 158h157z" />
    <glyph glyph-name="Icircumflex" unicode="&#xce;" horiz-adv-x="409" 
d="M31 557v118h348v-118h-91v-439h91v-118h-348v118h90v439h-90zM127 733h-99l110 158h128l110 -158h-99l-75 92z" />
    <glyph glyph-name="Idieresis" unicode="&#xcf;" horiz-adv-x="409" 
d="M31 557v118h348v-118h-91v-439h91v-118h-348v118h90v439h-90zM42 747v127h120v-127h-120zM245 747v127h120v-127h-120z" />
    <glyph glyph-name="Eth" unicode="&#xd0;" horiz-adv-x="664" 
d="M4 300v95h73v280h276q63 0 115 -19.5t88.5 -60t56.5 -105t20 -149.5q0 -84 -19 -149t-55.5 -107.5t-88.5 -63.5t-117 -21h-276v300h-73zM244 121h75q73 0 109 57t36 163q0 213 -145 213h-75v-159h129v-95h-129v-179z" />
    <glyph glyph-name="Ntilde" unicode="&#xd1;" horiz-adv-x="663" 
d="M61 0v675h179l177 -335q13 -26 51 -120h4q-1 11 -3 45.5t-3 53.5t-1 32v324h137v-675h-175l-184 334q-20 35 -49 110h-4q8 -101 8 -120v-324h-137zM221 747l-69 11q6 63 38 94t75 31q35 0 69 -23t45.5 -26.5t19.5 -3.5q34 0 44 45l69 -11q-7 -63 -38.5 -94.5t-74.5 -31.5
q-20 0 -37.5 7t-47.5 27t-49 20q-36 0 -44 -45z" />
    <glyph glyph-name="Ograve" unicode="&#xd2;" horiz-adv-x="677" 
d="M340 -12q-69 0 -125.5 20t-98 63t-64 112.5t-22.5 163.5q0 88 22.5 153.5t64 106.5t98.5 60.5t125 19.5q67 0 123.5 -19.5t97.5 -60.5t63.5 -106.5t22.5 -153.5q0 -72 -15.5 -140t-52.5 -116.5t-95.5 -75.5t-143.5 -27zM338 106q44 0 74.5 26.5t47 79t16.5 135.5
q0 74 -16.5 123t-47 74t-74.5 25t-74 -25t-46.5 -73.5t-16.5 -123.5q0 -114 34 -177.5t103 -63.5zM325 733l-166 158h157l117 -158h-108z" />
    <glyph glyph-name="Oacute" unicode="&#xd3;" horiz-adv-x="677" 
d="M340 -12q-69 0 -125.5 20t-98 63t-64 112.5t-22.5 163.5q0 88 22.5 153.5t64 106.5t98.5 60.5t125 19.5q67 0 123.5 -19.5t97.5 -60.5t63.5 -106.5t22.5 -153.5q0 -72 -15.5 -140t-52.5 -116.5t-95.5 -75.5t-143.5 -27zM338 106q44 0 74.5 26.5t47 79t16.5 135.5
q0 74 -16.5 123t-47 74t-74.5 25t-74 -25t-46.5 -73.5t-16.5 -123.5q0 -114 34 -177.5t103 -63.5zM521 891l-166 -158h-108l117 158h157z" />
    <glyph glyph-name="Ocircumflex" unicode="&#xd4;" horiz-adv-x="677" 
d="M340 -12q-69 0 -125.5 20t-98 63t-64 112.5t-22.5 163.5q0 88 22.5 153.5t64 106.5t98.5 60.5t125 19.5q67 0 123.5 -19.5t97.5 -60.5t63.5 -106.5t22.5 -153.5q0 -72 -15.5 -140t-52.5 -116.5t-95.5 -75.5t-143.5 -27zM338 106q44 0 74.5 26.5t47 79t16.5 135.5
q0 74 -16.5 123t-47 74t-74.5 25t-74 -25t-46.5 -73.5t-16.5 -123.5q0 -114 34 -177.5t103 -63.5zM264 733h-99l110 158h128l110 -158h-99l-75 92z" />
    <glyph glyph-name="Otilde" unicode="&#xd5;" horiz-adv-x="677" 
d="M340 -12q-69 0 -125.5 20t-98 63t-64 112.5t-22.5 163.5q0 88 22.5 153.5t64 106.5t98.5 60.5t125 19.5q67 0 123.5 -19.5t97.5 -60.5t63.5 -106.5t22.5 -153.5q0 -72 -15.5 -140t-52.5 -116.5t-95.5 -75.5t-143.5 -27zM338 106q44 0 74.5 26.5t47 79t16.5 135.5
q0 74 -16.5 123t-47 74t-74.5 25t-74 -25t-46.5 -73.5t-16.5 -123.5q0 -114 34 -177.5t103 -63.5zM229 747l-69 11q6 63 38 94t75 31q35 0 69 -23t45.5 -26.5t19.5 -3.5q34 0 44 45l69 -11q-7 -63 -38.5 -94.5t-74.5 -31.5q-20 0 -37.5 7t-47.5 27t-49 20q-36 0 -44 -45z
" />
    <glyph glyph-name="Odieresis" unicode="&#xd6;" horiz-adv-x="677" 
d="M340 -12q-69 0 -125.5 20t-98 63t-64 112.5t-22.5 163.5q0 88 22.5 153.5t64 106.5t98.5 60.5t125 19.5q67 0 123.5 -19.5t97.5 -60.5t63.5 -106.5t22.5 -153.5q0 -72 -15.5 -140t-52.5 -116.5t-95.5 -75.5t-143.5 -27zM338 106q44 0 74.5 26.5t47 79t16.5 135.5
q0 74 -16.5 123t-47 74t-74.5 25t-74 -25t-46.5 -73.5t-16.5 -123.5q0 -114 34 -177.5t103 -63.5zM179 747v127h120v-127h-120zM382 747v127h120v-127h-120z" />
    <glyph glyph-name="multiply" unicode="&#xd7;" 
d="M42 422l81 81l151 -152l152 152l81 -81l-152 -152l155 -154l-81 -80l-155 154l-154 -154l-80 80l154 154z" />
    <glyph glyph-name="Oslash" unicode="&#xd8;" horiz-adv-x="676" 
d="M44 -60l78 124q-44 42 -68 114t-24 169q0 88 22.5 153.5t64 106.5t98.5 60.5t125 19.5q41 0 82.5 -8.5t71.5 -23.5l51 80h87l-77 -122q44 -42 68 -109t24 -157q0 -72 -15.5 -140t-52.5 -116.5t-95.5 -75.5t-143.5 -27q-93 0 -158 33l-51 -81h-87zM338 106q44 0 74.5 26.5
t47 79t16.5 135.5q0 71 -15 117l-205 -325q32 -33 82 -33zM201 347q0 -83 15 -134l204 324q-16 15 -38.5 23.5t-43.5 8.5q-44 0 -74 -25t-46.5 -73.5t-16.5 -123.5z" />
    <glyph glyph-name="Ugrave" unicode="&#xd9;" horiz-adv-x="653" 
d="M55 233v442h167v-433q0 -122 105 -122q109 0 109 125v430h162v-427q0 -57 -18.5 -105.5t-54.5 -83t-87.5 -53t-115.5 -18.5q-60 0 -110 17.5t-85 49.5t-53.5 77.5t-18.5 100.5zM311 733l-166 158h157l117 -158h-108z" />
    <glyph glyph-name="Uacute" unicode="&#xda;" horiz-adv-x="653" 
d="M55 233v442h167v-433q0 -122 105 -122q109 0 109 125v430h162v-427q0 -57 -18.5 -105.5t-54.5 -83t-87.5 -53t-115.5 -18.5q-60 0 -110 17.5t-85 49.5t-53.5 77.5t-18.5 100.5zM507 891l-166 -158h-108l117 158h157z" />
    <glyph glyph-name="Ucircumflex" unicode="&#xdb;" horiz-adv-x="653" 
d="M55 233v442h167v-433q0 -122 105 -122q109 0 109 125v430h162v-427q0 -57 -18.5 -105.5t-54.5 -83t-87.5 -53t-115.5 -18.5q-60 0 -110 17.5t-85 49.5t-53.5 77.5t-18.5 100.5zM250 733h-99l110 158h128l110 -158h-99l-75 92z" />
    <glyph glyph-name="Udieresis" unicode="&#xdc;" horiz-adv-x="653" 
d="M55 233v442h167v-433q0 -122 105 -122q109 0 109 125v430h162v-427q0 -57 -18.5 -105.5t-54.5 -83t-87.5 -53t-115.5 -18.5q-60 0 -110 17.5t-85 49.5t-53.5 77.5t-18.5 100.5zM165 747v127h120v-127h-120zM368 747v127h120v-127h-120z" />
    <glyph glyph-name="Yacute" unicode="&#xdd;" horiz-adv-x="582" 
d="M209 0v285l-217 390h189l89 -165q17 -31 36 -75h4q17 43 35 77l85 163h154l-208 -390v-285h-167zM482 891l-166 -158h-108l117 158h157z" />
    <glyph glyph-name="Thorn" unicode="&#xde;" horiz-adv-x="596" 
d="M61 0v675h167v-116h119q50 0 92.5 -12.5t73 -38.5t47 -65.5t16.5 -90.5t-16.5 -93.5t-47 -72t-73 -45.5t-92.5 -16h-119v-125h-167zM306 438h-78v-192h78q42 0 70.5 25.5t28.5 74.5q0 37 -17 58.5t-40 27.5t-42 6z" />
    <glyph glyph-name="germandbls" unicode="&#xdf;" horiz-adv-x="587" 
d="M51 0v542q0 63 26 105.5t77.5 66t133.5 23.5q106 0 165 -41t59 -112q0 -24 -6 -42.5t-16 -35.5t-52 -60q-18 -18 -28.5 -33.5t-10.5 -32.5q0 -12 8.5 -25t36 -26t33.5 -17q98 -54 98 -158q0 -52 -21.5 -88t-62 -57t-95.5 -21q-47 0 -87.5 17.5t-56.5 44t-16 52.5
q0 24 8 43l110 12q-5 -12 -5 -29q0 -23 12 -35.5t34 -12.5t37 11.5t15 36.5q0 20 -9.5 32.5t-21 20t-30 16.5t-22.5 11q-96 50 -96 144q0 18 4 37t14.5 39t49.5 61q18 19 29 38t11 46q0 67 -82 67q-44 0 -65.5 -21t-21.5 -73v-546h-156z" />
    <glyph glyph-name="agrave" unicode="&#xe0;" horiz-adv-x="520" 
d="M19 132q0 39 17.5 69.5t48 51t68 30t71.5 9.5q44 0 71 -15v67q0 36 -13.5 53t-40.5 17q-20 0 -34 -9.5t-17 -30.5t4 -46l-149 17q-12 52 9.5 88.5t72 57t124.5 20.5q102 0 152 -43t50 -124v-196q0 -16 5.5 -25t14.5 -9q5 0 14.5 4t17.5 13l8 -106q-18 -13 -47 -22.5
t-58 -9.5q-42 0 -68 20.5t-34 56.5q-19 -40 -57.5 -61t-81.5 -21q-63 0 -105.5 41.5t-42.5 102.5zM236 569l-166 158h157l117 -158h-108zM225 96q39 0 70 34v75l-26 1q-44 0 -70 -15.5t-26 -46.5q0 -23 14 -35.5t38 -12.5z" />
    <glyph glyph-name="aacute" unicode="&#xe1;" horiz-adv-x="520" 
d="M19 132q0 39 17.5 69.5t48 51t68 30t71.5 9.5q44 0 71 -15v67q0 36 -13.5 53t-40.5 17q-20 0 -34 -9.5t-17 -30.5t4 -46l-149 17q-12 52 9.5 88.5t72 57t124.5 20.5q102 0 152 -43t50 -124v-196q0 -16 5.5 -25t14.5 -9q5 0 14.5 4t17.5 13l8 -106q-18 -13 -47 -22.5
t-58 -9.5q-42 0 -68 20.5t-34 56.5q-19 -40 -57.5 -61t-81.5 -21q-63 0 -105.5 41.5t-42.5 102.5zM432 727l-166 -158h-108l117 158h157zM225 96q39 0 70 34v75l-26 1q-44 0 -70 -15.5t-26 -46.5q0 -23 14 -35.5t38 -12.5z" />
    <glyph glyph-name="acircumflex" unicode="&#xe2;" horiz-adv-x="520" 
d="M19 132q0 39 17.5 69.5t48 51t68 30t71.5 9.5q44 0 71 -15v67q0 36 -13.5 53t-40.5 17q-20 0 -34 -9.5t-17 -30.5t4 -46l-149 17q-12 52 9.5 88.5t72 57t124.5 20.5q102 0 152 -43t50 -124v-196q0 -16 5.5 -25t14.5 -9q5 0 14.5 4t17.5 13l8 -106q-18 -13 -47 -22.5
t-58 -9.5q-42 0 -68 20.5t-34 56.5q-19 -40 -57.5 -61t-81.5 -21q-63 0 -105.5 41.5t-42.5 102.5zM175 569h-99l110 158h128l110 -158h-99l-75 92zM225 96q39 0 70 34v75l-26 1q-44 0 -70 -15.5t-26 -46.5q0 -23 14 -35.5t38 -12.5z" />
    <glyph glyph-name="atilde" unicode="&#xe3;" horiz-adv-x="520" 
d="M19 132q0 39 17.5 69.5t48 51t68 30t71.5 9.5q44 0 71 -15v67q0 36 -13.5 53t-40.5 17q-20 0 -34 -9.5t-17 -30.5t4 -46l-149 17q-12 52 9.5 88.5t72 57t124.5 20.5q102 0 152 -43t50 -124v-196q0 -16 5.5 -25t14.5 -9q5 0 14.5 4t17.5 13l8 -106q-18 -13 -47 -22.5
t-58 -9.5q-42 0 -68 20.5t-34 56.5q-19 -40 -57.5 -61t-81.5 -21q-63 0 -105.5 41.5t-42.5 102.5zM140 583l-69 11q6 63 38 94t75 31q35 0 69 -23t45.5 -26.5t19.5 -3.5q34 0 44 45l69 -11q-7 -63 -38.5 -94.5t-74.5 -31.5q-20 0 -37.5 7t-47.5 27t-49 20q-36 0 -44 -45z
M225 96q39 0 70 34v75l-26 1q-44 0 -70 -15.5t-26 -46.5q0 -23 14 -35.5t38 -12.5z" />
    <glyph glyph-name="adieresis" unicode="&#xe4;" horiz-adv-x="520" 
d="M19 132q0 39 17.5 69.5t48 51t68 30t71.5 9.5q44 0 71 -15v67q0 36 -13.5 53t-40.5 17q-20 0 -34 -9.5t-17 -30.5t4 -46l-149 17q-12 52 9.5 88.5t72 57t124.5 20.5q102 0 152 -43t50 -124v-196q0 -16 5.5 -25t14.5 -9q5 0 14.5 4t17.5 13l8 -106q-18 -13 -47 -22.5
t-58 -9.5q-42 0 -68 20.5t-34 56.5q-19 -40 -57.5 -61t-81.5 -21q-63 0 -105.5 41.5t-42.5 102.5zM90 583v127h120v-127h-120zM293 583v127h120v-127h-120zM225 96q39 0 70 34v75l-26 1q-44 0 -70 -15.5t-26 -46.5q0 -23 14 -35.5t38 -12.5z" />
    <glyph glyph-name="aring" unicode="&#xe5;" horiz-adv-x="520" 
d="M19 132q0 39 17.5 69.5t48 51t68 30t71.5 9.5q44 0 71 -15v67q0 36 -13.5 53t-40.5 17q-20 0 -34 -9.5t-17 -30.5t4 -46l-149 17q-12 52 9.5 88.5t72 57t124.5 20.5q102 0 152 -43t50 -124v-196q0 -16 5.5 -25t14.5 -9q5 0 14.5 4t17.5 13l8 -106q-18 -13 -47 -22.5
t-58 -9.5q-42 0 -68 20.5t-34 56.5q-19 -40 -57.5 -61t-81.5 -21q-63 0 -105.5 41.5t-42.5 102.5zM251 556q-30 0 -55.5 13t-36 35.5t-10.5 43.5q0 25 11 46t36 33.5t55 12.5t55 -12.5t36 -33.5t11 -46q0 -21 -10.5 -43.5t-36 -35.5t-55.5 -13zM225 96q39 0 70 34v75l-26 1
q-44 0 -70 -15.5t-26 -46.5q0 -23 14 -35.5t38 -12.5zM251 607q20 0 32.5 11t12.5 31q0 19 -12.5 30t-32.5 11t-32.5 -11t-12.5 -30q0 -20 12.5 -31t32.5 -11z" />
    <glyph glyph-name="ae" unicode="&#xe6;" horiz-adv-x="777" 
d="M19 134q0 39 18 70t48.5 52t67.5 31t70 10q40 0 76 -16v63q0 70 -59 70q-36 0 -46 -24t0 -57l-149 17q-12 51 9.5 86t72 55t123.5 20q98 0 144 -57q57 57 149 57q40 0 78.5 -11.5t67.5 -39t45.5 -71.5t16.5 -108q0 -32 -3 -64h-293q4 -60 25 -89.5t70 -29.5
q25 0 42.5 8.5t23 23t3.5 28.5l127 -17q5 -45 -17.5 -78.5t-69.5 -54t-115 -20.5q-69 0 -123 24t-85 71q-9 -23 -30.5 -45.5t-56.5 -36t-72 -13.5q-68 0 -113 41t-45 105zM173 146q0 -24 16.5 -37t45.5 -13q45 0 79 32q-13 40 -16 83h-28q-44 0 -70.5 -17t-26.5 -48z
M457 304h134v27q0 42 -14 65t-38 23q-67 0 -82 -115z" />
    <glyph glyph-name="ccedilla" unicode="&#xe7;" horiz-adv-x="492" 
d="M202 -104l16 96q-89 12 -140.5 73.5t-51.5 171.5q0 139 62.5 206.5t179.5 67.5q36 0 73.5 -9t66 -27.5t45 -46.5t16.5 -64q0 -20 -6 -43l-143 -17q7 23 7 44q0 28 -14 47t-44 19q-77 0 -77 -184q0 -67 19.5 -99.5t62.5 -32.5q33 0 50.5 18.5t17.5 51.5l-1 16l127 -18
l1 -15q0 -71 -54.5 -116t-139.5 -47l-9 -44q36 -7 57 -27t21 -53q0 -28 -17 -49.5t-41 -29.5t-44 -8q-27 0 -53 10t-41 28l23 54q26 -35 62 -35q17 0 27.5 8t10.5 23q0 31 -50 31h-19z" />
    <glyph glyph-name="egrave" unicode="&#xe8;" horiz-adv-x="510" 
d="M25 240q0 55 14.5 104t44 86.5t76 59t106.5 21.5q73 0 120.5 -26t72.5 -76.5t25 -129.5l-3 -52h-294q1 -37 9 -67.5t29 -46t50 -15.5q33 0 55.5 16t22.5 42l-1 12l127 -17l1 -18q0 -26 -10 -48t-28 -39.5t-42.5 -29.5t-59 -20t-71.5 -8q-52 0 -96.5 15t-77.5 45.5
t-51.5 79t-18.5 112.5zM250 569l-166 158h157l117 -158h-108zM266 419q-27 0 -46.5 -26t-27.5 -79h131l1 17q0 24 -7 46t-21 32t-30 10z" />
    <glyph glyph-name="eacute" unicode="&#xe9;" horiz-adv-x="510" 
d="M25 240q0 55 14.5 104t44 86.5t76 59t106.5 21.5q73 0 120.5 -26t72.5 -76.5t25 -129.5l-3 -52h-294q1 -37 9 -67.5t29 -46t50 -15.5q33 0 55.5 16t22.5 42l-1 12l127 -17l1 -18q0 -26 -10 -48t-28 -39.5t-42.5 -29.5t-59 -20t-71.5 -8q-52 0 -96.5 15t-77.5 45.5
t-51.5 79t-18.5 112.5zM446 727l-166 -158h-108l117 158h157zM266 419q-27 0 -46.5 -26t-27.5 -79h131l1 17q0 24 -7 46t-21 32t-30 10z" />
    <glyph glyph-name="ecircumflex" unicode="&#xea;" horiz-adv-x="510" 
d="M25 240q0 55 14.5 104t44 86.5t76 59t106.5 21.5q73 0 120.5 -26t72.5 -76.5t25 -129.5l-3 -52h-294q1 -37 9 -67.5t29 -46t50 -15.5q33 0 55.5 16t22.5 42l-1 12l127 -17l1 -18q0 -26 -10 -48t-28 -39.5t-42.5 -29.5t-59 -20t-71.5 -8q-52 0 -96.5 15t-77.5 45.5
t-51.5 79t-18.5 112.5zM189 569h-99l110 158h128l110 -158h-99l-75 92zM266 419q-27 0 -46.5 -26t-27.5 -79h131l1 17q0 24 -7 46t-21 32t-30 10z" />
    <glyph glyph-name="edieresis" unicode="&#xeb;" horiz-adv-x="510" 
d="M25 240q0 55 14.5 104t44 86.5t76 59t106.5 21.5q73 0 120.5 -26t72.5 -76.5t25 -129.5l-3 -52h-294q1 -37 9 -67.5t29 -46t50 -15.5q33 0 55.5 16t22.5 42l-1 12l127 -17l1 -18q0 -26 -10 -48t-28 -39.5t-42.5 -29.5t-59 -20t-71.5 -8q-52 0 -96.5 15t-77.5 45.5
t-51.5 79t-18.5 112.5zM307 583v127h120v-127h-120zM104 583v127h120v-127h-120zM266 419q-27 0 -46.5 -26t-27.5 -79h131l1 17q0 24 -7 46t-21 32t-30 10z" />
    <glyph glyph-name="igrave" unicode="&#xec;" horiz-adv-x="263" 
d="M51 0v499h161v-499h-161zM116 569l-166 158h157l117 -158h-108z" />
    <glyph glyph-name="iacute" unicode="&#xed;" horiz-adv-x="263" 
d="M51 0v499h161v-499h-161zM312 727l-166 -158h-108l117 158h157z" />
    <glyph glyph-name="icircumflex" unicode="&#xee;" horiz-adv-x="263" 
d="M51 0v499h161v-499h-161zM55 569h-99l110 158h128l110 -158h-99l-75 92z" />
    <glyph glyph-name="idieresis" unicode="&#xef;" horiz-adv-x="263" 
d="M51 0v499h161v-499h-161zM-30 583v127h120v-127h-120zM173 583v127h120v-127h-120z" />
    <glyph glyph-name="eth" unicode="&#xf0;" horiz-adv-x="545" 
d="M124 458l-47 58l101 78q-57 25 -129 35l21 102q44 -2 103.5 -16.5t109.5 -38.5l105 81l45 -57l-82 -64q166 -119 166 -346q0 -68 -16 -124.5t-48.5 -96t-81 -60.5t-110.5 -21q-56 0 -101 16.5t-75.5 46.5t-46 71.5t-15.5 90.5q0 50 16 91t45.5 69.5t69 43.5t85.5 15
q93 0 118 -75q-5 60 -30 104t-83 91zM263 90q30 0 50.5 18.5t33 57.5t13.5 103l-2 -17q2 29 -25.5 52.5t-63.5 23.5q-45 0 -65 -33t-20 -87q0 -57 20 -87.5t59 -30.5zM358 247v5v-5z" />
    <glyph glyph-name="ntilde" unicode="&#xf1;" horiz-adv-x="543" 
d="M51 0v499h119l19 -90q37 61 75.5 81.5t81.5 20.5q67 0 108.5 -40t41.5 -115v-356h-161v324q0 33 -12 48t-38 15q-39 0 -73 -36v-351h-161zM173 583l-69 11q6 63 38 94t75 31q35 0 69 -23t45.5 -26.5t19.5 -3.5q34 0 44 45l69 -11q-7 -63 -38.5 -94.5t-74.5 -31.5
q-20 0 -37.5 7t-47.5 27t-49 20q-36 0 -44 -45z" />
    <glyph glyph-name="ograve" unicode="&#xf2;" horiz-adv-x="525" 
d="M26 252q0 67 18 117.5t50 81.5t75 45.5t93 14.5q37 0 71 -8.5t62.5 -25.5t54 -49t38 -80.5t12.5 -99.5q0 -85 -28 -141.5t-80.5 -87.5t-126.5 -31q-50 0 -93.5 14.5t-76 46t-51 83t-18.5 120.5zM264 90q43 0 58.5 44t15.5 115q0 81 -18.5 120.5t-57.5 39.5t-56.5 -37.5
t-17.5 -118.5q0 -84 18 -123.5t58 -39.5zM249 569l-166 158h157l117 -158h-108z" />
    <glyph glyph-name="oacute" unicode="&#xf3;" horiz-adv-x="525" 
d="M26 252q0 67 18 117.5t50 81.5t75 45.5t93 14.5q37 0 71 -8.5t62.5 -25.5t54 -49t38 -80.5t12.5 -99.5q0 -85 -28 -141.5t-80.5 -87.5t-126.5 -31q-50 0 -93.5 14.5t-76 46t-51 83t-18.5 120.5zM264 90q43 0 58.5 44t15.5 115q0 81 -18.5 120.5t-57.5 39.5t-56.5 -37.5
t-17.5 -118.5q0 -84 18 -123.5t58 -39.5zM445 727l-166 -158h-108l117 158h157z" />
    <glyph glyph-name="ocircumflex" unicode="&#xf4;" horiz-adv-x="525" 
d="M26 252q0 67 18 117.5t50 81.5t75 45.5t93 14.5q37 0 71 -8.5t62.5 -25.5t54 -49t38 -80.5t12.5 -99.5q0 -85 -28 -141.5t-80.5 -87.5t-126.5 -31q-50 0 -93.5 14.5t-76 46t-51 83t-18.5 120.5zM264 90q43 0 58.5 44t15.5 115q0 81 -18.5 120.5t-57.5 39.5t-56.5 -37.5
t-17.5 -118.5q0 -84 18 -123.5t58 -39.5zM188 569h-99l110 158h128l110 -158h-99l-75 92z" />
    <glyph glyph-name="otilde" unicode="&#xf5;" horiz-adv-x="525" 
d="M26 252q0 67 18 117.5t50 81.5t75 45.5t93 14.5q37 0 71 -8.5t62.5 -25.5t54 -49t38 -80.5t12.5 -99.5q0 -85 -28 -141.5t-80.5 -87.5t-126.5 -31q-50 0 -93.5 14.5t-76 46t-51 83t-18.5 120.5zM264 90q43 0 58.5 44t15.5 115q0 81 -18.5 120.5t-57.5 39.5t-56.5 -37.5
t-17.5 -118.5q0 -84 18 -123.5t58 -39.5zM153 583l-69 11q6 63 38 94t75 31q35 0 69 -23t45.5 -26.5t19.5 -3.5q34 0 44 45l69 -11q-7 -63 -38.5 -94.5t-74.5 -31.5q-20 0 -37.5 7t-47.5 27t-49 20q-36 0 -44 -45z" />
    <glyph glyph-name="odieresis" unicode="&#xf6;" horiz-adv-x="525" 
d="M26 252q0 67 18 117.5t50 81.5t75 45.5t93 14.5q37 0 71 -8.5t62.5 -25.5t54 -49t38 -80.5t12.5 -99.5q0 -85 -28 -141.5t-80.5 -87.5t-126.5 -31q-50 0 -93.5 14.5t-76 46t-51 83t-18.5 120.5zM264 90q43 0 58.5 44t15.5 115q0 81 -18.5 120.5t-57.5 39.5t-56.5 -37.5
t-17.5 -118.5q0 -84 18 -123.5t58 -39.5zM103 583v127h120v-127h-120zM306 583v127h120v-127h-120z" />
    <glyph glyph-name="divide" unicode="&#xf7;" 
d="M30 214v114h490v-114h-490zM207 405v139h136v-139h-136zM207 0v139h136v-139h-136z" />
    <glyph glyph-name="oslash" unicode="&#xf8;" horiz-adv-x="501" 
d="M20 -60l67 112q-61 67 -61 200q0 67 17 117.5t47.5 81.5t71 45.5t88.5 14.5q57 0 100 -20l40 66h75l-61 -102q72 -69 72 -207q0 -51 -12 -99t-40 -84t-70.5 -56.5t-100.5 -20.5q-66 0 -115 25l-44 -73h-74zM252 85q38 0 56.5 39.5t18.5 124.5q0 46 -4 73l-126 -210
q18 -27 55 -27zM175 253v-54l119 198q-18 17 -44 17q-40 0 -57.5 -38.5t-17.5 -122.5z" />
    <glyph glyph-name="ugrave" unicode="&#xf9;" horiz-adv-x="539" 
d="M47 143v356h161v-324q0 -33 11.5 -48t35.5 -15q39 0 71 35v352h161v-397l12 -102h-117l-36 85q-35 -58 -72.5 -77.5t-79.5 -19.5q-47 0 -80 20t-50 54t-17 81zM252 569l-166 158h157l117 -158h-108z" />
    <glyph glyph-name="uacute" unicode="&#xfa;" horiz-adv-x="539" 
d="M47 143v356h161v-324q0 -33 11.5 -48t35.5 -15q39 0 71 35v352h161v-397l12 -102h-117l-36 85q-35 -58 -72.5 -77.5t-79.5 -19.5q-47 0 -80 20t-50 54t-17 81zM448 727l-166 -158h-108l117 158h157z" />
    <glyph glyph-name="ucircumflex" unicode="&#xfb;" horiz-adv-x="539" 
d="M47 143v356h161v-324q0 -33 11.5 -48t35.5 -15q39 0 71 35v352h161v-397l12 -102h-117l-36 85q-35 -58 -72.5 -77.5t-79.5 -19.5q-47 0 -80 20t-50 54t-17 81zM191 569h-99l110 158h128l110 -158h-99l-75 92z" />
    <glyph glyph-name="udieresis" unicode="&#xfc;" horiz-adv-x="539" 
d="M47 143v356h161v-324q0 -33 11.5 -48t35.5 -15q39 0 71 35v352h161v-397l12 -102h-117l-36 85q-35 -58 -72.5 -77.5t-79.5 -19.5q-47 0 -80 20t-50 54t-17 81zM309 583v127h120v-127h-120zM106 583v127h120v-127h-120z" />
    <glyph glyph-name="yacute" unicode="&#xfd;" horiz-adv-x="506" 
d="M41 -62q13 -10 33.5 -18t39.5 -8q25 0 48.5 17t35.5 52l2 6l-203 512h172l77 -224q13 -38 20 -97h4q12 60 23 97l66 224h142l-177 -538q-29 -87 -80.5 -130.5t-120.5 -43.5q-9 0 -31.5 2.5t-44 12t-31.5 17.5zM443 727l-166 -158h-108l117 158h157z" />
    <glyph glyph-name="thorn" unicode="&#xfe;" horiz-adv-x="542" 
d="M51 -206v921h161v-263q45 59 115 59q52 0 94.5 -27.5t68.5 -84t26 -144.5q0 -90 -27.5 -149t-73 -88.5t-101.5 -29.5q-67 0 -102 47v-241h-161zM279 397q-18 0 -36 -10t-31 -26v-240q26 -19 57 -19q45 0 65 36.5t20 111.5q0 74 -19.5 110.5t-55.5 36.5z" />
    <glyph glyph-name="ydieresis" unicode="&#xff;" horiz-adv-x="506" 
d="M41 -62q13 -10 33.5 -18t39.5 -8q25 0 48.5 17t35.5 52l2 6l-203 512h172l77 -224q13 -38 20 -97h4q12 60 23 97l66 224h142l-177 -538q-29 -87 -80.5 -130.5t-120.5 -43.5q-9 0 -31.5 2.5t-44 12t-31.5 17.5zM101 583v127h120v-127h-120zM304 583v127h120v-127h-120z
" />
    <glyph glyph-name="Amacron" unicode="&#x100;" horiz-adv-x="626" 
d="M1 0l227 675h169l228 -675h-169l-42 128h-226l-41 -128h-146zM178 764v95h269v-95h-269zM275 395l-47 -143h145l-46 142q-16 47 -23 116h-4q-10 -69 -25 -115z" />
    <glyph glyph-name="amacron" unicode="&#x101;" horiz-adv-x="520" 
d="M19 132q0 39 17.5 69.5t48 51t68 30t71.5 9.5q44 0 71 -15v67q0 36 -13.5 53t-40.5 17q-20 0 -34 -9.5t-17 -30.5t4 -46l-149 17q-12 52 9.5 88.5t72 57t124.5 20.5q102 0 152 -43t50 -124v-196q0 -16 5.5 -25t14.5 -9q5 0 14.5 4t17.5 13l8 -106q-18 -13 -47 -22.5
t-58 -9.5q-42 0 -68 20.5t-34 56.5q-19 -40 -57.5 -61t-81.5 -21q-63 0 -105.5 41.5t-42.5 102.5zM117 600v95h269v-95h-269zM225 96q39 0 70 34v75l-26 1q-44 0 -70 -15.5t-26 -46.5q0 -23 14 -35.5t38 -12.5z" />
    <glyph glyph-name="Abreve" unicode="&#x102;" horiz-adv-x="626" 
d="M1 0l227 675h169l228 -675h-169l-42 128h-226l-41 -128h-146zM312 738q-27 0 -59 10.5t-56 38t-24 67.5v32h79v-15q0 -23 15 -38t45 -15q31 0 48.5 15.5t17.5 37.5v15h73v-32q0 -26 -13.5 -52.5t-48.5 -45t-77 -18.5zM275 395l-47 -143h145l-46 142q-16 47 -23 116h-4
q-10 -69 -25 -115z" />
    <glyph glyph-name="abreve" unicode="&#x103;" horiz-adv-x="520" 
d="M19 132q0 39 17.5 69.5t48 51t68 30t71.5 9.5q44 0 71 -15v67q0 36 -13.5 53t-40.5 17q-20 0 -34 -9.5t-17 -30.5t4 -46l-149 17q-12 52 9.5 88.5t72 57t124.5 20.5q102 0 152 -43t50 -124v-196q0 -16 5.5 -25t14.5 -9q5 0 14.5 4t17.5 13l8 -106q-18 -13 -47 -22.5
t-58 -9.5q-42 0 -68 20.5t-34 56.5q-19 -40 -57.5 -61t-81.5 -21q-63 0 -105.5 41.5t-42.5 102.5zM251 574q-27 0 -59 10.5t-56 38t-24 67.5v32h79v-15q0 -23 15 -38t45 -15q31 0 48.5 15.5t17.5 37.5v15h73v-32q0 -26 -13.5 -52.5t-48.5 -45t-77 -18.5zM225 96q39 0 70 34
v75l-26 1q-44 0 -70 -15.5t-26 -46.5q0 -23 14 -35.5t38 -12.5z" />
    <glyph glyph-name="Aogonek" unicode="&#x104;" horiz-adv-x="626" 
d="M1 0l227 675h169l228 -675h-41q-39 -39 -51.5 -58.5t-12.5 -35.5q0 -23 19 -29.5t50 -6.5v-93q-28 -1 -59 2.5t-57 14t-42.5 32t-16.5 53.5q0 30 20 58.5t83 62.5h-61l-42 128h-226l-41 -128h-146zM275 395l-47 -143h145l-46 142q-16 47 -23 116h-4q-10 -69 -25 -115z
" />
    <glyph glyph-name="aogonek" unicode="&#x105;" horiz-adv-x="521" 
d="M324 -121q0 28 17.5 55.5t72.5 58.5h-6q-42 0 -68 20.5t-34 56.5q-19 -40 -57.5 -61t-81.5 -21q-63 0 -105.5 41.5t-42.5 102.5q0 39 17.5 69.5t48 51t68 30t71.5 9.5q44 0 71 -15v67q0 36 -13.5 53t-40.5 17q-20 0 -34 -9.5t-17 -30.5t4 -46l-149 17q-12 52 9.5 88.5
t72 57t124.5 20.5q102 0 152 -43t50 -124v-196q0 -16 5.5 -25t14.5 -9q5 0 14.5 4t17.5 13l8 -106l-8 -5h8q-7 -8 -29.5 -30.5t-38 -43.5t-15.5 -40q0 -23 19 -29.5t50 -6.5v-93q-28 -1 -59 2.5t-57 14t-42.5 32t-16.5 53.5zM225 96q39 0 70 34v75l-26 1q-44 0 -70 -15.5
t-26 -46.5q0 -23 14 -35.5t38 -12.5z" />
    <glyph glyph-name="Cacute" unicode="&#x106;" horiz-adv-x="627" 
d="M331 -12q-69 0 -124.5 21t-95 64.5t-60.5 111.5t-21 157q0 88 21.5 154.5t62 108.5t97.5 62t127 20q71 0 124 -19t84.5 -53t42.5 -80.5t3 -101.5l-156 -14q12 77 -15 113.5t-86 36.5q-68 0 -100 -60.5t-32 -167.5q0 -231 137 -231q25 0 54.5 11t47 42t11.5 78l146 -15
q4 -50 -12 -94t-51 -76.5t-87.5 -50t-117.5 -17.5zM519 891l-166 -158h-108l117 158h157z" />
    <glyph glyph-name="cacute" unicode="&#x107;" horiz-adv-x="492" 
d="M26 237q0 139 62.5 206.5t179.5 67.5q36 0 73.5 -9t66 -27.5t45 -46.5t16.5 -64q0 -20 -6 -43l-143 -17q7 23 7 44q0 28 -14 47t-44 19q-77 0 -77 -184q0 -67 19.5 -99.5t62.5 -32.5q33 0 50.5 18.5t17.5 51.5l-1 16l127 -18l1 -15q0 -45 -25.5 -84t-74.5 -59t-103 -20
q-39 0 -74 8.5t-63.5 25t-53.5 47t-37 76t-12 92.5zM444 727l-166 -158h-108l117 158h157z" />
    <glyph glyph-name="Ccircumflex" unicode="&#x108;" horiz-adv-x="627" 
d="M331 -12q-69 0 -124.5 21t-95 64.5t-60.5 111.5t-21 157q0 88 21.5 154.5t62 108.5t97.5 62t127 20q71 0 124 -19t84.5 -53t42.5 -80.5t3 -101.5l-156 -14q12 77 -15 113.5t-86 36.5q-68 0 -100 -60.5t-32 -167.5q0 -231 137 -231q25 0 54.5 11t47 42t11.5 78l146 -15
q4 -50 -12 -94t-51 -76.5t-87.5 -50t-117.5 -17.5zM262 733h-99l110 158h128l110 -158h-99l-75 92z" />
    <glyph glyph-name="ccircumflex" unicode="&#x109;" horiz-adv-x="492" 
d="M26 237q0 139 62.5 206.5t179.5 67.5q36 0 73.5 -9t66 -27.5t45 -46.5t16.5 -64q0 -20 -6 -43l-143 -17q7 23 7 44q0 28 -14 47t-44 19q-77 0 -77 -184q0 -67 19.5 -99.5t62.5 -32.5q33 0 50.5 18.5t17.5 51.5l-1 16l127 -18l1 -15q0 -45 -25.5 -84t-74.5 -59t-103 -20
q-39 0 -74 8.5t-63.5 25t-53.5 47t-37 76t-12 92.5zM187 569h-99l110 158h128l110 -158h-99l-75 92z" />
    <glyph glyph-name="Cdotaccent" unicode="&#x10a;" horiz-adv-x="627" 
d="M331 -12q-69 0 -124.5 21t-95 64.5t-60.5 111.5t-21 157q0 88 21.5 154.5t62 108.5t97.5 62t127 20q71 0 124 -19t84.5 -53t42.5 -80.5t3 -101.5l-156 -14q12 77 -15 113.5t-86 36.5q-68 0 -100 -60.5t-32 -167.5q0 -231 137 -231q25 0 54.5 11t47 42t11.5 78l146 -15
q4 -50 -12 -94t-51 -76.5t-87.5 -50t-117.5 -17.5zM277 747v127h120v-127h-120z" />
    <glyph glyph-name="cdotaccent" unicode="&#x10b;" horiz-adv-x="492" 
d="M26 237q0 139 62.5 206.5t179.5 67.5q36 0 73.5 -9t66 -27.5t45 -46.5t16.5 -64q0 -20 -6 -43l-143 -17q7 23 7 44q0 28 -14 47t-44 19q-77 0 -77 -184q0 -67 19.5 -99.5t62.5 -32.5q33 0 50.5 18.5t17.5 51.5l-1 16l127 -18l1 -15q0 -45 -25.5 -84t-74.5 -59t-103 -20
q-39 0 -74 8.5t-63.5 25t-53.5 47t-37 76t-12 92.5zM202 583v127h120v-127h-120z" />
    <glyph glyph-name="Ccaron" unicode="&#x10c;" horiz-adv-x="627" 
d="M331 -12q-69 0 -124.5 21t-95 64.5t-60.5 111.5t-21 157q0 88 21.5 154.5t62 108.5t97.5 62t127 20q71 0 124 -19t84.5 -53t42.5 -80.5t3 -101.5l-156 -14q12 77 -15 113.5t-86 36.5q-68 0 -100 -60.5t-32 -167.5q0 -231 137 -231q25 0 54.5 11t47 42t11.5 78l146 -15
q4 -50 -12 -94t-51 -76.5t-87.5 -50t-117.5 -17.5zM164 891h99l75 -92l75 92h99l-110 -158h-128z" />
    <glyph glyph-name="ccaron" unicode="&#x10d;" horiz-adv-x="492" 
d="M26 237q0 139 62.5 206.5t179.5 67.5q36 0 73.5 -9t66 -27.5t45 -46.5t16.5 -64q0 -20 -6 -43l-143 -17q7 23 7 44q0 28 -14 47t-44 19q-77 0 -77 -184q0 -67 19.5 -99.5t62.5 -32.5q33 0 50.5 18.5t17.5 51.5l-1 16l127 -18l1 -15q0 -45 -25.5 -84t-74.5 -59t-103 -20
q-39 0 -74 8.5t-63.5 25t-53.5 47t-37 76t-12 92.5zM89 727h99l75 -92l75 92h99l-110 -158h-128z" />
    <glyph glyph-name="Dcaron" unicode="&#x10e;" horiz-adv-x="648" 
d="M61 0v675h258q64 0 118 -19.5t94.5 -60.5t63 -105t22.5 -149q0 -84 -22 -149t-61.5 -107.5t-94.5 -63.5t-120 -21h-258zM228 121h75q73 0 109 57t36 163q0 213 -145 213h-75v-433zM130 891h99l75 -92l75 92h99l-110 -158h-128z" />
    <glyph glyph-name="dcaron" unicode="&#x10f;" horiz-adv-x="586" 
d="M26 244q0 90 27.5 149t73 88.5t101.5 29.5q65 0 102 -48v252h161v-613l12 -102h-117l-30 72q-22 -38 -57 -61t-82 -23q-53 0 -96 27.5t-69 84t-26 144.5zM264 102q17 0 35 9t31 22v244q-26 20 -57 20q-45 0 -65 -36.5t-20 -111.5q0 -147 76 -147zM556 715h115
q0 -55 -15.5 -107t-37 -86t-38.5 -53l-71 30q25 34 36 80t11 136z" />
    <glyph glyph-name="Dcroat" unicode="&#x110;" horiz-adv-x="664" 
d="M4 300v95h73v280h276q63 0 115 -19.5t88.5 -60t56.5 -105t20 -149.5q0 -84 -19 -149t-55.5 -107.5t-88.5 -63.5t-117 -21h-276v300h-73zM244 121h75q73 0 109 57t36 163q0 213 -145 213h-75v-159h129v-95h-129v-179z" />
    <glyph glyph-name="dcroat" unicode="&#x111;" horiz-adv-x="543" 
d="M196 564v79h134v72h161v-72h76v-79h-76v-462l12 -102h-117l-30 72q-22 -38 -57 -61t-82 -23q-53 0 -96 27.5t-69 84t-26 144.5q0 90 27.5 149t73 88.5t101.5 29.5q65 0 102 -48v101h-134zM264 102q17 0 35 9t31 22v244q-26 20 -57 20q-45 0 -65 -36.5t-20 -111.5
q0 -147 76 -147z" />
    <glyph glyph-name="Emacron" unicode="&#x112;" horiz-adv-x="544" 
d="M61 0v675h447v-124h-280v-145h235v-124h-235v-158h290v-124h-457zM155 764v95h269v-95h-269z" />
    <glyph glyph-name="emacron" unicode="&#x113;" horiz-adv-x="510" 
d="M25 240q0 55 14.5 104t44 86.5t76 59t106.5 21.5q73 0 120.5 -26t72.5 -76.5t25 -129.5l-3 -52h-294q1 -37 9 -67.5t29 -46t50 -15.5q33 0 55.5 16t22.5 42l-1 12l127 -17l1 -18q0 -26 -10 -48t-28 -39.5t-42.5 -29.5t-59 -20t-71.5 -8q-52 0 -96.5 15t-77.5 45.5
t-51.5 79t-18.5 112.5zM131 600v95h269v-95h-269zM266 419q-27 0 -46.5 -26t-27.5 -79h131l1 17q0 24 -7 46t-21 32t-30 10z" />
    <glyph glyph-name="Ebreve" unicode="&#x114;" horiz-adv-x="544" 
d="M61 0v675h447v-124h-280v-145h235v-124h-235v-158h290v-124h-457zM289 738q-27 0 -59 10.5t-56 38t-24 67.5v32h79v-15q0 -23 15 -38t45 -15q31 0 48.5 15.5t17.5 37.5v15h73v-32q0 -26 -13.5 -52.5t-48.5 -45t-77 -18.5z" />
    <glyph glyph-name="ebreve" unicode="&#x115;" horiz-adv-x="510" 
d="M25 240q0 55 14.5 104t44 86.5t76 59t106.5 21.5q73 0 120.5 -26t72.5 -76.5t25 -129.5l-3 -52h-294q1 -37 9 -67.5t29 -46t50 -15.5q33 0 55.5 16t22.5 42l-1 12l127 -17l1 -18q0 -26 -10 -48t-28 -39.5t-42.5 -29.5t-59 -20t-71.5 -8q-52 0 -96.5 15t-77.5 45.5
t-51.5 79t-18.5 112.5zM265 574q-27 0 -59 10.5t-56 38t-24 67.5v32h79v-15q0 -23 15 -38t45 -15q31 0 48.5 15.5t17.5 37.5v15h73v-32q0 -26 -13.5 -52.5t-48.5 -45t-77 -18.5zM266 419q-27 0 -46.5 -26t-27.5 -79h131l1 17q0 24 -7 46t-21 32t-30 10z" />
    <glyph glyph-name="Edotaccent" unicode="&#x116;" horiz-adv-x="544" 
d="M61 0v675h447v-124h-280v-145h235v-124h-235v-158h290v-124h-457zM228 747v127h120v-127h-120z" />
    <glyph glyph-name="edotaccent" unicode="&#x117;" horiz-adv-x="510" 
d="M25 240q0 55 14.5 104t44 86.5t76 59t106.5 21.5q73 0 120.5 -26t72.5 -76.5t25 -129.5l-3 -52h-294q1 -37 9 -67.5t29 -46t50 -15.5q33 0 55.5 16t22.5 42l-1 12l127 -17l1 -18q0 -26 -10 -48t-28 -39.5t-42.5 -29.5t-59 -20t-71.5 -8q-52 0 -96.5 15t-77.5 45.5
t-51.5 79t-18.5 112.5zM204 583v127h120v-127h-120zM266 419q-27 0 -46.5 -26t-27.5 -79h131l1 17q0 24 -7 46t-21 32t-30 10z" />
    <glyph glyph-name="Eogonek" unicode="&#x118;" horiz-adv-x="544" 
d="M61 0v675h447v-124h-280v-145h235v-124h-235v-158h290v-124q-39 -39 -51.5 -58.5t-12.5 -35.5q0 -23 19 -29.5t50 -6.5v-93q-28 -1 -59 2.5t-57 14t-42.5 32t-16.5 53.5q0 30 20 58.5t83 62.5h-390z" />
    <glyph glyph-name="eogonek" unicode="&#x119;" horiz-adv-x="510" 
d="M217 -121q0 27 16.5 54t67.5 57l-32 -2q-52 0 -96.5 15t-77.5 45.5t-51.5 79t-18.5 112.5q0 55 14.5 104t44 86.5t76 59t106.5 21.5q73 0 120.5 -26t72.5 -76.5t25 -129.5l-3 -52h-294q1 -37 9 -67.5t29 -46t50 -15.5q33 0 55.5 16t22.5 42l-1 12l127 -17l1 -18
q0 -37 -20 -67t-55 -48q-6 -6 -31.5 -31t-38 -44.5t-12.5 -36.5q0 -23 19 -29.5t50 -6.5v-93q-28 -1 -59 2.5t-57 14t-42.5 32t-16.5 53.5zM266 419q-27 0 -46.5 -26t-27.5 -79h131l1 17q0 24 -7 46t-21 32t-30 10z" />
    <glyph glyph-name="Ecaron" unicode="&#x11a;" horiz-adv-x="544" 
d="M61 0v675h447v-124h-280v-145h235v-124h-235v-158h290v-124h-457zM115 891h99l75 -92l75 92h99l-110 -158h-128z" />
    <glyph glyph-name="ecaron" unicode="&#x11b;" horiz-adv-x="510" 
d="M25 240q0 55 14.5 104t44 86.5t76 59t106.5 21.5q73 0 120.5 -26t72.5 -76.5t25 -129.5l-3 -52h-294q1 -37 9 -67.5t29 -46t50 -15.5q33 0 55.5 16t22.5 42l-1 12l127 -17l1 -18q0 -26 -10 -48t-28 -39.5t-42.5 -29.5t-59 -20t-71.5 -8q-52 0 -96.5 15t-77.5 45.5
t-51.5 79t-18.5 112.5zM91 727h99l75 -92l75 92h99l-110 -158h-128zM266 419q-27 0 -46.5 -26t-27.5 -79h131l1 17q0 24 -7 46t-21 32t-30 10z" />
    <glyph glyph-name="Gcircumflex" unicode="&#x11c;" horiz-adv-x="650" 
d="M333 221v120h278v-341h-113v114q-40 -126 -194 -126q-59 0 -109 21t-86.5 64.5t-57 111.5t-20.5 156q0 89 21 155.5t60.5 108.5t95.5 62t125 20q92 0 154.5 -29.5t93 -83.5t17.5 -123l-157 -17q5 42 -4.5 72t-34.5 46.5t-61 16.5q-44 0 -74 -25.5t-46.5 -76t-16.5 -129.5
q0 -111 31 -169.5t105 -58.5q54 0 86.5 29t32.5 67v15h-126zM254 733h-99l110 158h128l110 -158h-99l-75 92z" />
    <glyph glyph-name="gcircumflex" unicode="&#x11d;" horiz-adv-x="542" 
d="M28 262q0 85 26.5 139.5t71 82t103.5 27.5q52 0 89 -20.5t58 -53.5l55 67h61v-511q0 -94 -67 -150t-174 -56q-49 0 -92.5 11t-73.5 32.5t-39.5 54.5t6.5 74l128 14q-11 -37 10 -58.5t63 -21.5q78 0 78 82v124q-39 -67 -121 -67q-86 0 -134 60t-48 170zM266 144
q34 0 65 29v207q-21 17 -61 17q-80 0 -80 -127q0 -126 76 -126zM178 569h-99l110 158h128l110 -158h-99l-75 92z" />
    <glyph glyph-name="Gbreve" unicode="&#x11e;" horiz-adv-x="650" 
d="M333 221v120h278v-341h-113v114q-40 -126 -194 -126q-59 0 -109 21t-86.5 64.5t-57 111.5t-20.5 156q0 89 21 155.5t60.5 108.5t95.5 62t125 20q92 0 154.5 -29.5t93 -83.5t17.5 -123l-157 -17q5 42 -4.5 72t-34.5 46.5t-61 16.5q-44 0 -74 -25.5t-46.5 -76t-16.5 -129.5
q0 -111 31 -169.5t105 -58.5q39 0 68 16.5t39.5 38t11.5 37.5v19h-126zM330 738q-27 0 -59 10.5t-56 38t-24 67.5v32h79v-15q0 -23 15 -38t45 -15q31 0 48.5 15.5t17.5 37.5v15h73v-32q0 -26 -13.5 -52.5t-48.5 -45t-77 -18.5z" />
    <glyph glyph-name="gbreve" unicode="&#x11f;" horiz-adv-x="542" 
d="M28 262q0 85 26.5 139.5t71 82t103.5 27.5q52 0 89 -20.5t58 -53.5l55 67h61v-511q0 -94 -67 -150t-174 -56q-49 0 -92.5 11t-73.5 32.5t-39.5 54.5t6.5 74l128 14q-11 -37 10 -58.5t63 -21.5q78 0 78 82v124q-39 -67 -121 -67q-86 0 -134 60t-48 170zM266 144
q34 0 65 29v207q-21 17 -61 17q-80 0 -80 -127q0 -126 76 -126zM254 574q-27 0 -59 10.5t-56 38t-24 67.5v32h79v-15q0 -23 15 -38t45 -15q31 0 48.5 15.5t17.5 37.5v15h73v-32q0 -26 -13.5 -52.5t-48.5 -45t-77 -18.5z" />
    <glyph glyph-name="Gdotaccent" unicode="&#x120;" horiz-adv-x="650" 
d="M333 221v120h278v-341h-113v114q-40 -126 -194 -126q-59 0 -109 21t-86.5 64.5t-57 111.5t-20.5 156q0 89 21 155.5t60.5 108.5t95.5 62t125 20q92 0 154.5 -29.5t93 -83.5t17.5 -123l-157 -17q5 42 -4.5 72t-34.5 46.5t-61 16.5q-44 0 -74 -25.5t-46.5 -76t-16.5 -129.5
q0 -111 31 -169.5t105 -58.5q39 0 68 16.5t39.5 38t11.5 37.5v19h-126zM269 747v127h120v-127h-120z" />
    <glyph glyph-name="gdotaccent" unicode="&#x121;" horiz-adv-x="542" 
d="M28 262q0 85 26.5 139.5t71 82t103.5 27.5q52 0 89 -20.5t58 -53.5l55 67h61v-511q0 -94 -67 -150t-174 -56q-49 0 -92.5 11t-73.5 32.5t-39.5 54.5t6.5 74l128 14q-11 -37 10 -58.5t63 -21.5q78 0 78 82v124q-39 -67 -121 -67q-86 0 -134 60t-48 170zM266 144
q34 0 65 29v207q-21 17 -61 17q-80 0 -80 -127q0 -126 76 -126zM193 583v127h120v-127h-120z" />
    <glyph glyph-name="Gcommaaccent" unicode="&#x122;" horiz-adv-x="650" 
d="M333 221v120h278v-341h-113v114q-40 -126 -194 -126q-59 0 -109 21t-86.5 64.5t-57 111.5t-20.5 156q0 89 21 155.5t60.5 108.5t95.5 62t125 20q92 0 154.5 -29.5t93 -83.5t17.5 -123l-157 -17q5 42 -4.5 72t-34.5 46.5t-61 16.5q-44 0 -74 -25.5t-46.5 -76t-16.5 -129.5
q0 -111 31 -169.5t105 -58.5q54 0 86.5 29t32.5 67v15h-126zM293 -47h135q0 -42 -15.5 -79t-37.5 -61t-40 -38h-91q19 19 32.5 48t16.5 64t0 66z" />
    <glyph glyph-name="gcommaaccent" unicode="&#x123;" horiz-adv-x="542" 
d="M28 262q0 85 26.5 139.5t71 82t103.5 27.5q52 0 89 -20.5t58 -53.5l55 67h61v-511q0 -94 -67 -150t-174 -56q-49 0 -92.5 11t-73.5 32.5t-39.5 54.5t6.5 74l128 14q-11 -37 10 -58.5t63 -21.5q78 0 78 82v124q-39 -67 -121 -67q-86 0 -134 60t-48 170zM266 144
q34 0 65 29v207q-21 17 -61 17q-80 0 -80 -127q0 -126 76 -126zM315 561h-135q0 42 15.5 79t37.5 61t40 38h91q-19 -19 -32.5 -48t-16.5 -64t0 -66z" />
    <glyph glyph-name="Hcircumflex" unicode="&#x124;" horiz-adv-x="661" 
d="M61 0v675h167v-255h205v255h167v-675h-167v286h-205v-286h-167zM233 733h-99l110 158h128l110 -158h-99l-75 92z" />
    <glyph glyph-name="hcircumflex" unicode="&#x125;" horiz-adv-x="553" 
d="M345 0v324q0 33 -13.5 48t-41.5 15q-44 0 -78 -34v-353h-161v715h161v-288q49 84 140 84q41 0 78 -17t56.5 -54t19.5 -84v-356h-161zM56 748h-99l110 158h128l110 -158h-99l-75 92z" />
    <glyph glyph-name="Hbar" unicode="&#x126;" horiz-adv-x="691" 
d="M2 479v85h74v111h167v-111h205v111h167v-111h74v-85h-74v-479h-167v256h-205v-256h-167v479h-74zM243 479v-89h205v89h-205z" />
    <glyph glyph-name="hbar" unicode="&#x127;" horiz-adv-x="553" 
d="M-26 564v79h77v72h161v-72h124v-79h-124v-137q49 84 140 84q41 0 78 -17t56.5 -54t19.5 -84v-356h-161v324q0 33 -13.5 48t-41.5 15q-44 0 -78 -34v-353h-161v564h-77z" />
    <glyph glyph-name="Itilde" unicode="&#x128;" horiz-adv-x="409" 
d="M31 557v118h348v-118h-91v-439h91v-118h-348v118h90v439h-90zM92 747l-69 11q6 63 38 94t75 31q35 0 69 -23t45.5 -26.5t19.5 -3.5q34 0 44 45l69 -11q-7 -63 -38.5 -94.5t-74.5 -31.5q-20 0 -37.5 7t-47.5 27t-49 20q-36 0 -44 -45z" />
    <glyph glyph-name="itilde" unicode="&#x129;" horiz-adv-x="263" 
d="M51 0v499h161v-499h-161zM20 583l-69 11q6 63 38 94t75 31q35 0 69 -23t45.5 -26.5t19.5 -3.5q34 0 44 45l69 -11q-7 -63 -38.5 -94.5t-74.5 -31.5q-20 0 -37.5 7t-47.5 27t-49 20q-36 0 -44 -45z" />
    <glyph glyph-name="Imacron" unicode="&#x12a;" horiz-adv-x="409" 
d="M31 557v118h348v-118h-91v-439h91v-118h-348v118h90v439h-90zM69 764v95h269v-95h-269z" />
    <glyph glyph-name="imacron" unicode="&#x12b;" horiz-adv-x="263" 
d="M51 0v499h161v-499h-161zM-3 600v95h269v-95h-269z" />
    <glyph glyph-name="Ibreve" unicode="&#x12c;" horiz-adv-x="409" 
d="M31 557v118h348v-118h-91v-439h91v-118h-348v118h90v439h-90zM203 738q-27 0 -59 10.5t-56 38t-24 67.5v32h79v-15q0 -23 15 -38t45 -15q31 0 48.5 15.5t17.5 37.5v15h73v-32q0 -26 -13.5 -52.5t-48.5 -45t-77 -18.5z" />
    <glyph glyph-name="ibreve" unicode="&#x12d;" horiz-adv-x="263" 
d="M51 0v499h161v-499h-161zM131 574q-27 0 -59 10.5t-56 38t-24 67.5v32h79v-15q0 -23 15 -38t45 -15q31 0 48.5 15.5t17.5 37.5v15h73v-32q0 -26 -13.5 -52.5t-48.5 -45t-77 -18.5z" />
    <glyph glyph-name="Iogonek" unicode="&#x12e;" horiz-adv-x="409" 
d="M31 557v118h348v-118h-91v-439h91v-118h-91q-39 -39 -51.5 -58.5t-12.5 -35.5q0 -23 19 -29.5t50 -6.5v-93q-28 -1 -59 2.5t-57 14t-42.5 32t-16.5 53.5q0 30 20 58.5t83 62.5h-190v118h90v439h-90z" />
    <glyph glyph-name="iogonek" unicode="&#x12f;" horiz-adv-x="263" 
d="M51 0v499h161v-499h-2q-39 -39 -51.5 -58.5t-12.5 -35.5q0 -23 19 -29.5t50 -6.5v-93q-28 -1 -59 2.5t-57 14t-42.5 32t-16.5 53.5q0 30 20 58.5t83 62.5h-92zM53 589v141h156v-141h-156z" />
    <glyph glyph-name="Idotaccent" unicode="&#x130;" horiz-adv-x="409" 
d="M31 557v118h348v-118h-91v-439h91v-118h-348v118h90v439h-90zM142 747v127h120v-127h-120z" />
    <glyph glyph-name="dotlessi" unicode="&#x131;" horiz-adv-x="263" 
d="M51 0v499h161v-499h-161z" />
    <glyph glyph-name="Jcircumflex" unicode="&#x134;" horiz-adv-x="497" 
d="M122 557v118h319v-466q0 -101 -55.5 -161t-162.5 -60q-26 0 -58 5.5t-62.5 20.5t-51 38.5t-30 55.5t-6.5 65.5t11 60.5l148 15q-19 -64 -7 -101.5t53 -37.5q54 0 54 68v379h-152zM226 733h-99l110 158h128l110 -158h-99l-75 92z" />
    <glyph glyph-name="jcircumflex" unicode="&#x135;" horiz-adv-x="263" 
d="M51 4v495h161v-469q0 -61 -14 -107.5t-40.5 -76.5t-63 -44.5t-81.5 -14.5q-54 0 -114 21l22 125q31 -18 63 -18q33 0 50 23t17 66zM54 569h-99l110 158h128l110 -158h-99l-75 92z" />
    <glyph glyph-name="Kcommaaccent" unicode="&#x136;" horiz-adv-x="618" 
d="M61 0v675h167v-189q0 -17 -5 -75h4q2 3 16 26t26 37l165 201h180l-220 -265l232 -410h-192l-156 283l-50 -61v-222h-167zM279 -47h135q0 -42 -15.5 -79t-37.5 -61t-40 -38h-91q19 19 32.5 48t16.5 64t0 66z" />
    <glyph glyph-name="kcommaaccent" unicode="&#x137;" horiz-adv-x="530" 
d="M51 0v715h161v-383l148 167h169l-167 -186l173 -313h-180l-109 201l-34 -39v-162h-161zM216 -47h135q0 -42 -15.5 -79t-37.5 -61t-40 -38h-91q19 19 32.5 48t16.5 64t0 66z" />
    <glyph glyph-name="Lacute" unicode="&#x139;" horiz-adv-x="517" 
d="M61 0v675h167v-551h281v-124h-448zM347 908l-166 -158h-108l117 158h157z" />
    <glyph glyph-name="lacute" unicode="&#x13a;" horiz-adv-x="298" 
d="M50 134v581h161v-565q0 -34 28 -34q8 0 22.5 5.5t27.5 16.5l14 -121q-21 -9 -54.5 -16.5t-65.5 -7.5q-68 0 -100.5 36.5t-32.5 104.5zM312 906l-166 -158h-108l117 158h157z" />
    <glyph glyph-name="Lcommaaccent" unicode="&#x13b;" horiz-adv-x="517" 
d="M61 0v675h167v-551h281v-124h-448zM211 -47h135q0 -42 -15.5 -79t-37.5 -61t-40 -38h-91q19 19 32.5 48t16.5 64t0 66z" />
    <glyph glyph-name="lcommaaccent" unicode="&#x13c;" horiz-adv-x="298" 
d="M50 134v581h161v-565q0 -34 28 -34q8 0 22.5 5.5t27.5 16.5l14 -121q-21 -9 -54.5 -16.5t-65.5 -7.5q-68 0 -100.5 36.5t-32.5 104.5zM103 -47h135q0 -42 -15.5 -79t-37.5 -61t-40 -38h-91q19 19 32.5 48t16.5 64t0 66z" />
    <glyph glyph-name="Lcaron" unicode="&#x13d;" horiz-adv-x="525" 
d="M61 0v675h167v-551h281v-124h-448zM399 675h115q0 -55 -15.5 -107t-37 -86t-38.5 -53l-71 30q25 34 36 80t11 136z" />
    <glyph glyph-name="lcaron" unicode="&#x13e;" horiz-adv-x="327" 
d="M50 134v581h161v-565q0 -34 28 -34q8 0 22.5 5.5t27.5 16.5l14 -121q-21 -9 -54.5 -16.5t-65.5 -7.5q-68 0 -100.5 36.5t-32.5 104.5zM276 715h115q0 -55 -15.5 -107t-37 -86t-38.5 -53l-71 30q25 34 36 80t11 136z" />
    <glyph glyph-name="Ldot" unicode="&#x13f;" horiz-adv-x="518" 
d="M61 0v675h167v-551h281v-124h-448zM347 332v127h120v-127h-120z" />
    <glyph glyph-name="ldot" unicode="&#x140;" horiz-adv-x="414" 
d="M50 134v581h161v-565q0 -34 28 -34q8 0 22.5 5.5t27.5 16.5l14 -121q-21 -9 -54.5 -16.5t-65.5 -7.5q-68 0 -100.5 36.5t-32.5 104.5zM279 322v127h120v-127h-120z" />
    <glyph glyph-name="Lslash" unicode="&#x141;" horiz-adv-x="549" 
d="M7 118v107l86 67v383h167v-252l174 136v-107l-174 -136v-192h281v-124h-448v185z" />
    <glyph glyph-name="lslash" unicode="&#x142;" horiz-adv-x="355" 
d="M9 184v101l73 57v373h161v-246l116 92v-101l-116 -92v-218q0 -34 28 -34q8 0 22.5 5.5t27.5 16.5l14 -121q-21 -9 -54.5 -16.5t-65.5 -7.5q-68 0 -100.5 36.5t-32.5 104.5v107z" />
    <glyph glyph-name="Nacute" unicode="&#x143;" horiz-adv-x="663" 
d="M61 0v675h179l177 -335q13 -26 51 -120h4q-1 11 -3 45.5t-3 53.5t-1 32v324h137v-675h-175l-184 334q-20 35 -49 110h-4q8 -101 8 -120v-324h-137zM513 891l-166 -158h-108l117 158h157z" />
    <glyph glyph-name="nacute" unicode="&#x144;" horiz-adv-x="543" 
d="M51 0v499h119l19 -90q37 61 75.5 81.5t81.5 20.5q67 0 108.5 -40t41.5 -115v-356h-161v324q0 33 -12 48t-38 15q-39 0 -73 -36v-351h-161zM465 727l-166 -158h-108l117 158h157z" />
    <glyph glyph-name="Ncommaaccent" unicode="&#x145;" horiz-adv-x="663" 
d="M61 0v675h179l177 -335q13 -26 51 -120h4q-1 11 -3 45.5t-3 53.5t-1 32v324h137v-675h-175l-184 334q-20 35 -49 110h-4q8 -101 8 -120v-324h-137zM289 -47h135q0 -42 -15.5 -79t-37.5 -61t-40 -38h-91q19 19 32.5 48t16.5 64t0 66z" />
    <glyph glyph-name="ncommaaccent" unicode="&#x146;" horiz-adv-x="543" 
d="M51 0v499h119l19 -90q37 61 75.5 81.5t81.5 20.5q67 0 108.5 -40t41.5 -115v-356h-161v324q0 33 -12 48t-38 15q-39 0 -73 -36v-351h-161zM223 -47h135q0 -42 -15.5 -79t-37.5 -61t-40 -38h-91q19 19 32.5 48t16.5 64t0 66z" />
    <glyph glyph-name="Ncaron" unicode="&#x147;" horiz-adv-x="663" 
d="M61 0v675h179l177 -335q13 -26 51 -120h4q-1 11 -3 45.5t-3 53.5t-1 32v324h137v-675h-175l-184 334q-20 35 -49 110h-4q8 -101 8 -120v-324h-137zM158 891h99l75 -92l75 92h99l-110 -158h-128z" />
    <glyph glyph-name="ncaron" unicode="&#x148;" horiz-adv-x="543" 
d="M51 0v499h119l19 -90q37 61 75.5 81.5t81.5 20.5q67 0 108.5 -40t41.5 -115v-356h-161v324q0 33 -12 48t-38 15q-39 0 -73 -36v-351h-161zM110 727h99l75 -92l75 92h99l-110 -158h-128z" />
    <glyph glyph-name="napostrophe" unicode="&#x149;" horiz-adv-x="543" 
d="M51 0v499h119l19 -90q37 61 75.5 81.5t81.5 20.5q67 0 108.5 -40t41.5 -115v-356h-161v324q0 33 -12 48t-38 15q-39 0 -73 -36v-351h-161zM23 715h135q0 -42 -15.5 -79t-37.5 -61t-40 -38h-91q19 19 32.5 48t16.5 64t0 66z" />
    <glyph glyph-name="Eng" unicode="&#x14a;" horiz-adv-x="663" 
d="M61 0v675h179l177 -335q13 -26 51 -120h4q-1 11 -3 45.5t-3 53.5t-1 32v324h137v-680q0 -37 -9.5 -74t-33 -66.5t-62 -48.5t-94.5 -19q-54 0 -114 21l22 120q31 -18 63 -18q91 0 91 74v16h-38l-184 334q-20 35 -49 110h-4q8 -101 8 -120v-324h-137z" />
    <glyph glyph-name="eng" unicode="&#x14b;" horiz-adv-x="543" 
d="M51 0v499h119l19 -90q37 61 75.5 81.5t81.5 20.5q67 0 108.5 -40t41.5 -115v-326q0 -61 -14 -107.5t-40.5 -76.5t-63 -44.5t-81.5 -14.5q-54 0 -114 21l22 125q31 -18 63 -18q67 0 67 69v340q0 33 -12 48t-38 15q-39 0 -73 -36v-351h-161z" />
    <glyph glyph-name="Omacron" unicode="&#x14c;" horiz-adv-x="677" 
d="M340 -12q-69 0 -125.5 20t-98 63t-64 112.5t-22.5 163.5q0 88 22.5 153.5t64 106.5t98.5 60.5t125 19.5q67 0 123.5 -19.5t97.5 -60.5t63.5 -106.5t22.5 -153.5q0 -72 -15.5 -140t-52.5 -116.5t-95.5 -75.5t-143.5 -27zM338 106q44 0 74.5 26.5t47 79t16.5 135.5
q0 74 -16.5 123t-47 74t-74.5 25t-74 -25t-46.5 -73.5t-16.5 -123.5q0 -114 34 -177.5t103 -63.5zM206 764v95h269v-95h-269z" />
    <glyph glyph-name="omacron" unicode="&#x14d;" horiz-adv-x="525" 
d="M26 252q0 67 18 117.5t50 81.5t75 45.5t93 14.5q37 0 71 -8.5t62.5 -25.5t54 -49t38 -80.5t12.5 -99.5q0 -85 -28 -141.5t-80.5 -87.5t-126.5 -31q-50 0 -93.5 14.5t-76 46t-51 83t-18.5 120.5zM264 90q43 0 58.5 44t15.5 115q0 81 -18.5 120.5t-57.5 39.5t-56.5 -37.5
t-17.5 -118.5q0 -84 18 -123.5t58 -39.5zM130 600v95h269v-95h-269z" />
    <glyph glyph-name="Obreve" unicode="&#x14e;" horiz-adv-x="677" 
d="M340 -12q-69 0 -125.5 20t-98 63t-64 112.5t-22.5 163.5q0 88 22.5 153.5t64 106.5t98.5 60.5t125 19.5q67 0 123.5 -19.5t97.5 -60.5t63.5 -106.5t22.5 -153.5q0 -72 -15.5 -140t-52.5 -116.5t-95.5 -75.5t-143.5 -27zM338 106q44 0 74.5 26.5t47 79t16.5 135.5
q0 74 -16.5 123t-47 74t-74.5 25t-74 -25t-46.5 -73.5t-16.5 -123.5q0 -114 34 -177.5t103 -63.5zM340 738q-27 0 -59 10.5t-56 38t-24 67.5v32h79v-15q0 -23 15 -38t45 -15q31 0 48.5 15.5t17.5 37.5v15h73v-32q0 -26 -13.5 -52.5t-48.5 -45t-77 -18.5z" />
    <glyph glyph-name="obreve" unicode="&#x14f;" horiz-adv-x="525" 
d="M26 252q0 67 18 117.5t50 81.5t75 45.5t93 14.5q37 0 71 -8.5t62.5 -25.5t54 -49t38 -80.5t12.5 -99.5q0 -85 -28 -141.5t-80.5 -87.5t-126.5 -31q-50 0 -93.5 14.5t-76 46t-51 83t-18.5 120.5zM264 90q43 0 58.5 44t15.5 115q0 81 -18.5 120.5t-57.5 39.5t-56.5 -37.5
t-17.5 -118.5q0 -84 18 -123.5t58 -39.5zM264 574q-27 0 -59 10.5t-56 38t-24 67.5v32h79v-15q0 -23 15 -38t45 -15q31 0 48.5 15.5t17.5 37.5v15h73v-32q0 -26 -13.5 -52.5t-48.5 -45t-77 -18.5z" />
    <glyph glyph-name="Ohungarumlaut" unicode="&#x150;" horiz-adv-x="677" 
d="M340 -12q-69 0 -125.5 20t-98 63t-64 112.5t-22.5 163.5q0 88 22.5 153.5t64 106.5t98.5 60.5t125 19.5q67 0 123.5 -19.5t97.5 -60.5t63.5 -106.5t22.5 -153.5q0 -72 -15.5 -140t-52.5 -116.5t-95.5 -75.5t-143.5 -27zM338 106q44 0 74.5 26.5t47 79t16.5 135.5
q0 74 -16.5 123t-47 74t-74.5 25t-74 -25t-46.5 -73.5t-16.5 -123.5q0 -114 34 -177.5t103 -63.5zM286 733h-111l107 158h124zM487 733h-111l107 158h124z" />
    <glyph glyph-name="ohungarumlaut" unicode="&#x151;" horiz-adv-x="525" 
d="M26 252q0 67 18 117.5t50 81.5t75 45.5t93 14.5q37 0 71 -8.5t62.5 -25.5t54 -49t38 -80.5t12.5 -99.5q0 -85 -28 -141.5t-80.5 -87.5t-126.5 -31q-50 0 -93.5 14.5t-76 46t-51 83t-18.5 120.5zM264 90q43 0 58.5 44t15.5 115q0 81 -18.5 120.5t-57.5 39.5t-56.5 -37.5
t-17.5 -118.5q0 -84 18 -123.5t58 -39.5zM210 569h-111l107 158h124zM411 569h-111l107 158h124z" />
    <glyph glyph-name="OE" unicode="&#x152;" horiz-adv-x="889" 
d="M30 341q0 85 23.5 149.5t67 105t104 60t135.5 19.5h493v-124h-280v-145h235v-124h-235v-158h290v-124h-503q-76 0 -137.5 21t-104.5 63.5t-65.5 107.5t-22.5 149zM199 341q0 -220 195 -220h12v433h-12q-102 0 -148.5 -53.5t-46.5 -159.5z" />
    <glyph glyph-name="oe" unicode="&#x153;" horiz-adv-x="817" 
d="M25 251q0 84 27.5 141t78.5 88t124 31q103 0 163 -70q60 70 162 70q68 0 114 -26.5t71.5 -76.5t25.5 -125l-3 -56h-294q1 -47 12 -76q19 -53 75 -53q24 0 44 9t27.5 22.5t7.5 26.5l-1 12l127 -17l1 -18q0 -43 -29 -77.5t-79.5 -51t-99.5 -16.5q-103 0 -165 66
q-59 -66 -157 -66q-72 0 -124 31.5t-80 89t-28 142.5zM187 252q0 -72 16 -117t60 -45q38 0 56 38t18 120q0 83 -18.5 122t-58.5 39q-38 0 -55.5 -37.5t-17.5 -119.5zM498 314h133v19q0 22 -7 44t-21 32t-29 10q-28 0 -48 -26.5t-28 -78.5z" />
    <glyph glyph-name="Racute" unicode="&#x154;" horiz-adv-x="613" 
d="M61 0v675h278q49 0 90 -12t70 -36t45 -59.5t16 -80.5q0 -36 -14 -73t-48.5 -67.5t-73.5 -42.5q26 -22 47 -64q3 -6 13.5 -28.5t17 -35t16 -25t24 -22t35.5 -9.5q14 0 27 5l-13 -119q-37 -9 -67 -9q-59 0 -98.5 29t-74.5 109q-1 2 -13.5 33.5t-25 55t-24.5 33.5t-22 10
h-38v-267h-167zM308 554h-80v-166h60q31 0 54 9t36.5 28t13.5 50t-14 49.5t-33.5 24t-36.5 5.5zM473 891l-166 -158h-108l117 158h157z" />
    <glyph glyph-name="racute" unicode="&#x155;" horiz-adv-x="453" 
d="M51 0v499h119l21 -102q12 35 33.5 62t49 39.5t57.5 12.5t57 -13.5t44.5 -46.5t16 -76t-15.5 -77l-135 -19q10 27 9 53t-12 38t-26 12q-17 0 -31 -12.5t-26 -47.5v-322h-161zM417 727l-166 -158h-108l117 158h157z" />
    <glyph glyph-name="Rcommaaccent" unicode="&#x156;" horiz-adv-x="613" 
d="M61 0v675h278q49 0 90 -12t70 -36t45 -59.5t16 -80.5q0 -36 -14 -73t-48.5 -67.5t-73.5 -42.5q26 -22 47 -64q3 -6 13.5 -28.5t17 -35t16 -25t24 -22t35.5 -9.5q14 0 27 5l-13 -119q-37 -9 -67 -9q-59 0 -98.5 29t-74.5 109q-1 2 -13.5 33.5t-25 55t-24.5 33.5t-22 10
h-38v-267h-167zM308 554h-80v-166h60q31 0 54 9t36.5 28t13.5 50t-14 49.5t-33.5 24t-36.5 5.5zM250 -47h135q0 -42 -15.5 -79t-37.5 -61t-40 -38h-91q19 19 32.5 48t16.5 64t0 66z" />
    <glyph glyph-name="rcommaaccent" unicode="&#x157;" horiz-adv-x="453" 
d="M51 0v499h119l21 -102q12 35 33.5 62t49 39.5t57.5 12.5t57 -13.5t44.5 -46.5t16 -76t-15.5 -77l-135 -19q10 27 9 53t-12 38t-26 12q-17 0 -31 -12.5t-26 -47.5v-322h-161zM66 -47h135q0 -42 -15.5 -79t-37.5 -61t-40 -38h-91q19 19 32.5 48t16.5 64t0 66z" />
    <glyph glyph-name="Rcaron" unicode="&#x158;" horiz-adv-x="613" 
d="M61 0v675h278q49 0 90 -12t70 -36t45 -59.5t16 -80.5q0 -36 -14 -73t-48.5 -67.5t-73.5 -42.5q26 -22 47 -64q3 -6 13.5 -28.5t17 -35t16 -25t24 -22t35.5 -9.5q14 0 27 5l-13 -119q-37 -9 -67 -9q-59 0 -98.5 29t-74.5 109q-1 2 -13.5 33.5t-25 55t-24.5 33.5t-22 10
h-38v-267h-167zM118 891h99l75 -92l75 92h99l-110 -158h-128zM308 554h-80v-166h60q31 0 54 9t36.5 28t13.5 50t-14 49.5t-33.5 24t-36.5 5.5z" />
    <glyph glyph-name="rcaron" unicode="&#x159;" horiz-adv-x="453" 
d="M51 0v499h119l21 -102q12 35 33.5 62t49 39.5t57.5 12.5t57 -13.5t44.5 -46.5t16 -76t-15.5 -77l-135 -19q10 27 9 53t-12 38t-26 12q-17 0 -31 -12.5t-26 -47.5v-322h-161zM62 727h99l75 -92l75 92h99l-110 -158h-128z" />
    <glyph glyph-name="Sacute" unicode="&#x15a;" horiz-adv-x="579" 
d="M27 208l146 14q-4 -20 -1 -41.5t15.5 -38t38 -26.5t62.5 -10q49 0 71.5 17.5t22.5 47.5q0 15 -7 30t-27.5 27.5t-52 24t-35.5 12.5q-69 24 -115.5 50t-76 69t-29.5 104q0 46 18 84t51.5 64t83 39t109.5 12q35 -1 74.5 -8t73 -25t57.5 -46t32 -67.5t0 -79.5l-153 -14
q4 28 -1 57.5t-29 47t-67 17.5q-40 0 -61.5 -15.5t-21.5 -46.5q0 -28 19 -46.5t44 -28.5t57 -21q106 -35 149.5 -68t58.5 -71.5t15 -75.5q0 -45 -17 -83.5t-50.5 -66t-84 -43t-114.5 -15.5q-45 0 -93 9.5t-82 31t-53 47.5t-26 59.5t-1 72.5zM472 891l-166 -158h-108l117 158
h157z" />
    <glyph glyph-name="sacute" unicode="&#x15b;" horiz-adv-x="477" 
d="M26 156l127 11l-2 -19q0 -28 23.5 -45.5t57.5 -17.5t51.5 12.5t17.5 35.5q0 9 -10.5 21t-79.5 32q-103 30 -139 71t-36 100q0 74 52.5 114t148.5 40q92 0 149.5 -34.5t57.5 -93.5q0 -20 -5 -36l-144 -13q5 15 5 30q0 24 -17 37t-45 13q-26 0 -41 -11t-15 -30
q0 -17 13.5 -31t59.5 -28q3 -1 32.5 -9.5t52 -16.5t38 -17.5t30.5 -21.5t28 -37t13 -63q0 -49 -24.5 -84t-73 -56t-121.5 -21q-37 0 -75 7t-68 23.5t-47 42.5t-17 61q0 18 3 34zM417 727l-166 -158h-108l117 158h157z" />
    <glyph glyph-name="Scircumflex" unicode="&#x15c;" horiz-adv-x="579" 
d="M27 208l146 14q-4 -20 -1 -41.5t15.5 -38t38 -26.5t62.5 -10q49 0 71.5 17.5t22.5 47.5q0 15 -7 30t-27.5 27.5t-52 24t-35.5 12.5q-69 24 -115.5 50t-76 69t-29.5 104q0 46 18 84t51.5 64t83 39t109.5 12q35 -1 74.5 -8t73 -25t57.5 -46t32 -67.5t0 -79.5l-153 -14
q4 28 -1 57.5t-29 47t-67 17.5q-40 0 -61.5 -15.5t-21.5 -46.5q0 -28 19 -46.5t44 -28.5t57 -21q106 -35 149.5 -68t58.5 -71.5t15 -75.5q0 -45 -17 -83.5t-50.5 -66t-84 -43t-114.5 -15.5q-45 0 -93 9.5t-82 31t-53 47.5t-26 59.5t-1 72.5zM215 733h-99l110 158h128
l110 -158h-99l-75 92z" />
    <glyph glyph-name="scircumflex" unicode="&#x15d;" horiz-adv-x="477" 
d="M26 156l127 11l-2 -19q0 -28 23.5 -45.5t57.5 -17.5t51.5 12.5t17.5 35.5q0 9 -10.5 21t-79.5 32q-103 30 -139 71t-36 100q0 74 52.5 114t148.5 40q92 0 149.5 -34.5t57.5 -93.5q0 -20 -5 -36l-144 -13q5 15 5 30q0 24 -17 37t-45 13q-26 0 -41 -11t-15 -30
q0 -17 13.5 -31t59.5 -28q3 -1 32.5 -9.5t52 -16.5t38 -17.5t30.5 -21.5t28 -37t13 -63q0 -49 -24.5 -84t-73 -56t-121.5 -21q-37 0 -75 7t-68 23.5t-47 42.5t-17 61q0 18 3 34zM160 569h-99l110 158h128l110 -158h-99l-75 92z" />
    <glyph glyph-name="Scedilla" unicode="&#x15e;" horiz-adv-x="579" 
d="M241 -104l15 93q-56 3 -102.5 18.5t-77.5 43t-44 67.5t-5 90l146 14q-4 -20 -1 -41.5t15.5 -38t38 -26.5t62.5 -10q49 0 71.5 17.5t22.5 47.5q0 15 -7 30t-27.5 27.5t-52 24t-35.5 12.5q-69 24 -115.5 50t-76 69t-29.5 104q0 46 18 84t51.5 64t83 39t109.5 12
q35 -1 74.5 -8t73 -25t57.5 -46t32 -67.5t0 -79.5l-153 -14q4 28 -1 57.5t-29 47t-67 17.5q-40 0 -61.5 -15.5t-21.5 -46.5q0 -28 19 -46.5t44 -28.5t57 -21q106 -35 149.5 -68t58.5 -71.5t15 -75.5q0 -31 -10 -65t-35.5 -63.5t-72 -51.5t-116.5 -27l-9 -45q36 -7 57 -27
t21 -53q0 -28 -17 -49.5t-41 -29.5t-44 -8q-27 0 -53 10t-41 28l23 54q26 -35 62 -35q17 0 27.5 8t10.5 23q0 31 -50 31h-19z" />
    <glyph glyph-name="scedilla" unicode="&#x15f;" horiz-adv-x="477" 
d="M192 -104l15 93q-55 3 -97 19t-64.5 44.5t-22.5 69.5q0 18 3 34l127 11l-2 -19q0 -28 23.5 -45.5t57.5 -17.5t51.5 12.5t17.5 35.5q0 9 -10.5 21t-79.5 32q-103 30 -139 71t-36 100q0 74 52.5 114t148.5 40q92 0 149.5 -34.5t57.5 -93.5q0 -20 -5 -36l-144 -13q5 15 5 30
q0 24 -17 37t-45 13q-26 0 -41 -11t-15 -30q0 -17 13.5 -31t59.5 -28q3 -1 32.5 -9.5t52 -16.5t38 -17.5t30.5 -21.5t28 -37t13 -63q0 -71 -50 -111.5t-134 -47.5l-9 -46q36 -7 57 -27t21 -53q0 -28 -17 -49.5t-41 -29.5t-44 -8q-27 0 -53 10t-41 28l23 54q26 -35 62 -35
q17 0 27.5 8t10.5 23q0 31 -50 31h-19z" />
    <glyph glyph-name="Scaron" unicode="&#x160;" horiz-adv-x="579" 
d="M27 208l146 14q-4 -20 -1 -41.5t15.5 -38t38 -26.5t62.5 -10q49 0 71.5 17.5t22.5 47.5q0 15 -7 30t-27.5 27.5t-52 24t-35.5 12.5q-69 24 -115.5 50t-76 69t-29.5 104q0 46 18 84t51.5 64t83 39t109.5 12q35 -1 74.5 -8t73 -25t57.5 -46t32 -67.5t0 -79.5l-153 -14
q4 28 -1 57.5t-29 47t-67 17.5q-40 0 -61.5 -15.5t-21.5 -46.5q0 -28 19 -46.5t44 -28.5t57 -21q106 -35 149.5 -68t58.5 -71.5t15 -75.5q0 -45 -17 -83.5t-50.5 -66t-84 -43t-114.5 -15.5q-45 0 -93 9.5t-82 31t-53 47.5t-26 59.5t-1 72.5zM117 891h99l75 -92l75 92h99
l-110 -158h-128z" />
    <glyph glyph-name="scaron" unicode="&#x161;" horiz-adv-x="477" 
d="M26 156l127 11l-2 -19q0 -28 23.5 -45.5t57.5 -17.5t51.5 12.5t17.5 35.5q0 9 -10.5 21t-79.5 32q-103 30 -139 71t-36 100q0 74 52.5 114t148.5 40q92 0 149.5 -34.5t57.5 -93.5q0 -20 -5 -36l-144 -13q5 15 5 30q0 24 -17 37t-45 13q-26 0 -41 -11t-15 -30
q0 -17 13.5 -31t59.5 -28q3 -1 32.5 -9.5t52 -16.5t38 -17.5t30.5 -21.5t28 -37t13 -63q0 -49 -24.5 -84t-73 -56t-121.5 -21q-37 0 -75 7t-68 23.5t-47 42.5t-17 61q0 18 3 34zM62 727h99l75 -92l75 92h99l-110 -158h-128z" />
    <glyph glyph-name="Tcommaaccent" unicode="&#x162;" horiz-adv-x="559" 
d="M10 551v124h539v-124h-188v-551h-52l-11 -56q36 -7 57 -27t21 -53q0 -28 -17 -49.5t-41 -29.5t-44 -8q-27 0 -53 10t-41 28l23 54q26 -35 62 -35q17 0 27.5 8t10.5 23q0 31 -50 31h-19l17 104h-57v551h-184z" />
    <glyph glyph-name="tcommaaccent" unicode="&#x163;" horiz-adv-x="438" 
d="M205 -104l15 94q-67 8 -103.5 49t-36.5 115v243h-75v102h87l23 143l126 19v-162h154v-102h-154v-239q0 -23 6 -39.5t28 -16.5t30.5 22t0.5 68l126 -19q11 -78 -30.5 -127.5t-123.5 -56.5l-9 -45q36 -7 57 -27t21 -53q0 -28 -17 -49.5t-41 -29.5t-44 -8q-27 0 -53 10
t-41 28l23 54q26 -35 62 -35q17 0 27.5 8t10.5 23q0 31 -50 31h-19z" />
    <glyph glyph-name="Tcaron" unicode="&#x164;" horiz-adv-x="559" 
d="M10 551v124h539v-124h-188v-551h-167v551h-184zM105 891h99l75 -92l75 92h99l-110 -158h-128z" />
    <glyph glyph-name="tcaron" unicode="&#x165;" horiz-adv-x="438" 
d="M5 397v102h87l23 143l126 19v-162h154v-102h-154v-239q0 -23 6 -39.5t28 -16.5t30.5 22t0.5 68l126 -19q12 -83 -36.5 -134t-142.5 -51q-82 0 -127.5 41.5t-45.5 124.5v243h-75zM342 745h135q0 -42 -15.5 -79t-37.5 -61t-40 -38h-91q19 19 32.5 48t16.5 64t0 66z" />
    <glyph glyph-name="Tbar" unicode="&#x166;" horiz-adv-x="582" 
d="M22 551v124h539v-124h-188v-160h156v-90h-156v-301h-167v301h-158v90h158v160h-184z" />
    <glyph glyph-name="tbar" unicode="&#x167;" horiz-adv-x="441" 
d="M8 397v102h87l23 143l126 19v-162h154v-102h-154v-70h155v-79h-155v-90q0 -23 6 -39.5t28 -16.5t30.5 22t0.5 68l126 -19q12 -83 -36.5 -134t-142.5 -51q-82 0 -127.5 41.5t-45.5 124.5v94h-75v79h75v70h-75z" />
    <glyph glyph-name="Utilde" unicode="&#x168;" horiz-adv-x="653" 
d="M55 233v442h167v-433q0 -122 105 -122q109 0 109 125v430h162v-427q0 -57 -18.5 -105.5t-54.5 -83t-87.5 -53t-115.5 -18.5q-60 0 -110 17.5t-85 49.5t-53.5 77.5t-18.5 100.5zM215 747l-69 11q6 63 38 94t75 31q35 0 69 -23t45.5 -26.5t19.5 -3.5q34 0 44 45l69 -11
q-7 -63 -38.5 -94.5t-74.5 -31.5q-20 0 -37.5 7t-47.5 27t-49 20q-36 0 -44 -45z" />
    <glyph glyph-name="utilde" unicode="&#x169;" horiz-adv-x="539" 
d="M47 143v356h161v-324q0 -33 11.5 -48t35.5 -15q39 0 71 35v352h161v-397l12 -102h-117l-36 85q-35 -58 -72.5 -77.5t-79.5 -19.5q-47 0 -80 20t-50 54t-17 81zM156 583l-69 11q6 63 38 94t75 31q35 0 69 -23t45.5 -26.5t19.5 -3.5q34 0 44 45l69 -11q-7 -63 -38.5 -94.5
t-74.5 -31.5q-20 0 -37.5 7t-47.5 27t-49 20q-36 0 -44 -45z" />
    <glyph glyph-name="Umacron" unicode="&#x16a;" horiz-adv-x="653" 
d="M55 233v442h167v-433q0 -122 105 -122q109 0 109 125v430h162v-427q0 -57 -18.5 -105.5t-54.5 -83t-87.5 -53t-115.5 -18.5q-60 0 -110 17.5t-85 49.5t-53.5 77.5t-18.5 100.5zM192 764v95h269v-95h-269z" />
    <glyph glyph-name="umacron" unicode="&#x16b;" horiz-adv-x="539" 
d="M47 143v356h161v-324q0 -33 11.5 -48t35.5 -15q39 0 71 35v352h161v-397l12 -102h-117l-36 85q-35 -58 -72.5 -77.5t-79.5 -19.5q-47 0 -80 20t-50 54t-17 81zM133 600v95h269v-95h-269z" />
    <glyph glyph-name="Ubreve" unicode="&#x16c;" horiz-adv-x="653" 
d="M55 233v442h167v-433q0 -122 105 -122q109 0 109 125v430h162v-427q0 -57 -18.5 -105.5t-54.5 -83t-87.5 -53t-115.5 -18.5q-60 0 -110 17.5t-85 49.5t-53.5 77.5t-18.5 100.5zM326 738q-27 0 -59 10.5t-56 38t-24 67.5v32h79v-15q0 -23 15 -38t45 -15q31 0 48.5 15.5
t17.5 37.5v15h73v-32q0 -26 -13.5 -52.5t-48.5 -45t-77 -18.5z" />
    <glyph glyph-name="ubreve" unicode="&#x16d;" horiz-adv-x="539" 
d="M47 143v356h161v-324q0 -33 11.5 -48t35.5 -15q39 0 71 35v352h161v-397l12 -102h-117l-36 85q-35 -58 -72.5 -77.5t-79.5 -19.5q-47 0 -80 20t-50 54t-17 81zM267 574q-27 0 -59 10.5t-56 38t-24 67.5v32h79v-15q0 -23 15 -38t45 -15q31 0 48.5 15.5t17.5 37.5v15h73
v-32q0 -26 -13.5 -52.5t-48.5 -45t-77 -18.5z" />
    <glyph glyph-name="Uring" unicode="&#x16e;" horiz-adv-x="653" 
d="M55 233v442h167v-433q0 -122 105 -122q109 0 109 125v430h162v-427q0 -57 -18.5 -105.5t-54.5 -83t-87.5 -53t-115.5 -18.5q-60 0 -110 17.5t-85 49.5t-53.5 77.5t-18.5 100.5zM326 720q-30 0 -55.5 13t-36 35.5t-10.5 43.5q0 25 11 46t36 33.5t55 12.5t55 -12.5
t36 -33.5t11 -46q0 -21 -10.5 -43.5t-36 -35.5t-55.5 -13zM326 771q20 0 32.5 11t12.5 31q0 19 -12.5 30t-32.5 11t-32.5 -11t-12.5 -30q0 -20 12.5 -31t32.5 -11z" />
    <glyph glyph-name="uring" unicode="&#x16f;" horiz-adv-x="539" 
d="M47 143v356h161v-324q0 -33 11.5 -48t35.5 -15q39 0 71 35v352h161v-397l12 -102h-117l-36 85q-35 -58 -72.5 -77.5t-79.5 -19.5q-47 0 -80 20t-50 54t-17 81zM267 556q-30 0 -55.5 13t-36 35.5t-10.5 43.5q0 25 11 46t36 33.5t55 12.5t55 -12.5t36 -33.5t11 -46
q0 -21 -10.5 -43.5t-36 -35.5t-55.5 -13zM267 607q20 0 32.5 11t12.5 31q0 19 -12.5 30t-32.5 11t-32.5 -11t-12.5 -30q0 -20 12.5 -31t32.5 -11z" />
    <glyph glyph-name="Uhungarumlaut" unicode="&#x170;" horiz-adv-x="653" 
d="M55 233v442h167v-433q0 -122 105 -122q109 0 109 125v430h162v-427q0 -57 -18.5 -105.5t-54.5 -83t-87.5 -53t-115.5 -18.5q-60 0 -110 17.5t-85 49.5t-53.5 77.5t-18.5 100.5zM272 733h-111l107 158h124zM473 733h-111l107 158h124z" />
    <glyph glyph-name="uhungarumlaut" unicode="&#x171;" horiz-adv-x="539" 
d="M47 143v356h161v-324q0 -33 11.5 -48t35.5 -15q39 0 71 35v352h161v-397l12 -102h-117l-36 85q-35 -58 -72.5 -77.5t-79.5 -19.5q-47 0 -80 20t-50 54t-17 81zM414 569h-111l107 158h124zM213 569h-111l107 158h124z" />
    <glyph glyph-name="Uogonek" unicode="&#x172;" horiz-adv-x="653" 
d="M276 -121q0 27 16.5 54t67.5 57l-38 -2q-60 0 -110 17.5t-85 49.5t-53.5 77.5t-18.5 100.5v442h167v-433q0 -122 105 -122q109 0 109 125v430h162v-427q0 -58 -20.5 -108.5t-53 -80t-62.5 -43.5q-5 -6 -30.5 -31t-37.5 -43.5t-12 -35.5q0 -23 19 -29.5t50 -6.5v-93
q-28 -1 -59 2.5t-57 14t-42.5 32t-16.5 53.5z" />
    <glyph glyph-name="uogonek" unicode="&#x173;" horiz-adv-x="539" 
d="M47 143v356h161v-324q0 -33 11.5 -48t35.5 -15q39 0 71 35v352h161v-397l12 -102h-2q-39 -39 -51.5 -58.5t-12.5 -35.5q0 -23 19 -29.5t50 -6.5v-93q-28 -1 -59 2.5t-57 14t-42.5 32t-16.5 53.5q0 30 20 58.5t83 62.5h-48l-36 85q-35 -58 -72.5 -77.5t-79.5 -19.5
q-47 0 -80 20t-50 54t-17 81z" />
    <glyph glyph-name="Wcircumflex" unicode="&#x174;" horiz-adv-x="903" 
d="M183 0l-176 675h164l97 -382q12 -46 15 -128h4q3 83 13 126l86 384h153l87 -381q11 -47 15 -138h4q5 92 16 136l93 383h142l-176 -675h-177l-69 290q-13 52 -20 146h-4q-6 -94 -19 -146l-69 -290h-179zM382 733h-99l110 158h128l110 -158h-99l-75 92z" />
    <glyph glyph-name="wcircumflex" unicode="&#x175;" horiz-adv-x="755" 
d="M160 0l-153 499h154l66 -236q9 -34 17 -108h4q8 75 17 108l64 236h120l64 -236q9 -33 16 -105h4q6 71 16 105l68 236h131l-153 -499h-156l-46 165q-9 33 -14 91h-4q-4 -58 -13 -90l-46 -166h-156zM308 569h-99l110 158h128l110 -158h-99l-75 92z" />
    <glyph glyph-name="Ycircumflex" unicode="&#x176;" horiz-adv-x="582" 
d="M209 0v285l-217 390h189l89 -165q17 -31 36 -75h4q17 43 35 77l85 163h154l-208 -390v-285h-167zM225 733h-99l110 158h128l110 -158h-99l-75 92z" />
    <glyph glyph-name="ycircumflex" unicode="&#x177;" horiz-adv-x="506" 
d="M41 -62q13 -10 33.5 -18t39.5 -8q25 0 48.5 17t35.5 52l2 6l-203 512h172l77 -224q13 -38 20 -97h4q12 60 23 97l66 224h142l-177 -538q-29 -87 -80.5 -130.5t-120.5 -43.5q-9 0 -31.5 2.5t-44 12t-31.5 17.5zM186 569h-99l110 158h128l110 -158h-99l-75 92z" />
    <glyph glyph-name="Ydieresis" unicode="&#x178;" horiz-adv-x="582" 
d="M209 0v285l-217 390h189l89 -165q17 -31 36 -75h4q17 43 35 77l85 163h154l-208 -390v-285h-167zM140 747v127h120v-127h-120zM343 747v127h120v-127h-120z" />
    <glyph glyph-name="Zacute" unicode="&#x179;" horiz-adv-x="547" 
d="M23 0v102l254 396q18 27 40 49v4h-279v124h479v-102l-245 -382q-24 -37 -50 -63v-4h295v-124h-494zM459 891l-166 -158h-108l117 158h157z" />
    <glyph glyph-name="zacute" unicode="&#x17a;" horiz-adv-x="450" 
d="M25 0v95l179 259q10 14 28 32v4h-196v109h383v-95l-173 -251q-16 -22 -34 -40v-4h210v-109h-397zM407 727l-166 -158h-108l117 158h157z" />
    <glyph glyph-name="Zdotaccent" unicode="&#x17b;" horiz-adv-x="547" 
d="M23 0v102l254 396q18 27 40 49v4h-279v124h479v-102l-245 -382q-24 -37 -50 -63v-4h295v-124h-494zM217 747v127h120v-127h-120z" />
    <glyph glyph-name="zdotaccent" unicode="&#x17c;" horiz-adv-x="450" 
d="M25 0v95l179 259q10 14 28 32v4h-196v109h383v-95l-173 -251q-16 -22 -34 -40v-4h210v-109h-397zM165 583v127h120v-127h-120z" />
    <glyph glyph-name="Zcaron" unicode="&#x17d;" horiz-adv-x="547" 
d="M23 0v102l254 396q18 27 40 49v4h-279v124h479v-102l-245 -382q-24 -37 -50 -63v-4h295v-124h-494zM104 891h99l75 -92l75 92h99l-110 -158h-128z" />
    <glyph glyph-name="zcaron" unicode="&#x17e;" horiz-adv-x="450" 
d="M25 0v95l179 259q10 14 28 32v4h-196v109h383v-95l-173 -251q-16 -22 -34 -40v-4h210v-109h-397zM52 727h99l75 -92l75 92h99l-110 -158h-128z" />
    <glyph glyph-name="florin" unicode="&#x192;" horiz-adv-x="679" 
d="M105 300l10 74h140l25 188q21 168 205 168q51 0 89.5 -12.5t60.5 -36t26 -56.5t-10 -72l-127 -10q11 31 10 52.5t-14 29.5t-28 8q-27 0 -37.5 -20.5t-18.5 -79.5l-21 -159h167l-10 -74h-167l-42 -324q-10 -79 -60 -123.5t-142 -44.5q-100 0 -145 48.5t-18 128.5l126 10
q-16 -29 -14.5 -51t15.5 -30.5t29 -8.5q17 0 30 15t20 70l41 310h-140z" />
    <glyph glyph-name="AEacute" unicode="&#x1fc;" horiz-adv-x="873" 
d="M390 0v148h-186l-60 -148h-164l284 675h573v-124h-280v-145h235v-124h-235v-158h290v-124h-457zM373 564l-119 -292h136v292h-17zM729 908l-166 -158h-108l117 158h157z" />
    <glyph glyph-name="aeacute" unicode="&#x1fd;" horiz-adv-x="777" 
d="M19 134q0 39 18 70t48.5 52t67.5 31t70 10q40 0 76 -16v63q0 70 -59 70q-36 0 -46 -24t0 -57l-149 17q-12 51 9.5 86t72 55t123.5 20q98 0 144 -57q57 57 149 57q40 0 78.5 -11.5t67.5 -39t45.5 -71.5t16.5 -108q0 -32 -3 -64h-293q4 -60 25 -89.5t70 -29.5
q25 0 42.5 8.5t23 23t3.5 28.5l127 -17q5 -45 -17.5 -78.5t-69.5 -54t-115 -20.5q-69 0 -123 24t-85 71q-9 -23 -30.5 -45.5t-56.5 -36t-72 -13.5q-68 0 -113 41t-45 105zM173 146q0 -24 16.5 -37t45.5 -13q45 0 79 32q-13 40 -16 83h-28q-44 0 -70.5 -17t-26.5 -48z
M457 304h134v27q0 42 -14 65t-38 23q-67 0 -82 -115zM572 727l-166 -158h-108l117 158h157z" />
    <glyph glyph-name="Oslashacute" unicode="&#x1fe;" horiz-adv-x="676" 
d="M44 -60l78 124q-44 42 -68 114t-24 169q0 88 22.5 153.5t64 106.5t98.5 60.5t125 19.5q41 0 82.5 -8.5t71.5 -23.5l51 80h87l-77 -122q44 -42 68 -109t24 -157q0 -72 -15.5 -140t-52.5 -116.5t-95.5 -75.5t-143.5 -27q-93 0 -158 33l-51 -81h-87zM338 106q44 0 74.5 26.5
t47 79t16.5 135.5q0 71 -15 117l-205 -325q32 -33 82 -33zM201 347q0 -83 15 -134l204 324q-16 15 -38.5 23.5t-43.5 8.5q-44 0 -74 -25t-46.5 -73.5t-16.5 -123.5zM538 891l-166 -158h-108l117 158h157z" />
    <glyph glyph-name="oslashacute" unicode="&#x1ff;" horiz-adv-x="501" 
d="M20 -60l67 112q-61 67 -61 200q0 67 17 117.5t47.5 81.5t71 45.5t88.5 14.5q57 0 100 -20l40 66h75l-61 -102q72 -69 72 -207q0 -51 -12 -99t-40 -84t-70.5 -56.5t-100.5 -20.5q-66 0 -115 25l-44 -73h-74zM430 727l-166 -158h-108l117 158h157zM252 85q38 0 56.5 39.5
t18.5 124.5q0 46 -4 73l-126 -210q18 -27 55 -27zM175 253v-54l119 198q-18 17 -44 17q-40 0 -57.5 -38.5t-17.5 -122.5z" />
    <glyph glyph-name="Scommaaccent" unicode="&#x218;" horiz-adv-x="579" 
d="M27 208l146 14q-4 -20 -1 -41.5t15.5 -38t38 -26.5t62.5 -10q49 0 71.5 17.5t22.5 47.5q0 15 -7 30t-27.5 27.5t-52 24t-35.5 12.5q-69 24 -115.5 50t-76 69t-29.5 104q0 46 18 84t51.5 64t83 39t109.5 12q35 -1 74.5 -8t73 -25t57.5 -46t32 -67.5t0 -79.5l-153 -14
q4 28 -1 57.5t-29 47t-67 17.5q-40 0 -61.5 -15.5t-21.5 -46.5q0 -28 19 -46.5t44 -28.5t57 -21q106 -35 149.5 -68t58.5 -71.5t15 -75.5q0 -45 -17 -83.5t-50.5 -66t-84 -43t-114.5 -15.5q-45 0 -93 9.5t-82 31t-53 47.5t-26 59.5t-1 72.5zM213 -47h135q0 -42 -15.5 -79
t-37.5 -61t-40 -38h-91q19 19 32.5 48t16.5 64t0 66z" />
    <glyph glyph-name="scommaaccent" unicode="&#x219;" horiz-adv-x="477" 
d="M26 156l127 11l-2 -19q0 -28 23.5 -45.5t57.5 -17.5t51.5 12.5t17.5 35.5q0 9 -10.5 21t-79.5 32q-103 30 -139 71t-36 100q0 74 52.5 114t148.5 40q92 0 149.5 -34.5t57.5 -93.5q0 -20 -5 -36l-144 -13q5 15 5 30q0 24 -17 37t-45 13q-26 0 -41 -11t-15 -30
q0 -17 13.5 -31t59.5 -28q3 -1 32.5 -9.5t52 -16.5t38 -17.5t30.5 -21.5t28 -37t13 -63q0 -49 -24.5 -84t-73 -56t-121.5 -21q-37 0 -75 7t-68 23.5t-47 42.5t-17 61q0 18 3 34zM179 -47h135q0 -42 -15.5 -79t-37.5 -61t-40 -38h-91q19 19 32.5 48t16.5 64t0 66z" />
    <glyph glyph-name="uni021A" unicode="&#x21a;" horiz-adv-x="559" 
d="M10 551v124h539v-124h-188v-551h-167v551h-184zM211 -47h135q0 -42 -15.5 -79t-37.5 -61t-40 -38h-91q19 19 32.5 48t16.5 64t0 66z" />
    <glyph glyph-name="uni021B" unicode="&#x21b;" horiz-adv-x="438" 
d="M5 397v102h87l23 143l126 19v-162h154v-102h-154v-239q0 -23 6 -39.5t28 -16.5t30.5 22t0.5 68l126 -19q12 -83 -36.5 -134t-142.5 -51q-82 0 -127.5 41.5t-45.5 124.5v243h-75zM177 -47h135q0 -42 -15.5 -79t-37.5 -61t-40 -38h-91q19 19 32.5 48t16.5 64t0 66z" />
    <glyph glyph-name="uni0237" unicode="&#x237;" horiz-adv-x="263" 
d="M51 4v495h161v-469q0 -61 -14 -107.5t-40.5 -76.5t-63 -44.5t-81.5 -14.5q-54 0 -114 21l22 125q31 -18 63 -18q33 0 50 23t17 66z" />
    <glyph glyph-name="circumflex" unicode="&#x2c6;" horiz-adv-x="502" 
d="M176 569h-99l110 158h128l110 -158h-99l-75 92z" />
    <glyph glyph-name="caron" unicode="&#x2c7;" horiz-adv-x="502" 
d="M77 727h99l75 -92l75 92h99l-110 -158h-128z" />
    <glyph glyph-name="breve" unicode="&#x2d8;" horiz-adv-x="502" 
d="M251 574q-27 0 -59 10.5t-56 38t-24 67.5v32h79v-15q0 -23 15 -38t45 -15q31 0 48.5 15.5t17.5 37.5v15h73v-32q0 -26 -13.5 -52.5t-48.5 -45t-77 -18.5z" />
    <glyph glyph-name="dotaccent" unicode="&#x2d9;" horiz-adv-x="503" 
d="M193 583v127h120v-127h-120z" />
    <glyph glyph-name="ring" unicode="&#x2da;" horiz-adv-x="502" 
d="M251 556q-30 0 -55.5 13t-36 35.5t-10.5 43.5q0 25 11 46t36 33.5t55 12.5t55 -12.5t36 -33.5t11 -46q0 -21 -10.5 -43.5t-36 -35.5t-55.5 -13zM251 607q20 0 32.5 11t12.5 31q0 19 -12.5 30t-32.5 11t-32.5 -11t-12.5 -30q0 -20 12.5 -31t32.5 -11z" />
    <glyph glyph-name="ogonek" unicode="&#x2db;" horiz-adv-x="504" 
d="M150 -121q0 37 23.5 63t52.5 42.5t64 34.5l49 1q-7 -8 -29.5 -30.5t-38 -43.5t-15.5 -40q0 -23 19 -29.5t50 -6.5v-93q-28 -1 -59 2.5t-57 14t-42.5 32t-16.5 53.5z" />
    <glyph glyph-name="tilde" unicode="&#x2dc;" horiz-adv-x="502" 
d="M142 583l-69 11q6 63 38 94t75 31q35 0 69 -23t45.5 -26.5t19.5 -3.5q34 0 44 45l69 -11q-7 -63 -38.5 -94.5t-74.5 -31.5q-20 0 -37.5 7t-47.5 27t-49 20q-36 0 -44 -45z" />
    <glyph glyph-name="hungarumlaut" unicode="&#x2dd;" horiz-adv-x="503" 
d="M194 569h-111l107 158h124zM395 569h-111l107 158h124z" />
    <glyph glyph-name="Wgrave" unicode="&#x1e80;" horiz-adv-x="903" 
d="M183 0l-176 675h164l97 -382q12 -46 15 -128h4q3 83 13 126l86 384h153l87 -381q11 -47 15 -138h4q5 92 16 136l93 383h142l-176 -675h-177l-69 290q-13 52 -20 146h-4q-6 -94 -19 -146l-69 -290h-179zM443 733l-166 158h157l117 -158h-108z" />
    <glyph glyph-name="wgrave" unicode="&#x1e81;" horiz-adv-x="755" 
d="M160 0l-153 499h154l66 -236q9 -34 17 -108h4q8 75 17 108l64 236h120l64 -236q9 -33 16 -105h4q6 71 16 105l68 236h131l-153 -499h-156l-46 165q-9 33 -14 91h-4q-4 -58 -13 -90l-46 -166h-156zM369 569l-166 158h157l117 -158h-108z" />
    <glyph glyph-name="Wacute" unicode="&#x1e82;" horiz-adv-x="903" 
d="M183 0l-176 675h164l97 -382q12 -46 15 -128h4q3 83 13 126l86 384h153l87 -381q11 -47 15 -138h4q5 92 16 136l93 383h142l-176 -675h-177l-69 290q-13 52 -20 146h-4q-6 -94 -19 -146l-69 -290h-179zM639 891l-166 -158h-108l117 158h157z" />
    <glyph glyph-name="wacute" unicode="&#x1e83;" horiz-adv-x="755" 
d="M160 0l-153 499h154l66 -236q9 -34 17 -108h4q8 75 17 108l64 236h120l64 -236q9 -33 16 -105h4q6 71 16 105l68 236h131l-153 -499h-156l-46 165q-9 33 -14 91h-4q-4 -58 -13 -90l-46 -166h-156zM565 727l-166 -158h-108l117 158h157z" />
    <glyph glyph-name="Wdieresis" unicode="&#x1e84;" horiz-adv-x="903" 
d="M183 0l-176 675h164l97 -382q12 -46 15 -128h4q3 83 13 126l86 384h153l87 -381q11 -47 15 -138h4q5 92 16 136l93 383h142l-176 -675h-177l-69 290q-13 52 -20 146h-4q-6 -94 -19 -146l-69 -290h-179zM297 747v127h120v-127h-120zM500 747v127h120v-127h-120z" />
    <glyph glyph-name="wdieresis" unicode="&#x1e85;" horiz-adv-x="755" 
d="M160 0l-153 499h154l66 -236q9 -34 17 -108h4q8 75 17 108l64 236h120l64 -236q9 -33 16 -105h4q6 71 16 105l68 236h131l-153 -499h-156l-46 165q-9 33 -14 91h-4q-4 -58 -13 -90l-46 -166h-156zM223 583v127h120v-127h-120zM426 583v127h120v-127h-120z" />
    <glyph glyph-name="Ygrave" unicode="&#x1ef2;" horiz-adv-x="582" 
d="M209 0v285l-217 390h189l89 -165q17 -31 36 -75h4q17 43 35 77l85 163h154l-208 -390v-285h-167zM286 733l-166 158h157l117 -158h-108z" />
    <glyph glyph-name="ygrave" unicode="&#x1ef3;" horiz-adv-x="506" 
d="M41 -62q13 -10 33.5 -18t39.5 -8q25 0 48.5 17t35.5 52l2 6l-203 512h172l77 -224q13 -38 20 -97h4q12 60 23 97l66 224h142l-177 -538q-29 -87 -80.5 -130.5t-120.5 -43.5q-9 0 -31.5 2.5t-44 12t-31.5 17.5zM247 569l-166 158h157l117 -158h-108z" />
    <glyph glyph-name="endash" unicode="&#x2013;" horiz-adv-x="571" 
d="M47 204v115h477v-115h-477z" />
    <glyph glyph-name="emdash" unicode="&#x2014;" horiz-adv-x="791" 
d="M47 204v115h697v-115h-697z" />
    <glyph glyph-name="quoteleft" unicode="&#x2018;" horiz-adv-x="236" 
d="M42 367v180q0 57 36.5 104.5t101.5 63.5l26 -56q-23 -4 -46 -18.5t-36.5 -42t-13.5 -57.5v-23h76v-151h-144z" />
    <glyph glyph-name="quoteright" unicode="&#x2019;" horiz-adv-x="229" 
d="M56 357l-26 56q23 4 46 18.5t36.5 42t13.5 57.5v23h-76v151h144v-180q0 -57 -36.5 -104.5t-101.5 -63.5z" />
    <glyph glyph-name="quotesinglbase" unicode="&#x201a;" horiz-adv-x="237" 
d="M47 0v151h144v-180q0 -57 -36.5 -104.5t-101.5 -63.5l-26 56q46 8 71 42.5t25 75.5v23h-76z" />
    <glyph glyph-name="quotedblleft" unicode="&#x201c;" horiz-adv-x="440" 
d="M246 367v180q0 57 36.5 104.5t101.5 63.5l26 -56q-23 -4 -46 -18.5t-36.5 -42t-13.5 -57.5v-23h76v-151h-144zM42 367v180q0 57 36.5 104.5t101.5 63.5l26 -56q-23 -4 -46 -18.5t-36.5 -42t-13.5 -57.5v-23h76v-151h-144z" />
    <glyph glyph-name="quotedblright" unicode="&#x201d;" horiz-adv-x="433" 
d="M260 357l-26 56q23 4 46 18.5t36.5 42t13.5 57.5v23h-76v151h144v-180q0 -57 -36.5 -104.5t-101.5 -63.5zM56 357l-26 56q23 4 46 18.5t36.5 42t13.5 57.5v23h-76v151h144v-180q0 -57 -36.5 -104.5t-101.5 -63.5z" />
    <glyph glyph-name="quotedblbase" unicode="&#x201e;" horiz-adv-x="441" 
d="M47 0v151h144v-180q0 -57 -36.5 -104.5t-101.5 -63.5l-26 56q46 8 71 42.5t25 75.5v23h-76zM251 0v151h144v-180q0 -57 -36.5 -104.5t-101.5 -63.5l-26 56q46 8 71 42.5t25 75.5v23h-76z" />
    <glyph glyph-name="dagger" unicode="&#x2020;" horiz-adv-x="428" 
d="M164 -119v521h-140v92h140v181h100v-181h140v-92h-140v-521h-100z" />
    <glyph glyph-name="daggerdbl" unicode="&#x2021;" horiz-adv-x="466" 
d="M43 61v92h140v249h-140v92h140v181h100v-181h140v-92h-140v-249h140v-92h-140v-180h-100v180h-140z" />
    <glyph glyph-name="bullet" unicode="&#x2022;" horiz-adv-x="506" 
d="M253 102q-49 0 -95.5 25.5t-72 72t-25.5 95.5t25.5 95.5t72 72t95.5 25.5t95.5 -25.5t72 -72t25.5 -95.5t-25.5 -95.5t-72 -72t-95.5 -25.5z" />
    <glyph glyph-name="ellipsis" unicode="&#x2026;" horiz-adv-x="801" 
d="M45 0v156h145v-156h-145zM331 0v156h145v-156h-145zM611 0v156h145v-156h-145z" />
    <glyph glyph-name="perthousand" unicode="&#x2030;" horiz-adv-x="1097" 
d="M225 527q0 25 -5.5 48.5t-18.5 34.5t-30 11q-54 0 -54 -94q0 -52 15.5 -74.5t38.5 -22.5t38.5 22.5t15.5 74.5zM317 528q0 -53 -16.5 -89t-48.5 -55.5t-81 -19.5q-67 0 -106.5 40t-39.5 123t39 121.5t107 38.5q41 0 75.5 -15.5t52.5 -53.5t18 -90zM219 0l228 675h98
l-228 -675h-98zM643 151q0 25 -5.5 48.5t-18.5 34.5t-30 11q-54 0 -54 -94q0 -52 15.5 -74.5t38.5 -22.5t38.5 22.5t15.5 74.5zM735 152q0 -53 -16.5 -89t-48.5 -55.5t-81 -19.5q-67 0 -106.5 40t-39.5 123t39 121.5t107 38.5q41 0 75.5 -15.5t52.5 -53.5t18 -90zM980 151
q0 25 -5.5 48.5t-18.5 34.5t-30 11q-54 0 -54 -94q0 -52 15.5 -74.5t38.5 -22.5t38.5 22.5t15.5 74.5zM1072 152q0 -53 -16.5 -89t-48.5 -55.5t-81 -19.5q-67 0 -106.5 40t-39.5 123t39 121.5t107 38.5q41 0 75.5 -15.5t52.5 -53.5t18 -90z" />
    <glyph glyph-name="guilsinglleft" unicode="&#x2039;" horiz-adv-x="368" 
d="M191 49l-171 198l172 200h142l-174 -199l174 -199h-143z" />
    <glyph glyph-name="guilsinglright" unicode="&#x203a;" horiz-adv-x="368" 
d="M34 49l174 199l-174 199h142l172 -200l-171 -198h-143z" />
    <glyph glyph-name="fraction" unicode="&#x2044;" horiz-adv-x="350" 
d="M-4 0l228 675h131l-228 -675h-131z" />
    <glyph glyph-name="Euro" unicode="&#x20ac;" 
d="M9 380v74h76q22 118 91.5 175.5t180.5 57.5q116 0 175 -59l-50 -104q-19 22 -48.5 33.5t-63.5 11.5q-52 0 -83 -28.5t-44 -86.5h225v-74h-234v-45l1 -41h233v-74h-223q26 -110 122 -110q39 0 70 15.5t53 42.5l55 -106q-64 -74 -190 -74q-108 0 -177.5 57t-91.5 175h-77
v74h68l-1 44l1 42h-68z" />
    <glyph glyph-name="trademark" unicode="&#x2122;" horiz-adv-x="842" 
d="M392 352v323h127l70 -150l72 150h122v-323h-79v237l-98 -204h-38l-97 206v-239h-79zM157 352v251h-110v72h304v-72h-112v-251h-82z" />
    <glyph glyph-name="minus" unicode="&#x2212;" 
d="M30 214v114h490v-114h-490z" />
    <glyph glyph-name="approxequal" unicode="&#x2248;" 
d="M88 80l-66 86q69 74 160 74q42 0 83.5 -22.5t57 -26t26.5 -3.5q24 0 49.5 11t57.5 45l69 -83q-40 -44 -79 -64t-87 -20q-30 0 -49 6.5t-55 26t-63 19.5q-22 0 -46 -9t-58 -40zM88 301l-66 86q69 74 160 74q42 0 83.5 -22.5t57 -26t26.5 -3.5q24 0 49.5 11t57.5 45l69 -83
q-40 -44 -79 -64t-87 -20q-30 0 -49 6.5t-55 26t-63 19.5q-22 0 -46 -9t-58 -40z" />
    <glyph glyph-name="notequal" unicode="&#x2260;" 
d="M50 319v114h287l73 127l54 -30l-56 -97h92v-114h-157l-60 -106h217v-104h-277l-74 -131l-55 31l57 100h-101v104h161l61 106h-222z" />
    <glyph glyph-name="lessequal" unicode="&#x2264;" 
d="M68 335v132l410 184v-122l-292 -128l292 -128v-122zM47 0v114h450v-114h-450z" />
    <glyph glyph-name="greaterequal" unicode="&#x2265;" 
d="M482 467v-132l-410 -184v122l291 128l-291 128v122zM503 114v-114h-450v114h450z" />
    <glyph glyph-name="uniF6C3" unicode="&#xf6c3;" horiz-adv-x="188" 
d="M49 -47h135q0 -42 -15.5 -79t-37.5 -61t-40 -38h-91q19 19 32.5 48t16.5 64t0 66z" />
    <glyph glyph-name="i.locl" horiz-adv-x="263" 
d="M53 589v141h156v-141h-156zM51 0v499h161v-499h-161z" />
    <glyph glyph-name="glyph317" horiz-adv-x="500" 
d="M250 675h115q0 -55 -15.5 -107t-37 -86t-38.5 -53l-71 30q25 34 36 80t11 136z" />
    <glyph glyph-name="zero.tnum" 
d="M21 341q0 91 17.5 158t50.5 108.5t80 60.5t107 19q59 0 106 -19t80 -60t50.5 -108t17.5 -158q0 -93 -18 -161t-51.5 -110.5t-80.5 -62.5t-105 -20q-59 0 -106 20.5t-80 63t-50.5 110.5t-17.5 159zM185 340q0 -113 20 -168.5t70 -55.5t70.5 55.5t20.5 168.5q0 109 -20 164
t-71 55t-70.5 -55t-19.5 -164z" />
    <glyph glyph-name="one.tnum" 
d="M75 0v124h146v360q-49 -52 -165 -52v131q41 -4 84.5 9t71 41.5t40.5 61.5h136v-551h126v-124h-439z" />
    <glyph glyph-name="two.tnum" 
d="M43 0v111q85 53 154 121.5t101 130t32 114.5q0 46 -18 69t-48 23q-61 0 -61 -93q0 -19 5.5 -47.5t18.5 -52.5l-168 15q-9 17 -16 44.5t-7 54.5q0 38 14.5 73.5t44 63.5t75 44t102.5 16q55 0 98.5 -15t72.5 -42.5t43.5 -65.5t14.5 -83q0 -55 -24 -114t-83.5 -123.5
t-154.5 -117.5v-2h275v-124h-471z" />
    <glyph glyph-name="three.tnum" 
d="M32 192l141 20q-6 -22 -2.5 -47.5t25 -42t52.5 -16.5q45 0 70 33.5t25 87.5q0 53 -24.5 79t-64.5 26q-20 0 -42.5 -8t-40.5 -24l-72 78l209 173h-248v124h415v-131l-160 -132q38 4 74 -7t64 -35t44.5 -61t16.5 -84q0 -51 -20 -95t-55.5 -76t-83.5 -49t-101 -17
q-50 0 -96 15t-78 43t-45.5 65.5t-2.5 80.5z" />
    <glyph glyph-name="four.tnum" 
d="M19 135v146l234 394h198v-416h70v-124h-70v-135h-165v135h-267zM140 259h146v243z" />
    <glyph glyph-name="five.tnum" 
d="M59 324l41 351h366v-124h-241l-18 -138q17 23 45.5 35.5t61.5 12.5q40 0 76.5 -16.5t64 -47t43.5 -73t16 -92.5q0 -52 -17.5 -97t-50 -78t-79.5 -51t-104 -18q-38 0 -80 10t-81.5 38t-54.5 70.5t-6 85.5l141 20q-12 -48 11 -77t63 -29q42 0 64.5 34t22.5 91t-22.5 88.5
t-64.5 31.5q-51 0 -72 -44z" />
    <glyph glyph-name="six.tnum" 
d="M24 334q0 171 72 262t206 91q106 0 165 -53.5t44 -139.5l-164 -15q2 23 -2 45t-18 33.5t-33 11.5q-43 0 -72 -55.5t-31 -168.5q18 42 57.5 62.5t84.5 20.5q50 0 97 -26t72.5 -77t25.5 -109q0 -46 -15.5 -87.5t-46 -73t-76 -49.5t-102.5 -18q-66 0 -116.5 24.5t-83 69.5
t-48.5 109.5t-16 142.5zM195 248q0 -14 6 -39t13 -42q25 -61 71 -61q36 0 54 32t18 74q0 29 -9 53.5t-27 36t-40 11.5q-31 0 -58.5 -16.5t-27.5 -48.5z" />
    <glyph glyph-name="seven.tnum" 
d="M42 448v227h482v-139q-100 -149 -158.5 -280.5t-73.5 -255.5h-175q10 78 51.5 188.5t96.5 200.5q65 107 129 158v4h-204v-103h-148z" />
    <glyph glyph-name="eight.tnum" 
d="M24 188q0 50 28.5 90t88.5 64q-84 63 -84 160q0 57 26.5 97.5t76.5 64t118 23.5q69 0 118 -24t74 -62t25 -87q0 -22 -10.5 -48t-36 -47.5t-57.5 -33.5q43 -23 72.5 -50.5t45 -61t15.5 -74.5q0 -43 -17 -82t-49 -68t-78.5 -45t-102.5 -16q-50 0 -95.5 12.5t-81 37t-56 63
t-20.5 87.5zM215 298l-5 2q-35 -38 -35 -94q0 -28 10.5 -51.5t35.5 -36t54 -12.5q35 0 58 19.5t23 55.5q0 23 -15.5 45t-70 46.5t-55.5 25.5zM225 513q0 -15 10.5 -35.5t72.5 -54.5l10 -4q26 35 26 79q0 35 -15.5 53t-45.5 18q-29 0 -43.5 -16t-14.5 -40z" />
    <glyph glyph-name="nine.tnum" 
d="M27 459q0 46 14.5 87.5t44 73t73 49.5t98.5 18q66 0 116.5 -24.5t83 -69.5t48.5 -109.5t16 -142.5q0 -171 -72 -262t-206 -91q-49 0 -89.5 13.5t-67.5 39t-38 62t-4 78.5l142 15q-7 -47 12.5 -68.5t52.5 -21.5q43 0 72 55.5t31 168.5q-18 -42 -57.5 -62.5t-84.5 -20.5
q-37 0 -71 15t-59.5 43.5t-40 68t-14.5 85.5zM198 463q0 -29 8 -53.5t23.5 -36t34.5 -11.5q31 0 58.5 16.5t27.5 48.5q0 14 -6 39t-13 42q-25 61 -71 61q-15 0 -30 -11.5t-23.5 -38t-8.5 -56.5z" />
    <glyph glyph-name="space.tnum" horiz-adv-x="275" 
 />
    <glyph glyph-name="comma.tnum" horiz-adv-x="275" 
d="M65 0v156h149v-180q0 -36 -14.5 -69.5t-46 -62t-82.5 -41.5l-26 61q23 4 46 18.5t36.5 42t13.5 57.5v18h-76z" />
    <glyph glyph-name="period.tnum" horiz-adv-x="275" 
d="M63 0v156h145v-156h-145z" />
    <glyph glyph-name="hyphen.tnum" horiz-adv-x="275" 
d="M4 197v135h267v-135h-267z" />
    </font>
</defs>
</svg>
