<svg xmlns="http://www.w3.org/2000/svg" width="44" height="44" viewBox="0 0 44 44">
  <g id="btn-back" transform="translate(-3 -41)">
    <rect id="Rectangle_995" data-name="Rectangle 995" width="44" height="44" rx="6" transform="translate(3 41)" fill="#fff" opacity="0"/>
    <path id="Path_436" data-name="Path 436" d="M51.284,281.161H28.926l6.168-6.646a3.26,3.26,0,0,0,0-4.362,2.742,2.742,0,0,0-2.025-.907h0a2.749,2.749,0,0,0-2.027.9l-11.06,11.915a3.259,3.259,0,0,0,0,4.362l11.062,11.915a2.748,2.748,0,0,0,2.027.9h0a2.742,2.742,0,0,0,2.025-.9,3.259,3.259,0,0,0,0-4.362l-6.171-6.648H51.284a3.094,3.094,0,0,0,0-6.171Z" transform="translate(-12.146 -221.246)" fill="#2c3778"/>
  </g>
</svg>
