<svg xmlns="http://www.w3.org/2000/svg" width="295.002" height="60" viewBox="0 0 295.002 60">
  <g id="Group_69" data-name="Group 69" transform="translate(-861.498 846)">
    <rect id="Rectangle_15" data-name="Rectangle 15" width="295" height="60" rx="10" transform="translate(861.5 -846)" fill="rgba(66,103,178,0)"/>
    <g id="Facebook_event_page" data-name="Facebook event page">
      <g id="Group_68" data-name="Group 68">
        <path id="Path_529" data-name="Path 529" d="M911.613-823.2h9.144v1.776H913.8v5.52h5.76v1.776H913.8V-807h-2.184Z" fill="#2c3778"/>
        <path id="Path_530" data-name="Path 530" d="M922.485-811.933a4.249,4.249,0,0,1,1.727-1.343,6.489,6.489,0,0,1,2.713-.517,3.767,3.767,0,0,1,1.992.385v-1.849q0-2.4-2.256-2.4a2.251,2.251,0,0,0-1.788.648,2.024,2.024,0,0,0-.276,1.872l-2.016-.24a3.035,3.035,0,0,1,.131-2,2.774,2.774,0,0,1,1.393-1.3,6.234,6.234,0,0,1,2.628-.468,4.54,4.54,0,0,1,3.228.96,3.9,3.9,0,0,1,1,2.928v5.9a2.914,2.914,0,0,0,.059.493.391.391,0,0,0,.444.324,1.069,1.069,0,0,0,.384-.084,1.087,1.087,0,0,0,.384-.252l.12,1.632a2.385,2.385,0,0,1-1.416.408,1.84,1.84,0,0,1-1.38-.5,1.985,1.985,0,0,1-.515-1.393,4.106,4.106,0,0,1-.889,1.117,3.225,3.225,0,0,1-1.236.7,4.576,4.576,0,0,1-1.308.2,4.088,4.088,0,0,1-2.017-.468,3.331,3.331,0,0,1-1.271-1.188,3.116,3.116,0,0,1-.433-1.632A3.2,3.2,0,0,1,922.485-811.933Zm4.848,3.265a5.652,5.652,0,0,0,1.584-1.261v-2.351a11.393,11.393,0,0,0-1.272-.048q-3.624,0-3.624,2.208a1.614,1.614,0,0,0,.552,1.32,2.15,2.15,0,0,0,1.416.456A3.178,3.178,0,0,0,927.333-808.668Z" fill="#2c3778"/>
        <path id="Path_531" data-name="Path 531" d="M939.308-819.145a5.364,5.364,0,0,1,3.013.744,2.413,2.413,0,0,1,1.116,2.136,3.172,3.172,0,0,1-.1.888l-1.968.24a4.849,4.849,0,0,0,.1-.768,1.542,1.542,0,0,0-.589-1.3,2.579,2.579,0,0,0-1.62-.456q-2.88,0-2.88,5.136,0,4.226,2.977,4.225a2.57,2.57,0,0,0,1.716-.54,1.781,1.781,0,0,0,.635-1.429l-.023-.311,1.775.24v.288a2.988,2.988,0,0,1-.551,1.812,3.408,3.408,0,0,1-1.464,1.14,5.48,5.48,0,0,1-2.137.384,6,6,0,0,1-2.04-.336,4.19,4.19,0,0,1-1.62-1.044,4.725,4.725,0,0,1-1.056-1.848,8.744,8.744,0,0,1-.372-2.7Q934.22-819.145,939.308-819.145Z" fill="#2c3778"/>
        <path id="Path_532" data-name="Path 532" d="M945.992-814.993a6.481,6.481,0,0,1,.841-2.088,4.351,4.351,0,0,1,1.595-1.5,4.948,4.948,0,0,1,2.448-.564,4.253,4.253,0,0,1,3.349,1.332,5.8,5.8,0,0,1,1.188,3.972l-.048,1.153H947.9v.12q0,4.27,3.1,4.272a3.706,3.706,0,0,0,1.343-.24,1.77,1.77,0,0,0,.912-.708,1.905,1.905,0,0,0,.289-1.021l-.024-.311,1.775.24.025.384a2.777,2.777,0,0,1-1.2,2.364,5.209,5.209,0,0,1-3.145.876,5.012,5.012,0,0,1-3.828-1.488,6.214,6.214,0,0,1-1.4-4.416A11.087,11.087,0,0,1,945.992-814.993Zm3.48-2.28a2.782,2.782,0,0,0-.96,1.152A6.152,6.152,0,0,0,948-814.2h5.255v-.385a3.585,3.585,0,0,0-.635-2.256,2.138,2.138,0,0,0-1.788-.816A2.43,2.43,0,0,0,949.472-817.273Z" fill="#2c3778"/>
        <path id="Path_533" data-name="Path 533" d="M958.46-824.162h2.04v6.7a3.923,3.923,0,0,1,3.264-1.68,4.226,4.226,0,0,1,2.328.66,4.582,4.582,0,0,1,1.657,2,8.179,8.179,0,0,1,.624,3.432,9.1,9.1,0,0,1-.444,3.013,5.109,5.109,0,0,1-1.177,1.98,4.425,4.425,0,0,1-1.584,1.032,4.953,4.953,0,0,1-1.715.312,4.54,4.54,0,0,1-1.92-.408,2.987,2.987,0,0,1-1.368-1.224l-.961,1.464h-.744Zm3.409,7.033a3.969,3.969,0,0,0-1.369,1.08v6.528a3.321,3.321,0,0,0,2.592,1.2,2.692,2.692,0,0,0,2.365-1.164,6.072,6.072,0,0,0,.8-3.445,6.109,6.109,0,0,0-.779-3.408,2.482,2.482,0,0,0-2.173-1.152A3.4,3.4,0,0,0,961.869-817.129Z" fill="#2c3778"/>
        <path id="Path_534" data-name="Path 534" d="M971.144-815.785a5,5,0,0,1,1.044-1.932,4.1,4.1,0,0,1,1.6-1.08,5.715,5.715,0,0,1,2.028-.348,5.7,5.7,0,0,1,2.064.36,4.144,4.144,0,0,1,1.609,1.1,5.11,5.11,0,0,1,1.044,1.956,9.73,9.73,0,0,1,.372,2.844,8.569,8.569,0,0,1-.576,3.36,4.584,4.584,0,0,1-1.68,2.077,4.892,4.892,0,0,1-2.761.732,5.882,5.882,0,0,1-2.064-.348,4.07,4.07,0,0,1-1.62-1.1,5.13,5.13,0,0,1-1.056-1.968,9.737,9.737,0,0,1-.372-2.845A9.519,9.519,0,0,1,971.144-815.785Zm6.912,6.348a6.835,6.835,0,0,0,.733-3.467,6.876,6.876,0,0,0-.745-3.493,2.428,2.428,0,0,0-2.232-1.26,2.4,2.4,0,0,0-2.2,1.212,6.7,6.7,0,0,0-.732,3.444,8.379,8.379,0,0,0,.36,2.665,3.435,3.435,0,0,0,1.02,1.6,2.441,2.441,0,0,0,1.6.54A2.388,2.388,0,0,0,978.056-809.437Z" fill="#2c3778"/>
        <path id="Path_535" data-name="Path 535" d="M983.672-815.785a5,5,0,0,1,1.044-1.932,4.115,4.115,0,0,1,1.6-1.08,5.715,5.715,0,0,1,2.028-.348,5.71,5.71,0,0,1,2.065.36,4.141,4.141,0,0,1,1.608,1.1,5.11,5.11,0,0,1,1.044,1.956,9.73,9.73,0,0,1,.372,2.844,8.551,8.551,0,0,1-.576,3.36,4.578,4.578,0,0,1-1.68,2.077,4.891,4.891,0,0,1-2.76.732,5.887,5.887,0,0,1-2.065-.348,4.07,4.07,0,0,1-1.62-1.1,5.129,5.129,0,0,1-1.056-1.968,9.737,9.737,0,0,1-.372-2.845A9.519,9.519,0,0,1,983.672-815.785Zm6.912,6.348a6.824,6.824,0,0,0,.733-3.467,6.888,6.888,0,0,0-.744-3.493,2.428,2.428,0,0,0-2.233-1.26,2.4,2.4,0,0,0-2.2,1.212,6.716,6.716,0,0,0-.731,3.444,8.412,8.412,0,0,0,.359,2.665,3.436,3.436,0,0,0,1.02,1.6,2.441,2.441,0,0,0,1.6.54A2.387,2.387,0,0,0,990.584-809.437Z" fill="#2c3778"/>
        <path id="Path_536" data-name="Path 536" d="M996.476-824.162h2.04V-813.7l4.9-5.161h2.3l-4.3,4.44,4.56,7.417h-2.328l-3.7-6-1.44,1.465V-807h-2.04Z" fill="#2c3778"/>
        <path id="Path_537" data-name="Path 537" d="M1013.359-814.993a6.481,6.481,0,0,1,.841-2.088,4.359,4.359,0,0,1,1.595-1.5,4.949,4.949,0,0,1,2.449-.564,4.253,4.253,0,0,1,3.348,1.332,5.8,5.8,0,0,1,1.188,3.972l-.048,1.153h-7.465v.12q0,4.27,3.1,4.272a3.711,3.711,0,0,0,1.344-.24,1.774,1.774,0,0,0,.912-.708,1.913,1.913,0,0,0,.288-1.021l-.024-.311,1.776.24.024.384a2.777,2.777,0,0,1-1.2,2.364,5.209,5.209,0,0,1-3.145.876,5.012,5.012,0,0,1-3.828-1.488,6.219,6.219,0,0,1-1.4-4.416A11.087,11.087,0,0,1,1013.359-814.993Zm3.48-2.28a2.782,2.782,0,0,0-.96,1.152,6.152,6.152,0,0,0-.515,1.921h5.256v-.385a3.585,3.585,0,0,0-.636-2.256,2.138,2.138,0,0,0-1.788-.816A2.43,2.43,0,0,0,1016.839-817.273Z" fill="#2c3778"/>
        <path id="Path_538" data-name="Path 538" d="M1024.363-818.857h2.112l2.736,7.753a9.536,9.536,0,0,1,.432,1.7h.1a16.211,16.211,0,0,1,.456-1.7l2.761-7.753h1.872L1030.555-807h-1.92Z" fill="#2c3778"/>
        <path id="Path_539" data-name="Path 539" d="M1036.59-814.993a6.5,6.5,0,0,1,.841-2.088,4.362,4.362,0,0,1,1.6-1.5,4.945,4.945,0,0,1,2.448-.564,4.253,4.253,0,0,1,3.349,1.332,5.8,5.8,0,0,1,1.187,3.972l-.048,1.153H1038.5v.12q0,4.27,3.1,4.272a3.711,3.711,0,0,0,1.344-.24,1.77,1.77,0,0,0,.912-.708,1.913,1.913,0,0,0,.288-1.021l-.023-.311,1.775.24.025.384a2.778,2.778,0,0,1-1.2,2.364,5.2,5.2,0,0,1-3.144.876,5.01,5.01,0,0,1-3.828-1.488,6.214,6.214,0,0,1-1.405-4.416A11.091,11.091,0,0,1,1036.59-814.993Zm3.481-2.28a2.775,2.775,0,0,0-.96,1.152,6.184,6.184,0,0,0-.516,1.921h5.256v-.385a3.585,3.585,0,0,0-.636-2.256,2.135,2.135,0,0,0-1.788-.816A2.426,2.426,0,0,0,1040.071-817.273Z" fill="#2c3778"/>
        <path id="Path_540" data-name="Path 540" d="M1049.059-818.857h1.584l.264,1.752a5.586,5.586,0,0,1,1.632-1.536,4.077,4.077,0,0,1,2.088-.5,3.607,3.607,0,0,1,2.569.9,3.567,3.567,0,0,1,.96,2.724V-807h-2.041v-8.161a2.452,2.452,0,0,0-.48-1.668,1.924,1.924,0,0,0-1.511-.54,4.1,4.1,0,0,0-1.453.276,4.674,4.674,0,0,0-1.572,1.116V-807h-2.04Z" fill="#2c3778"/>
        <path id="Path_541" data-name="Path 541" d="M1060.483-818.857h2.088l.36-3.384,1.656-.24v3.624h3.888v1.608h-3.888v6.673a4.05,4.05,0,0,0,.288,1.788,1.112,1.112,0,0,0,1.081.54,1.288,1.288,0,0,0,1.2-.6,2.524,2.524,0,0,0,.143-1.752l1.777.241a3.125,3.125,0,0,1-.6,2.676,3.286,3.286,0,0,1-2.592.972,3.185,3.185,0,0,1-2.532-.924,3.8,3.8,0,0,1-.8-2.58v-7.033h-2.064Z" fill="#2c3778"/>
        <path id="Path_542" data-name="Path 542" d="M1077.138-818.857h1.584l.239,1.632a4.348,4.348,0,0,1,3.649-1.92,3.833,3.833,0,0,1,2.184.66,4.514,4.514,0,0,1,1.573,1.98,8.241,8.241,0,0,1,.588,3.336,9.189,9.189,0,0,1-.445,3.024,5.316,5.316,0,0,1-1.176,2.017,4.562,4.562,0,0,1-1.595,1.08,4.684,4.684,0,0,1-1.7.336,3.313,3.313,0,0,1-2.856-1.272v5.928h-2.04Zm3.828,1.524a3.338,3.338,0,0,0-.972.48,5.354,5.354,0,0,0-.816.708v6.6a3.251,3.251,0,0,0,2.544,1.224,2.614,2.614,0,0,0,2.3-1.224,6.3,6.3,0,0,0,.816-3.505,5.872,5.872,0,0,0-.767-3.348,2.491,2.491,0,0,0-2.16-1.092A3.3,3.3,0,0,0,1080.966-817.333Z" fill="#2c3778"/>
        <path id="Path_543" data-name="Path 543" d="M1089.762-811.933a4.26,4.26,0,0,1,1.728-1.343,6.485,6.485,0,0,1,2.713-.517,3.772,3.772,0,0,1,1.992.385v-1.849q0-2.4-2.257-2.4a2.252,2.252,0,0,0-1.788.648,2.021,2.021,0,0,0-.275,1.872l-2.017-.24a3.028,3.028,0,0,1,.132-2,2.768,2.768,0,0,1,1.392-1.3,6.234,6.234,0,0,1,2.628-.468,4.541,4.541,0,0,1,3.229.96,3.9,3.9,0,0,1,1,2.928v5.9a2.926,2.926,0,0,0,.059.493.391.391,0,0,0,.445.324,1.079,1.079,0,0,0,.384-.084,1.092,1.092,0,0,0,.383-.252l.12,1.632a2.383,2.383,0,0,1-1.416.408,1.839,1.839,0,0,1-1.379-.5,1.986,1.986,0,0,1-.516-1.393,4.107,4.107,0,0,1-.889,1.117,3.226,3.226,0,0,1-1.236.7,4.575,4.575,0,0,1-1.308.2,4.082,4.082,0,0,1-2.016-.468,3.328,3.328,0,0,1-1.272-1.188,3.115,3.115,0,0,1-.432-1.632A3.209,3.209,0,0,1,1089.762-811.933Zm4.849,3.265a5.665,5.665,0,0,0,1.584-1.261v-2.351a11.425,11.425,0,0,0-1.273-.048q-3.624,0-3.624,2.208a1.614,1.614,0,0,0,.552,1.32,2.15,2.15,0,0,0,1.416.456A3.182,3.182,0,0,0,1094.611-808.668Z" fill="#2c3778"/>
        <path id="Path_544" data-name="Path 544" d="M1101.809-815.581a4.9,4.9,0,0,1,.937-1.932,4.3,4.3,0,0,1,1.572-1.212,4.958,4.958,0,0,1,2.076-.42,3.385,3.385,0,0,1,3.216,1.656l.96-1.488h.744v12.385a5.744,5.744,0,0,1-.252,1.656,3.952,3.952,0,0,1-.852,1.512,4.532,4.532,0,0,1-1.572,1.105,5.607,5.607,0,0,1-2.292.431,7.908,7.908,0,0,1-1.776-.216,4.885,4.885,0,0,1-1.62-.671,2.327,2.327,0,0,1-.937-1.164,2.282,2.282,0,0,1,.084-1.6l1.849-.192a1.758,1.758,0,0,0-.109.78,1.244,1.244,0,0,0,.4.757,2.242,2.242,0,0,0,.972.54,4.051,4.051,0,0,0,1.14.179,2.947,2.947,0,0,0,2.124-.768,3.22,3.22,0,0,0,.8-2.424v-2.568a3.738,3.738,0,0,1-1.308,1.188,3.784,3.784,0,0,1-1.86.444,4.979,4.979,0,0,1-1.692-.288,4.008,4.008,0,0,1-1.464-.936,4.452,4.452,0,0,1-1.044-1.752,7.987,7.987,0,0,1-.385-2.616A9.781,9.781,0,0,1,1101.809-815.581Zm7.465,5.077v-5.809a2.575,2.575,0,0,0-1.092-.876,3.756,3.756,0,0,0-1.524-.3,2.62,2.62,0,0,0-2.317,1.02,5.448,5.448,0,0,0-.708,3.084,5.583,5.583,0,0,0,.7,3.1,2.4,2.4,0,0,0,2.136,1.032A3.777,3.777,0,0,0,1109.274-810.5Z" fill="#2c3778"/>
        <path id="Path_545" data-name="Path 545" d="M1114.589-814.993a6.5,6.5,0,0,1,.841-2.088,4.362,4.362,0,0,1,1.6-1.5,4.945,4.945,0,0,1,2.448-.564,4.253,4.253,0,0,1,3.349,1.332,5.8,5.8,0,0,1,1.187,3.972l-.048,1.153H1116.5v.12q0,4.27,3.1,4.272a3.708,3.708,0,0,0,1.344-.24,1.77,1.77,0,0,0,.912-.708,1.913,1.913,0,0,0,.288-1.021l-.023-.311,1.775.24.025.384a2.778,2.778,0,0,1-1.2,2.364,5.2,5.2,0,0,1-3.144.876,5.01,5.01,0,0,1-3.828-1.488,6.215,6.215,0,0,1-1.4-4.416A11.091,11.091,0,0,1,1114.589-814.993Zm3.481-2.28a2.775,2.775,0,0,0-.96,1.152,6.181,6.181,0,0,0-.516,1.921h5.256v-.385a3.586,3.586,0,0,0-.636-2.256,2.135,2.135,0,0,0-1.788-.816A2.427,2.427,0,0,0,1118.07-817.273Z" fill="#2c3778"/>
      </g>
    </g>
    <path id="facebook" d="M892.649-834h-26.3a4.851,4.851,0,0,0-4.853,4.849v26.3A4.851,4.851,0,0,0,866.351-798h12.97l.022-12.864H876a.789.789,0,0,1-.789-.786l-.011-4.15a.79.79,0,0,1,.786-.792h3.339V-820.6c0-4.65,2.84-7.182,6.988-7.182h3.4a.789.789,0,0,1,.787.791v3.5a.789.789,0,0,1-.788.789h-2.086c-2.256,0-2.693,1.072-2.693,2.645v3.469h4.957a.79.79,0,0,1,.789.79.7.7,0,0,1-.006.091l-.492,4.147a.789.789,0,0,1-.783.7h-4.442L884.932-798h7.717a4.851,4.851,0,0,0,4.849-4.851v-26.3A4.851,4.851,0,0,0,892.649-834Z" fill="#4267b2"/>
    <g id="external-link-symbol">
      <g id="Group_27" data-name="Group 27">
        <path id="Path_437" data-name="Path 437" d="M1151.625-812.5h-.75a.361.361,0,0,0-.375.346v3.779a1.879,1.879,0,0,1-1.875,1.875h-9.75a1.809,1.809,0,0,1-1.324-.551,1.808,1.808,0,0,1-.551-1.324v-9.75a1.806,1.806,0,0,1,.551-1.324,1.805,1.805,0,0,1,1.324-.551h8.25a.361.361,0,0,0,.375-.347.134.134,0,0,0,0-.028v-.75a.361.361,0,0,0-.346-.375h-8.279a3.252,3.252,0,0,0-2.385.99,3.252,3.252,0,0,0-.99,2.385v9.75a3.254,3.254,0,0,0,.99,2.385,3.255,3.255,0,0,0,2.385.99h9.75a3.381,3.381,0,0,0,3.375-3.375v-3.75a.361.361,0,0,0-.348-.375Z" fill="#9ba0bf"/>
        <path id="Path_438" data-name="Path 438" d="M1156.277-822.777a.718.718,0,0,0-.527-.223h-6a.746.746,0,0,0-.749.743.754.754,0,0,0,.222.534l2.062,2.062-7.641,7.641a.369.369,0,0,0-.017.521l.017.018,1.336,1.336a.369.369,0,0,0,.522.017l.017-.017,7.641-7.641,2.063,2.062a.75.75,0,0,0,1.061-.007.744.744,0,0,0,.216-.52v-6A.716.716,0,0,0,1156.277-822.777Z" fill="#9ba0bf"/>
      </g>
    </g>
  </g>
</svg>
