<svg xmlns="http://www.w3.org/2000/svg" width="354.002" height="60" viewBox="0 0 354.002 60">
  <g id="Group_71" data-name="Group 71" transform="translate(-1220.498 846)">
    <rect id="Rectangle_15-2" data-name="Rectangle 15-2" width="354" height="60" rx="10" transform="translate(1220.5 -846)" fill="rgba(66,103,178,0)"/>
    <g id="Angular_Bangladesh_Group" data-name="Angular Bangladesh Group">
      <g id="Group_70" data-name="Group 70">
        <path id="Path_546" data-name="Path 546" d="M1274.717-823.321h2.184L1282.638-807h-2.3l-1.392-4.032h-6.6L1270.973-807H1269Zm-1.752,10.512h5.352l-1.728-5.016q-.456-1.272-.912-2.856h-.1q-.432,1.584-.888,2.856Z" fill="#2c3778"/>
        <path id="Path_547" data-name="Path 547" d="M1284.989-818.857h1.584l.263,1.752a5.609,5.609,0,0,1,1.632-1.536,4.08,4.08,0,0,1,2.089-.5,3.6,3.6,0,0,1,2.568.9,3.562,3.562,0,0,1,.96,2.724V-807h-2.041v-8.161a2.457,2.457,0,0,0-.479-1.668,1.924,1.924,0,0,0-1.512-.54,4.091,4.091,0,0,0-1.452.276,4.664,4.664,0,0,0-1.572,1.116V-807h-2.04Z" fill="#2c3778"/>
        <path id="Path_548" data-name="Path 548" d="M1297.348-815.581a4.912,4.912,0,0,1,.937-1.932,4.3,4.3,0,0,1,1.572-1.212,4.961,4.961,0,0,1,2.076-.42,3.385,3.385,0,0,1,3.216,1.656l.96-1.488h.744v12.385a5.74,5.74,0,0,1-.252,1.656,3.963,3.963,0,0,1-.851,1.512,4.547,4.547,0,0,1-1.573,1.105,5.607,5.607,0,0,1-2.292.431,7.908,7.908,0,0,1-1.776-.216,4.883,4.883,0,0,1-1.62-.671,2.326,2.326,0,0,1-.937-1.164,2.282,2.282,0,0,1,.084-1.6l1.849-.192a1.762,1.762,0,0,0-.109.78,1.244,1.244,0,0,0,.4.757,2.242,2.242,0,0,0,.972.54,4.052,4.052,0,0,0,1.14.179,2.947,2.947,0,0,0,2.124-.768,3.22,3.22,0,0,0,.8-2.424v-2.568a3.728,3.728,0,0,1-1.308,1.188,3.785,3.785,0,0,1-1.86.444,4.979,4.979,0,0,1-1.692-.288,4.015,4.015,0,0,1-1.464-.936,4.452,4.452,0,0,1-1.044-1.752,7.988,7.988,0,0,1-.385-2.616A9.775,9.775,0,0,1,1297.348-815.581Zm7.465,5.077v-5.809a2.567,2.567,0,0,0-1.092-.876,3.755,3.755,0,0,0-1.524-.3,2.621,2.621,0,0,0-2.317,1.02,5.448,5.448,0,0,0-.708,3.084,5.583,5.583,0,0,0,.7,3.1,2.4,2.4,0,0,0,2.136,1.032A3.776,3.776,0,0,0,1304.813-810.5Z" fill="#2c3778"/>
        <path id="Path_549" data-name="Path 549" d="M1310.452-818.857h2.04v8.161a2.55,2.55,0,0,0,.456,1.668,1.783,1.783,0,0,0,1.44.54,4.063,4.063,0,0,0,2.88-1.368v-9h2.041v10.128l.239,1.729h-1.632l-.48-1.7a4.319,4.319,0,0,1-3.456,1.992,3.614,3.614,0,0,1-2.592-.888,3.61,3.61,0,0,1-.936-2.736Z" fill="#2c3778"/>
        <path id="Path_550" data-name="Path 550" d="M1323-824.162h2.04v14.689q0,.89.84.889a1.586,1.586,0,0,0,.516-.12,1.785,1.785,0,0,0,.588-.36l.241,1.824a3.438,3.438,0,0,1-.805.288,4.188,4.188,0,0,1-1,.12,3.038,3.038,0,0,1-1.224-.24,1.987,1.987,0,0,1-.876-.72,2.146,2.146,0,0,1-.324-1.225Z" fill="#2c3778"/>
        <path id="Path_551" data-name="Path 551" d="M1329.195-811.933a4.26,4.26,0,0,1,1.728-1.343,6.485,6.485,0,0,1,2.713-.517,3.772,3.772,0,0,1,1.992.385v-1.849q0-2.4-2.257-2.4a2.252,2.252,0,0,0-1.788.648,2.021,2.021,0,0,0-.275,1.872l-2.017-.24a3.029,3.029,0,0,1,.132-2,2.772,2.772,0,0,1,1.392-1.3,6.234,6.234,0,0,1,2.628-.468,4.541,4.541,0,0,1,3.229.96,3.9,3.9,0,0,1,1,2.928v5.9a2.939,2.939,0,0,0,.06.493.39.39,0,0,0,.444.324,1.078,1.078,0,0,0,.384-.084,1.092,1.092,0,0,0,.383-.252l.121,1.632a2.388,2.388,0,0,1-1.416.408,1.84,1.84,0,0,1-1.38-.5,1.99,1.99,0,0,1-.516-1.393,4.089,4.089,0,0,1-.889,1.117,3.226,3.226,0,0,1-1.236.7,4.576,4.576,0,0,1-1.308.2,4.082,4.082,0,0,1-2.016-.468,3.328,3.328,0,0,1-1.272-1.188,3.115,3.115,0,0,1-.432-1.632A3.209,3.209,0,0,1,1329.195-811.933Zm4.849,3.265a5.665,5.665,0,0,0,1.584-1.261v-2.351a11.429,11.429,0,0,0-1.273-.048q-3.624,0-3.624,2.208a1.614,1.614,0,0,0,.552,1.32,2.15,2.15,0,0,0,1.416.456A3.182,3.182,0,0,0,1334.044-808.668Z" fill="#2c3778"/>
        <path id="Path_552" data-name="Path 552" d="M1341.579-818.857h1.584l.288,1.944a4.159,4.159,0,0,1,1.212-1.608,3.032,3.032,0,0,1,1.956-.624,2.559,2.559,0,0,1,1.14.264,2.107,2.107,0,0,1,.9.912,2.658,2.658,0,0,1,.324,1.44,3.758,3.758,0,0,1-.252,1.3l-1.8.216a3.776,3.776,0,0,0,.168-1.1,1.449,1.449,0,0,0-.264-.9,1.015,1.015,0,0,0-.864-.348,2.073,2.073,0,0,0-.96.264,2.387,2.387,0,0,0-.876.828,3.759,3.759,0,0,0-.516,1.116V-807h-2.04Z" fill="#2c3778"/>
        <path id="Path_553" data-name="Path 553" d="M1356.771-823.2h5.544a7.583,7.583,0,0,1,2.749.444,3.816,3.816,0,0,1,1.764,1.308,3.593,3.593,0,0,1,.624,2.16,3.368,3.368,0,0,1-.851,2.412,4.031,4.031,0,0,1-2.245,1.164v.048a4.592,4.592,0,0,1,2.676,1.261,3.728,3.728,0,0,1,.972,2.723,4.328,4.328,0,0,1-.672,2.437,4.73,4.73,0,0,1-1.92,1.632,6.52,6.52,0,0,1-2.9.612h-5.737Zm5.088,6.816q3.266,0,3.265-2.64a2.269,2.269,0,0,0-.744-1.86,3.544,3.544,0,0,0-2.28-.612h-3.168v5.112Zm.217,7.681a6.2,6.2,0,0,0,1.5-.216,2.88,2.88,0,0,0,1.476-.925,2.778,2.778,0,0,0,.624-1.907,3.133,3.133,0,0,0-.372-1.477,2.4,2.4,0,0,0-1.284-1.08,5.1,5.1,0,0,0-1.944-.372h-3.144v5.977Z" fill="#2c3778"/>
        <path id="Path_554" data-name="Path 554" d="M1370.835-811.933a4.253,4.253,0,0,1,1.728-1.343,6.48,6.48,0,0,1,2.712-.517,3.773,3.773,0,0,1,1.993.385v-1.849q0-2.4-2.257-2.4a2.25,2.25,0,0,0-1.788.648,2.024,2.024,0,0,0-.276,1.872l-2.016-.24a3.028,3.028,0,0,1,.132-2,2.768,2.768,0,0,1,1.392-1.3,6.234,6.234,0,0,1,2.628-.468,4.544,4.544,0,0,1,3.229.96,3.9,3.9,0,0,1,1,2.928v5.9a2.926,2.926,0,0,0,.059.493.391.391,0,0,0,.445.324,1.069,1.069,0,0,0,.383-.084,1.086,1.086,0,0,0,.384-.252l.12,1.632a2.385,2.385,0,0,1-1.416.408,1.84,1.84,0,0,1-1.38-.5,1.985,1.985,0,0,1-.515-1.393,4.107,4.107,0,0,1-.889,1.117,3.226,3.226,0,0,1-1.236.7,4.575,4.575,0,0,1-1.308.2,4.089,4.089,0,0,1-2.017-.468,3.332,3.332,0,0,1-1.271-1.188,3.116,3.116,0,0,1-.433-1.632A3.21,3.21,0,0,1,1370.835-811.933Zm4.849,3.265a5.679,5.679,0,0,0,1.584-1.261v-2.351a11.425,11.425,0,0,0-1.273-.048q-3.624,0-3.624,2.208a1.614,1.614,0,0,0,.552,1.32,2.15,2.15,0,0,0,1.416.456A3.186,3.186,0,0,0,1375.684-808.668Z" fill="#2c3778"/>
        <path id="Path_555" data-name="Path 555" d="M1383.22-818.857h1.584l.263,1.752a5.61,5.61,0,0,1,1.632-1.536,4.081,4.081,0,0,1,2.089-.5,3.6,3.6,0,0,1,2.567.9,3.559,3.559,0,0,1,.961,2.724V-807h-2.041v-8.161a2.458,2.458,0,0,0-.479-1.668,1.926,1.926,0,0,0-1.513-.54,4.089,4.089,0,0,0-1.451.276,4.663,4.663,0,0,0-1.572,1.116V-807h-2.04Z" fill="#2c3778"/>
        <path id="Path_556" data-name="Path 556" d="M1395.578-815.581a4.912,4.912,0,0,1,.937-1.932,4.3,4.3,0,0,1,1.572-1.212,4.961,4.961,0,0,1,2.076-.42,3.385,3.385,0,0,1,3.216,1.656l.96-1.488h.744v12.385a5.744,5.744,0,0,1-.252,1.656,3.954,3.954,0,0,1-.852,1.512,4.534,4.534,0,0,1-1.572,1.105,5.607,5.607,0,0,1-2.292.431,7.908,7.908,0,0,1-1.776-.216,4.884,4.884,0,0,1-1.62-.671,2.326,2.326,0,0,1-.937-1.164,2.282,2.282,0,0,1,.084-1.6l1.849-.192a1.762,1.762,0,0,0-.109.78,1.243,1.243,0,0,0,.4.757,2.242,2.242,0,0,0,.972.54,4.052,4.052,0,0,0,1.14.179,2.947,2.947,0,0,0,2.124-.768,3.22,3.22,0,0,0,.8-2.424v-2.568a3.736,3.736,0,0,1-1.308,1.188,3.785,3.785,0,0,1-1.86.444,4.979,4.979,0,0,1-1.692-.288,4.007,4.007,0,0,1-1.464-.936,4.45,4.45,0,0,1-1.044-1.752,7.984,7.984,0,0,1-.385-2.616A9.775,9.775,0,0,1,1395.578-815.581Zm7.465,5.077v-5.809a2.573,2.573,0,0,0-1.092-.876,3.756,3.756,0,0,0-1.524-.3,2.62,2.62,0,0,0-2.317,1.02,5.448,5.448,0,0,0-.708,3.084,5.583,5.583,0,0,0,.7,3.1,2.4,2.4,0,0,0,2.136,1.032A3.776,3.776,0,0,0,1403.043-810.5Z" fill="#2c3778"/>
        <path id="Path_557" data-name="Path 557" d="M1408.755-824.162h2.04v14.689q0,.89.84.889a1.586,1.586,0,0,0,.516-.12,1.8,1.8,0,0,0,.588-.36l.24,1.824a3.427,3.427,0,0,1-.8.288,4.188,4.188,0,0,1-1,.12,3.038,3.038,0,0,1-1.224-.24,1.989,1.989,0,0,1-.876-.72,2.147,2.147,0,0,1-.324-1.225Z" fill="#2c3778"/>
        <path id="Path_558" data-name="Path 558" d="M1414.946-811.933a4.259,4.259,0,0,1,1.728-1.343,6.485,6.485,0,0,1,2.713-.517,3.772,3.772,0,0,1,1.992.385v-1.849q0-2.4-2.257-2.4a2.252,2.252,0,0,0-1.788.648,2.021,2.021,0,0,0-.275,1.872l-2.017-.24a3.029,3.029,0,0,1,.132-2,2.768,2.768,0,0,1,1.392-1.3,6.233,6.233,0,0,1,2.628-.468,4.541,4.541,0,0,1,3.229.96,3.9,3.9,0,0,1,1,2.928v5.9a2.839,2.839,0,0,0,.06.493.39.39,0,0,0,.444.324,1.078,1.078,0,0,0,.384-.084,1.091,1.091,0,0,0,.383-.252l.121,1.632a2.388,2.388,0,0,1-1.416.408,1.84,1.84,0,0,1-1.38-.5,1.99,1.99,0,0,1-.516-1.393,4.087,4.087,0,0,1-.889,1.117,3.226,3.226,0,0,1-1.236.7,4.576,4.576,0,0,1-1.308.2,4.082,4.082,0,0,1-2.016-.468,3.328,3.328,0,0,1-1.272-1.188,3.115,3.115,0,0,1-.432-1.632A3.208,3.208,0,0,1,1414.946-811.933Zm4.849,3.265a5.667,5.667,0,0,0,1.584-1.261v-2.351a11.429,11.429,0,0,0-1.273-.048q-3.624,0-3.624,2.208a1.614,1.614,0,0,0,.552,1.32,2.149,2.149,0,0,0,1.416.456A3.183,3.183,0,0,0,1419.8-808.668Z" fill="#2c3778"/>
        <path id="Path_559" data-name="Path 559" d="M1427.127-815.713a5.32,5.32,0,0,1,1.176-2.016,4.553,4.553,0,0,1,1.595-1.08,4.688,4.688,0,0,1,1.705-.336,3.249,3.249,0,0,1,2.856,1.3v-6.313h2.04v15.433l.24,1.729h-1.632l-.408-1.464a4.024,4.024,0,0,1-3.432,1.752,5.35,5.35,0,0,1-1.3-.18,3.526,3.526,0,0,1-1.332-.66,4.54,4.54,0,0,1-1.044-1.164,5.578,5.578,0,0,1-.672-1.692,9.879,9.879,0,0,1-.24-2.28A9.183,9.183,0,0,1,1427.127-815.713Zm6.144,7.021a4.516,4.516,0,0,0,1.188-.876v-6.721a3.273,3.273,0,0,0-2.544-1.2,2.629,2.629,0,0,0-2.305,1.2,6.181,6.181,0,0,0-.815,3.48,5.915,5.915,0,0,0,.78,3.372,2.479,2.479,0,0,0,2.148,1.117A3.277,3.277,0,0,0,1433.271-808.692Z" fill="#2c3778"/>
        <path id="Path_560" data-name="Path 560" d="M1439.8-814.993a6.48,6.48,0,0,1,.841-2.088,4.359,4.359,0,0,1,1.595-1.5,4.949,4.949,0,0,1,2.449-.564,4.253,4.253,0,0,1,3.348,1.332,5.8,5.8,0,0,1,1.188,3.972l-.048,1.153h-7.465v.12q0,4.27,3.1,4.272a3.706,3.706,0,0,0,1.343-.24,1.773,1.773,0,0,0,.913-.708,1.913,1.913,0,0,0,.288-1.021l-.024-.311,1.776.24.024.384a2.777,2.777,0,0,1-1.2,2.364,5.209,5.209,0,0,1-3.145.876,5.012,5.012,0,0,1-3.828-1.488,6.219,6.219,0,0,1-1.4-4.416A11.091,11.091,0,0,1,1439.8-814.993Zm3.48-2.28a2.782,2.782,0,0,0-.96,1.152,6.152,6.152,0,0,0-.515,1.921h5.256v-.385a3.585,3.585,0,0,0-.636-2.256,2.138,2.138,0,0,0-1.788-.816A2.43,2.43,0,0,0,1443.278-817.273Z" fill="#2c3778"/>
        <path id="Path_561" data-name="Path 561" d="M1453.4-810.576a2.19,2.19,0,0,0-.073.528,1.769,1.769,0,0,0,.264.888,1.724,1.724,0,0,0,.925.708,4.246,4.246,0,0,0,1.523.252,2.887,2.887,0,0,0,1.849-.492,1.539,1.539,0,0,0,.6-1.237,1.7,1.7,0,0,0-.071-.467,1.172,1.172,0,0,0-.288-.48,2.6,2.6,0,0,0-.589-.444,15.12,15.12,0,0,0-1.979-.769,6.927,6.927,0,0,1-3-1.607,3.065,3.065,0,0,1-.743-2.065,2.914,2.914,0,0,1,1.211-2.5,5.342,5.342,0,0,1,3.228-.888,7.806,7.806,0,0,1,1.813.24,3.34,3.34,0,0,1,1.692.984,2.6,2.6,0,0,1,.7,1.848l-.049.7-2.015.24a3.431,3.431,0,0,0,.072-.672,1.832,1.832,0,0,0-.24-.876,1.675,1.675,0,0,0-.84-.708,3.432,3.432,0,0,0-1.393-.264,2.437,2.437,0,0,0-1.572.456,1.467,1.467,0,0,0-.563,1.2,1.724,1.724,0,0,0,.131.672,1.694,1.694,0,0,0,.516.624,7.792,7.792,0,0,0,1.944.841c.08.031.329.115.745.252s.843.3,1.284.479a3.933,3.933,0,0,1,1.116.685,3.119,3.119,0,0,1,.72.935,2.956,2.956,0,0,1,.264,1.321,3,3,0,0,1-1.272,2.544,5.586,5.586,0,0,1-3.385.936,7.249,7.249,0,0,1-2.184-.324,3.785,3.785,0,0,1-1.632-.948,2.1,2.1,0,0,1-.6-1.512,2.954,2.954,0,0,1,.144-.889Z" fill="#2c3778"/>
        <path id="Path_562" data-name="Path 562" d="M1470.89-815.161a2.377,2.377,0,0,0-.5-1.668,2.181,2.181,0,0,0-1.657-.54,4.289,4.289,0,0,0-1.475.276,4.8,4.8,0,0,0-1.62,1.116V-807h-2.04v-17.162h2.04v6.937a4.918,4.918,0,0,1,1.548-1.44,4.117,4.117,0,0,1,2.051-.48,4.832,4.832,0,0,1,1.909.372,2.635,2.635,0,0,1,1.332,1.236,4.259,4.259,0,0,1,.456,2.016V-807h-2.04Z" fill="#2c3778"/>
        <path id="Path_563" data-name="Path 563" d="M1488.577-814.705h5.521V-807h-1.752v-2.232a4.46,4.46,0,0,1-1.6,1.836,4.39,4.39,0,0,1-2.461.684,7.47,7.47,0,0,1-2.8-.5,5.344,5.344,0,0,1-2.137-1.548,7.317,7.317,0,0,1-1.355-2.665,13.261,13.261,0,0,1-.48-3.756,13.009,13.009,0,0,1,.48-3.732,6.765,6.765,0,0,1,1.38-2.6,5.44,5.44,0,0,1,2.172-1.488,7.95,7.95,0,0,1,2.833-.48,9.074,9.074,0,0,1,2.172.263,4.633,4.633,0,0,1,1.847.9,3.92,3.92,0,0,1,1.177,1.656,4.883,4.883,0,0,1,.2,2.436l-2.184.216q.528-3.84-3.265-3.84-4.488,0-4.488,6.7a11.709,11.709,0,0,0,.516,3.816,4.435,4.435,0,0,0,1.5,2.185,4.119,4.119,0,0,0,2.5.72,3.927,3.927,0,0,0,2.7-.865,3.269,3.269,0,0,0,1.02-2.471v-1.248h-3.505Z" fill="#2c3778"/>
        <path id="Path_564" data-name="Path 564" d="M1497.434-818.857h1.584l.288,1.944a4.15,4.15,0,0,1,1.212-1.608,3.028,3.028,0,0,1,1.956-.624,2.555,2.555,0,0,1,1.139.264,2.109,2.109,0,0,1,.9.912,2.667,2.667,0,0,1,.324,1.44,3.808,3.808,0,0,1-.252,1.3l-1.8.216a3.776,3.776,0,0,0,.168-1.1,1.449,1.449,0,0,0-.264-.9,1.013,1.013,0,0,0-.864-.348,2.073,2.073,0,0,0-.96.264,2.387,2.387,0,0,0-.876.828,3.731,3.731,0,0,0-.515,1.116V-807h-2.04Z" fill="#2c3778"/>
        <path id="Path_565" data-name="Path 565" d="M1506.973-815.785a4.986,4.986,0,0,1,1.044-1.932,4.1,4.1,0,0,1,1.6-1.08,5.72,5.72,0,0,1,2.029-.348,5.7,5.7,0,0,1,2.064.36,4.14,4.14,0,0,1,1.608,1.1,5.1,5.1,0,0,1,1.044,1.956,9.732,9.732,0,0,1,.372,2.844,8.55,8.55,0,0,1-.576,3.36,4.575,4.575,0,0,1-1.679,2.077,4.9,4.9,0,0,1-2.761.732,5.888,5.888,0,0,1-2.065-.348,4.072,4.072,0,0,1-1.62-1.1,5.128,5.128,0,0,1-1.055-1.968,9.735,9.735,0,0,1-.372-2.845A9.517,9.517,0,0,1,1506.973-815.785Zm6.912,6.348a6.835,6.835,0,0,0,.732-3.467,6.888,6.888,0,0,0-.744-3.493,2.428,2.428,0,0,0-2.232-1.26,2.4,2.4,0,0,0-2.2,1.212,6.716,6.716,0,0,0-.731,3.444,8.41,8.41,0,0,0,.359,2.665,3.436,3.436,0,0,0,1.021,1.6,2.436,2.436,0,0,0,1.595.54A2.39,2.39,0,0,0,1513.885-809.437Z" fill="#2c3778"/>
        <path id="Path_566" data-name="Path 566" d="M1519.681-818.857h2.04v8.161a2.55,2.55,0,0,0,.456,1.668,1.783,1.783,0,0,0,1.44.54,4.061,4.061,0,0,0,2.88-1.368v-9h2.041v10.128l.239,1.729h-1.631l-.481-1.7a4.319,4.319,0,0,1-3.456,1.992,3.614,3.614,0,0,1-2.592-.888,3.61,3.61,0,0,1-.936-2.736Z" fill="#2c3778"/>
        <path id="Path_567" data-name="Path 567" d="M1532.257-818.857h1.584l.239,1.632a4.346,4.346,0,0,1,3.649-1.92,3.835,3.835,0,0,1,2.184.66,4.513,4.513,0,0,1,1.572,1.98,8.226,8.226,0,0,1,.588,3.336,9.19,9.19,0,0,1-.444,3.024,5.329,5.329,0,0,1-1.176,2.017,4.557,4.557,0,0,1-1.6,1.08,4.68,4.68,0,0,1-1.705.336,3.313,3.313,0,0,1-2.855-1.272v5.928h-2.04Zm3.828,1.524a3.344,3.344,0,0,0-.973.48,5.393,5.393,0,0,0-.815.708v6.6a3.251,3.251,0,0,0,2.544,1.224,2.614,2.614,0,0,0,2.3-1.224,6.306,6.306,0,0,0,.816-3.505,5.864,5.864,0,0,0-.768-3.348,2.488,2.488,0,0,0-2.16-1.092A3.3,3.3,0,0,0,1536.085-817.333Z" fill="#2c3778"/>
      </g>
    </g>
    <path id="facebook-2" d="M1251.649-834h-26.3a4.851,4.851,0,0,0-4.853,4.849v26.3a4.851,4.851,0,0,0,4.853,4.849h12.97l.022-12.864H1235a.789.789,0,0,1-.789-.786l-.011-4.15a.79.79,0,0,1,.786-.792h3.339V-820.6c0-4.65,2.84-7.182,6.988-7.182h3.4a.789.789,0,0,1,.787.791v3.5a.789.789,0,0,1-.788.789h-2.086c-2.256,0-2.693,1.072-2.693,2.645v3.469h4.957a.79.79,0,0,1,.789.79.691.691,0,0,1-.006.091l-.492,4.147a.789.789,0,0,1-.783.7h-4.442L1243.932-798h7.717a4.851,4.851,0,0,0,4.849-4.851v-26.3A4.851,4.851,0,0,0,1251.649-834Z" fill="#4267b2"/>
    <g id="external-link-symbol-2">
      <g id="Group_27-2" data-name="Group 27-2">
        <path id="Path_437-2" data-name="Path 437-2" d="M1569.625-812.5h-.75a.361.361,0,0,0-.375.346v3.779a1.879,1.879,0,0,1-1.875,1.875h-9.75a1.809,1.809,0,0,1-1.324-.551,1.808,1.808,0,0,1-.551-1.324v-9.75a1.806,1.806,0,0,1,.551-1.324,1.805,1.805,0,0,1,1.324-.551h8.25a.361.361,0,0,0,.375-.347.134.134,0,0,0,0-.028v-.75a.361.361,0,0,0-.346-.375h-8.279a3.252,3.252,0,0,0-2.385.99,3.252,3.252,0,0,0-.99,2.385v9.75a3.254,3.254,0,0,0,.99,2.385,3.255,3.255,0,0,0,2.385.99h9.75a3.381,3.381,0,0,0,3.375-3.375v-3.75a.361.361,0,0,0-.348-.375Z" fill="#9ba0bf"/>
        <path id="Path_438-2" data-name="Path 438-2" d="M1574.277-822.777a.718.718,0,0,0-.527-.223h-6a.746.746,0,0,0-.749.743.754.754,0,0,0,.222.534l2.062,2.062-7.641,7.641a.369.369,0,0,0-.017.521l.017.018,1.336,1.336a.369.369,0,0,0,.522.017l.017-.017,7.641-7.641,2.063,2.062a.75.75,0,0,0,1.061-.007.744.744,0,0,0,.216-.52v-6A.716.716,0,0,0,1574.277-822.777Z" fill="#9ba0bf"/>
      </g>
    </g>
  </g>
</svg>
