<svg xmlns="http://www.w3.org/2000/svg" width="295" height="60" viewBox="0 0 295 60">
  <g id="Group_25" data-name="Group 25" transform="translate(-3010 -2902)">
    <rect id="Rectangle_15" data-name="Rectangle 15" width="295" height="60" rx="10" transform="translate(3010 2902)" fill="#4267b2" opacity="0"/>
    <text id="Facebook_event_page" data-name="Facebook event page" transform="translate(3058 2941)" fill="#2c3778" font-size="24" font-family="TensoW00-Regular"><tspan x="0" y="0">Facebook event page</tspan></text>
    <path id="facebook" d="M31.151,0H4.853A4.851,4.851,0,0,0,0,4.851v26.3A4.851,4.851,0,0,0,4.853,36h12.97l.022-12.864H14.5a.789.789,0,0,1-.789-.786L13.7,18.2a.789.789,0,0,1,.789-.792h3.336V13.4c0-4.65,2.84-7.182,6.988-7.182h3.4A.789.789,0,0,1,29,7.012v3.5a.789.789,0,0,1-.788.789H26.126c-2.256,0-2.693,1.072-2.693,2.645v3.469H28.39a.789.789,0,0,1,.783.881l-.492,4.147a.789.789,0,0,1-.783.7H23.456L23.434,36h7.717A4.851,4.851,0,0,0,36,31.149V4.851A4.851,4.851,0,0,0,31.151,0Z" transform="translate(3009.998 2914)" fill="#4267b2"/>
    <g id="external-link-symbol" transform="translate(3284 2888.453)">
      <g id="Group_27" data-name="Group 27" transform="translate(0 36.547)">
        <path id="Path_437" data-name="Path 437" d="M16.125,82.09h-.75a.361.361,0,0,0-.375.375v3.75a1.88,1.88,0,0,1-1.875,1.875H3.375a1.806,1.806,0,0,1-1.324-.551A1.805,1.805,0,0,1,1.5,86.215v-9.75a1.805,1.805,0,0,1,.551-1.324,1.806,1.806,0,0,1,1.324-.551h8.25A.361.361,0,0,0,12,74.215v-.75a.361.361,0,0,0-.375-.375H3.375a3.251,3.251,0,0,0-2.385.99A3.251,3.251,0,0,0,0,76.465v9.75A3.25,3.25,0,0,0,.99,88.6a3.251,3.251,0,0,0,2.385.99h9.75A3.381,3.381,0,0,0,16.5,86.215v-3.75a.362.362,0,0,0-.375-.375Z" transform="translate(0 -71.59)" fill="rgba(44,55,120,0.47)"/>
        <path id="Path_438" data-name="Path 438" d="M208.318,36.77a.721.721,0,0,0-.527-.223h-6a.746.746,0,0,0-.527,1.277l2.062,2.062-7.641,7.641a.369.369,0,0,0,0,.539l1.336,1.336a.369.369,0,0,0,.539,0l7.641-7.641,2.063,2.062a.75.75,0,0,0,1.277-.527v-6A.721.721,0,0,0,208.318,36.77Z" transform="translate(-187.541 -36.547)" fill="rgba(44,55,120,0.47)"/>
      </g>
    </g>
  </g>
</svg>
