<svg xmlns="http://www.w3.org/2000/svg" width="260" height="60" viewBox="0 0 260 60">
  <g id="Group_21" data-name="Group 21" transform="translate(-2995 -2902)">
    <rect id="Rectangle_15" data-name="Rectangle 15" width="260" height="60" rx="10" transform="translate(2995 2902)" fill="#1b95e0"/>
    <path id="twitter" d="M37.859,38.214a15.233,15.233,0,0,1-2.652.895,8.27,8.27,0,0,0,2.183-3.477h0a.434.434,0,0,0-.634-.505h0A15.306,15.306,0,0,1,32.7,36.8a1.033,1.033,0,0,1-.253.032,1.075,1.075,0,0,1-.71-.271,8.294,8.294,0,0,0-5.488-2.071,8.867,8.867,0,0,0-2.628.406,8.035,8.035,0,0,0-5.415,5.789,8.848,8.848,0,0,0-.2,3.054.3.3,0,0,1-.075.233.307.307,0,0,1-.229.1h-.029A21.747,21.747,0,0,1,2.729,36.089h0a.434.434,0,0,0-.711.056h0A8.3,8.3,0,0,0,3.367,46.227a7.432,7.432,0,0,1-1.892-.732h0a.434.434,0,0,0-.644.374h0a8.3,8.3,0,0,0,4.844,7.651l-.177,0a7.463,7.463,0,0,1-1.4-.133h0a.434.434,0,0,0-.494.558h0A8.312,8.312,0,0,0,10.172,59.6,15.3,15.3,0,0,1,1.6,62.2H.641a.635.635,0,0,0-.621.479.657.657,0,0,0,.314.726,22.764,22.764,0,0,0,11.439,3.084,23.076,23.076,0,0,0,9.775-2.074A21.586,21.586,0,0,0,28.7,59.058a23.5,23.5,0,0,0,4.379-7.335A23.17,23.17,0,0,0,34.569,43.7v-.126a1.411,1.411,0,0,1,.528-1.1,16.393,16.393,0,0,0,3.3-3.62h0a.434.434,0,0,0-.536-.637Z" transform="translate(3011 2881.509)" fill="#fff"/>
    <text id="Tweet_on_Twitter" data-name="Tweet on Twitter" transform="translate(3060 2941)" fill="#fff" font-size="24" font-family="TensoW00-Regular"><tspan x="0" y="0">Tweet on Twitter</tspan></text>
  </g>
</svg>
